<svg xmlns="http://www.w3.org/2000/svg" viewBox="0 0 60 60"><defs><style>.cls-1{fill:#1b7985;}.cls-2{fill:#0c1a37;}.cls-3{fill:#004c54;}.cls-4{fill:#005587;}.cls-5{fill:#f47d20;}.cls-6{fill:#b55d13;}.cls-7{fill:#007b9f;}.cls-8{fill:none;stroke:#000;stroke-miterlimit:10;stroke-width:1.01px;}</style></defs><title>Artboard60xIOS</title><g id="Layer_5" data-name="Layer 5"><path class="cls-1" d="M19.64,15.91l-.31-.05a.57.57,0,0,0-.83.34l-.08,0,.69.89c.21-.24,1.06-1.47,1.35-1.49-.37-.13-.35,0,0,.39l.54.87,2.18,3.49a.57.57,0,0,0,1-.57l-1.11-2-.89.68c.37.33,1.1.89,1.23,1.39.25.91-.83,1.25-1.39,1.6l.78.2-1.54-2.57c-.28-.46-1.65-2.17-1.54-2.63l-.55.41c.55,0,1.55,2.18,1.8,2.64a5.51,5.51,0,0,0,1.47,1.81.58.58,0,0,0,.86-.49c-.07-2.18-1.94-4-2.82-5.9l-1,.57.13.24a.57.57,0,0,0,1-.58L20.5,15c-.37-.64-1.28-.08-1,.57A20.7,20.7,0,0,0,21,18.17a5.12,5.12,0,0,1,1.2,2.68l.86-.49c-1-.77-1.45-2.23-2.16-3.25-.42-.61-.85-1.43-1.69-1.35a.58.58,0,0,0-.54.42c-.21.86.52,1.62.94,2.33l2.24,3.75a.57.57,0,0,0,.78.2c.77-.47,2.33-1,2.24-2.13s-1.15-2-1.85-2.64a.57.57,0,0,0-.89.69l1.11,2,1-.57L22.43,17A9.69,9.69,0,0,0,21,14.72c-1.06-.87-2.11,1-2.68,1.6a.58.58,0,0,0,.69.9.91.91,0,0,0,.6-.71l-.83.34a1.59,1.59,0,0,0,.88.2c.73,0,.73-1.16,0-1.14Z"/><path class="cls-1" d="M22.43,20.41l.61.36a.57.57,0,0,0,.85-.49v-.22c0-.73-1.16-.74-1.13,0v.22l.85-.49L23,19.42a.57.57,0,0,0-.57,1Z"/><path class="cls-1" d="M23.9,22.77l.53.53a.58.58,0,0,0,.95-.56,1.62,1.62,0,0,0-.43-.9.57.57,0,0,0-1,.57c.5,1,.16,1.6-.41,2.41a1.28,1.28,0,0,0-.23.52c-.1.68.45,1.1.85,1.55.88,1,1.72,3.5,3.4,2.79,1-.41,3.25-1.81,3.26-3.09,0-.75-.82-1.51-1.22-2.1a12.44,12.44,0,0,0-1.95-2.64.62.62,0,0,0-.69-.09,7.07,7.07,0,0,0-1.8,1.52c-.45.44-1.27,1.12-1.4,1.78-.27,1.33,1.74,2.93,2.57,3.65.47.41,1.25-.1.9-.68a11.32,11.32,0,0,1-1.72-3.57l-.14.55c.21-.24,1.1-1.09,1.45-1s1.28,1.7,1.41,2a.94.94,0,0,1-.07,1.13s-.84.64-.76.65c-.49-.08-1.43-2.72-1.36-3l-.95.25a31.19,31.19,0,0,1,2.2,3,.57.57,0,0,0,1-.58c-.57-1.22-1.16-2.44-1.77-3.64l-1,.57,1.95,3.09c.33.53,1.25.2,1-.44a18.93,18.93,0,0,0-1.6-3.56l-1,.58,1.61,2.49a.57.57,0,0,0,1-.58,22.8,22.8,0,0,0-1.26-2.46l-1,.57c.54.9,1.1,1.8,1.67,2.68l1-.57-.45-.69c-.39-.61-1.38,0-1,.58l.45.68c.39.61,1.38,0,1-.57-.57-.89-1.13-1.78-1.66-2.68a.57.57,0,0,0-1,.57,21.33,21.33,0,0,1,1.27,2.47l1-.58-1.61-2.49a.57.57,0,0,0-1,.58,17.07,17.07,0,0,1,1.48,3.29l1-.44-1.95-3.09a.57.57,0,0,0-1,.57c.61,1.21,1.2,2.42,1.77,3.65l1-.58a34.15,34.15,0,0,0-2.37-3.25.57.57,0,0,0-1,.25c-.28,1.05.26,1.83.78,2.71.32.54.67,1.65,1.46,1.7a4.1,4.1,0,0,0,2.23-1.27c.61-.73.23-1.48-.2-2.2s-.76-1.19-1.14-1.78c-.19-.3-.42-.85-.77-1-.63-.3-1.18.32-1.64.67s-1.37.79-1.23,1.63a12,12,0,0,0,1.81,3.66l.89-.69c-.74-.63-2.15-1.7-2-2.68a5.22,5.22,0,0,1,2.37-2.48l-.69-.09a11.09,11.09,0,0,1,1.62,2.19l.59.86.3.43c.37.23.41.45.12.67a3.73,3.73,0,0,1-1.71,1.44c-1.09.51-1.28-.25-1.85-1-.33-.46-.79-.85-1.11-1.32s-.06-.56.29-1c.74-1,.31-2.09-.17-3.05l-1,.57.31.63.95-.55L24.71,22a.57.57,0,0,0-.81.81Z"/><path class="cls-1" d="M18.46,13.06l-.12-.28-1,.57,1.17,1.57.89-.69-1.3-1.35a.57.57,0,0,0-.89.69,12.45,12.45,0,0,0,1.07,1.51c.42.49,1.24-.15.9-.69l-1.31-2.06a3.1,3.1,0,0,0-.9-1.15c-1-.52-1.42.66-1.72,1.35-.2.46.25,1.13.78.78l1.28-.88-.69-.89c-.24.19-1.89,1.75-1.9.71,0-.47,1.63-1.49,2-1.81L16,9.64a1.17,1.17,0,0,1-1.65.26v1l2.32-1.34-.69-.08c.35.41.76,1.13,1.4,1a4.83,4.83,0,0,0,.5-.29c.17-.24.15-.13,0,.34a1.26,1.26,0,0,1-.88.87l.65.84.57-1.22a.58.58,0,0,0-.78-.78A6.88,6.88,0,0,0,16,11a4.66,4.66,0,0,0-.49.39,2.23,2.23,0,0,0-.27.26c-.22.13-.17.23.14.28v.58A3.34,3.34,0,0,1,17,11.15c.66-.32.08-1.3-.57-1s-2.78,1.64-1.89,2.6a.84.84,0,0,0,1.11.09,6.37,6.37,0,0,0,.81-.75,6.33,6.33,0,0,1,1.47-.85l-.78-.78-.57,1.22c-.19.41.14,1,.65.84,1.09-.4,2.24-1.7,1.61-2.94A1.12,1.12,0,0,0,17.55,9c-.25.08-.35.3-.54.41.4.06.44,0,.13-.26l-.41-.48A.57.57,0,0,0,16,8.57L13.72,9.9a.58.58,0,0,0,0,1,2.28,2.28,0,0,0,3-.45.57.57,0,0,0-.81-.8,10.33,10.33,0,0,0-2.28,1.91c-.4.61,0,1.34.42,1.85,1,1.33,2.43-.34,3.36-1.06.5-.39-.16-1.26-.69-.89l-1.29.87.78.78c0,.06.46-1,.22-.88a7.52,7.52,0,0,1,.54.86L18.22,15l.89-.69a9.4,9.4,0,0,1-.9-1.27l-.89.69L18.62,15c.43.45,1.28-.16.89-.69l-1.17-1.56a.57.57,0,0,0-1,.57l.12.28c.29.67,1.27.09,1-.57Z"/><path class="cls-1" d="M18.24,9.92c-.29,0-.22-.09-.22.21v.5a.57.57,0,0,0,1.14,0c0-.76.05-1.75-.92-1.84-.73-.07-.73,1.06,0,1.13Z"/><path class="cls-2" d="M32.7,29.84l.77-1.15c.39-.57-.42-1.07-.89-.69l-1,.6.64.83.18-.22c.47-.36.23-1.25-.44-1l-.55.17.55.95a2.45,2.45,0,0,1,.81-.65l-.57-1-.66.43.69.9c.88-.77,1.76-1.54,2.67-2.28.58-.48,1.18-1,1.79-1.41.28-.21,1.38-1.24,1.43,0,0,.22-1.4,1.09-1.59,1.24l-1.33,1c-1,.78-2.09,1.54-3.14,2.29l.85.49c.12-1.25,1.4-2.07,2.27-2.83l2.65-2.3c.56-.48-.25-1.27-.8-.81L32.71,28c-.49.41.17,1.29.69.9l2.42-1.84c.27-.21,2.45-1.57,2.42-1.84-.09-1-1.85.77-2.1,1L33.7,28.34c-.56.47.25,1.27.8.8,1.22-1,2.46-2.07,3.67-3.13.44-.4,1.19-1.07.58-1.69s-1.27.1-1.74.46L32.82,28l.69.9,4.32-3.65-.8-.81c-1.29,1.12-2.63,2.19-3.86,3.37a3.88,3.88,0,0,0-1.4,2.57.58.58,0,0,0,.86.49q2.74-2,5.42-4c.86-.66,2.18-1.78,1.21-2.94-.75-.9-1.91-.4-2.71.13a54.07,54.07,0,0,0-5.13,4.18c-.48.42.16,1.25.69.9l.66-.44c.61-.4.06-1.36-.57-1a4.18,4.18,0,0,0-1,.83.57.57,0,0,0,.55,1l.55-.17-.44-1a2,2,0,0,0-.58.63c-.24.39.16,1,.64.83a5.38,5.38,0,0,0,1.5-.88l-.89-.69-.77,1.14c-.41.61.57,1.18,1,.58Z"/><path class="cls-2" d="M39,23.78l.06-.34A.57.57,0,0,0,38,23a2,2,0,0,0-.28.56c-.24.7.86,1,1.1.3a.72.72,0,0,1,.17-.29l-1-.43-.07.34c-.14.71,1,1,1.1.3Z"/><path class="cls-2" d="M41.18,21.8a3.77,3.77,0,0,1,.53.79l.78-.78a1.25,1.25,0,0,1-.55-.67c-.25-.68-1.33-.4-1.1.3A6.22,6.22,0,0,0,41.63,23c.42.59,1.4,0,1-.58a5.07,5.07,0,0,1-.67-1.31l-1.1.3a2.58,2.58,0,0,0,1.07,1.36c.51.32,1-.3.78-.78a5.19,5.19,0,0,0-.7-1c-.48-.55-1.28.26-.81.81Z"/><path class="cls-2" d="M41.28,20.8h0a.58.58,0,0,0-.42.54v0a.6.6,0,0,0,.42.55h0c.69.24,1-.86.3-1.09h0l.42.55v0l-.42.55h0c.68-.24.39-1.34-.3-1.09Z"/><path class="cls-2" d="M41.27,20.59h-.09a.57.57,0,0,0,0,1.14h.09a.57.57,0,0,0,0-1.14Z"/><path class="cls-2" d="M44.28,18.83a4,4,0,0,0,1.15,1.72l.68-.9a1.82,1.82,0,0,1-.62-.48,2.11,2.11,0,0,1-.21-.31c-.09-.17-.05-.38-.2-.1l-.64.27h0l-.34-.26v0l.09-.69,0,0c-.55.48.26,1.28.8.8l0,0a.57.57,0,0,0,.09-.68.55.55,0,0,0-.4-.31.58.58,0,0,0-.64.26,1.42,1.42,0,0,0,.28,1.37,3.16,3.16,0,0,0,1.16,1.08c.54.29,1.2-.46.69-.9a2.79,2.79,0,0,1-.85-1.21c-.24-.69-1.34-.39-1.1.3Z"/><path class="cls-2" d="M44,19.17a7.78,7.78,0,0,0,1.14,1.7c.48.55,1.29-.26.81-.81a6.51,6.51,0,0,1-1-1.46c-.33-.65-1.31-.08-1,.57Z"/><path class="cls-2" d="M41.6,20.84l-.26,0a.58.58,0,0,0-.55.72,3.29,3.29,0,0,0,.89,1.62.57.57,0,0,0,.8-.8,2.14,2.14,0,0,1-.59-1.12l-.55.72.26,0c.73-.05.73-1.19,0-1.14Z"/><path class="cls-2" d="M48.17,16l0,0a.61.61,0,0,0-.69-.09c-.57.34-.26.89,0,1.33s.55,1.1,1.19,1.16a.88.88,0,0,0,1-.91,2,2,0,0,0-.44-.9l-.64-1c-.41-.6-1.39,0-1,.58l.43.63c.06.09.33.62.43.64.64.1.12-.65.07-.75l-.17-.31c-.1-.2-.11-.2,0,0l-.28.49.06,0-.69-.09,0,0c.57.45,1.38-.35.8-.8Z"/><path class="cls-2" d="M50.62,14.15l.63.88a2.36,2.36,0,0,0,.56.69c.59.37,1.11-.3,1.5-.66s1.11-.8,1-1.43-.72-1.13-1.08-1.55a.59.59,0,0,0-.8,0c-.42.4-.88.78-1.27,1.2a.94.94,0,0,0-.3,1,.75.75,0,0,0,.78.48.87.87,0,0,0,.52-.22.91.91,0,0,0,.18-.21c.11-.11.11-.13,0-.07l-.4-.17,0-.51c-.52.43.14,1.18.69.9l.49-.26c.66-.33.08-1.32-.57-1l-.5.25.69.9a.74.74,0,0,0-.15-1.19.79.79,0,0,0-.69,0,1,1,0,0,0-.33.24l-.09.12c-.15.14-.09.17.17.09L52,14l0-.15-.06.44a2.37,2.37,0,0,1,.65-.69l.71-.67h-.8c.22.25.72.7.78,1l.06-.44c-.1.22-.45.45-.63.62a5.14,5.14,0,0,1-.74.66l.43-.06c.1,0-.24-.45-.28-.5l-.46-.64c-.42-.59-1.41,0-1,.57Z"/><path class="cls-2" d="M18.07,38.78a8,8,0,0,1,.54,1.15.57.57,0,0,0,.7.39c1.4-.37.45-2.77-.77-2.65a1.15,1.15,0,0,0-.93,1.41c.17.72.82,1,1.26,1.54s1.28-.25.81-.8c-.27-.32-.63-.53-.89-.85-.07-.09,0-.15-.14-.17s0,.05,0,.1.08.15.11.23,0,.16.22.1l.7.39a10.63,10.63,0,0,0-.66-1.41c-.35-.65-1.33-.07-1,.57Z"/><path class="cls-2" d="M22.23,36.46,22.18,36l-1.06.28.77,1.46a.58.58,0,0,0,.89.12l6.87-5.59a.56.56,0,0,0,.09-.69c-.33-.47-.62-1.18-1.27-1.2s-2,1.24-2.61,1.68c-.92.66-1.83,1.35-2.7,2.08-.58.48-1.71,1.22-2,2a1,1,0,0,0,.26,1.18c.59.41,1.22-.1,1.7-.4A27.87,27.87,0,0,0,29,32.09a.57.57,0,0,0-.69-.89A9.7,9.7,0,0,0,26,32.86a19.4,19.4,0,0,1-3.29,2.26c-.56.3-.18,1.28.43,1l3.24-1.28-.55-1c-1.14,1.37-2.94,1.87-4,3.36a.58.58,0,0,0,.64.84c2.75-.85,5.3-3.39,7.37-5.3.53-.5-.27-1.3-.81-.8-1.92,1.78-4.31,4.21-6.86,5l.64.84c1-1.38,2.74-1.85,3.8-3.14.32-.39,0-1.18-.55-.95l-3.24,1.28.44,1A19.51,19.51,0,0,0,26,34.33a14.54,14.54,0,0,1,2.87-2.15l-.69-.89a22.93,22.93,0,0,1-3.42,3.11c-.43.32-.86.63-1.3.93-.14.1-1.74,1-1.11,1.1.23,0,1.39-1.27,1.61-1.46.52-.43,1.06-.85,1.6-1.26s1.17-.85,1.76-1.27.92-1,1.44-.25l.09-.69L22,37.08l.89.12-.77-1.46c-.25-.48-1.12-.28-1.06.29l.05.43c.07.72,1.21.73,1.14,0Z"/><path class="cls-2" d="M14.91,41.35a3.24,3.24,0,0,1,.6,1,.58.58,0,0,0,1,.26c.77-.75-.16-2.32-1.16-2.26a.91.91,0,0,0-.86,1c0,.65.59.84.84,1.35s1.3.08,1-.58c-.1-.19-.41-.66-.64-.74,0-.1-.09-.09-.16,0s-.15.13,0,.21l.14.24c0,.15.05.14.06,0l1,.25a4.93,4.93,0,0,0-.88-1.54c-.48-.55-1.28.25-.81.81Z"/><path class="cls-2" d="M11.6,43.87l.47.45.19.21c.17.23.19.17.05-.17l.26-.34c.35.23.47.24.38,0l-.06-.18a1.81,1.81,0,0,0-.24-.37c-.39-.45-1.08,0-1,.56s.63,1.73,1.45,1.3.1-1.48-.25-2c-.22-.32-.4-.62-.83-.63a1,1,0,0,0-.86.57c-.41.79.3,1.36.7,1.95s1.39,0,1-.57a4.25,4.25,0,0,0-.37-.47,2.2,2.2,0,0,1-.2-.23c0-.16-.13-.19-.28-.11l-.34-.26.44.65.22.32c.08.19.12.15.1-.12l.4-.16h-.12l.4.17a1.39,1.39,0,0,1-.34-.71l-1,.55c.06.08.07.3.13.4a.85.85,0,0,0,.35.33A.79.79,0,0,0,13.2,45c.75-.62-.37-1.49-.79-1.9s-1.34.3-.81.81Z"/><path class="cls-2" d="M9,46.75a2,2,0,0,1,.56-.63L8.63,46a7,7,0,0,1,.75,1.22l.21-.78a6.61,6.61,0,0,0-2.16,1.5l.89.12a4.72,4.72,0,0,0-.56-.75v.21l.17-.12c.18-.06.32-.14.51-.19l-.7-.7L7.56,47l1.1.31a1.06,1.06,0,0,1,.13-.39c.33-.65-.65-1.22-1-.57a3,3,0,0,0-.25.65.57.57,0,0,0,1.1.31l.17-.46c.16-.43-.31-.8-.7-.7a2,2,0,0,0-1.46,1c-.23.61.33,1.11.67,1.55a.58.58,0,0,0,.89.12,5.68,5.68,0,0,1,1.93-1.32.58.58,0,0,0,.21-.78,7.52,7.52,0,0,0-.75-1.22.59.59,0,0,0-.9-.12,3,3,0,0,0-.73.86c-.36.64.63,1.22,1,.58Z"/><path class="cls-2" d="M7.4,46.05a1.3,1.3,0,0,0-1.22.71.87.87,0,0,0,.41,1.11c.66.3,1.24-.68.57-1q0,.39.24.3c.72-.08.73-1.22,0-1.14Z"/><path class="cls-2" d="M7.84,47.86c0,.13-.1.09,0,.06a1.37,1.37,0,0,0,.24-.18,3.72,3.72,0,0,0,.46-.43,1.49,1.49,0,0,0,.51-1.06.76.76,0,0,0-.7-.64,1,1,0,0,0-.94.57c-.3.46.32,1.12.78.78a4.16,4.16,0,0,1,1-.57c.69-.25.39-1.35-.3-1.1a4.92,4.92,0,0,0-1.3.69l.78.77L8,46.61,8,46.17c0,.34-.52.64-.77.83a1.06,1.06,0,0,0-.5.86c0,.73,1.11.73,1.14,0Z"/><path class="cls-1" d="M28.84,29.2a36.44,36.44,0,0,1,2.9,4.58l1-.57a16.9,16.9,0,0,1-2-3.48l-1,.58c.92,1.45,2.36,2.53,3.05,4.13.29.67,1.27.1,1-.57-.7-1.61-2.12-2.68-3.05-4.14a.57.57,0,0,0-1,.58,16.64,16.64,0,0,0,2,3.47.57.57,0,0,0,1-.57,34.66,34.66,0,0,0-2.9-4.58c-.44-.58-1.42,0-1,.57Z"/><path class="cls-1" d="M33.81,34.49l-.22-.43a.58.58,0,0,0-.84-.34c-.59.35-2.18.89-2.2,1.73a1.74,1.74,0,0,0,.47,1l1.21,1.83c.34.5,1.27.2,1-.44l-.81-2.21-.95.55A8.43,8.43,0,0,1,32.88,38a.58.58,0,0,0,1,0c.53-.73-.29-2.15-.52-2.88l-1,.44,1.52,2a.57.57,0,0,0,1-.57l-1-2.37-.89.69,1.23,1.56c.35.46,1.11,0,1-.55a4.73,4.73,0,0,0-1.28-2.06l.09.69a4.26,4.26,0,0,0,.71-1.43.58.58,0,0,0-.7-.7,2.7,2.7,0,0,0-1.08.55l.8.8c.2-.17.78-.82,1-.85l-.56-.15a5.59,5.59,0,0,1,1.28,1.79l1-.58-.4-.64-.78.78.19.34,1-.4c-.53-.43-1.17-1.25-1.9-.82a.58.58,0,0,0-.26.64,12.8,12.8,0,0,0,.92,2.28l1-.44a6.41,6.41,0,0,0-1.3-1.54.58.58,0,0,0-1,.56,4.64,4.64,0,0,0,.69,1.58.57.57,0,0,0,1-.44l-.31-1.38-.84.64c.59.39.8,1.14,1.42,1.53a.57.57,0,0,0,.85-.49,2.74,2.74,0,0,0-.13-.85l-1,.44a10.59,10.59,0,0,1,.84,1.36c.33.66,1.31.08,1-.57a9,9,0,0,0-.84-1.36c-.36-.49-1.22-.23-1,.44l.09.54.85-.49c-.59-.38-.8-1.13-1.42-1.53-.43-.29-.93.18-.83.64l.31,1.38,1-.43A4,4,0,0,1,35,34.82l-1,.55a5,5,0,0,1,1.12,1.3c.33.51,1.3.19,1-.44A14.39,14.39,0,0,1,35.29,34L35,34.6l.13-.07h-.57a4.42,4.42,0,0,1,1,.71.58.58,0,0,0,1-.4,1.43,1.43,0,0,0-.76-1.32.57.57,0,0,0-.77.78l.4.64a.57.57,0,0,0,1-.58c-.32-.6-.93-1.88-1.64-2.13s-1.45.71-1.91,1.12.24,1.24.8.8l.58-.25-.7-.7a3.06,3.06,0,0,1-.6,1.16A.57.57,0,0,0,33,35a3.4,3.4,0,0,1,1,1.56l.95-.55-1.23-1.56c-.43-.56-1.11.15-.89.69l1,2.36,1-.57-1.52-2c-.35-.47-1.25-.22-1,.44a8.73,8.73,0,0,1,.64,2h1a9.62,9.62,0,0,0-1.55-2.05c-.38-.38-1.15,0-1,.56l.81,2.21,1-.44c-.44-.66-.9-1.31-1.32-2l-.22-.33c.13.32.32.33.56,0a5,5,0,0,0,1.09-.66l-.83-.34a1.4,1.4,0,0,0,.34.7c.44.57,1.43,0,1-.57Z"/><path class="cls-1" d="M38.05,35.67a6.56,6.56,0,0,0-1.14-1l-.44,1c1.05.36-2.35,2.83-2.34,2.83l.84.64a2.56,2.56,0,0,1,.91-1.67c.52-.52-.27-1.3-.8-.8-1,.9-2.17,2.5-3.38,3l.78.2-.09.48-.9-.12a8.77,8.77,0,0,1,.84,2.43l1-.44c-.5-.75-1.55-2.18-2.56-1.17s.51,2.71,1.16,3.47a.57.57,0,0,0,1-.4,5.62,5.62,0,0,0-.55-2.39l-1,.57A2.65,2.65,0,0,1,32.13,44a.58.58,0,0,0,.84.34c.53-.33,1.29-.07,1.86-.32a5.86,5.86,0,0,0,1.34-1.2A27.4,27.4,0,0,1,41.37,39a.58.58,0,0,0,.26-.64c-.56-1.43-2-5.67-4.22-3.33l.89.69c.12-.24,2.76,3.4,2.93,3.64a.58.58,0,0,0,1,0,.87.87,0,0,0,0-1,.58.58,0,0,0-.9-.11l-1.54,1.36c-.55.49.26,1.29.81.81L42.12,39l-.9-.11v-.12h1c-.52-.74-3.47-6.46-4.89-3.65-.28.55.43,1.19.89.69-.05,0,3.14,1.61,1.38,2.91-.88.66-1.8,1.24-2.66,1.94s-1.66,1.85-2.6,2.2c-.76.29-1.18.07-1.94.54l.84.34a4.23,4.23,0,0,0-.84-1.93.57.57,0,0,0-1,.57l.39,1.82,1-.4c-.15-.19-1.36-2.39-.38-.93a.57.57,0,0,0,1-.44,10.63,10.63,0,0,0-1-2.69.58.58,0,0,0-.9-.11l-.07.09a.57.57,0,0,0-.09.69l.08.12a.6.6,0,0,0,.78.2c1.33-.6,2.54-2.22,3.6-3.22l-.8-.8a4.27,4.27,0,0,0-1.21,2.17.57.57,0,0,0,.83.64c1.21-.76,5.13-3.86,2.07-4.9-.66-.23-.9.68-.43,1l.91.85c.49.54,1.3-.27.8-.81Z"/><path class="cls-1" d="M35.38,44.4c1.95-1.35,3.51-3.17,5.51-4.44.62-.39,0-1.38-.57-1-2,1.27-3.57,3.09-5.52,4.43-.6.42,0,1.4.58,1Z"/><path class="cls-1" d="M33.81,41.54l0-.25h-1.1l.71,1.87a.57.57,0,0,0,1.09-.3l-.42-2.64-1.1.3.24,1.25c.13.72,1.22.41,1.09-.3l-.27-1.58a.57.57,0,0,0-1-.13l-.39.58,1,.25.13-.49h-1a4.46,4.46,0,0,1,.48,1.67c.07.57,1,.85,1.11.15s.21-1.61.27-2.43l-1.11.15.81,3.85a.57.57,0,0,0,1.12-.15V40.07a.57.57,0,0,0-1.14,0,11.65,11.65,0,0,0,.2,3,.57.57,0,0,0,1.1,0A26.17,26.17,0,0,0,36,39.13c0-.73-1.09-.72-1.13,0a19.11,19.11,0,0,0,.07,3.12.57.57,0,0,0,1.14,0A27.3,27.3,0,0,0,36.15,39,.57.57,0,0,0,35,39v3c0,.76,1,.71,1.13,0l.44-3.61H35.46a32.52,32.52,0,0,0,.25,3.82.57.57,0,0,0,1.11.16,29.16,29.16,0,0,0,.92-4.61H36.6L36.47,41a.57.57,0,0,0,1.12.15c.26-1.11.48-2.23.65-3.35l-1.12-.16L37,41.05a.57.57,0,0,0,1.06.29c.7-1.29.6-3,.74-4.4H37.61a16.16,16.16,0,0,0,.2,3.33c.11.68,1.06.43,1.12-.16.12-1.21.23-2.43.31-3.65H38.1c.14,1.1.31,2.19.53,3.28.13.63,1.12.47,1.12-.15V36.46l-1.12.15.64,2.46c.16.61,1.19.5,1.12-.15a11.87,11.87,0,0,0-.53-2.9c-.26-.69-.55-.68-1.29-1a.58.58,0,0,0-.7.4c-.23,1.29,1.53,2.35,2.33,3.14l.55-1L40,37.15c-.45-.57-1.24.24-.8.81a1.94,1.94,0,0,0,1.24.78.57.57,0,0,0,.55-1c-.2-.2-2.08-1.75-2-2l-.7.4c.93.36.88,1.9,1,2.76l1.12-.15-.64-2.46a.57.57,0,0,0-1.12.15v3.13l1.12-.16c-.2-1-.37-2-.49-3a.57.57,0,0,0-1.14,0c-.08,1.22-.18,2.44-.31,3.65L38.91,40a14.54,14.54,0,0,1-.16-3c0-.74-1.07-.72-1.14,0-.11,1.16,0,2.79-.58,3.82l1.06.29.17-3.44c0-.62-1-.79-1.12-.15-.17,1.13-.39,2.24-.65,3.36l1.12.15.13-3.18c0-.74-1.05-.7-1.14,0a27.08,27.08,0,0,1-.87,4.3l1.11.15a30.49,30.49,0,0,1-.24-3.82.57.57,0,0,0-1.14,0L35,42h1.13V39H35a27.31,27.31,0,0,1-.09,3.26h1.14A19.11,19.11,0,0,1,36,39.13H34.86a26.23,26.23,0,0,1-.36,3.65h1.1a10.27,10.27,0,0,1-.16-2.71H34.3v3.27l1.12-.16-.82-3.84c-.14-.66-1.07-.45-1.11.15s-.13,1.42-.23,2.13l1.11.15a7,7,0,0,0-.63-2.24.57.57,0,0,0-1,0,1.54,1.54,0,0,0-.25,1.36.57.57,0,0,0,1,.25,2.1,2.1,0,0,0,.57-.81l-1-.14.28,1.58,1.09-.3-.23-1.25c-.14-.72-1.21-.41-1.1.3l.43,2.64,1.09-.3L33.85,41c-.18-.46-1-.61-1.1,0l0,.24c-.11.72,1,1,1.1.31Z"/><path class="cls-1" d="M41.89,34.52a.9.9,0,0,0-.87-.66.58.58,0,0,0-.55.72.42.42,0,0,1-.18.36.58.58,0,0,0,.11.9,1.26,1.26,0,0,1,.57.5l1-.58a3.43,3.43,0,0,1-.67-1.4l-1,.44L41,36a6.83,6.83,0,0,0,.64,1.08A.75.75,0,0,0,43,36.64c0-.73-1.11-.73-1.13,0v.11l.17-.4-.09.08.4-.17c.18.09.19,0,0-.13l-.1-.18-.34-.6-.64-1.13a.57.57,0,0,0-1,.44A4.22,4.22,0,0,0,41,36.34c.43.56,1.39.06,1-.58a2.6,2.6,0,0,0-1-.91l.11.9a1.58,1.58,0,0,0,.48-1.47L41,35l-.23-.17c.23.69,1.33.39,1.1-.31Z"/><path class="cls-1" d="M41.28,35.42a3.85,3.85,0,0,1,.86,1.14c.33.66,1.31.08,1-.57a4.65,4.65,0,0,0-1-1.37c-.54-.5-1.34.31-.8.8Z"/><path class="cls-1" d="M34,40.16c.14.49.22,1.46.71,1.74s1.13-.29,1.36-.79a1.51,1.51,0,0,0-.19-1.65,1.2,1.2,0,0,0-.61-.37c-.27-.07-.53.08-.71.07l.49.28L35,39.36l.05.44-.1.11.2-.07a3,3,0,0,0,.29-.2c.57-.46-.24-1.26-.81-.81-.15.13-.46.14-.6.44a.71.71,0,0,0,.08.8.58.58,0,0,0,.45.22c.12,0,.34-.09.42-.07.24.07.07.59-.15.72l.44-.06c.18.27.22.28.13,0l-.1-.35-.2-.7a.57.57,0,0,0-1.1.3Z"/><path class="cls-1" d="M12.69,17l.49.32a.58.58,0,0,0,.84-.34l.56-2.4-1.12-.15,0,.4c0,.73,1.16.73,1.13,0v-.4c0-.62-1-.8-1.12-.16l-.56,2.41.84-.34L13.27,16c-.62-.41-1.19.58-.58,1Z"/><path class="cls-1" d="M14.36,12.6a3,3,0,0,0-1.81-.34c-.8.12-1.42.58-2.26.51s-.73,1.08,0,1.14c1.22.1,2.34-.91,3.5-.33.65.33,1.23-.65.57-1Z"/><path class="cls-1" d="M18.32,9.56c.69.29,1.1-.45,1.32-1a15.63,15.63,0,0,0,.81-2.51c.17-.71-.93-1-1.1-.3A14.22,14.22,0,0,1,19,7.2c-.07.22-.15.43-.23.64l-.16.39q-.24.25.06.24c-.68-.29-1,.81-.31,1.09Z"/><path class="cls-1" d="M20,10.78c1,0,2.85-.14,3-1.43L21.9,9.2l0,1a.57.57,0,0,0,1.13,0v-1c0-.61-1-.81-1.12-.15s-1.51.59-1.94.59a.57.57,0,0,0,0,1.14Z"/><path class="cls-3" d="M41.66,35.53a4.59,4.59,0,0,0-.28-1.42l-1,.55A7.68,7.68,0,0,1,42,37.19c.26.67,1.36.38,1.1-.31a9.22,9.22,0,0,0-1.89-3c-.37-.39-1.16,0-.95.55a3.56,3.56,0,0,1,.24,1.12c0,.73,1.16.73,1.14,0Z"/><path class="cls-3" d="M20.17,9.64,20,9.9a.32.32,0,0,0,.31.53c.71-.1,1.41-.23,2.11-.38a.32.32,0,0,0-.09-.62,2.93,2.93,0,0,0-1.23.3l.47.36c0-.2.14-.46.37-.52s.43.14.27.36l.58.25,0-.15a.31.31,0,0,0-.6-.17l-.05.15a.32.32,0,0,0,.58.24A.86.86,0,0,0,22.26,9a1.13,1.13,0,0,0-1.35,1,.32.32,0,0,0,.46.36,2.1,2.1,0,0,1,.91-.22l-.08-.62c-.7.16-1.4.28-2.11.38l.31.53.22-.26c.27-.31-.18-.76-.45-.45Z"/><path class="cls-3" d="M20.64,10.18a8.52,8.52,0,0,0,2.08.25.32.32,0,0,0,.32-.31c0-.41-.07-1.29-.65-1.29a4.09,4.09,0,0,0-1.09.35L20,9.62c-.39.12-.22.73.16.6l1.49-.5a4.61,4.61,0,0,1,.74-.25.14.14,0,0,0,0,.24,2.7,2.7,0,0,1,.06.41l.31-.32a8.17,8.17,0,0,1-1.91-.22c-.4-.1-.57.51-.17.6Z"/><path class="cls-3" d="M18.91,8.16a1.1,1.1,0,0,0,.13.56.32.32,0,0,0,.58-.08c.3-1,.55-2,.77-3a.33.33,0,0,0-.47-.36C18.87,6,19.08,7.75,19,8.81l.47-.28c-.61-.36.33-2.71.47-3.24l-.62-.08v.23c0,.41.65.41.64,0V5.21a.32.32,0,0,0-.62-.08,26.24,26.24,0,0,0-.69,2.64,1.18,1.18,0,0,0,.51,1.31.32.32,0,0,0,.48-.27l.12-1.58c0-.48,0-1.1.49-1.38l-.46-.36c-.22,1-.47,2-.77,3l.58-.07-.05-.24a.32.32,0,0,0-.63,0Z"/><path class="cls-3" d="M38.5,35a5.57,5.57,0,0,1,1.42,2.32c.24.79.55,2.44-.21,3-.32.26.13.7.44.45.82-.66.7-2.07.54-3a6.21,6.21,0,0,0-1.75-3.27.31.31,0,0,0-.44.45Z"/><path class="cls-3" d="M38.29,42.23a7.33,7.33,0,0,0,1.65-3.93,9.05,9.05,0,0,0-1.29-4.12c-.18-.37-.73,0-.55.31a8.41,8.41,0,0,1,1.21,3.81,6.8,6.8,0,0,1-1.57,3.61c-.23.34.32.65.55.32Z"/><path class="cls-3" d="M40.29,37.64a.63.63,0,0,0-.24.93,3.5,3.5,0,0,1,0,.65,5.1,5.1,0,0,1-.33,1.29l.61.17.32-1.38a.32.32,0,0,0-.61-.16,4.07,4.07,0,0,1-.63,1.37l.58.24a2.31,2.31,0,0,0,.17-.86c0-.29-.34-.39-.54-.22l-.68.58.5.38a11.27,11.27,0,0,0,.91-2.83l-.62-.09L39.8,39c0,.4.66.41.63,0A10.59,10.59,0,0,0,40,36.43l-.61.16a16,16,0,0,1,.78,2.78l.61-.17-.66-2.58-.52.31a7.13,7.13,0,0,1,1.11,1.65l.55-.32c-.56-1-.63-2.14-1.33-3-.24-.31-.75-.05-.54.32L41,38.46a.32.32,0,0,0,.58-.24,4.16,4.16,0,0,0-.5-1.14l-.54.32q.4.62.84,1.2l.05-.38a8.37,8.37,0,0,0-1.19,1.19l.5.38c.16-.38.35-.74.55-1.11l-.59-.16-.14.66a.32.32,0,0,0,.47.36,1.91,1.91,0,0,0,.6-.63.32.32,0,0,0-.55-.32l-.37.4.46.36a2.32,2.32,0,0,0,.17-.83.32.32,0,0,0-.59-.15,11.36,11.36,0,0,0-.56,1.1c-.13.3.25.69.5.39a7.94,7.94,0,0,1,1.19-1.2.3.3,0,0,0,.05-.38c-.29-.39-.57-.79-.85-1.2a.31.31,0,0,0-.54.32,3.89,3.89,0,0,1,.43,1l.58-.24L39.9,35.21l-.54.32c.69.9.77,2.07,1.32,3a.32.32,0,0,0,.55-.32A7.71,7.71,0,0,0,40,36.48a.32.32,0,0,0-.53.31l.66,2.58c.1.4.68.22.61-.17A15.61,15.61,0,0,0,40,36.43c-.14-.38-.73-.23-.61.16A9.77,9.77,0,0,1,39.8,39h.63l-.1-1.28c0-.33-.55-.46-.62-.08a10.59,10.59,0,0,1-.85,2.68.32.32,0,0,0,.5.38l.68-.57-.54-.23a1.34,1.34,0,0,1-.15.69c-.13.36.39.52.58.25a4.71,4.71,0,0,0,.69-1.53L40,39.14l-.32,1.37a.32.32,0,0,0,.61.17,4.31,4.31,0,0,0,.1-3.43.33.33,0,0,0-.28-.16H40a.32.32,0,0,0-.27.16l0,.06c-.15.37.39.7.55.32Z"/><path class="cls-3" d="M34.41,32.79a3.29,3.29,0,0,1,.13,3.32c-.19.36.36.68.55.32a4,4,0,0,0-.13-4,.32.32,0,0,0-.55.32Z"/><path class="cls-3" d="M35.63,36.23a5.51,5.51,0,0,0,0-3.29.31.31,0,0,0-.6.16l.19,1.25.61-.17a14,14,0,0,1-.47-1.52l-.58.24a11.76,11.76,0,0,1,1,2.25c.13.38.73.23.61-.17l-.13-.45c-.07-.24-.46-.34-.58-.08l-.12.27a.33.33,0,0,0,.28.48.54.54,0,0,0,.57-.45c.12-.45-.26-.65-.31-1l-.54.22.52.61c.27.31.71-.13.45-.44l-.52-.61a.32.32,0,0,0-.54.22c0,.17.18.86.37.86l.27.48.12-.27-.58-.07.13.45.61-.17a12.4,12.4,0,0,0-1.1-2.4.32.32,0,0,0-.58.24,13.52,13.52,0,0,0,.47,1.53.32.32,0,0,0,.61-.17l-.2-1.24-.6.16a5.06,5.06,0,0,1,0,3c-.13.39.48.56.6.17Z"/><path class="cls-3" d="M29.41,29c1,1.43,2,2.81,3,4.16.26.31.7-.14.45-.45-1-1.3-2-2.65-2.94-4-.23-.34-.78,0-.55.31Z"/><path class="cls-3" d="M25,22.16l0,0a.32.32,0,0,0-.15-.35.32.32,0,0,0-.34-.05.31.31,0,0,0-.23.3c0,.38.38.76.59,1.05s.78,0,.54-.31c-.1-.15-.52-.57-.5-.74l-.23.3h-.15L24.42,22l0,0c-.12.38.49.55.61.16Z"/><path class="cls-3" d="M24.75,20.46A42.61,42.61,0,0,0,21,14.12a.32.32,0,0,0-.58.24,8.52,8.52,0,0,0,1.66,2.88l1.08,1.62a5.15,5.15,0,0,1,.95,1.5l.31-.4h-.06l.32.32v0a.32.32,0,0,0-.63,0v0a.31.31,0,0,0,.31.31h.06c.22,0,.33-.22.3-.4a8.59,8.59,0,0,0-1.56-2.46c-.67-1-1.92-2.32-2.13-3.54l-.58.25a41.35,41.35,0,0,1,3.78,6.33c.18.37.72.05.55-.31Z"/><path class="cls-3" d="M24.21,20.22c.06.09.11.18.16.27s.14.27.12.17l.58-.24-.06-.1c-.22-.34-.76,0-.55.32l.06.1a.32.32,0,0,0,.58-.25,2.66,2.66,0,0,0-.34-.59.32.32,0,0,0-.55.32Z"/><path class="cls-3" d="M20.26,14.82q2,3,3.9,6.19a.32.32,0,0,0,.55-.32c-1.25-2.09-2.55-4.16-3.9-6.19-.23-.33-.78,0-.55.32Z"/><path class="cls-3" d="M23.28,19.12a3.74,3.74,0,0,1,.63,1.3c.09.35.05.69.36.91a.32.32,0,0,0,.38,0l0,0a.35.35,0,0,0,.05-.39l0-.05a.32.32,0,0,0-.43-.11h0c-.37.18-.05.72.32.55l0,0-.43-.11,0,.05.05-.38,0,0,.39,0s0-.42-.05-.45a3.74,3.74,0,0,0-.17-.54,4.11,4.11,0,0,0-.55-1c-.23-.33-.78,0-.54.31Z"/><path class="cls-3" d="M17.71,13.07l.86,1.34c.16.23.3.62.6.7a.32.32,0,0,0,.39-.22l0,0a.33.33,0,0,0-.23-.39h0c-.38-.13-.55.48-.16.61h0L19,14.68l0,0,.39-.22s-.23-.42-.22-.41l-.27-.42-.6-.92c-.22-.33-.77,0-.54.32Z"/><path class="cls-3" d="M33.4,33.3a8.25,8.25,0,0,1,1.34,3.45c0,.35.64.27.62-.09a9.51,9.51,0,0,0-1.14-3.9l-.55.32.84,1.25c.19.29.69.12.58-.24l-.38-1.16-.6.17a17.05,17.05,0,0,0,.71,1.84c.14.33.69.1.57-.24a15.18,15.18,0,0,0-.88-2c-.2-.36-.72,0-.55.32l.1.23c.17.37.72.05.55-.32l-.1-.23L34,33a13,13,0,0,1,.82,1.88l.58-.24c-.24-.56-.46-1.12-.65-1.7-.12-.39-.73-.22-.6.17l.37,1.16.58-.24-.84-1.26a.32.32,0,0,0-.55.32,8.34,8.34,0,0,1,1,3.58l.62-.08A8.54,8.54,0,0,0,34,33c-.23-.33-.78,0-.55.32Z"/><path class="cls-3" d="M36.27,34.94a.74.74,0,0,0,.61.1.31.31,0,0,0,.22-.39A.69.69,0,0,0,36,34.38c-.3.27.15.72.45.44h.08l.22-.39-.12,0c-.34-.22-.66.33-.32.54Z"/><path class="cls-3" d="M17.29,9.36A5,5,0,0,1,17.17,12l.61.17A13.87,13.87,0,0,0,18,9h-.63c.07.63.13,1.25.16,1.88a.32.32,0,0,0,.62.08,3.31,3.31,0,0,0,.1-.83c0-.4-.64-.41-.63,0v.68a.32.32,0,0,0,.62.09,3.21,3.21,0,0,0,.09-1.07c0-.4-.64-.41-.63,0v.81a.32.32,0,0,0,.63,0V9.54l-.59.16a3,3,0,0,1,.45.69c.1.39-.27.66-.49.92l.49.39.49-.81a.32.32,0,0,0-.44-.43l-.33.23.46.19.1-.24L18,10.41v.47a.32.32,0,0,0,.63,0v-.47a.32.32,0,0,0-.54-.22.77.77,0,0,0-.26.85.32.32,0,0,0,.46.19l.34-.22-.43-.43-.48.8c-.19.3.26.66.49.38S19,11,19,10.62s-.46-.92-.68-1.24a.31.31,0,0,0-.58.16V10.6h.63V9.79h-.63a3,3,0,0,1-.07.9l.62.08v-.68h-.63a2.44,2.44,0,0,1-.08.66l.62.09c0-.63-.08-1.25-.16-1.88-.05-.39-.65-.41-.63,0a13,13,0,0,1-.24,3,.32.32,0,0,0,.61.17,5.62,5.62,0,0,0,.12-3c-.06-.4-.67-.23-.61.17Z"/><path class="cls-3" d="M26.72,22.73a18.8,18.8,0,0,1,2.24,5c.07.4.68.23.61-.17a19.1,19.1,0,0,0-2.31-5.18c-.19-.36-.73,0-.54.31Z"/><path class="cls-3" d="M27.27,22.53a22.32,22.32,0,0,1,2.07,4.56l.57-.24-.45-.9a.31.31,0,0,0-.58.16,7.42,7.42,0,0,0,.06.94c0,.39.65.41.63,0a2.48,2.48,0,0,0-.18-.89c-.15-.37-.73-.23-.61.17l.24.84c.1.32.67.28.62-.09A16.26,16.26,0,0,0,28,22.28l-.54.32,2.08,4a.32.32,0,0,0,.58-.24A6.69,6.69,0,0,0,29.45,25a.32.32,0,0,0-.55.31l.62,1.27a.32.32,0,0,0,.58-.24l-.74-2-.58.25a19.44,19.44,0,0,0,.92,1.75c.18.3.71.1.58-.24a15.09,15.09,0,0,0-.71-1.59l-.54.32c.3.51.59,1.37,1.11,1.7a.32.32,0,0,0,.47-.27v0a.32.32,0,0,0-.31-.32h0a.31.31,0,0,0-.27.47l-.16.41.35.47.37-.65a.33.33,0,0,0,0-.39A29.88,29.88,0,0,1,28,22l-.55.32q1.44,2.25,2.85,4.53l.55-.32-.2-.3c-.23-.33-.78,0-.55.32l.2.3c.23.33.77,0,.55-.32Q29.48,24.29,28,22a.32.32,0,0,0-.55.32,30.91,30.91,0,0,0,2.57,4.28l0-.38-.36.65a.31.31,0,0,0,.35.46A.81.81,0,0,0,30.54,26l-.27.47h0L30,26.2v0l.47-.28c-.33-.21-.67-1.11-.88-1.47a.31.31,0,0,0-.54.32,15.22,15.22,0,0,1,.64,1.43l.58-.24a19.53,19.53,0,0,1-.93-1.75c-.14-.32-.69-.1-.57.24l.74,2,.57-.25L29.45,25l-.55.31a5.75,5.75,0,0,1,.56,1.24l.58-.24-2.09-4c-.19-.37-.7-.05-.54.32A15.39,15.39,0,0,1,29,27.08l.62-.08-.24-.84-.61.17a1.58,1.58,0,0,1,.16.72h.63c0-.32-.05-.62-.06-.94l-.59.16.45.89a.32.32,0,0,0,.58-.24,22.21,22.21,0,0,0-2.14-4.71.31.31,0,0,0-.54.32Z"/><path class="cls-4" d="M14.29,29.15c.16.49.44.74.85.75.79.15.4-.22-1.19-1.12-.25-.23-.72.08-.49.38a31.07,31.07,0,0,0,1.81,2.66c.7.75,1.44,1.35.33-.3-1-1.42-1.31-1.05.3,1.15.68.92,1.31,1.87,1.94,2.82.22.34.77,0,.55-.31s-2.22-3.81-2.32-3.78c-.82.22,1.56,3.24,1.94,3.59,2.28,2.06.61-.13-.17-1.3-.57-.86-2.24-3.75-1.12-1a44.25,44.25,0,0,0,2.67,4c1-.29-1.68-3.62-1.83-3.61-1.2.07,1.11,2.52,1.5,3.1S21.91,41,20.75,38c-.39-1.05-2.62-3.31-1-.8.19,1.07.56,1.32,1.11.74l-1.43-2.07c-.9-1.31-3.25-3.78-.47,0,.23.31,2.57,4,2.61,3.95C22.49,39.44,20,36.5,19.7,36l-1.44-2.29c-.86-.09-.84.22.07,1,.39,1,2.08,3.16.92.52a24.86,24.86,0,0,0-2.85-3.91c-.23-.32-.77,0-.55.32l3.22,4.9c2.9,4.4.21-1.54-.65-1-.37.23,2,3.59,2.46,4.06,2.13,2.4.05-1.05-.59-2a.32.32,0,0,0-.55.32c.91,1.71,1.88,3.37,2.93,5a.31.31,0,0,0,.54-.32L21.86,40c-.67-.14-.76,0-.24.48a25.9,25.9,0,0,0,2.28,3.24c.23.33.77,0,.54-.31s-3.12-4.34-3-4.55c-.58.76,1.73,2.77,2.37,3.54.23.27.71-.1.5-.39a30.16,30.16,0,0,0-2.66-3.65c-1.5-1.52-.87-.58-.08.64A30,30,0,0,0,24,42.69c.67.73,1.93,1.56.39.42-.26-.19-.6.18-.44.43l1.72,2.64a.31.31,0,0,0,.54-.32,26.13,26.13,0,0,0-2.07-3c-.22-.28-.7.09-.49.39l2.14,3.05a.32.32,0,0,0,.55-.32l-.05.44c.26.22.7,0,.5-.38-.56-.91-1.35-2.71-2.22-2.94-.51-.13,1.41,2.46,1.64,2.78a.31.31,0,0,0,.54-.32,12,12,0,0,0-1.31-2.13c-.22-.33-.75,0-.54.32a13.66,13.66,0,0,0,1.81,2.44c.24.26.71-.09.49-.38S24.58,41.92,24.27,42c-1.7.36,2.06,2.86,2.25,3-.3-.28-.75.17-.45.44l.28.25c.25.23.73-.08.5-.38L23.55,41c-.25-.32-.8,0-.55.32l1.81,2.37.72,1c.42.75.54.61.37-.42-.35,1,0,0,.16.38A18.39,18.39,0,0,0,24.14,42c-.23-.33-.77,0-.54.32a14.54,14.54,0,0,0,2.3,3c-.26-.21-.69.06-.5.39a.85.85,0,0,0-.19-1.26c-.5-.89-.57-.65-.2.72l.58-.17c-.65-1.14-.74-1.18-.27-.13.24.27.68-.08.49-.38q-2.61-4.22-5.35-8.34c-.19-.28-.71-.11-.58.24a15.56,15.56,0,0,0,2.26,3.71c.26.36,1.08,2.09,1.26.83.08-.57-2.39-2.83-2.71-3.22s-.69.08-.5.38c.46.7,2.69,4.71,3.28,4.49s-1.86-3.15-2.28-3.76a.32.32,0,0,0-.55.32c.31.56,1.07,2.63,1.65,2.42s-.6-1.63-.89-2c-1.89-2.52.17,1.11.75,2,.22.34.77,0,.55-.32-1.48-2.34-3-4.61-4.68-6.83-.24-.32-.78,0-.55.32,1.09,1.58,2.23,3.09,3.44,4.56.23.28.69-.08.5-.38L19.26,35.6c-.25-.38-1.73-3.15-2.14-3.27-1.38-.41.81,2.07.87,2.16l2.14,2.94c.24.32.77,0,.55-.32a55.1,55.1,0,0,0-3.12-4.58c-.24-.32-.76,0-.55.32q2.47,4,5.15,7.94c.23.33.75,0,.54-.32a52.16,52.16,0,0,0-5.46-7.82c-.23-.27-.7.09-.49.38L21,39.24c.23.33.76,0,.54-.32-.83-1.41-1.71-2.77-2.64-4.12a.32.32,0,0,0-.55.32,37,37,0,0,0,3.31,5.15c.22.29.68-.08.49-.38-1.67-2.71-3.45-5.33-5.34-7.89-.23-.32-.77,0-.54.32q1.8,2.74,3.73,5.4c.23.33.77,0,.55-.32-1.51-2.37-3.07-4.69-4.7-7-.24-.32-.75,0-.55.32a56,56,0,0,0,4.2,6.37c.24.32.78,0,.54-.32l-4.54-6.36a.31.31,0,0,0-.54.32,16.45,16.45,0,0,0,1.66,2.88c.51.54,1.2,1.51.78.12s-2.27-3.1-3.14-4.16c-.22-.28-.69.08-.49.38l2.52,3.74a.31.31,0,0,0,.54-.32c-.67-1.27-1.55-2.43-2.22-3.68-.44,0-.56.09-.37.21a9.12,9.12,0,0,0,1.58,1,.32.32,0,0,0,.38-.5l-1.72-2.06a.32.32,0,0,0-.38-.05c-.41.29-.41.3-.47.81s.58.39.63,0Z"/><path class="cls-4" d="M11.45,31.94l.08-.29H10.44l1.88,3,1-.77a3.83,3.83,0,0,1-1.57-2l-1.09.64q3.82,5.22,7.47,10.58a.63.63,0,0,0,1.09-.64c-1.28-3-3.39-5.57-5.23-8.22a.63.63,0,0,0-1.09.64c1.81,3.18,3.73,6.3,5.8,9.32C19.86,45.87,21,48.39,23.07,49c.49.15,1-.47.71-.93L18.4,40.67c-.47-.65-1.57,0-1.09.64l5.38,7.42.72-.93c-2.16-.64-4.26-5.17-5.42-7-1.41-2.17-2.73-4.39-4-6.64l-1.09.64c1.84,2.65,3.95,5.24,5.23,8.22l1.09-.64q-3.64-5.36-7.47-10.58a.63.63,0,0,0-1.09.64,6,6,0,0,0,1.77,2.28c.52.42,1.4-.12,1-.77l-1.88-3a.64.64,0,0,0-1.09,0,1,1,0,0,0-.25.92c.08.8,1.34.81,1.26,0Z"/><path class="cls-4" d="M7.16,34.36l6.06,9.41c.48.74,1.83.28,1.5-.63a15.9,15.9,0,0,0-2.53-4.6c-.58-.74-1.76.22-1.29,1,1.21,2,2.33,4.13,3.7,6s3.2,3.51,4.46,5.68c.54.93,1.84.11,1.41-.83-1.15-2.59-3.74-4.14-4.81-6.75-.4-1-2-.54-1.59.44,1.15,2.78,3.77,4.42,5,7.14l1.41-.83A45.38,45.38,0,0,0,16.28,45a59.89,59.89,0,0,1-4-6.33l-1.29,1a12.63,12.63,0,0,1,2.11,3.86l1.5-.63L8.57,33.53c-.57-.89-2-.07-1.41.83Z"/><path class="cls-4" d="M15.11,43.12l-.33-.35c-.72-.77-1.88.39-1.16,1.16l.33.35c.72.77,1.88-.39,1.16-1.16Z"/><path class="cls-4" d="M4.23,37.24c1.19.44,2.61,3.5,3.32,4.55.59.87,2,.06,1.42-.83a38.75,38.75,0,0,0-3.7-4.77c-.61-.68-1.82.22-1.29,1l5.73,8.3c.6.85,2,.07,1.42-.83l-1.89-3-1.42.82a141.2,141.2,0,0,0,8.57,11.9c.51.65,1.63-.05,1.37-.8A4.2,4.2,0,0,0,16.7,51.7c-.68-.81-1.83.35-1.16,1.16L16.18,54l1.37-.8A138.48,138.48,0,0,1,9.24,41.63c-.57-.89-2-.08-1.42.82l1.89,3,1.42-.83L5.4,36.36l-1.29,1a36.06,36.06,0,0,1,3.44,4.44L9,41c-1.17-1.75-2.23-4.54-4.31-5.3-1-.37-1.42,1.22-.43,1.58Z"/><path class="cls-4" d="M33.33,14.62A6.32,6.32,0,0,1,34.87,17l1.29-1-2.23-2.75c-.58-.72-1.86.25-1.29,1q4.47,5.86,8.93,11.72a34.27,34.27,0,0,1,3,4.49c.58,1.07.56,1.31,1.64,1.72a.83.83,0,0,0,.93-1.21,35.13,35.13,0,0,0-4-5.08c-.73-.76-1.89.4-1.16,1.17a32.56,32.56,0,0,1,3.77,4.74l.93-1.21c-.77-.29-1.5-2.52-2-3.21-1-1.54-2.24-3-3.37-4.47l-7.23-9.49-1.29,1L35,17.14c.62.77,1.65-.21,1.29-1a10.25,10.25,0,0,0-1.8-2.68c-.72-.79-1.88.38-1.16,1.16Z"/><path class="cls-4" d="M36.52,12.05l.78,1.17,1.12-1.12-.62-.38c-.66-.4-1.64.45-1.12,1.12,2.46,3.25,4.87,6.54,7.19,9.9,1.4,2,2.86,5.83,5.16,6.94.68.33,1.63-.39,1.12-1.12l-.92-1.35c-.59-.87-2-.05-1.42.83l.93,1.34,1.12-1.12c-1.35-.65-2.64-3.52-3.48-4.75S44.68,21,43.81,19.8Q41,15.86,38.09,12L37,13.14l.62.38a.83.83,0,0,0,1.13-1.13,6,6,0,0,0-1-1.5c-.68-.81-1.84.36-1.16,1.16Z"/><path class="cls-4" d="M39.49,9.64q4,5.16,7.73,10.53c1.63,2.37,3,5.06,5.3,6.83.84.64,1.66-.79.83-1.42-2.88-2.19-4.81-6.44-6.89-9.35q-2.82-3.93-5.81-7.75c-.65-.83-1.81.34-1.16,1.16Z"/><path class="cls-4" d="M42.8,7.06,55.26,24.44c.61.85,2,0,1.42-.83L44.22,6.23c-.61-.85-2,0-1.42.83Z"/><path class="cls-2" d="M30.91,29.13l.11.08c.6.43,1.16-.56.58-1l-.11-.08c-.6-.43-1.16.56-.58,1Z"/><path class="cls-2" d="M42.15,22.26l0,.06c-.31.66.67,1.24,1,.58l0-.07c.31-.65-.67-1.23-1-.57Z"/><path class="cls-2" d="M51,13.36l-.15,0a.56.56,0,0,0-.4.39c-.16.52.35.89.78,1A3.28,3.28,0,0,0,53,14.67c.68-.25.39-1.35-.31-1.1a2.53,2.53,0,0,1-.77.17c-.09,0-.51,0-.53,0l.06.44v0l-.4.39.15,0c.72-.15.41-1.25-.3-1.1Z"/><path class="cls-2" d="M9.43,47.25l0,0-.56.15h0l-.25-.95h.79c-.57-.46-1.37.34-.8.8h0a.59.59,0,0,0,.81,0h0c.25-.3.2-.87-.25-.95h0a.55.55,0,0,0-.56.15l0,0c-.46.57.34,1.38.8.81Z"/><path class="cls-1" d="M28.43,29.57a18.4,18.4,0,0,0,1.86,2.69c.47.57,1.27-.24.81-.8A16.6,16.6,0,0,1,29.41,29a.57.57,0,0,0-1,.58Z"/><path class="cls-1" d="M32.77,40.12a.14.14,0,0,1,.08-.12c.67-.3.09-1.28-.57-1a1.05,1.05,0,0,0-.49.53c-.3.66.68,1.24,1,.57Z"/><path class="cls-3" d="M18.84,10.05a.68.68,0,0,0-.42.32.57.57,0,0,0,1,.58l0,0-.34.26h.05c.7-.22.4-1.32-.3-1.1Z"/><path class="cls-3" d="M29.29,28.72a1.66,1.66,0,0,1,.23.31c.4.62,1.38,0,1-.57a5.39,5.39,0,0,0-.4-.54c-.47-.56-1.27.24-.81.8Z"/><path class="cls-3" d="M29.12,28.54a1.93,1.93,0,0,0,.46.61c.54.48,1.35-.32.8-.81A1.17,1.17,0,0,1,30.1,28c-.33-.65-1.31-.08-1,.58Z"/><path class="cls-3" d="M35.57,32.12l0-.08c-.31-.54-1.28-.18-1,.43L35,33.84a3.53,3.53,0,0,1,.45,1.35l.17-.4,0,0h.79c-.51-.53-1.32.28-.81.8h0a.58.58,0,0,0,.8,0c.44-.33.11-1.06,0-1.45l-.79-2-1,.44.05.09a.57.57,0,0,0,1-.58Z"/><path class="cls-3" d="M33.67,33.37a8.49,8.49,0,0,1,.78,2.78c.08.73,1.21.73,1.14,0a10.58,10.58,0,0,0-.93-3.35c-.32-.66-1.3-.09-1,.57Z"/><path class="cls-3" d="M38.32,34a3.24,3.24,0,0,0,.47,1.1l.65,1.28c.33.66,1.31.08,1-.57l-.52-1-.26-.51s-.21-.48-.19-.27c-.08-.72-1.22-.72-1.13,0Z"/><path class="cls-3" d="M41,34.22l0-.08-1,.55a13.23,13.23,0,0,1,1.6,2.66c.35.64,1.33.07,1-.57a13.78,13.78,0,0,0-1.78-2.89.57.57,0,0,0-1,.55l0,.08c.24.69,1.34.39,1.1-.3Z"/><path class="cls-3" d="M40.16,38.51a3.33,3.33,0,0,1-.45,1.22c-.35.64.64,1.22,1,.57a4.44,4.44,0,0,0,.61-1.79c.05-.73-1.08-.72-1.14,0Z"/><path class="cls-1" d="M37.8,36.24l0,0,.14.53v0l-.38.38c-.11,0-.11,0,0,.06.57.42,1.12-.53.55-.94a1,1,0,0,0-.86-.18.54.54,0,0,0-.38.39A.6.6,0,0,0,37,37c.47.53,1.25-.25.77-.77Z"/><path class="cls-3" d="M27.51,23.91a6,6,0,0,1,.4,4.74c-.15.38.46.55.61.17a6.69,6.69,0,0,0-.46-5.23c-.17-.37-.71-.05-.55.32Z"/><path class="cls-3" d="M28.68,26.73l-.24,1a.32.32,0,0,0,.61.16l.2-.64a.32.32,0,0,0-.61-.17l-.2.65.61.16.24-1c.09-.39-.52-.56-.61-.16Z"/><path class="cls-3" d="M26.93,22.74c.76,1.67,1.58,3.88.92,5.69-.14.38.47.55.61.17.72-2-.16-4.36-1-6.18-.17-.37-.71-.05-.55.32Z"/><path class="cls-1" d="M32.77,39.07a.75.75,0,0,1,.15-.24l-.29,0V39l0,0c.08,0,.05-.15,0-.12h0c-.06,0-.06.13,0,.13s.45.05.56-.1a.09.09,0,0,0,0-.07c-.16-.24-.56,0-.55.26s.13.08.13,0Z"/><path class="cls-1" d="M32.78,38.8h-.05l.07.1.13-.15-.08-.1-.33.41a.06.06,0,0,0,.09.09l.54-.44-.09-.09-.29.24c-.06.05,0,.14.09.09a1.56,1.56,0,0,1,.4-.27l-.07-.09a3.32,3.32,0,0,1-.42.32l.08.09a1.34,1.34,0,0,1,.29-.23l-.08-.1-.51.43c-.06,0,0,.14.09.09l.51-.43c.06,0,0-.14-.08-.1a2.51,2.51,0,0,0-.31.26.06.06,0,0,0,.07.09,4.71,4.71,0,0,0,.45-.33s0-.14-.08-.1a2.44,2.44,0,0,0-.43.28l.09.09.29-.24c.06,0,0-.14-.09-.09l-.54.44.09.09.33-.41s0-.15-.08-.1a.52.52,0,0,0-.17.19.06.06,0,0,0,.07.09h.05a.06.06,0,0,0,0-.12Z"/><path class="cls-3" d="M17.33,9.41A10.13,10.13,0,0,1,17,12.56c0,.08.11.11.13,0a10.31,10.31,0,0,0,.28-3.18c0-.08-.13-.08-.12,0Z"/><path class="cls-3" d="M23.58,20a6.77,6.77,0,0,1,.64,1.85c0,.08.13.05.12,0a7.05,7.05,0,0,0-.65-1.89c0-.07-.15,0-.11.07Z"/><path class="cls-3" d="M28,28.11a2.61,2.61,0,0,1-.51.94c0,.06,0,.15.09.09a2.56,2.56,0,0,0,.54-1c0-.07-.1-.11-.12,0Z"/><path class="cls-3" d="M28,28.1c-.18.39-.37.78-.56,1.16,0,.07.07.14.11.07.19-.39.38-.78.56-1.17,0-.07-.07-.13-.11-.06Z"/><path class="cls-3" d="M34,34.06A7.25,7.25,0,0,1,34.49,36c0,.08.14.08.13,0a7.12,7.12,0,0,0-.54-2c0-.08-.15,0-.12,0Z"/><path class="cls-3" d="M34.39,35.47a6.37,6.37,0,0,1,0,1.38c0,.08.12.08.13,0a6.37,6.37,0,0,0,0-1.38c0-.08-.14-.08-.13,0Z"/></g><g id="Layer_7" data-name="Layer 7"><path class="cls-5" d="M10,13.54l3.34-.26c.72,0,.73-1.19,0-1.13L10,12.41c-.72.05-.73,1.19,0,1.13Z"/><path class="cls-5" d="M12.39,17.45c1.28.26,1.77-1.71,2-2.62.21-.7-.89-1-1.1-.3A7.69,7.69,0,0,1,13,15.58a5.24,5.24,0,0,1-.23.48c-.07.14-.23.26,0,.3-.71-.15-1,.95-.3,1.09Z"/><path class="cls-5" d="M19.83,8.59a17.27,17.27,0,0,1,.59-2.75.57.57,0,0,0-1.1-.3,19.63,19.63,0,0,0-.62,3.05c-.1.72,1,.72,1.13,0Z"/><path class="cls-5" d="M20.23,10.5a6,6,0,0,0,2.58-.31c.68-.25.39-1.35-.3-1.1a5.05,5.05,0,0,1-2.28.27c-.73-.08-.72,1.06,0,1.14Z"/><path class="cls-5" d="M40.79,35A10.06,10.06,0,0,1,42,36.58l.78-.78a8.36,8.36,0,0,1-1.53-1.5c-.41-.5-1.27.16-.9.69l1.74,2.44c.42.59,1.41,0,1-.58l-1.74-2.44-.89.69a9.71,9.71,0,0,0,1.77,1.68c.46.35,1.06-.32.78-.78a12.53,12.53,0,0,0-1.42-1.82c-.5-.53-1.3.27-.8.81Z"/><path class="cls-5" d="M30.51,42.3a25.19,25.19,0,0,1,1.73,2.24l.89-.69a11.91,11.91,0,0,1-1.32-2.19c-.31-.66-1.29-.08-1,.57a12.07,12.07,0,0,0,1.5,2.42c.39.51,1.25-.16.89-.69a25.27,25.27,0,0,0-1.91-2.46c-.48-.56-1.28.25-.8.8Z"/><path class="cls-5" d="M29,29.69a10.47,10.47,0,0,1,2.49,3.12l.49-.85c-.21,0-.88-1.34-1-1.56l-1-1.69a.57.57,0,0,0-1.06.29v.24a.57.57,0,0,0,1.14,0V29l-1.06.28,1.52,2.54c.34.57.7,1.36,1.48,1.28a.58.58,0,0,0,.49-.86,11,11,0,0,0-2.67-3.35c-.55-.47-1.36.33-.8.8Z"/><path class="cls-5" d="M24,22.56l.33.51c.4.61,1.38,0,1-.58L25,22c-.4-.61-1.38,0-1,.58Z"/><path class="cls-5" d="M17.39,13.6a4.9,4.9,0,0,1,.75.76l.81-.8-.08-.1c-.47-.56-1.27.25-.81.8l.08.1c.48.57,1.26-.24.81-.8a5,5,0,0,0-.76-.77c-.56-.45-1.37.35-.8.81Z"/><path class="cls-5" d="M17.32,13.75,18.39,15c.46.56,1.27-.25.8-.81l-1.07-1.29c-.47-.56-1.27.25-.8.81Z"/><path class="cls-6" d="M19.7,8.75a18.23,18.23,0,0,1,.55-2.54L20,6.55l.05,0-.69-.09,0,0-.15-.55v0l.54-.42h0a.57.57,0,0,0,0,1.14h0a.57.57,0,0,0,.55-.42.61.61,0,0,0-.16-.62.58.58,0,0,0-.69-.09c-.4.27-.41.77-.51,1.21L18.6,8.45c-.15.71.95,1,1.1.3Z"/><path class="cls-6" d="M20.38,10.75,22.73,10c.7-.22.4-1.31-.3-1.1l-2.36.71a.57.57,0,0,0,.31,1.1Z"/><path class="cls-6" d="M22.08,9.94V10a.57.57,0,0,0,1.14,0V9.94a.57.57,0,0,0-1.14,0Z"/><path class="cls-6" d="M17.85,13.15l.91,1.4c.39.61,1.38,0,1-.58l-.91-1.39c-.39-.61-1.38,0-1,.57Z"/><path class="cls-6" d="M24.49,22.22l.24.43c.35.64,1.33.07,1-.57l-.24-.44c-.36-.64-1.34-.06-1,.58Z"/><path class="cls-6" d="M29.2,29l3.12,4.12c.44.58,1.42,0,1-.57l-3.12-4.13c-.43-.57-1.42,0-1,.58Z"/><path class="cls-6" d="M41.29,35.06l0-.07-.34.26c-.33-.17-.43-.14-.28.08l.15.29a5.43,5.43,0,0,0,.35.57,7.13,7.13,0,0,0,.84,1,.57.57,0,0,0,.9-.68c-.42-.89-.88-1.76-1.37-2.61a.57.57,0,0,0-1,.58c.49.85.94,1.71,1.37,2.6l.89-.69a6.77,6.77,0,0,1-1.23-1.77c-.27-.48-1-.75-1.32-.11s.67,1.23,1,.57Z"/><path class="cls-5" d="M31.14,32.85l0,0c-.52.52.29,1.33.8.8l0,0c.51-.52-.29-1.33-.8-.8Z"/><path class="cls-5" d="M31.87,41.47l-.07,0a.57.57,0,0,0-.57,1l.06,0a.57.57,0,0,0,.58-1Z"/><path class="cls-5" d="M31,42.15l0,0a.57.57,0,0,0,.81-.8l0,0c-.52-.53-1.32.28-.81.8Z"/><path class="cls-5" d="M33.65,44.09V44a.57.57,0,0,0-1.13,0v.07a.57.57,0,0,0,1.13,0Z"/><path class="cls-5" d="M32.46,43.87h0a.57.57,0,0,0,0-1.14h0a.57.57,0,0,0,0,1.14Z"/><path class="cls-5" d="M28.64,29.85h0a.57.57,0,0,0,0-1.14h0a.57.57,0,0,0,0,1.14Z"/><path class="cls-5" d="M23.67,23.32c.06.08.22.37.19.1.09.72,1.23.72,1.14,0a1.58,1.58,0,0,0-.53-.9c-.48-.56-1.28.25-.8.8Z"/><path class="cls-5" d="M13.63,17.49l.16-.22c.44-.59-.55-1.16-1-.57l-.16.22c-.44.58.55,1.15,1,.57Z"/><path class="cls-5" d="M9.73,13.64a6.69,6.69,0,0,0,3,0,.57.57,0,0,0-.3-1.09,5.45,5.45,0,0,1-2.41,0c-.72-.12-1,1-.31,1.1Z"/><path class="cls-6" d="M20.39,6.12h0l-.84-.34,0,.07c-.15.72,1,1,1.09.31a1.22,1.22,0,0,0,0-.68.58.58,0,0,0-.84-.34h0c-.65.34-.07,1.33.57,1Z"/><path class="cls-6" d="M22.37,9.5l0,.42c.05.73,1.18.74,1.14,0l0-.42c0-.73-1.18-.73-1.13,0Z"/><path class="cls-6" d="M17.73,12.85a2.66,2.66,0,0,0,.54,1q.38.54.78,1c.46.57,1.26-.24.81-.81-.21-.26-.42-.53-.61-.81a2.45,2.45,0,0,1-.43-.7c-.11-.72-1.2-.41-1.09.3Z"/><path class="cls-6" d="M24.44,22.24c.34.37.53,1.05,1.07,1.2a.56.56,0,0,0,.55-.14v0c.48-.55-.32-1.36-.8-.8h0l.55-.14c.17,0,.09,0,0-.07s-.13-.21-.2-.32a6.55,6.55,0,0,0-.39-.53c-.49-.55-1.29.26-.81.81Z"/></g><g id="Layer_8" data-name="Layer 8"><path class="cls-7" d="M4,36.86l6.72,9.49c1.78,2.51,3.4,5.29,5.6,7.45a.57.57,0,0,0,.89-.69,81.87,81.87,0,0,0-5.66-8.45c-2.15-2.8-5.62-5.58-6.75-9l-1,.55A48.13,48.13,0,0,1,7.91,42c.38.63,1.37,0,1-.57a49.61,49.61,0,0,0-4.28-6,.57.57,0,0,0-1,.55c.93,2.81,3.16,4.73,5,7a79.12,79.12,0,0,1,7.5,10.74l.89-.69c-2.42-2.39-4.24-5.56-6.21-8.34L4.93,36.28c-.42-.59-1.41,0-1,.58Z"/><path class="cls-7" d="M7.13,34.41l3,4c.43.58,1.42,0,1-.58q-1.5-2.09-2.93-4.24c-.4-.61-1.38,0-1,.57l6.5,10a.57.57,0,0,0,1-.57L11.46,38l-1,.58q2.64,4.21,5.51,8.28c.41.59,1.39,0,1-.57l-3.19-4.67-1,.58,4.41,5.89,1-.58-3.63-4.78-.9.69a74.62,74.62,0,0,1,5,6.57l.89-.69-2-2.14c-.45-.48-1.2.14-.9.69a12.81,12.81,0,0,0,2.87,3.59c.46.4,1.28-.13.89-.69q-6.12-9-12.91-17.55c-.46-.58-1.26.23-.81.8q6.71,8.41,12.74,17.32l.9-.69a11.93,11.93,0,0,1-2.69-3.35l-.9.69,2,2.13c.44.47,1.26-.15.9-.69a77.85,77.85,0,0,0-5.2-6.8c-.42-.48-1.29.18-.89.69l3.63,4.79c.43.57,1.42,0,1-.58l-4.41-5.89c-.42-.57-1.4,0-1,.58L16,46.88l1-.57c-1.91-2.72-3.74-5.47-5.51-8.29a.57.57,0,0,0-1,.58l3.2,5.54,1-.57-6.5-10-1,.57c1,1.44,1.92,2.85,2.93,4.25l1-.58-3-4c-.43-.58-1.42,0-1,.57Z"/><path class="cls-7" d="M10.58,31.74l1.21,1.73.89-.69a8.64,8.64,0,0,1-1.49-1.86l-.89.68c2.12,2.43,4.12,4.93,6,7.54l.78-.78a19,19,0,0,1-4.26-4.89l-.89.69a78.94,78.94,0,0,1,6.4,8.93l1-.58a44.71,44.71,0,0,1-2.82-4.38l-1,.57L21.31,47c.42.6,1.4,0,1-.57L19.85,42.9l-.89.69a49.38,49.38,0,0,1,3.85,5.13L23.7,48l-1.19-1.6c-.28-.66-1.38-.37-1.1.31a4.91,4.91,0,0,0,1.49,2.1c.46.39,1.27-.12.89-.69a50.14,50.14,0,0,0-4-5.37c-.41-.48-1.26.16-.89.69L21.31,47l1-.57-5.8-8.34c-.41-.59-1.35-.07-1,.57a43.69,43.69,0,0,0,2.82,4.39c.42.58,1.38.06,1-.58a81,81,0,0,0-6.58-9.16c-.4-.49-1.25.16-.89.69a20.43,20.43,0,0,0,4.67,5.3c.45.34,1.1-.33.78-.78q-2.93-4-6.2-7.76c-.42-.48-1.24.15-.89.69a14,14,0,0,0,1.67,2.09.57.57,0,0,0,.89-.69,11.14,11.14,0,0,0-1.39-1.95c-.46-.57-1.26.24-.8.8Z"/><path class="cls-7" d="M14.82,28.55l-.13-.11a.61.61,0,0,0-.69-.09l-.18.12a.58.58,0,0,0-.26.64c.69,2,2.8,4,4,5.68l.9-.69a30.11,30.11,0,0,1-3.25-4.84l-1,.57,6.59,9.4.89-.69c-1.11-1.42-2.17-2.87-3.2-4.36l-1,.58,8.3,11.51c.42.58,1.37.06,1-.58a15.11,15.11,0,0,0-1.74-2.32l-.8.8A11.35,11.35,0,0,1,26,46c.43.56,1.38.06,1-.58a46.19,46.19,0,0,0-4.56-6c-.48-.55-1.29.26-.8.8A44.29,44.29,0,0,1,26,46l1-.58a16.7,16.7,0,0,0-1.81-2.05.57.57,0,0,0-.8.8,9.39,9.39,0,0,1,1.56,2.1l1-.58-8.3-11.51c-.42-.58-1.4,0-1,.58,1.08,1.56,2.2,3.09,3.38,4.58.39.5,1.26-.16.89-.69l-6.59-9.39a.57.57,0,0,0-1,.57,32.27,32.27,0,0,0,3.42,5.08c.41.49,1.28-.18.89-.69l-1.92-2.57c-.93-1.23-1.42-1.29-2.65-2.29.56.45,1.37-.35.8-.81Z"/><path class="cls-7" d="M33.44,14.27l2.27,3.21.9-.69-2.7-3.13c-.42-.48-1.29.17-.9.69q3.14,4.14,6.59,8l.81-.81a19.14,19.14,0,0,1-4.74-5.28l-1,.58a72.61,72.61,0,0,0,7.42,9.7l.8-.81-3.47-3.51-.81.81,2.53,2.45c.53.51,1.33-.29.8-.8l-2.52-2.46a.57.57,0,0,0-.81.81l3.48,3.51c.51.52,1.29-.27.8-.81a70.18,70.18,0,0,1-7.24-9.47c-.39-.61-1.36-.05-1,.58a20,20,0,0,0,4.91,5.51.57.57,0,0,0,.81-.81Q37,17.79,34,13.78l-.89.69,2.7,3.13c.42.48,1.27-.16.9-.69L34.42,13.7c-.42-.59-1.41,0-1,.57Z"/><path class="cls-7" d="M42.53,26.68a16.66,16.66,0,0,0,1,1.46l.69-.89a4.62,4.62,0,0,1-1.2-1.09l-.8.8a12.65,12.65,0,0,1,3.43,4.54l.89-.69A26.44,26.44,0,0,1,43.69,27c-.4-.61-1.38,0-1,.57a27.15,27.15,0,0,0,3.06,4.08c.47.5,1.14-.13.89-.69a13.19,13.19,0,0,0-3.61-4.76.57.57,0,0,0-.8.8,5.42,5.42,0,0,0,1.43,1.27c.59.38,1-.42.69-.89a13.06,13.06,0,0,1-.86-1.24c-.38-.62-1.37-.05-1,.58Z"/><path class="cls-7" d="M36.75,12,41,18.46l1-.57c-1.58-2.22-3-4.49-4.4-6.84a.57.57,0,0,0-1.06.29c.05,1.57,1.14,2.63,2,3.9l4.63,6.58a.57.57,0,0,0,1-.58,23,23,0,0,0-1.64-2.9l-.9.69c1.76,2.25,3.43,4.56,5,6.93l.89-.68-2.64-2.87c-.5-.55-1.25.24-.8.8l4.83,6c.46.57,1.26-.24.81-.81l-4.84-6-.8.8,2.63,2.87c.44.47,1.26-.15.9-.69q-2.47-3.67-5.2-7.16c-.4-.51-1.25.15-.9.68a23.89,23.89,0,0,1,1.65,2.91l1-.58-3.47-4.93c-.92-1.31-3-3.32-3-5l-1.06.28C38,14,39.44,16.24,41,18.46c.42.59,1.39.05,1-.57l-4.27-6.47c-.4-.61-1.39,0-1,.57Z"/><path class="cls-7" d="M39.73,9.24l4.72,6.38.9-.69A26.31,26.31,0,0,1,41.43,9.3l-1,.58a81.9,81.9,0,0,0,6.39,8.46l.81-.8A38,38,0,0,1,44.48,14c-.41-.52-1.21.14-.9.69a41.76,41.76,0,0,0,4.87,6.73c.43.47,1.26-.16.89-.69L47,17.32l-.9.69a50.76,50.76,0,0,1,4,5.21l.89-.69L49.52,21c-.44-.46-1.28.15-.9.69,1.22,1.7,2.36,3.44,3.43,5.24a.57.57,0,0,0,1-.44l-.17-.86-.83.64.5.3a.57.57,0,0,0,.57-1l-.5-.29a.58.58,0,0,0-.84.64l.17.87,1-.44c-1.07-1.8-2.21-3.54-3.43-5.25l-.89.69,1.49,1.56c.44.46,1.26-.14.9-.68a53.9,53.9,0,0,0-4.18-5.45c-.43-.48-1.26.16-.9.69l2.34,3.41.9-.69a38.48,38.48,0,0,1-4.69-6.5l-.9.69a38.11,38.11,0,0,0,3.17,3.54c.53.52,1.28-.25.81-.8A79,79,0,0,1,41.43,9.3a.57.57,0,0,0-1,.58,27.68,27.68,0,0,0,4.09,5.85c.43.47,1.28-.16.9-.69L40.71,8.67c-.43-.58-1.41,0-1,.57Z"/><path class="cls-7" d="M43.35,6.65l.11.63.83-.64-.55-.34c-.59-.37-1.06.42-.69.89l3.68,4.7.8-.81a6,6,0,0,1-2-2.48l-.89.69c1.26,1.62,2.46,3.26,3.61,5l.78-.77a5.11,5.11,0,0,1-2-2.41l-.89.69,5.9,7c.47.56,1.26-.25.8-.81l-1.41-1.73c-.35-.42-1.16,0-1,.56a13.38,13.38,0,0,0,1.26,2.4l1-.57-.35-.47c-.42-.57-1.37-.07-1,.57a43.65,43.65,0,0,0,4.14,5.68c.43.49,1.23-.14.9-.69a82.21,82.21,0,0,0-4.92-7.19c-.44-.58-1.43,0-1,.57a80.12,80.12,0,0,1,4.91,7.2l.9-.69a40.57,40.57,0,0,1-4-5.45l-1,.57.35.47c.43.58,1.4,0,1-.57a8.75,8.75,0,0,1-1.14-2.13l-1,.55L52,18.75l.8-.81-5.9-7c-.43-.51-1.17.14-.89.69a7.31,7.31,0,0,0,2.44,2.82c.46.33,1.09-.32.77-.78-1.2-1.77-2.47-3.49-3.79-5.18-.41-.52-1.19.14-.89.69a9.09,9.09,0,0,0,2.2,2.71.57.57,0,0,0,.8-.81L43.85,6.39l-.69.89.56.34A.57.57,0,0,0,44.55,7l-.1-.63c-.12-.72-1.21-.41-1.1.3Z"/><path class="cls-7" d="M39.42,22.21a7.15,7.15,0,0,0,1.19,2.43l1.58,2.69a.57.57,0,0,0,1-.57L41.79,24.4a8.07,8.07,0,0,1-1.28-2.49c-.11-.72-1.2-.42-1.09.3Z"/><path class="cls-7" d="M36.76,12.36a.57.57,0,0,0,0-1.14.57.57,0,0,0,0,1.14Z"/><path class="cls-7" d="M43.49,22.2a4.13,4.13,0,0,0,.68,1c.49.55,1.29-.26.8-.8a3.7,3.7,0,0,1-.5-.74c-.33-.65-1.31-.08-1,.57Z"/><path class="cls-7" d="M47,25.89l2,3.21c.39.61,1.37,0,1-.58L48,25.32c-.39-.62-1.37-.05-1,.57Z"/><path class="cls-7" d="M39.39,9.87a94.26,94.26,0,0,1,6.28,7.85c1.34,2,2.43,4.14,4.19,5.84.53.51,1.33-.29.8-.8-2.12-2.06-3.3-4.79-5.08-7.12S42,11.25,40.19,9.07c-.46-.57-1.27.24-.8.8Z"/><path class="cls-7" d="M42.57,7.16c1.73,2.15,3.56,4.25,5.16,6.51,1.27,1.8,2.21,3.78,3.72,5.41.5.54,1.3-.27.81-.8-1.71-1.85-2.78-4.2-4.3-6.2s-3.05-3.82-4.59-5.73c-.46-.57-1.26.24-.8.81Z"/><path class="cls-7" d="M14.74,29.18l0-.06-1,.75a1.07,1.07,0,0,1,.14.16l.87-.87-.09-.11.18.43v0l-.62.62-.39-.18c.37.69,1.44.07,1.06-.63a.74.74,0,0,0-.67-.42.61.61,0,0,0-.61.61.83.83,0,0,0,.27.57c.51.62,1.35-.26.87-.87a1.07,1.07,0,0,0-.14-.16c-.51-.54-1.25.14-1,.74l0,.06c.33.72,1.39.09,1.06-.62Z"/></g><g id="Layer_3" data-name="Layer 3"><polygon class="cls-8" points="31.67 34 28.04 29.03 29.67 27.8 33.3 32.77 31.67 34"/><polygon class="cls-8" points="3.07 36.34 16.36 54.56 17.99 53.33 4.69 35.11 3.07 36.34"/><polygon class="cls-8" points="6.32 33.88 19.62 52.1 21.25 50.87 7.95 32.65 6.32 33.88"/><polygon class="cls-8" points="9.58 31.41 22.88 49.64 24.5 48.41 11.21 30.18 9.58 31.41"/><polygon class="cls-8" points="12.83 28.95 26.13 47.18 27.76 45.95 14.46 27.72 12.83 28.95"/><line class="cls-8" x1="12.55" y1="45.87" x2="14.18" y2="44.64"/><line class="cls-8" x1="10.74" y1="43.39" x2="12.37" y2="42.16"/><line class="cls-8" x1="15.81" y1="43.41" x2="17.44" y2="42.18"/><line class="cls-8" x1="13.99" y1="40.93" x2="15.62" y2="39.7"/><line class="cls-8" x1="19.06" y1="40.95" x2="20.69" y2="39.72"/><line class="cls-8" x1="17.25" y1="38.47" x2="18.88" y2="37.24"/><line class="cls-8" x1="20.51" y1="36.01" x2="28.64" y2="29.86"/><line class="cls-8" x1="22.32" y1="38.49" x2="30.46" y2="32.34"/><polyline class="cls-8" points="9.11 44.62 5.86 47.08 7.67 49.57 10.92 47.1"/><polygon class="cls-8" points="43.76 5.58 57.06 23.8 55.43 25.03 42.13 6.81 43.76 5.58"/><polygon class="cls-8" points="40.51 8.04 53.8 26.26 52.18 27.49 38.88 9.27 40.51 8.04"/><polygon class="cls-8" points="37.25 10.5 50.55 28.72 48.92 29.95 35.62 11.73 37.25 10.5"/><polygon class="cls-8" points="33.99 12.96 47.29 31.18 45.66 32.41 32.37 14.19 33.99 12.96"/><line class="cls-8" x1="49.99" y1="17.58" x2="48.36" y2="18.81"/><line class="cls-8" x1="48.18" y1="15.09" x2="46.55" y2="16.32"/><line class="cls-8" x1="46.74" y1="20.04" x2="45.11" y2="21.27"/><line class="cls-8" x1="44.92" y1="17.55" x2="43.29" y2="18.78"/><line class="cls-8" x1="43.48" y1="22.5" x2="41.85" y2="23.73"/><line class="cls-8" x1="41.67" y1="20.01" x2="40.04" y2="21.24"/><line class="cls-8" x1="38.41" y1="22.47" x2="30.27" y2="28.63"/><line class="cls-8" x1="40.22" y1="24.96" x2="32.09" y2="31.11"/><polyline class="cls-8" points="49.81 13.86 53.06 11.4 54.88 13.89 51.62 16.35"/><polygon class="cls-8" points="30.83 39.77 38.97 33.62 42.59 38.59 34.46 44.74 30.83 39.77"/><polyline class="cls-8" points="28.04 29.03 26.41 30.26 22.79 25.29 27.67 21.6 31.3 26.57 29.67 27.8"/><polyline class="cls-8" points="33.3 32.77 34.92 31.54 37.34 34.85 32.46 38.54 30.04 35.23 31.67 34"/><polyline class="cls-8" points="39.57 34.45 41.2 33.22 43.62 36.53 41.99 37.76"/><polyline class="cls-8" points="31.43 40.6 29.81 41.83 32.22 45.14 33.85 43.91"/><line class="cls-8" x1="34.9" y1="36.7" x2="36.71" y2="39.18"/><line class="cls-8" x1="36.53" y1="35.47" x2="37.74" y2="37.12"/><line class="cls-8" x1="33.27" y1="37.93" x2="34.48" y2="39.58"/><polyline class="cls-8" points="24.41 24.06 23.2 22.4 24.83 21.17 26.04 22.83"/><polygon class="cls-8" points="18.37 15.78 16.55 13.29 18.18 12.06 20 14.54 18.37 15.78"/><polyline class="cls-8" points="24.83 21.17 25.65 20.55 20.81 13.93 17.55 16.39 22.39 23.02 23.2 22.4"/><polygon class="cls-8" points="14.93 14.52 13.11 12.04 18 8.34 19.81 10.83 14.93 14.52"/><polygon class="cls-8" points="16.58 8.13 17.18 8.96 13.93 11.42 13.32 10.59 16.58 8.13"/><polygon class="cls-8" points="18.24 8.68 19.21 10 21.01 5.55 19.39 4.72 18.24 8.68"/><polyline class="cls-8" points="19.21 10 23.07 8.37 23.46 10.64 19.81 10.83"/><polygon class="cls-8" points="13.36 12.37 14.32 13.69 9.62 14.16 9.3 12.35 13.36 12.37"/><polyline class="cls-8" points="14.32 13.69 11.67 16.98 13.69 18.02 14.93 14.52"/></g></svg>