<svg xmlns="http://www.w3.org/2000/svg" viewBox="0 0 76 76"><defs><style>.cls-1{fill:#1b7985;}.cls-2{fill:#0c1a37;}.cls-3{fill:#004c54;}.cls-4{fill:#005587;}.cls-5{fill:#f47d20;}.cls-6{fill:#b55d13;}.cls-7{fill:#007b9f;}.cls-8{fill:none;stroke:#000;stroke-miterlimit:10;stroke-width:1.31px;}</style></defs><title>Artboard76xIOS</title><g id="Layer_5" data-name="Layer 5"><path class="cls-1" d="M24.58,19.25l-.4-.06a.75.75,0,0,0-1.08.44l-.1,0,.89,1.16c.28-.31,1.38-1.91,1.76-1.94-.48-.16-.46,0,.05.52l.7,1.13,2.83,4.53a.74.74,0,0,0,1.27-.75l-1.44-2.61-1.16.89c.49.43,1.43,1.15,1.61,1.8.32,1.18-1.08,1.62-1.81,2.08l1,.26-2-3.34c-.36-.59-2.14-2.81-2-3.41l-.71.54c.7-.07,2,2.82,2.33,3.41a6.83,6.83,0,0,0,1.91,2.35.74.74,0,0,0,1.11-.63c-.09-2.83-2.51-5.18-3.66-7.66l-1.27.75.17.3a.74.74,0,0,0,1.27-.75L25.7,18c-.48-.84-1.67-.1-1.27.75a26.62,26.62,0,0,0,1.89,3.43,6.65,6.65,0,0,1,1.56,3.48L29,25c-1.3-1-1.88-2.89-2.8-4.21C25.65,20,25.08,19,24,19.05a.78.78,0,0,0-.72.54c-.27,1.12.69,2.12,1.23,3l2.91,4.87a.75.75,0,0,0,1,.26c1-.61,3-1.31,2.91-2.77-.11-1.29-1.5-2.64-2.4-3.42a.74.74,0,0,0-1.16.89l1.44,2.62,1.27-.75-2.29-3.68a12.15,12.15,0,0,0-1.89-2.93C25,16.58,23.58,19,22.85,19.79A.74.74,0,0,0,23.74,21a1.2,1.2,0,0,0,.78-.93l-1.08.44a2,2,0,0,0,1.14.26.74.74,0,0,0,0-1.47Z"/><path class="cls-1" d="M28.2,25.09l.79.47a.76.76,0,0,0,1.12-.64l0-.29c0-.94-1.51-.95-1.47,0v.29l1.11-.64L29,23.81a.74.74,0,0,0-.75,1.28Z"/><path class="cls-1" d="M30.12,28.15l.68.69A.74.74,0,0,0,32,28.12,2.06,2.06,0,0,0,31.48,27a.74.74,0,0,0-1.28.74c.66,1.32.21,2.07-.53,3.13a1.67,1.67,0,0,0-.29.67c-.13.89.58,1.43,1.1,2,1.15,1.28,2.24,4.54,4.41,3.63,1.26-.54,4.23-2.35,4.24-4,0-1-1.06-2-1.59-2.72A16.53,16.53,0,0,0,35,27a.77.77,0,0,0-.89-.11,8.8,8.8,0,0,0-2.35,2c-.58.58-1.64,1.46-1.82,2.32-.34,1.72,2.27,3.81,3.35,4.74.61.53,1.61-.13,1.16-.89-.79-1.33-2-3.08-2.23-4.63l-.19.72c.28-.32,1.44-1.42,1.89-1.34s1.66,2.2,1.84,2.64a1.29,1.29,0,0,1-.09,1.48s-1.1.82-1,.84c-.63-.1-1.85-3.54-1.75-3.9l-1.24.33a37.79,37.79,0,0,1,2.85,3.93.74.74,0,0,0,1.27-.75c-.73-1.59-1.5-3.17-2.29-4.73l-1.27.75,2.52,4c.43.69,1.62.26,1.35-.56a24,24,0,0,0-2.07-4.63l-1.28.75,2.1,3.23a.74.74,0,0,0,1.27-.74,29.37,29.37,0,0,0-1.64-3.21l-1.28.75q1.05,1.75,2.16,3.48l1.28-.75-.58-.89c-.52-.79-1.8-.05-1.28.75l.58.89c.52.79,1.8,0,1.28-.75-.74-1.15-1.46-2.3-2.16-3.48a.74.74,0,0,0-1.28.75,30.23,30.23,0,0,1,1.65,3.2l1.27-.74-2.09-3.24a.74.74,0,0,0-1.28.75,22.17,22.17,0,0,1,1.93,4.27l1.35-.57-2.53-4a.74.74,0,0,0-1.27.75c.79,1.56,1.55,3.13,2.29,4.73l1.27-.75a43.8,43.8,0,0,0-3.07-4.23.75.75,0,0,0-1.24.33c-.36,1.36.34,2.37,1,3.51.42.72.88,2.15,1.91,2.21a5.31,5.31,0,0,0,2.89-1.65c.79-.94.3-1.92-.27-2.85s-1-1.54-1.47-2.31c-.24-.38-.54-1.11-1-1.33-.83-.39-1.54.42-2.13.87-.77.61-1.78,1-1.6,2.12.28,1.61,1.53,3.38,2.35,4.75l1.16-.89c-1-.82-2.79-2.21-2.56-3.48.19-1.06,2.1-2.79,3.07-3.23L34,28a13.64,13.64,0,0,1,2.1,2.85L36.85,32l.38.56q.72.45.15.87a4.78,4.78,0,0,1-2.21,1.87c-1.42.66-1.67-.32-2.4-1.31-.44-.6-1-1.11-1.45-1.71-.53-.76-.08-.74.38-1.35.95-1.24.4-2.71-.22-3.95l-1.28.74.41.82,1.23-.72-.68-.68a.74.74,0,0,0-1,1Z"/><path class="cls-1" d="M23.05,15.54l-.15-.35-1.27.74,1.51,2,1.16-.89-1.69-1.75a.74.74,0,0,0-1.16.9,15.76,15.76,0,0,0,1.4,2c.54.64,1.61-.19,1.16-.9l-1.7-2.67a4,4,0,0,0-1.17-1.49c-1.26-.68-1.84.85-2.23,1.75-.26.6.33,1.47,1,1l1.67-1.14-.9-1.16c-.31.25-2.46,2.28-2.46.92,0-.6,2.11-1.93,2.61-2.34l-1-1a1.53,1.53,0,0,1-2.15.34v1.28l3-1.73-.89-.12c.45.53,1,1.47,1.81,1.36.17,0,.6-.37.65-.36.22-.32.2-.18-.06.44A1.64,1.64,0,0,1,21,13.45l.84,1.08L22.61,13a.75.75,0,0,0-1-1,8.9,8.9,0,0,0-1.76,1c-.22.16-.43.34-.64.52a3.61,3.61,0,0,0-.35.33c-.28.17-.21.29.19.37v.74a4.31,4.31,0,0,1,2.09-1.81c.86-.42.11-1.69-.74-1.27s-3.61,2.13-2.45,3.38a1.11,1.11,0,0,0,1.44.11,9.58,9.58,0,0,0,1.05-1,7.94,7.94,0,0,1,1.91-1.11l-1-1-.74,1.59c-.25.52.17,1.32.83,1.08,1.42-.51,2.91-2.21,2.09-3.82a1.42,1.42,0,0,0-1.64-.78c-.32.09-.46.38-.71.53.53.08.58,0,.18-.34l-.53-.62a.74.74,0,0,0-.89-.12l-3,1.73a.75.75,0,0,0,0,1.28,2.94,2.94,0,0,0,3.94-.58.74.74,0,0,0-1-1c-.9.72-2.35,1.51-3,2.48-.51.8.05,1.74.54,2.4,1.3,1.73,3.17-.44,4.37-1.38.65-.51-.21-1.63-.9-1.16l-1.66,1.14,1,1c0,.08.59-1.25.28-1.14a11.92,11.92,0,0,1,.71,1.11L22.73,18l1.16-.9a11.93,11.93,0,0,1-1.16-1.65l-1.16.89,1.69,1.75c.56.59,1.67-.21,1.15-.89l-1.51-2a.74.74,0,0,0-1.27.74l.15.36c.37.87,1.64.12,1.27-.75Z"/><path class="cls-1" d="M22.76,11.48c-.14,0-.22-.21-.29-.13a1.23,1.23,0,0,0,0,.26c0,.26,0,.52,0,.78a.74.74,0,0,0,1.48,0c0-.94.08-2.33-1.2-2.39-1-.05-1,1.43,0,1.48Z"/><path class="cls-2" d="M41.54,37.33l1-1.49c.51-.74-.55-1.39-1.15-.89l-1.31.77.84,1.08.23-.29c.6-.46.3-1.62-.57-1.34l-.72.22.72,1.24a3,3,0,0,1,1.05-.86l-.74-1.27-.86.57.9,1.16q1.71-1.5,3.46-3c.77-.63,1.54-1.25,2.33-1.83.36-.27,1.8-1.61,1.86,0,0,.29-1.81,1.42-2.06,1.61l-1.73,1.3c-1.35,1-2.72,2-4.09,3l1.11.64c.15-1.63,1.82-2.69,2.95-3.67l3.44-3c.73-.63-.32-1.65-1-1L41.55,35c-.63.53.22,1.67.89,1.16l3.15-2.39c.36-.27,3.18-2,3.15-2.38-.12-1.32-2.4,1-2.73,1.28l-3.18,2.71c-.72.62.33,1.66,1.05,1,1.58-1.36,3.2-2.69,4.76-4.07.58-.52,1.54-1.39.76-2.2s-1.66.14-2.27.6L41.7,34.89,42.59,36l5.61-4.73-1-1c-1.67,1.45-3.41,2.85-5,4.37A5.11,5.11,0,0,0,40.34,38a.74.74,0,0,0,1.11.64q3.55-2.55,7-5.21c1.12-.86,2.83-2.31,1.58-3.81-1-1.18-2.48-.53-3.52.16a69.2,69.2,0,0,0-6.66,5.43c-.63.55.2,1.63.9,1.16l.85-.57c.79-.52.08-1.76-.74-1.27a5.44,5.44,0,0,0-1.35,1.08.75.75,0,0,0,.71,1.24l.72-.23-.57-1.35a2.59,2.59,0,0,0-.76.82c-.31.51.22,1.33.84,1.08a6.87,6.87,0,0,0,2-1.15l-1.16-.89-1,1.48c-.54.79.74,1.53,1.27.75Z"/><path class="cls-2" d="M49.69,29.46l.08-.44c.13-.64-.73-1.36-1.23-.72a2.7,2.7,0,0,0-.48.88c-.29.91,1.13,1.3,1.42.4a.8.8,0,0,1,.1-.23l-1.23-.72-.08.44c-.18.93,1.24,1.33,1.42.39Z"/><path class="cls-2" d="M52.56,26.89a5.4,5.4,0,0,1,.68,1l1-1a1.62,1.62,0,0,1-.72-.87c-.31-.89-1.72-.52-1.42.39a7.92,7.92,0,0,0,1,2.06c.55.77,1.83,0,1.28-.75a6.54,6.54,0,0,1-.88-1.7l-1.42.39a3.24,3.24,0,0,0,1.39,1.76c.66.41,1.33-.38,1-1a6,6,0,0,0-.91-1.33c-.63-.72-1.67.33-1,1Z"/><path class="cls-2" d="M52.67,25.59l0,0a.75.75,0,0,0-.54.71v.05a.75.75,0,0,0,.54.71l0,0c.9.3,1.29-1.12.39-1.43h0l.54.71v-.05L53,27h0c.88-.32.5-1.75-.4-1.43Z"/><path class="cls-2" d="M52.66,25.33h-.1a.74.74,0,0,0,0,1.48h.1a.74.74,0,0,0,0-1.48Z"/><path class="cls-2" d="M56.58,23a5.09,5.09,0,0,0,1.48,2.23l.9-1.16c-.5-.26-1.21-.84-1.28-1.45l-.11.37,0-.08-.83.34h0L56.39,23l0,.05.12-.89,0,0c-.72.63.33,1.67,1,1.05l0,0a.74.74,0,0,0,.11-.89.72.72,0,0,0-.51-.4.76.76,0,0,0-.83.34,1.92,1.92,0,0,0,.4,1.85,4,4,0,0,0,1.47,1.32c.71.38,1.56-.58.89-1.16A3.62,3.62,0,0,1,58,22.65c-.31-.9-1.73-.51-1.42.39Z"/><path class="cls-2" d="M56.21,23.49a10.1,10.1,0,0,0,1.48,2.2c.63.71,1.67-.34,1.05-1.05a8.59,8.59,0,0,1-1.26-1.9c-.42-.85-1.7-.1-1.27.75Z"/><path class="cls-2" d="M53.1,25.65l-.34,0a.74.74,0,0,0-.71.93,4,4,0,0,0,1.15,2.1.74.74,0,0,0,1-1,2.78,2.78,0,0,1-.77-1.45l-.71.93.34,0c.94-.07.95-1.54,0-1.48Z"/><path class="cls-2" d="M61.63,19.39l-.05-.05a.79.79,0,0,0-.9-.11c-.81.48-.26,1.28.06,1.88s.75,1.36,1.58,1.35a1.12,1.12,0,0,0,1.09-1.41,3.45,3.45,0,0,0-.58-1l-.77-1.16c-.53-.78-1.81,0-1.28.75l.67,1c.13.2.54.62.52.86l.1-.37c.15,0,.25,0,.29-.12s0-.1-.08-.14a1.5,1.5,0,0,0-.22-.39c-.15-.27-.32-.55-.44-.83l.1.37v-.08l-.36.63.07,0-.9-.11.06,0a.76.76,0,0,0,1,0,.74.74,0,0,0,0-1Z"/><path class="cls-2" d="M64.8,17l.82,1.14a3.18,3.18,0,0,0,.73.9c.77.48,1.44-.4,1.94-.87s1.45-1,1.32-1.85-.93-1.47-1.4-2a.74.74,0,0,0-1,0c-.55.51-1.14,1-1.65,1.55a1.22,1.22,0,0,0-.39,1.27,1,1,0,0,0,1,.63,1.19,1.19,0,0,0,.68-.29,1.49,1.49,0,0,0,.23-.27c.14-.14.15-.17,0-.09l-.52-.22,0-.66c-.67.56.18,1.52.89,1.16l.65-.33c.85-.44.1-1.71-.74-1.28l-.65.33.89,1.16a1,1,0,0,0-.19-1.54,1,1,0,0,0-.9,0,1.19,1.19,0,0,0-.43.3l-.12.15c-.19.19-.11.23.23.12l.34.44,0-.19-.07.57a3.23,3.23,0,0,1,.84-.89l.93-.87h-1c.29.33.93.91,1,1.36l.08-.57c-.13.29-.58.58-.82.8a6.49,6.49,0,0,1-1,.86l.57-.08c.11.05-.33-.58-.38-.65l-.59-.83c-.55-.77-1.83,0-1.28.75Z"/><path class="cls-2" d="M22.55,48.94a11.88,11.88,0,0,1,.7,1.49.75.75,0,0,0,.91.51c1.87-.49.5-3.84-1.2-3.41a1.51,1.51,0,0,0-1,1.8c.22.94,1.07,1.32,1.64,2s1.65-.32,1-1a5.47,5.47,0,0,0-.7-.66,4.3,4.3,0,0,1-.53-.6s0-.14,0-.14-.11.09-.17.06-.06,0,.05.09.12.2.16.3l.05.13c0,.24.1.25.25.05l.91.52a13.36,13.36,0,0,0-.85-1.84c-.46-.84-1.73-.09-1.27.74Z"/><path class="cls-2" d="M27.94,45.92l-.06-.55-1.37.37,1,1.89a.75.75,0,0,0,1.16.15l8.92-7.25a.73.73,0,0,0,.12-.89c-.44-.62-.81-1.54-1.65-1.57-1,0-2.61,1.62-3.39,2.18-1.2.86-2.38,1.75-3.51,2.7-.74.63-2.21,1.59-2.54,2.56a1.27,1.27,0,0,0,.33,1.54c.78.53,1.59-.14,2.21-.53a35.6,35.6,0,0,0,7.57-6.26.74.74,0,0,0-.9-1.16,12.4,12.4,0,0,0-3,2.16,25.12,25.12,0,0,1-4.28,2.93c-.71.39-.22,1.66.57,1.35l4.21-1.67-.72-1.23c-1.47,1.79-3.82,2.43-5.16,4.37a.74.74,0,0,0,.83,1.08c3.56-1.1,6.87-4.39,9.56-6.87.7-.65-.35-1.69-1.05-1-2.49,2.31-5.59,5.48-8.9,6.5l.83,1.09c1.24-1.8,3.55-2.4,4.94-4.08.41-.5,0-1.53-.72-1.23l-4.21,1.66.57,1.35a25.75,25.75,0,0,0,3.53-2.3,19.41,19.41,0,0,1,3.73-2.79l-.9-1.16a28.38,28.38,0,0,1-4.44,4c-.55.42-1.12.82-1.69,1.21-.17.13-2.25,1.35-1.43,1.44.29,0,1.8-1.66,2.09-1.9.67-.57,1.36-1.11,2.07-1.64s1.52-1.11,2.29-1.65,1.2-1.27,1.86-.33l.12-.89-8.92,7.25,1.16.14-1-1.89c-.32-.62-1.45-.36-1.37.38l.05.55c.1.94,1.58.95,1.48,0Z"/><path class="cls-2" d="M18.45,52.28a4.07,4.07,0,0,1,.77,1.34.75.75,0,0,0,1.23.33C21.52,53,20.2,51,19,51a1.2,1.2,0,0,0-1.12,1.44,1.85,1.85,0,0,0,.47.91c.21.23.47.38.6.67.4.86,1.67.11,1.28-.75a2.24,2.24,0,0,0-.43-.58,3.28,3.28,0,0,0-.45-.46s-.29.17-.29.23.07.1.1.15.13.18.17.28l0,.07c0,.19.06.17.08-.08l1.23.33a6,6,0,0,0-1.15-2c-.62-.72-1.66.33-1,1.05Z"/><path class="cls-2" d="M14.15,55.54l.58.58a3.07,3.07,0,0,1,.25.26l.13.13c.08.1.08.09,0,0v-.39c.68.16,1,.07.81-.28a2.25,2.25,0,0,0-.08-.24,1.33,1.33,0,0,0-.32-.52.75.75,0,0,0-1.24.72c.2.78.8,2.2,1.85,1.7,1.22-.59.17-1.94-.31-2.63-.29-.44-.54-.83-1.13-.78a1.3,1.3,0,0,0-1,.7c-.57,1.05.38,1.78.89,2.56s1.8,0,1.28-.75a5.62,5.62,0,0,0-.58-.71c-.08-.09-.15-.22-.23-.31l0-.12a.24.24,0,0,1-.25.1l-.44-.34.54.79a2.08,2.08,0,0,1,.44.76v-.39l.12-.16.37-.1h-.11l.37.11c-.14-.1-.26-.64-.3-.82l-1.24.72s.09.33.14.44A1.2,1.2,0,0,0,15,57a1.07,1.07,0,0,0,1.23-.08c.9-.82-.52-1.92-1.07-2.44s-1.73.39-1,1Z"/><path class="cls-2" d="M10.74,59.29a2.56,2.56,0,0,1,.71-.82l-1.16-.15a9.9,9.9,0,0,1,1,1.58l.26-1a8.49,8.49,0,0,0-2.8,1.94L9.89,61a5.78,5.78,0,0,0-.73-1l0,.26.22-.15c.24-.08.42-.18.67-.24L9.12,59l-.21.6,1.42.39a1.29,1.29,0,0,1,.17-.5c.43-.84-.84-1.59-1.28-.74a3.09,3.09,0,0,0-.31.85.74.74,0,0,0,1.42.39l.22-.6c.2-.55-.4-1-.91-.91a2.66,2.66,0,0,0-1.89,1.26c-.3.79.43,1.43.86,2a.75.75,0,0,0,1.16.15,7.32,7.32,0,0,1,2.51-1.71.75.75,0,0,0,.26-1,8.89,8.89,0,0,0-1-1.59.76.76,0,0,0-1.16-.15,3.66,3.66,0,0,0-.95,1.12.74.74,0,0,0,1.28.75Z"/><path class="cls-2" d="M8.7,58.38c-.66.07-1.38.25-1.6,1a1.14,1.14,0,0,0,.72,1.48.73.73,0,0,0,.9-.51.75.75,0,0,0-.51-.91c.27.14.35.3.25.5a1,1,0,0,1,.24,0,.76.76,0,0,0,.74-.73.75.75,0,0,0-.74-.74Z"/><path class="cls-2" d="M9.26,60.73c0,.18-.09.14.1,0a1.35,1.35,0,0,0,.27-.2,4.43,4.43,0,0,0,.55-.51,1.94,1.94,0,0,0,.69-1.41,1,1,0,0,0-1-.83,1.36,1.36,0,0,0-1.14.75c-.39.59.41,1.45,1,1a4.87,4.87,0,0,1,1.34-.74c.89-.32.5-1.75-.39-1.42a6.86,6.86,0,0,0-1.7.88l1,1c.22-.33-.37-.86-.65-.59a2.15,2.15,0,0,0-.18.24,3.64,3.64,0,0,1-.57.54c-.46.34-.82.63-.84,1.25,0,1,1.45,1,1.48,0Z"/><path class="cls-1" d="M36.52,36.51a44.33,44.33,0,0,1,3.78,6l1.27-.75A22,22,0,0,1,39,37.2l-1.28.74c1.2,1.89,3.06,3.29,4,5.37.38.87,1.65.12,1.28-.74-.91-2.1-2.76-3.48-4-5.37a.74.74,0,0,0-1.28.74,22.6,22.6,0,0,0,2.61,4.52.74.74,0,0,0,1.27-.75,45.56,45.56,0,0,0-3.77-6c-.57-.75-1.85,0-1.28.75Z"/><path class="cls-1" d="M43,43.37l-.29-.56a.74.74,0,0,0-1.08-.44c-.77.46-2.84,1.16-2.86,2.25a2.26,2.26,0,0,0,.6,1.24l1.58,2.37c.44.66,1.65.27,1.35-.56l-1.05-2.88L40,45.51a11,11,0,0,1,1.78,2.36.75.75,0,0,0,1.28,0c.68-.94-.38-2.78-.68-3.73L41,44.71l2,2.63a.74.74,0,0,0,1.27-.75L43,43.52l-1.16.89,1.59,2c.47.59,1.45,0,1.24-.72A6.1,6.1,0,0,0,43,43.05l.11.89A5.27,5.27,0,0,0,44,42.09a.74.74,0,0,0-.9-.91,3.33,3.33,0,0,0-1.4.71l1,1c.26-.23,1-1.06,1.35-1.11l-.71-.19A7.22,7.22,0,0,1,45,44l1.28-.74-.52-.83-1,1,.24.44,1.26-.52c-.68-.56-1.52-1.63-2.47-1.07a.78.78,0,0,0-.34.83,18,18,0,0,0,1.2,3L46,45.46a7.87,7.87,0,0,0-1.69-2,.74.74,0,0,0-1.23.72A6,6,0,0,0,44,46.24a.74.74,0,0,0,1.35-.57l-.4-1.8-1.08.84c.77.5,1,1.47,1.83,2a.74.74,0,0,0,1.11-.64,3.72,3.72,0,0,0-.17-1.1l-1.34.57a12.67,12.67,0,0,1,1.08,1.77c.43.84,1.71.1,1.28-.75a12.37,12.37,0,0,0-1.09-1.77c-.47-.63-1.59-.29-1.35.57l.12.71,1.11-.64c-.77-.49-1.05-1.47-1.84-2a.74.74,0,0,0-1.08.84l.4,1.79,1.35-.57a4.81,4.81,0,0,1-.75-1.7l-1.23.72a6.53,6.53,0,0,1,1.45,1.69c.43.66,1.69.25,1.35-.56a18.31,18.31,0,0,1-1.19-3l-.34.84.16-.1H44a6.31,6.31,0,0,1,1.26.93.75.75,0,0,0,1.26-.52,1.86,1.86,0,0,0-1-1.72.74.74,0,0,0-1,1L45,44a.74.74,0,0,0,1.28-.74c-.42-.78-1.21-2.45-2.13-2.78s-1.88.92-2.48,1.46.31,1.61,1,1l.75-.33-.91-.9a4,4,0,0,1-.77,1.5.74.74,0,0,0,.11.89,4.62,4.62,0,0,1,1.29,2l1.23-.72-1.59-2c-.57-.72-1.46.2-1.16.89L43,47.34l1.27-.75L42.3,44c-.47-.62-1.62-.3-1.35.57.08.27,1,2.38.82,2.6h1.28a12.41,12.41,0,0,0-2-2.66c-.49-.5-1.5,0-1.24.72l1.06,2.87,1.35-.57c-.58-.86-1.18-1.71-1.73-2.59l-.28-.43c.17.42.42.43.73,0a6.89,6.89,0,0,0,1.42-.86l-1.08-.44a1.85,1.85,0,0,0,.44.91c.57.75,1.85,0,1.27-.74Z"/><path class="cls-1" d="M48.49,44.91A8.19,8.19,0,0,0,47,43.57l-.57,1.35c1.36.46-3,3.67-3,3.67l1.08.83a3.31,3.31,0,0,1,1.19-2.16.74.74,0,0,0-1.05-1c-1.25,1.18-2.81,3.25-4.38,3.95l1,.26-.12.62L40,50.89A11.45,11.45,0,0,1,41.06,54l1.35-.57c-.65-1-2-2.83-3.33-1.52s.67,3.52,1.51,4.51a.75.75,0,0,0,1.26-.53,7.14,7.14,0,0,0-.71-3.09l-1.28.74a3.45,3.45,0,0,1,.94,2.15.75.75,0,0,0,1.09.44c.69-.42,1.68-.08,2.41-.42A7.12,7.12,0,0,0,46,54.2a35.28,35.28,0,0,1,6.75-5,.75.75,0,0,0,.34-.84C52.4,46.47,50.49,41,47.65,44l1.16.9c.15-.3,3.58,4.41,3.8,4.73a.75.75,0,0,0,1.28,0,1.14,1.14,0,0,0,0-1.34.75.75,0,0,0-1.16-.15l-2,1.78c-.71.63.34,1.67,1.05,1l2-1.77L52.61,49v-.16h1.28c-.68-1-4.5-8.37-6.35-4.73-.37.72.56,1.54,1.16.9-.07.07,4.07,2.08,1.79,3.77-1.15.85-2.35,1.61-3.45,2.52s-2.17,2.4-3.38,2.87c-1,.37-1.53.08-2.52.68l1.09.44a5.52,5.52,0,0,0-1.09-2.49.74.74,0,0,0-1.28.74l.51,2.35,1.26-.52c-.2-.23-1.77-3.09-.49-1.19a.74.74,0,0,0,1.35-.57,13.76,13.76,0,0,0-1.24-3.5A.74.74,0,0,0,40.09,50l-.1.12a.76.76,0,0,0-.11.89l.1.16a.76.76,0,0,0,1,.26c1.73-.77,3.3-2.88,4.68-4.17l-1.05-1A5.6,5.6,0,0,0,43.06,49a.74.74,0,0,0,1.08.83c1.56-1,6.66-5,2.69-6.36-.86-.3-1.17.88-.57,1.35L47.44,46c.65.7,1.69-.34,1.05-1Z"/><path class="cls-1" d="M45,56.23c2.54-1.74,4.56-4.11,7.16-5.76.8-.5.06-1.78-.74-1.27-2.61,1.65-4.63,4-7.16,5.76-.78.53,0,1.81.74,1.27Z"/><path class="cls-1" d="M43,52.52,43,52.2H41.6l.92,2.43A.74.74,0,0,0,44,54.24l-.56-3.43-1.42.4.31,1.62c.17.93,1.58.53,1.42-.4l-.35-2A.75.75,0,0,0,42,50.21l-.52.75,1.24.33.17-.63H41.61a5.49,5.49,0,0,1,.63,2.16c.09.74,1.32,1.1,1.45.2.15-1.05.27-2.1.35-3.16l-1.45.2,1.06,5a.74.74,0,0,0,1.45-.19V50.62a.74.74,0,0,0-1.47,0,14.67,14.67,0,0,0,.26,3.91.75.75,0,0,0,1.43,0,36.83,36.83,0,0,0,.51-5.13.74.74,0,0,0-1.48,0,24.91,24.91,0,0,0,.09,4.05.74.74,0,0,0,1.48,0A33.36,33.36,0,0,0,46,49.21a.74.74,0,0,0-1.47,0v4c0,1,1.37.91,1.48,0l.56-4.7H45.12a43.49,43.49,0,0,0,.32,5,.74.74,0,0,0,1.45.19,39,39,0,0,0,1.2-6H46.61l-.17,4.12a.74.74,0,0,0,1.45.2c.34-1.45.62-2.89.84-4.36l-1.45-.19-.22,4.46a.74.74,0,0,0,1.37.37c.92-1.67.79-3.85,1-5.71H47.92a20.86,20.86,0,0,0,.26,4.32c.14.88,1.37.56,1.45-.2.16-1.58.29-3.16.4-4.74H48.55c.18,1.42.41,2.84.69,4.25.17.83,1.45.62,1.45-.19V45.92l-1.45.2.83,3.2c.2.78,1.54.65,1.45-.2a15.39,15.39,0,0,0-.68-3.76c-.34-.9-.72-.88-1.67-1.24a.74.74,0,0,0-.91.51c-.31,1.67,2,3,3,4.07L52,47.47l-1-.64c-.59-.75-1.63.3-1,1a2.54,2.54,0,0,0,1.61,1,.74.74,0,0,0,.72-1.23c-.27-.27-2.71-2.28-2.64-2.64l-.91.52C50,46,49.92,48,50,49.12l1.45-.19-.82-3.2a.74.74,0,0,0-1.45.19V50l1.45-.2c-.25-1.28-.47-2.57-.63-3.86a.74.74,0,0,0-1.48,0c-.1,1.58-.24,3.16-.4,4.74l1.45-.19a19.2,19.2,0,0,1-.21-3.93c0-1-1.38-.93-1.47,0-.15,1.51,0,3.62-.76,5l1.37.38.23-4.46c0-.82-1.32-1-1.45-.2q-.35,2.19-.84,4.35l1.45.2.17-4.12c0-1-1.37-.92-1.48,0a36.57,36.57,0,0,1-1.14,5.58l1.45.2a41.33,41.33,0,0,1-.32-5c0-1-1.37-.92-1.48,0l-.56,4.7H46l0-4H44.55a33.37,33.37,0,0,1-.12,4.24h1.48a24.91,24.91,0,0,1-.09-4.05H44.34a32.65,32.65,0,0,1-.46,4.73h1.43a12.94,12.94,0,0,1-.22-3.51H43.62v4.24l1.45-.2-1.06-5c-.18-.86-1.39-.59-1.45.19s-.17,1.84-.3,2.77l1.45.19a9,9,0,0,0-.82-2.91.75.75,0,0,0-1.28,0,2,2,0,0,0-.32,1.77.75.75,0,0,0,1.24.32,2.71,2.71,0,0,0,.74-1l-1.35-.17.36,2,1.42-.4-.31-1.62c-.18-.94-1.57-.53-1.42.4l.55,3.42L44,54.24,43,51.81c-.23-.59-1.3-.8-1.43,0l0,.32c-.15.93,1.28,1.33,1.42.39Z"/><path class="cls-1" d="M53.47,43.41a1.17,1.17,0,0,0-1.13-.86.75.75,0,0,0-.71.94.53.53,0,0,1-.24.47.74.74,0,0,0,.15,1.16,1.73,1.73,0,0,1,.74.65L53.56,45a4.43,4.43,0,0,1-.86-1.82l-1.35.57A27.12,27.12,0,0,0,53,46.68a1,1,0,0,0,1.82-.51.74.74,0,0,0-1.47,0v.13l.22-.52-.12.1.53-.21c.21.11.23.06,0-.16l-.23-.41-.36-.62L52.62,43a.74.74,0,0,0-1.35.57,5.65,5.65,0,0,0,1,2.18c.56.73,1.8.08,1.28-.75a3.43,3.43,0,0,0-1.27-1.18L52.44,45a2,2,0,0,0,.61-1.9l-.71.93-.3-.22c.31.89,1.73.51,1.43-.4Z"/><path class="cls-1" d="M52.68,44.58a5.08,5.08,0,0,1,1.12,1.48c.42.85,1.69.1,1.27-.74a5.75,5.75,0,0,0-1.35-1.78c-.7-.64-1.75.4-1,1Z"/><path class="cls-1" d="M43.24,50.73c.13.47.26.93.4,1.4a1.38,1.38,0,0,0,.52.86c.76.47,1.44-.33,1.73-1a2,2,0,0,0-.17-2.17,1.7,1.7,0,0,0-.8-.51,1.44,1.44,0,0,0-.46,0,1.14,1.14,0,0,0-.33.07c-.25.08-.24.1,0,.07l.44.34-.07-.09.08.57c-.21.14-.25.18-.11.13a1.17,1.17,0,0,0,.24-.09,1.55,1.55,0,0,0,.37-.26c.71-.63-.34-1.68-1-1-.13.12-.43.13-.59.3a1.07,1.07,0,0,0-.31.76.91.91,0,0,0,1.18.81c.17-.05.21-.19.3,0s-.15.51-.2.75l-.08.11c.61.4.85.43.73.1a2.75,2.75,0,0,0-.14-.49l-.29-1a.74.74,0,0,0-1.42.39Z"/><path class="cls-1" d="M15.56,20.61l.64.42a.76.76,0,0,0,1.09-.45L18,17.47l-1.45-.2,0,.52c0,.95,1.52.95,1.48,0l0-.52c0-.8-1.25-1-1.45-.2l-.73,3.12L17,19.75l-.64-.42c-.8-.52-1.54.76-.75,1.28Z"/><path class="cls-1" d="M17.73,15a3.92,3.92,0,0,0-2.35-.44c-1,.15-1.84.75-2.94.66-.94-.08-.94,1.4,0,1.48,1.59.13,3-1.18,4.55-.42.84.42,1.59-.85.74-1.28Z"/><path class="cls-1" d="M22.88,11c.89.38,1.42-.59,1.7-1.26a19.7,19.7,0,0,0,1.06-3.26c.21-.92-1.21-1.32-1.43-.39-.14.62-.31,1.24-.51,1.84-.09.28-.19.56-.3.83s-.13.34-.21.5-.17.33.08.32c-.88-.37-1.26,1.06-.39,1.42Z"/><path class="cls-1" d="M25,12.59c1.29,0,3.71-.19,3.95-1.86l-1.45-.19,0,1.29a.74.74,0,0,0,1.48,0l0-1.29c0-.8-1.33-1-1.45-.2s-2,.77-2.53.77a.74.74,0,0,0,0,1.48Z"/><path class="cls-3" d="M53.17,44.72a5.74,5.74,0,0,0-.37-1.84l-1.23.72a10.12,10.12,0,0,1,2.08,3.27c.33.88,1.76.5,1.42-.39a11.85,11.85,0,0,0-2.46-3.93c-.48-.51-1.5,0-1.23.72a4.48,4.48,0,0,1,.31,1.45c0,.94,1.51,1,1.48,0Z"/><path class="cls-3" d="M25.28,11.11l-.29.34a.41.41,0,0,0,.4.68c.92-.12,1.83-.29,2.73-.49a.41.41,0,0,0-.11-.81,3.81,3.81,0,0,0-1.59.4l.6.46a.77.77,0,0,1,.36-.6c.31-.17.74,0,.48.4l.75.31.06-.19a.41.41,0,0,0-.79-.22l-.06.2c-.14.46.5.68.75.31a1.11,1.11,0,0,0-.66-1.69,1.46,1.46,0,0,0-1.68,1.26.42.42,0,0,0,.6.47A2.7,2.7,0,0,1,28,11.65l-.1-.8c-.91.2-1.82.37-2.74.49l.4.69.29-.34c.34-.4-.24-1-.58-.58Z"/><path class="cls-3" d="M25.88,11.81a11.21,11.21,0,0,0,2.7.33.41.41,0,0,0,.41-.41c0-.53-.08-1.68-.84-1.67a4.89,4.89,0,0,0-1.42.45l-1.68.57c-.5.16-.29,1,.21.79l1.93-.65a4.84,4.84,0,0,1,1-.33c-.14.07-.15.17-.06.31a3.07,3.07,0,0,1,.07.53l.41-.41A10.39,10.39,0,0,1,26.1,11c-.51-.12-.73.67-.22.79Z"/><path class="cls-3" d="M23.64,9.19a1.3,1.3,0,0,0,.17.72.42.42,0,0,0,.75-.1c.38-1.28.72-2.57,1-3.87a.42.42,0,0,0-.6-.47c-1.37.85-1.09,3.18-1.2,4.56l.62-.36c-.8-.48.42-3.52.6-4.21l-.81-.1,0,.3a.41.41,0,0,0,.82,0l0-.3a.41.41,0,0,0-.8-.11,34.62,34.62,0,0,0-.9,3.43,1.54,1.54,0,0,0,.67,1.7.42.42,0,0,0,.62-.35c.05-.69.11-1.37.16-2.06s0-1.42.64-1.79l-.61-.46q-.42,2-1,3.87l.75-.1-.06-.3a.41.41,0,0,0-.82,0Z"/><path class="cls-3" d="M49.07,44a7.1,7.1,0,0,1,1.84,3c.31,1,.72,3.17-.27,4-.41.33.17.91.58.58,1.06-.85.91-2.68.69-3.89a8.07,8.07,0,0,0-2.26-4.24.41.41,0,0,0-.58.58Z"/><path class="cls-3" d="M48.79,53.42a9.48,9.48,0,0,0,2.15-5.1A11.83,11.83,0,0,0,49.26,43c-.23-.47-.94-.06-.71.42a10.92,10.92,0,0,1,1.57,4.94,8.83,8.83,0,0,1-2,4.69c-.3.43.41.84.71.41Z"/><path class="cls-3" d="M51.39,47.46a.84.84,0,0,0-.31,1.21,3.38,3.38,0,0,1,0,.84,6,6,0,0,1-.43,1.68l.8.22.41-1.79c.12-.51-.66-.73-.79-.22a5.53,5.53,0,0,1-.81,1.78l.75.32a3.33,3.33,0,0,0,.22-1.12.42.42,0,0,0-.7-.29l-.88.75.64.5a14.38,14.38,0,0,0,1.18-3.68l-.81-.11.14,1.66c0,.52.85.53.82,0a14,14,0,0,0-.6-3.33l-.79.22a20.72,20.72,0,0,1,1,3.6l.79-.22-.85-3.34-.69.39a9.13,9.13,0,0,1,1.45,2.15l.71-.42c-.72-1.27-.81-2.77-1.72-3.95-.31-.41-1-.06-.71.41l2.13,3.8a.41.41,0,0,0,.75-.31,6.11,6.11,0,0,0-.65-1.48l-.71.41c.36.54.72,1,1.1,1.57l.07-.5a10.33,10.33,0,0,0-1.55,1.55l.64.5c.22-.5.46-1,.72-1.44l-.76-.21-.19.85a.42.42,0,0,0,.61.47,2.35,2.35,0,0,0,.78-.82.41.41,0,0,0-.71-.41l-.49.52.61.46a3.23,3.23,0,0,0,.21-1.07c0-.42-.57-.54-.76-.21s-.51,1-.73,1.44.33.89.65.5a10.33,10.33,0,0,1,1.55-1.55.42.42,0,0,0,.06-.5c-.38-.51-.75-1-1.1-1.56s-1,0-.71.41a5.33,5.33,0,0,1,.57,1.29l.75-.32-2.13-3.8-.71.41c.9,1.17,1,2.69,1.72,4,.27.46,1,0,.71-.42A9.56,9.56,0,0,0,51,46a.41.41,0,0,0-.68.4l.85,3.35c.13.52.88.3.79-.22a20.72,20.72,0,0,0-1-3.6c-.18-.48-.95-.29-.79.22a12.64,12.64,0,0,1,.57,3.11h.82l-.14-1.66c0-.42-.71-.59-.8-.11a13.76,13.76,0,0,1-1.1,3.49.41.41,0,0,0,.65.49l.88-.75-.7-.29a1.85,1.85,0,0,1-.19.9c-.18.46.5.68.75.32a6.31,6.31,0,0,0,.89-2L51,49.4l-.42,1.79a.42.42,0,0,0,.8.22c.48-1.26.87-3.21.12-4.46a.42.42,0,0,0-.35-.2h-.11a.42.42,0,0,0-.35.2l0,.09c-.2.48.51.9.71.41Z"/><path class="cls-3" d="M43.76,41.16a4.28,4.28,0,0,1,.17,4.32c-.25.47.46.88.71.41a5.15,5.15,0,0,0-.17-5.15c-.28-.44-1,0-.71.42Z"/><path class="cls-3" d="M45.35,45.63a7.26,7.26,0,0,0,0-4.28.42.42,0,0,0-.8.22l.26,1.61.79-.21A19.67,19.67,0,0,1,45,41l-.75.32a15.48,15.48,0,0,1,1.35,2.92c.17.49.94.29.79-.22l-.17-.59a.42.42,0,0,0-.75-.1l-.16.35a.42.42,0,0,0,.36.62.72.72,0,0,0,.75-.58c.16-.59-.34-.85-.4-1.36l-.7.29.67.79c.35.4.92-.18.58-.58l-.67-.79a.41.41,0,0,0-.7.29c0,.21.23,1.12.47,1.12l.35.61.16-.34-.75-.1.17.59.79-.22A16.29,16.29,0,0,0,45,40.89a.41.41,0,0,0-.75.32,19.49,19.49,0,0,0,.61,2,.41.41,0,0,0,.79-.21l-.25-1.62-.8.22a6.37,6.37,0,0,1,0,3.84c-.16.51.63.72.79.22Z"/><path class="cls-3" d="M37.27,36.18c1.25,1.85,2.56,3.65,3.95,5.39.33.42.9-.17.58-.58q-2-2.54-3.82-5.22c-.3-.44-1,0-.71.41Z"/><path class="cls-3" d="M31.56,27.37l0-.05a.44.44,0,0,0-.19-.47.48.48,0,0,0-.45-.06.43.43,0,0,0-.3.39c0,.49.5,1,.77,1.37s1,0,.71-.41c-.12-.17-.67-.76-.66-1l-.3.4.07,0-.32,0,.07,0-.19-.46,0,0c-.17.5.62.72.79.22Z"/><path class="cls-3" d="M31.21,25.15a54.64,54.64,0,0,0-4.9-8.23.41.41,0,0,0-.75.32C25.8,18.61,27,19.83,27.71,21l1.4,2.1c.35.53,1.13,1.31,1.24,1.95l.4-.52h-.07l.41.41v-.06a.41.41,0,0,0-.82,0v.06a.42.42,0,0,0,.41.41h.07c.28,0,.43-.28.39-.52-.19-1.06-1.42-2.3-2-3.19-.88-1.32-2.5-3-2.77-4.59l-.75.32a55.1,55.1,0,0,1,4.91,8.22c.22.48.93.06.7-.41Z"/><path class="cls-3" d="M30.52,24.84a7.58,7.58,0,0,1,.4.68l.71-.42L31.55,25c-.27-.45-1,0-.71.41l.08.13a.41.41,0,0,0,.71-.42c-.11-.23-.27-.45-.4-.67a.41.41,0,0,0-.71.41Z"/><path class="cls-3" d="M25.39,17.84q2.64,3.94,5.06,8a.41.41,0,0,0,.71-.41q-2.41-4.08-5.06-8c-.29-.43-1,0-.71.42Z"/><path class="cls-3" d="M29.31,23.42a5.1,5.1,0,0,1,.82,1.69c.1.38,0,1,.46,1.17a.4.4,0,0,0,.42,0l0,0a.42.42,0,0,0,.19-.47.59.59,0,0,0-.14-.27.42.42,0,0,0-.58,0l0,0a.41.41,0,0,0,.58.58l0,0h-.58L30.44,26l.19-.46,0,0H31a11.21,11.21,0,0,0-.29-1.29A5.69,5.69,0,0,0,30,23c-.31-.42-1,0-.71.41Z"/><path class="cls-3" d="M22.07,15.57l1,1.58c.22.34.45,1,.88,1.06a.4.4,0,0,0,.46-.19.42.42,0,0,0,0-.39.43.43,0,0,0-.51-.28h0c-.53.07-.3.86.21.79h0l-.5-.29v0l.05-.32,0,0,.47-.19a3.67,3.67,0,0,0-.29-.52l-.36-.56-.77-1.19c-.29-.44-1,0-.71.42Z"/><path class="cls-3" d="M42.45,41.83a10.6,10.6,0,0,1,1.73,4.47c.07.46.84.35.81-.11a12.09,12.09,0,0,0-1.48-5.07l-.71.41,1.09,1.64c.25.37.9.15.75-.32l-.48-1.51-.8.22a24.82,24.82,0,0,0,.93,2.4c.19.42.9.12.75-.32A18.6,18.6,0,0,0,43.88,41c-.25-.48-.92-.06-.7.41l.13.3c.22.48.93.06.71-.41l-.14-.3-.7.41a18.23,18.23,0,0,1,1.07,2.44l.75-.31a21.82,21.82,0,0,1-.84-2.21c-.17-.49-1-.28-.8.22l.49,1.51.75-.31-1.09-1.64a.41.41,0,0,0-.71.41,11.12,11.12,0,0,1,1.37,4.66l.8-.11a11.15,11.15,0,0,0-1.81-4.67c-.29-.43-1,0-.71.42Z"/><path class="cls-3" d="M46.18,44a.92.92,0,0,0,.79.13.42.42,0,0,0,.29-.51.9.9,0,0,0-1.48-.36.41.41,0,0,0,.58.58s.07,0,.11,0l.28-.5-.16,0c-.43-.3-.84.41-.41.71Z"/><path class="cls-3" d="M21.53,10.74a6.42,6.42,0,0,1-.16,3.45l.8.21a18.22,18.22,0,0,0,.34-4.17h-.82q.15,1.21.21,2.43a.41.41,0,0,0,.8.11,4.32,4.32,0,0,0,.13-1.08.41.41,0,0,0-.82,0v.89a.42.42,0,0,0,.81.11,4.3,4.3,0,0,0,.11-1.38.41.41,0,0,0-.82,0v1a.41.41,0,0,0,.82,0V11l-.76.2a4.23,4.23,0,0,1,.59.9c.13.51-.36.86-.65,1.2l.65.5.63-1c.2-.34-.22-.79-.56-.56l-.44.29.6.24.13-.31-.7-.29v.61a.41.41,0,0,0,.82,0v-.61a.42.42,0,0,0-.7-.29,1,1,0,0,0-.34,1.11.41.41,0,0,0,.6.25l.44-.3-.56-.56-.63,1c-.24.39.34.86.64.5s1-.94,1.07-1.48-.61-1.19-.88-1.61a.42.42,0,0,0-.77.21v1.38h.82v-1h-.82A3.77,3.77,0,0,1,22,12.47l.8.11v-.89H22a3.55,3.55,0,0,1-.1.86l.81.11q-.06-1.21-.21-2.43c-.06-.51-.84-.54-.82,0a16.47,16.47,0,0,1-.32,4,.41.41,0,0,0,.8.21,7.19,7.19,0,0,0,.15-3.88c-.07-.52-.87-.29-.79.22Z"/><path class="cls-3" d="M33.77,28.11c1.13,2.1,2.44,4.16,2.91,6.53.1.52.89.3.79-.22-.48-2.44-1.83-4.56-3-6.73-.25-.46-1-.05-.71.42Z"/><path class="cls-3" d="M34.49,27.85a27.85,27.85,0,0,1,2.68,5.91l.75-.31-.58-1.16a.42.42,0,0,0-.77.21c0,.4,0,.8.09,1.21s.84.53.82,0a3.29,3.29,0,0,0-.24-1.16c-.19-.47-.94-.3-.79.22l.32,1.09c.12.43.86.37.8-.11a21.52,21.52,0,0,0-2.19-6.23l-.71.41,2.71,5.26a.41.41,0,0,0,.75-.31,8.93,8.93,0,0,0-.81-1.81.41.41,0,0,0-.71.41l.8,1.65c.2.41.91.12.75-.32l-1-2.64-.75.32a24.59,24.59,0,0,0,1.2,2.27c.23.39.92.13.75-.31a21.16,21.16,0,0,0-.92-2.06l-.71.41c.39.67.78,1.78,1.44,2.21a.42.42,0,0,0,.62-.35V32.6a.42.42,0,0,0-.41-.41h0a.42.42,0,0,0-.35.62l-.21.53.47.6.47-.84a.44.44,0,0,0-.06-.5,38.51,38.51,0,0,1-3.21-5.39l-.71.41c1.24,1.95,2.48,3.91,3.7,5.88l.71-.41-.27-.39c-.29-.43-1,0-.7.41l.26.39c.29.43,1,0,.71-.41-1.22-2-2.46-3.93-3.7-5.88a.41.41,0,0,0-.71.41,39.57,39.57,0,0,0,3.34,5.56l-.07-.5-.47.85a.41.41,0,0,0,.46.6,1.06,1.06,0,0,0,.7-1.74l-.36.62h0L38,32.6v.06l.61-.36c-.44-.28-.87-1.44-1.14-1.91a.41.41,0,0,0-.71.41c.31.61.59,1.23.84,1.87l.75-.32a24.76,24.76,0,0,1-1.2-2.28c-.2-.42-.91-.12-.75.32l1,2.64.75-.32-.8-1.64-.71.41a8,8,0,0,1,.73,1.61l.75-.31-2.71-5.26c-.25-.48-.92-.06-.71.41a20.07,20.07,0,0,1,2.08,5.82l.81-.11-.32-1.09-.79.22a2,2,0,0,1,.21.94h.82c0-.41-.07-.81-.08-1.21l-.77.2.58,1.16a.41.41,0,0,0,.75-.32,28.25,28.25,0,0,0-2.77-6.11.41.41,0,0,0-.7.42Z"/><path class="cls-4" d="M17.64,36.43c.2.64.57,1,1.1,1,1,.2.52-.28-1.54-1.46-.32-.3-.93.11-.64.5a38.28,38.28,0,0,0,2.36,3.46c.9,1,1.86,1.74.42-.39-1.24-1.85-1.71-1.37.39,1.49.88,1.2,1.7,2.43,2.52,3.67.29.43,1,0,.71-.42s-2.89-4.94-3-4.91c-1.06.29,2,4.22,2.52,4.67,3,2.67.78-.16-.22-1.68-.74-1.13-2.91-4.88-1.46-1.29a61.68,61.68,0,0,0,3.46,5.2c1.34-.37-2.18-4.7-2.36-4.69-1.57.1,1.44,3.28,1.94,4s3.71,6.28,2.2,2.27c-.51-1.36-3.41-4.29-1.3-1q.36,2.09,1.44,1L24.32,45.1c-1.18-1.7-4.23-4.92-.62,0,.3.4,3.34,5.15,3.39,5.13,1.2-.41-2-4.23-2.42-4.92-.64-1-1.26-2-1.87-3q-1.69-.18.09,1.23c.49,1.33,2.7,4.11,1.19.68-.77-1.76-2.57-3.52-3.7-5.08-.31-.41-1,0-.71.42l4.18,6.36c3.76,5.72.27-2-.85-1.3-.48.3,2.65,4.66,3.19,5.27,2.76,3.12.07-1.36-.77-2.65a.41.41,0,0,0-.71.41c1.19,2.22,2.45,4.38,3.81,6.5a.41.41,0,0,0,.7-.42l-1.75-3.18c-.88-.18-1,0-.32.63a36.71,36.71,0,0,0,3,4.21c.3.42,1,0,.71-.42s-4.06-5.62-3.85-5.9c-.74,1,2.25,3.61,3.09,4.59.29.36.91-.11.64-.49a42.06,42.06,0,0,0-3.45-4.75c-1.95-2-1.14-.75-.1.84a36.78,36.78,0,0,0,3,4.74c.86,1,2.5,2,.49.55-.33-.25-.77.23-.56.56l2.22,3.43c.29.44,1,.05.71-.41a35.11,35.11,0,0,0-2.69-3.94c-.28-.36-.91.12-.64.5l2.79,4a.41.41,0,0,0,.7-.42l-.06.58c.34.27.91-.08.65-.5-.73-1.19-1.75-3.52-2.87-3.82-.67-.17,1.82,3.2,2.11,3.6a.41.41,0,0,0,.71-.41,15.06,15.06,0,0,0-1.7-2.76c-.29-.42-1,0-.7.42a17.41,17.41,0,0,0,2.35,3.16c.3.34.93-.12.64-.49S31,53,30.59,53.11c-2.21.46,2.68,3.71,2.93,3.93-.39-.36-1,.22-.58.58l.35.32c.33.29,1-.11.65-.5l-4.28-5.56c-.32-.41-1,0-.71.41l2.34,3.08.94,1.23c.54,1,.7.79.48-.55-.45,1.33,0,0,.21.5a25.32,25.32,0,0,0-2.49-3.47c-.31-.42-1,0-.71.42a19.17,19.17,0,0,0,3,3.91c-.34-.28-.89.07-.64.5a1.13,1.13,0,0,0-.25-1.64c-.65-1.15-.74-.83-.26.94l.75-.22c-.85-1.47-1-1.53-.35-.16.31.34.88-.11.64-.5-2.27-3.65-4.59-7.25-7-10.83-.25-.37-.92-.15-.75.31a20.05,20.05,0,0,0,2.93,4.82c.34.46,1.4,2.72,1.63,1.07C29.57,51,26.37,48,26,47.53s-.9.11-.65.49c.59.91,3.49,6.12,4.26,5.83.6-.22-2.42-4.1-3-4.88a.41.41,0,0,0-.71.41c.4.73,1.38,3.41,2.14,3.14.61-.22-.78-2.11-1.16-2.63-2.46-3.27.23,1.44,1,2.6.28.44,1,0,.71-.42q-2.88-4.55-6.08-8.87c-.31-.41-1,0-.71.42,1.41,2,2.89,4,4.46,5.92.3.36.9-.11.65-.5l-2.79-4.23c-.32-.5-2.25-4.08-2.78-4.24-1.79-.54,1.05,2.68,1.14,2.81l2.78,3.8c.3.42,1,0,.7-.41a68.47,68.47,0,0,0-4.05-6c-.31-.4-1,0-.71.42q3.21,5.25,6.68,10.3c.3.43,1,.06.71-.41A67.86,67.86,0,0,0,21.47,41c-.29-.35-.91.12-.64.5l5.56,8.06c.29.43,1,.05.71-.41-1.09-1.83-2.23-3.61-3.44-5.35a.41.41,0,0,0-.71.41,48.75,48.75,0,0,0,4.29,6.69c.29.37.89-.11.65-.5-2.18-3.51-4.48-6.92-6.94-10.25-.31-.41-1,0-.71.42q2.34,3.57,4.85,7c.3.42,1,0,.71-.42-1.95-3.08-4-6.09-6.1-9.06-.3-.43-1-.06-.71.41a70.8,70.8,0,0,0,5.45,8.28c.31.41,1,0,.71-.42l-5.9-8.26a.41.41,0,0,0-.71.41,21.29,21.29,0,0,0,2.16,3.74c.67.71,1.56,2,1,.16s-2.95-4-4.08-5.4c-.29-.36-.9.11-.64.49l3.27,4.86a.41.41,0,0,0,.71-.42c-.87-1.65-2-3.15-2.89-4.78q-.86,0-.48.27a11.52,11.52,0,0,0,2.05,1.35.42.42,0,0,0,.5-.65l-2.23-2.68a.42.42,0,0,0-.5-.06c-.53.38-.53.38-.61,1s.76.52.82,0Z"/><path class="cls-4" d="M14,40.06l.1-.37H12.64l2.44,3.86,1.29-1a5,5,0,0,1-2-2.63l-1.42.83q5,6.78,9.7,13.74A.82.82,0,0,0,24,53.67C22.37,49.8,19.62,46.44,17.24,43a.82.82,0,0,0-1.42.82C18.17,48,20.66,52,23.35,55.93c1.52,2.22,3,5.49,5.69,6.31.64.19,1.35-.62.92-1.21l-7-9.64c-.61-.84-2,0-1.41.83l7,9.64.92-1.2c-2.79-.84-5.52-6.72-7-9-1.83-2.82-3.54-5.7-5.2-8.61l-1.42.82C18.2,47.27,21,50.63,22.61,54.5L24,53.67q-4.74-7-9.7-13.74a.82.82,0,0,0-1.42.83,7.7,7.7,0,0,0,2.3,3c.67.55,1.82-.16,1.29-1l-2.45-3.86a.83.83,0,0,0-1.41,0,1.32,1.32,0,0,0-.33,1.2c.1,1,1.75,1,1.64,0Z"/><path class="cls-4" d="M8.38,43.2l7.87,12.22c.62,1,2.37.37,1.95-.82a20.53,20.53,0,0,0-3.28-6c-.76-1-2.29.27-1.68,1.29,1.57,2.61,3,5.36,4.81,7.83s4.15,4.56,5.78,7.37c.7,1.21,2.39.15,1.84-1.08-1.51-3.36-4.86-5.37-6.26-8.76-.51-1.26-2.57-.71-2.05.56,1.48,3.62,4.89,5.75,6.47,9.28l1.84-1.08c-1.56-2.68-3.55-4.57-5.45-7a76.31,76.31,0,0,1-5.14-8.21l-1.67,1.29a16.34,16.34,0,0,1,2.73,5l1.95-.82L10.22,42.12C9.48,41,7.63,42,8.38,43.2Z"/><path class="cls-4" d="M18.7,54.57l-.42-.45c-.94-1-2.45.51-1.51,1.51l.42.45c.94,1,2.45-.5,1.51-1.51Z"/><path class="cls-4" d="M4.57,47c1.56.57,3.4,4.53,4.32,5.9.76,1.13,2.6.07,1.84-1.08a50.22,50.22,0,0,0-4.8-6.19c-.8-.89-2.37.29-1.67,1.29L11.7,57.65c.77,1.11,2.58.1,1.84-1.08l-2.46-3.94L9.24,53.71A185.33,185.33,0,0,0,20.36,69.16c.66.84,2.12-.07,1.78-1a5.54,5.54,0,0,0-1.37-2.41c-.88-1-2.38.47-1.51,1.51l.83,1.47,1.78-1a181.06,181.06,0,0,1-10.79-15c-.73-1.15-2.57-.09-1.84,1.08l2.46,3.94,1.84-1.08L6.1,45.79l-1.68,1.3a46.2,46.2,0,0,1,4.47,5.76l1.84-1.08c-1.52-2.27-2.89-5.89-5.59-6.88-1.29-.47-1.85,1.59-.57,2.06Z"/><path class="cls-4" d="M42.35,17.57a8.05,8.05,0,0,1,2,3.06L46,19.34l-2.9-3.58c-.75-.93-2.41.33-1.67,1.3q5.79,7.61,11.6,15.21a44.35,44.35,0,0,1,3.86,5.84c.75,1.38.73,1.69,2.14,2.22a1.07,1.07,0,0,0,1.2-1.57A46,46,0,0,0,55,32.17c-1-1-2.46.52-1.51,1.51a43.45,43.45,0,0,1,4.9,6.16l1.21-1.57c-1-.38-2-3.27-2.56-4.17-1.36-2-2.91-3.89-4.38-5.81L43.3,16l-1.68,1.29,2.9,3.57c.82,1,2.14-.27,1.67-1.29a12.63,12.63,0,0,0-2.33-3.48c-.93-1-2.43.49-1.51,1.5Z"/><path class="cls-4" d="M46.5,14.24l1,1.52L49,14.3l-.81-.49c-.85-.52-2.13.58-1.46,1.46Q51.51,21.59,56,28.12c1.82,2.64,3.72,7.56,6.7,9,.88.42,2.12-.51,1.46-1.46L63,33.92c-.77-1.13-2.62-.06-1.84,1.08l1.2,1.74,1.46-1.46c-1.75-.84-3.43-4.57-4.52-6.17S57.09,25.89,56,24.3c-2.41-3.42-4.89-6.78-7.42-10.11l-1.46,1.46.81.49a1.08,1.08,0,0,0,1.46-1.46A7.48,7.48,0,0,0,48,12.73c-.88-1.05-2.39.46-1.5,1.51Z"/><path class="cls-4" d="M50.35,11.11c3.48,4.46,6.84,9,10,13.67,2.12,3.08,3.87,6.57,6.88,8.86,1.09.84,2.15-1,1.07-1.84-3.72-2.84-6.23-8.35-8.93-12.13-2.44-3.41-5-6.76-7.55-10.07-.84-1.08-2.34.44-1.51,1.51Z"/><path class="cls-4" d="M54.65,7.75,70.83,30.33c.79,1.1,2.64,0,1.84-1.08L56.49,6.68c-.79-1.11-2.64,0-1.84,1.07Z"/><path class="cls-2" d="M39.22,36.41l.14.1c.77.56,1.51-.72.75-1.27L40,35.13c-.77-.56-1.51.72-.75,1.28Z"/><path class="cls-2" d="M53.81,27.49l0,.09c-.41.85.86,1.6,1.28.74l0-.08c.41-.85-.86-1.6-1.28-.75Z"/><path class="cls-2" d="M65.23,15.94v0a.77.77,0,0,0-.71.54c-.22.71.53,1.21,1.13,1.33a4.16,4.16,0,0,0,2.29-.2c.89-.32.51-1.75-.39-1.42a3.33,3.33,0,0,1-1,.22,1.91,1.91,0,0,1-.48,0c-.07,0-.22-.1-.18,0l.07.57,0-.06-.72.55a1.34,1.34,0,0,0,.4-.07.74.74,0,0,0-.4-1.43Z"/><path class="cls-2" d="M11.33,59.94l0,0-.72.19h0l-.33-1.24v0h1a.76.76,0,0,0-1,0,.74.74,0,0,0,0,1h0a.75.75,0,0,0,1,0h0a.75.75,0,0,0-.32-1.24h0a.76.76,0,0,0-.72.19l0,0a.77.77,0,0,0,0,1,.74.74,0,0,0,1,0Z"/><path class="cls-1" d="M36,37a24,24,0,0,0,2.42,3.5c.61.73,1.65-.32,1.05-1a21.15,21.15,0,0,1-2.19-3.21A.74.74,0,0,0,36,37Z"/><path class="cls-1" d="M41.7,50.51h0c.86-.39.11-1.66-.75-1.27a1.54,1.54,0,0,0-.71.87.73.73,0,0,0,.52.9.74.74,0,0,0,.9-.51Z"/><path class="cls-3" d="M23.54,11.64a.88.88,0,0,0-.54.42.74.74,0,0,0,1.27.75l0-.06-.44.34.06,0c.91-.28.52-1.71-.39-1.42Z"/><path class="cls-3" d="M37.12,35.88a3,3,0,0,1,.29.41c.51.8,1.79.06,1.28-.75a6.12,6.12,0,0,0-.53-.7c-.62-.73-1.66.32-1,1Z"/><path class="cls-3" d="M36.89,35.64a2.34,2.34,0,0,0,.6.79c.71.63,1.76-.41,1-1a1.48,1.48,0,0,1-.37-.49c-.41-.86-1.69-.11-1.27.74Z"/><path class="cls-3" d="M45.27,40.3l-.07-.12c-.4-.69-1.66-.23-1.35.57l.7,1.77a4.76,4.76,0,0,1,.59,1.76l.21-.52,0,0h1l0,0c-.66-.68-1.71.37-1,1v0a.77.77,0,0,0,1,0c.56-.44.14-1.38-.06-1.88l-1-2.59-1.35.57L44,41a.74.74,0,0,0,1.27-.74Z"/><path class="cls-3" d="M42.8,41.92a11.11,11.11,0,0,1,1,3.61c.1.94,1.58.95,1.48,0a13.43,13.43,0,0,0-1.21-4.35c-.41-.86-1.68-.11-1.28.74Z"/><path class="cls-3" d="M48.83,42.79a4.72,4.72,0,0,0,.64,1.48l.82,1.61c.43.85,1.7.1,1.27-.75l-.67-1.33-.29-.56c0-.08-.33-.77-.29-.45a.77.77,0,0,0-.74-.74.74.74,0,0,0-.74.74Z"/><path class="cls-3" d="M52.34,43l0-.11-1.23.72a17,17,0,0,1,2.07,3.46c.46.83,1.74.09,1.28-.75a18.72,18.72,0,0,0-2.31-3.75.74.74,0,0,0-1.23.72l0,.1c.31.89,1.74.51,1.42-.39Z"/><path class="cls-3" d="M51.22,48.59a3.83,3.83,0,0,1-.58,1.58c-.45.84.83,1.58,1.28.74a5.81,5.81,0,0,0,.78-2.32c.06-1-1.41-.94-1.48,0Z"/><path class="cls-1" d="M48.17,45.64l-.05,0,.18.69,0-.07-.32.43c-.32,0-.36,0-.15.15.74.54,1.45-.7.72-1.23a1.18,1.18,0,0,0-1.29-.15.8.8,0,0,0-.12,1.24c.62.68,1.62-.33,1-1Z"/><path class="cls-3" d="M34.8,29.64a7.78,7.78,0,0,1,.52,6.15c-.19.5.6.71.79.22.9-2.27.37-4.63-.6-6.79-.21-.48-.92-.06-.71.42Z"/><path class="cls-3" d="M36.32,33.29,36,34.59a.41.41,0,0,0,.79.22l.26-.84a.41.41,0,0,0-.79-.22l-.26.84.79.22.31-1.3c.12-.51-.67-.73-.79-.22Z"/><path class="cls-3" d="M34.05,28.12c1,2.16,2.05,5,1.19,7.38-.18.5.61.71.79.22.95-2.56-.2-5.66-1.27-8-.22-.48-.92-.06-.71.42Z"/><path class="cls-1" d="M41.63,49.32a1,1,0,0,1,.2-.31l-.39,0,0,.16.06,0c.1,0,.06-.19,0-.16l-.07,0c-.08,0-.07.16,0,.16s.59.06.73-.13a.07.07,0,0,0,0-.09c-.2-.31-.73,0-.71.34a.09.09,0,0,0,.17,0Z"/><path class="cls-1" d="M41.64,49h-.06l.09.12.17-.19-.1-.12-.43.52c-.06.09,0,.19.12.12l.69-.57L42,48.75l-.38.31c-.08.07,0,.18.12.12a2.26,2.26,0,0,1,.52-.35l-.1-.13a5.56,5.56,0,0,1-.54.42l.1.12a2.28,2.28,0,0,1,.38-.3l-.1-.13-.66.56c-.08.07,0,.18.11.11l.66-.55c.08-.06,0-.18-.09-.13a2.27,2.27,0,0,0-.42.33c-.06.06,0,.18.1.13a6.31,6.31,0,0,0,.58-.44.08.08,0,0,0-.1-.13,3,3,0,0,0-.56.37l.12.12.37-.32c.08-.07,0-.18-.11-.11l-.7.56.12.12.42-.53c.06-.06,0-.19-.1-.13s-.13.09-.22.25a.08.08,0,0,0,.09.12h.07a.08.08,0,0,0,0-.16Z"/><path class="cls-3" d="M21.58,10.81a13,13,0,0,1-.37,4.08c0,.11.14.15.16,0a13.36,13.36,0,0,0,.38-4.13.09.09,0,0,0-.17,0Z"/><path class="cls-3" d="M29.7,24.52a8.87,8.87,0,0,1,.83,2.4c0,.11.17.06.16,0a8.91,8.91,0,0,0-.85-2.45c-.05-.09-.19,0-.14.09Z"/><path class="cls-3" d="M35.44,35.09a3.3,3.3,0,0,1-.66,1.22c-.06.08,0,.2.12.12a3.57,3.57,0,0,0,.7-1.3.08.08,0,0,0-.16,0Z"/><path class="cls-3" d="M35.42,35.08c-.24.5-.49,1-.74,1.5,0,.1.1.18.15.09.24-.51.49-1,.73-1.51,0-.1-.1-.18-.14-.08Z"/><path class="cls-3" d="M43.18,42.82a9.18,9.18,0,0,1,.69,2.51c0,.1.17.1.16,0a9.18,9.18,0,0,0-.7-2.56c0-.1-.19-.05-.15,0Z"/><path class="cls-3" d="M43.73,44.65a7.66,7.66,0,0,1,0,1.79c0,.1.15.1.16,0a7.66,7.66,0,0,0,0-1.79c0-.11-.18-.11-.17,0Z"/></g><g id="Layer_7" data-name="Layer 7"><path class="cls-5" d="M12.12,16.18l4.33-.34c.94-.07.95-1.55,0-1.48l-4.33.34c-.94.07-.95,1.55,0,1.48Z"/><path class="cls-5" d="M15.17,21.25a1.48,1.48,0,0,0,1.66-.95,12.69,12.69,0,0,0,1-2.45.74.74,0,0,0-1.43-.39,11.1,11.1,0,0,1-.51,1.43c-.08.19-.17.39-.27.58s-.11.21-.18.32-.1.14.13,0c-.92-.22-1.31,1.21-.39,1.42Z"/><path class="cls-5" d="M24.84,9.75a23.25,23.25,0,0,1,.75-3.58.74.74,0,0,0-1.42-.39,25.4,25.4,0,0,0-.81,4c-.12.94,1.36.93,1.48,0Z"/><path class="cls-5" d="M25.35,12.22a7.63,7.63,0,0,0,3.35-.4c.89-.32.51-1.75-.39-1.43a6.63,6.63,0,0,1-3,.36c-1-.1-.94,1.37,0,1.47Z"/><path class="cls-5" d="M52,44a13.94,13.94,0,0,1,1.6,2.07l1-1a11.13,11.13,0,0,1-2-2c-.52-.64-1.65.21-1.16.9l2.26,3.16c.55.77,1.83,0,1.27-.74l-2.25-3.17-1.16.9a12.08,12.08,0,0,0,2.29,2.17c.6.45,1.38-.41,1-1A16.09,16.09,0,0,0,53.08,43c-.65-.69-1.69.35-1,1Z"/><path class="cls-5" d="M38.7,53.51a33,33,0,0,1,2.24,2.9l1.16-.89a15.24,15.24,0,0,1-1.72-2.84c-.4-.86-1.68-.11-1.27.75a16.84,16.84,0,0,0,1.94,3.13c.52.66,1.64-.2,1.16-.89a33.24,33.24,0,0,0-2.47-3.2c-.62-.72-1.66.33-1,1Z"/><path class="cls-5" d="M36.67,37.14a13.35,13.35,0,0,1,3.23,4l.64-1.11c-.28,0-1.14-1.74-1.3-2l-1.32-2.19a.75.75,0,0,0-1.38.37v.31c0,1,1.45,1,1.48,0v-.31l-1.38.37,2,3.3c.45.74.9,1.76,1.92,1.65a.74.74,0,0,0,.63-1.11,14,14,0,0,0-3.46-4.35c-.72-.61-1.77.43-1,1Z"/><path class="cls-5" d="M30.23,27.88l.43.66c.52.79,1.8.06,1.28-.74l-.43-.67c-.52-.79-1.8-.05-1.28.75Z"/><path class="cls-5" d="M21.66,16.25a6.12,6.12,0,0,1,1,1l1-1-.1-.12c-.61-.73-1.65.32-1,1l.1.13a.75.75,0,0,0,1,0,.76.76,0,0,0,0-1,6.12,6.12,0,0,0-1-1,.74.74,0,0,0-1,1.05Z"/><path class="cls-5" d="M21.57,16.44,23,18.11c.6.74,1.64-.31,1-1L22.61,15.4c-.61-.73-1.65.32-1,1Z"/><path class="cls-6" d="M24.66,10a26.32,26.32,0,0,1,.71-3.31L25,7.09l.08,0-.9-.12,0,0-.19-.71v0l.71-.54h0a.74.74,0,0,0,0,1.47h0a.74.74,0,0,0,.71-.54.81.81,0,0,0-.21-.8.76.76,0,0,0-.9-.12c-.52.35-.53,1-.65,1.57l-.47,2.22c-.19.93,1.23,1.33,1.42.4Z"/><path class="cls-6" d="M25.54,12.55l3.06-.93a.74.74,0,0,0-.4-1.42l-3.05.93c-.91.27-.52,1.7.39,1.42Z"/><path class="cls-6" d="M27.75,11.5v.11a.74.74,0,0,0,1.48,0V11.5a.74.74,0,0,0-1.48,0Z"/><path class="cls-6" d="M22.26,15.67l1.18,1.81c.51.8,1.79.06,1.27-.74l-1.17-1.82c-.52-.79-1.8-.05-1.28.75Z"/><path class="cls-6" d="M30.88,27.44l.31.56c.46.83,1.73.09,1.27-.75l-.31-.56c-.46-.83-1.74-.08-1.27.75Z"/><path class="cls-6" d="M37,36.23l4,5.35c.56.75,1.85,0,1.27-.75l-4-5.35c-.56-.75-1.85,0-1.27.75Z"/><path class="cls-6" d="M52.7,44.11l0-.09-.44.34c-.43-.22-.55-.19-.36.1.06.13.13.26.2.38a4.93,4.93,0,0,0,.45.73,9,9,0,0,0,1.09,1.29.74.74,0,0,0,1.16-.9c-.54-1.15-1.13-2.27-1.77-3.38a.74.74,0,0,0-1.27.75c.63,1.1,1.22,2.23,1.77,3.38l1.16-.9a9.07,9.07,0,0,1-1.6-2.29c-.35-.63-1.31-1-1.71-.15s.86,1.6,1.28.74Z"/><path class="cls-5" d="M39.51,41.24l0,0c-.67.68.37,1.73,1,1.05l0-.06a.74.74,0,0,0-1-1Z"/><path class="cls-5" d="M40.46,52.43l-.08,0a.74.74,0,0,0-.75,1.27l.08.05a.74.74,0,0,0,.75-1.28Z"/><path class="cls-5" d="M39.35,53.32l0,0c.66.68,1.71-.36,1-1l0,0c-.66-.68-1.71.37-1,1Z"/><path class="cls-5" d="M42.78,55.83v-.08a.74.74,0,0,0-1.48,0v.08a.74.74,0,0,0,1.48,0Z"/><path class="cls-5" d="M41.23,55.55h0a.74.74,0,0,0,0-1.48h0a.74.74,0,0,0,0,1.48Z"/><path class="cls-5" d="M36.27,37.34h0a.74.74,0,0,0,0-1.47h0a.74.74,0,0,0,0,1.47Z"/><path class="cls-5" d="M29.82,28.87c.1.13.23.25.33.39l-.1-.37V29a.77.77,0,0,0,.74.74.75.75,0,0,0,.74-.74,2.12,2.12,0,0,0-.68-1.17c-.62-.72-1.66.32-1,1Z"/><path class="cls-5" d="M16.78,21.3,17,21a.75.75,0,0,0-.26-1,.76.76,0,0,0-1,.27l-.22.28a.74.74,0,0,0,.27,1,.75.75,0,0,0,1-.26Z"/><path class="cls-5" d="M11.72,16.3a8.65,8.65,0,0,0,3.92,0,.74.74,0,0,0-.4-1.42,6.75,6.75,0,0,1-3.13,0c-.92-.15-1.32,1.27-.39,1.43Z"/><path class="cls-6" d="M25.83,6.28v0l-.63.37h0l-.71-.55s-.05,0,0,.1c-.22.92,1.2,1.32,1.42.39a1.65,1.65,0,0,0,0-.88.76.76,0,0,0-.71-.54h0a.71.71,0,0,0-.64.37h0c-.43.85.84,1.59,1.28.75Z"/><path class="cls-6" d="M28.12,10.93l0,.55c.05.94,1.53.95,1.47,0l0-.55c-.06-.95-1.53-1-1.48,0Z"/><path class="cls-6" d="M22.1,15.28a3.6,3.6,0,0,0,.74,1.3c.31.45.64.89,1,1.31a.74.74,0,0,0,1.05,0,.76.76,0,0,0,0-1c-.27-.33-.52-.67-.76-1a3.32,3.32,0,0,1-.59-.95.75.75,0,0,0-.91-.52.76.76,0,0,0-.51.91Z"/><path class="cls-6" d="M30.82,27.46c.44.49.68,1.37,1.39,1.57a.74.74,0,0,0,.71-.19l0,0c.61-.72-.43-1.77-1-1h0l.72-.19c.3.09.16.08,0-.09s-.15-.24-.23-.36a4.31,4.31,0,0,0-.54-.73c-.63-.71-1.68.34-1,1Z"/></g><g id="Layer_8" data-name="Layer 8"><path class="cls-7" d="M4.21,46.45l8.73,12.32c2.31,3.26,4.41,6.87,7.27,9.67a.74.74,0,0,0,1.16-.89,107.57,107.57,0,0,0-7.35-11c-2.79-3.64-7.3-7.25-8.76-11.64L4,45.66a62.13,62.13,0,0,1,5.34,7.46c.49.81,1.77.07,1.27-.74a63.67,63.67,0,0,0-5.56-7.76.74.74,0,0,0-1.24.71c1.22,3.66,4.11,6.14,6.53,9A102.61,102.61,0,0,1,20.09,68.3l1.16-.9c-3.15-3.1-5.51-7.22-8.06-10.82L5.48,45.7c-.54-.77-1.82,0-1.27.75Z"/><path class="cls-7" d="M8.35,43.27l3.86,5.23c.56.75,1.84,0,1.28-.75q-2-2.72-3.81-5.51c-.52-.79-1.8-.05-1.28.75L16.85,55.9a.74.74,0,0,0,1.27-.75L14,48l-1.28.74q3.44,5.47,7.15,10.76c.54.77,1.82,0,1.28-.75L17,52.66l-1.27.74,5.71,7.65,1.28-.74L18,54.09l-1.16.9a94.6,94.6,0,0,1,6.51,8.53l1.16-.9-2.57-2.77c-.58-.63-1.55.17-1.16.9A16.31,16.31,0,0,0,24.5,65.4c.59.52,1.65-.16,1.16-.9q-8-11.7-16.78-22.78c-.59-.75-1.62.3-1,1q8.7,10.93,16.54,22.49l1.16-.9A15.64,15.64,0,0,1,22.05,60l-1.16.9,2.57,2.76c.56.61,1.64-.19,1.16-.89a101,101,0,0,0-6.75-8.83c-.54-.62-1.67.23-1.16.9l4.71,6.21c.57.75,1.85,0,1.28-.74L17,52.66c-.55-.75-1.82,0-1.27.74l4.13,6.06,1.28-.75Q17.4,53.43,14,48a.74.74,0,0,0-1.28.74l4.16,7.2,1.27-.75L9.68,42.24,8.4,43c1.24,1.86,2.51,3.69,3.81,5.51l1.28-.75L9.62,42.53c-.56-.76-1.84,0-1.27.74Z"/><path class="cls-7" d="M12.82,39.8,14.39,42l1.16-.89a10.76,10.76,0,0,1-1.93-2.42l-1.16.89c2.75,3.15,5.35,6.4,7.8,9.78l1-1A24.3,24.3,0,0,1,15.75,42l-1.16.9A104.08,104.08,0,0,1,22.9,54.53l1.27-.74a57.89,57.89,0,0,1-3.66-5.69l-1.28.74,7.53,10.82c.53.78,1.81.05,1.27-.74l-3.17-4.63-1.16.89a63.7,63.7,0,0,1,5,6.67l1.16-.9L28.3,58.88c-.35-.87-1.78-.49-1.42.39A6.32,6.32,0,0,0,28.82,62c.6.5,1.65-.15,1.16-.9a64.61,64.61,0,0,0-5.24-7c-.54-.64-1.63.2-1.16.89l3.18,4.63L28,58.92,20.51,48.1a.74.74,0,0,0-1.28.74,57.46,57.46,0,0,0,3.67,5.69c.55.75,1.79.08,1.27-.74A105.17,105.17,0,0,0,15.63,41.9c-.53-.65-1.62.19-1.16.89a26.44,26.44,0,0,0,6.06,6.88c.58.44,1.43-.43,1-1q-3.79-5.23-8-10.08c-.55-.63-1.62.19-1.16.9a18.82,18.82,0,0,0,2.17,2.71.74.74,0,0,0,1.16-.89,14.65,14.65,0,0,0-1.81-2.54c-.59-.74-1.63.31-1,1Z"/><path class="cls-7" d="M18.33,35.66l-.18-.14a.76.76,0,0,0-.89-.12l-.23.15a.75.75,0,0,0-.34.83c.89,2.61,3.63,5.21,5.26,7.38l1.16-.89a39.44,39.44,0,0,1-4.21-6.29l-1.28.75,8.56,12.19,1.16-.89c-1.45-1.85-2.83-3.73-4.16-5.66l-1.27.75L32.68,58.66c.55.76,1.78.08,1.28-.74a19.17,19.17,0,0,0-2.26-3l-1,1a14.49,14.49,0,0,1,2.12,2.37c.55.73,1.79.08,1.27-.75a58.6,58.6,0,0,0-5.92-7.84c-.63-.71-1.67.33-1,1a58.06,58.06,0,0,1,5.69,7.55l1.27-.75A21.92,21.92,0,0,0,31.7,54.9c-.68-.67-1.67.34-1,1a11.66,11.66,0,0,1,2,2.72L34,57.92,23.18,43c-.54-.76-1.81,0-1.27.75q2.1,3,4.39,6c.51.65,1.64-.21,1.16-.9L18.9,36.58a.74.74,0,0,0-1.28.75,42.46,42.46,0,0,0,4.45,6.58c.52.64,1.66-.22,1.16-.89l-2.5-3.33c-1.21-1.61-1.84-1.68-3.44-3,.73.59,1.78-.45,1-1.05Z"/><path class="cls-7" d="M42.5,17.12l3,4.17,1.16-.89-3.5-4.07c-.54-.63-1.67.22-1.16.89q4,5.37,8.55,10.37l1-1a24.85,24.85,0,0,1-6.14-6.86l-1.27.75A93.15,93.15,0,0,0,53.75,33l1-1-4.51-4.56-1,1.05,3.28,3.18c.69.66,1.73-.38,1-1l-3.28-3.19a.74.74,0,0,0-1,1.05L53.75,33c.67.68,1.68-.34,1-1a91.15,91.15,0,0,1-9.4-12.3c-.51-.8-1.77-.07-1.27.75a25.75,25.75,0,0,0,6.37,7.15.74.74,0,0,0,1-1q-4.38-4.86-8.32-10.07l-1.16.89,3.51,4.07c.54.63,1.65-.21,1.16-.89l-3-4.17c-.54-.77-1.82,0-1.27.74Z"/><path class="cls-7" d="M54.3,33.22a19.79,19.79,0,0,0,1.34,1.91l.9-1.16A6,6,0,0,1,55,32.55l-1,1.05a16.34,16.34,0,0,1,4.46,5.89l1.16-.9a33.74,33.74,0,0,1-3.74-5c-.51-.79-1.79-.05-1.27.75a36.62,36.62,0,0,0,4,5.3c.61.64,1.48-.18,1.16-.9A17.4,17.4,0,0,0,55,32.55a.74.74,0,0,0-1,1.05,7.5,7.5,0,0,0,1.86,1.65c.77.49,1.37-.55.89-1.16a17.59,17.59,0,0,1-1.1-1.61c-.5-.81-1.78-.07-1.28.74Z"/><path class="cls-7" d="M46.79,14.16l5.54,8.4,1.28-.74c-2-2.88-3.94-5.83-5.71-8.88a.75.75,0,0,0-1.38.37c.07,2,1.49,3.43,2.65,5.07l6,8.54a.74.74,0,0,0,1.27-.75,31.21,31.21,0,0,0-2.14-3.77l-1.16.9q3.44,4.38,6.52,9l1.16-.89-3.42-3.73c-.66-.71-1.63.32-1,1.05l6.28,7.84c.59.74,1.63-.31,1-1l-6.28-7.84-1,1.05,3.42,3.72c.56.61,1.63-.19,1.16-.89-2.14-3.19-4.39-6.28-6.75-9.31-.52-.65-1.62.2-1.16.9a31.8,31.8,0,0,1,2.14,3.77l1.27-.75L52,19.77c-1.2-1.7-3.88-4.31-4-6.46l-1.38.37c1.78,3.05,3.67,6,5.71,8.88.54.76,1.81.06,1.28-.74l-5.54-8.4c-.52-.79-1.8-.05-1.28.74Z"/><path class="cls-7" d="M50.67,10.59l6.13,8.28L58,18a34.39,34.39,0,0,1-5.09-7.3l-1.27.75a105.49,105.49,0,0,0,8.3,11L61,21.36a48.64,48.64,0,0,1-4.12-4.6c-.53-.67-1.57.19-1.16.9A52.67,52.67,0,0,0,62,26.4c.55.61,1.64-.2,1.16-.9l-3-4.42L59,22a64.33,64.33,0,0,1,5.2,6.77l1.16-.9-1.94-2c-.56-.6-1.65.2-1.16.89,1.58,2.21,3.06,4.47,4.45,6.81A.74.74,0,0,0,68,33l-.22-1.12-1.08.83.65.39a.74.74,0,0,0,.75-1.28l-.66-.38a.74.74,0,0,0-1.08.83l.22,1.12,1.35-.57c-1.4-2.33-2.87-4.59-4.45-6.8l-1.16.89,1.94,2c.56.59,1.63-.19,1.16-.9A68.91,68.91,0,0,0,60,20.93c-.55-.63-1.64.2-1.16.89l3,4.43,1.15-.9a50.72,50.72,0,0,1-6.09-8.44l-1.15.9a49.8,49.8,0,0,0,4.11,4.6c.69.67,1.66-.33,1.05-1.05a102.25,102.25,0,0,1-8.08-10.69.74.74,0,0,0-1.27.75A35.81,35.81,0,0,0,56.91,19c.56.61,1.67-.21,1.16-.89L51.94,9.85c-.55-.76-1.84,0-1.27.74Z"/><path class="cls-7" d="M55.37,7.23l.13.82,1.09-.84-.72-.44c-.77-.47-1.38.54-.89,1.16L59.76,14l1-1a7.75,7.75,0,0,1-2.63-3.22L57,10.65c1.64,2.1,3.2,4.24,4.69,6.44l1-1A6.67,6.67,0,0,1,60.08,13l-1.15.89,7.65,9.09c.62.73,1.64-.31,1-1l-1.84-2.25c-.45-.55-1.51.05-1.23.72a16.89,16.89,0,0,0,1.64,3.12l1.27-.74L67,22.13c-.56-.75-1.79-.09-1.28.74a54.82,54.82,0,0,0,5.38,7.38c.55.64,1.59-.19,1.16-.9A107.61,107.61,0,0,0,65.9,20c-.57-.75-1.86,0-1.28.74A104.12,104.12,0,0,1,71,30.1l1.16-.9A53.14,53.14,0,0,1,67,22.13l-1.28.74.46.61c.55.75,1.81.07,1.27-.74A11.38,11.38,0,0,1,66,20l-1.23.72,1.83,2.24,1-1L60,12.8c-.57-.67-1.52.18-1.16.89A9.41,9.41,0,0,0,62,17.35c.6.43,1.41-.42,1-1q-2.35-3.45-4.92-6.73c-.53-.68-1.56.19-1.16.9A11.63,11.63,0,0,0,59.76,14a.74.74,0,0,0,1-1L56,6.89l-.89,1.16.71.44a.75.75,0,0,0,1.09-.84l-.14-.81c-.15-.94-1.57-.54-1.42.39Z"/><path class="cls-7" d="M50.26,27.43a9.64,9.64,0,0,0,1.55,3.15l2,3.49a.74.74,0,0,0,1.28-.74l-1.8-3.06A10.55,10.55,0,0,1,51.68,27c-.14-.94-1.56-.54-1.42.39Z"/><path class="cls-7" d="M46.81,14.64a.74.74,0,0,0,0-1.47.74.74,0,0,0,0,1.47Z"/><path class="cls-7" d="M55.55,27.42a5.49,5.49,0,0,0,.88,1.26c.64.7,1.69-.34,1-1a3.89,3.89,0,0,1-.64-1c-.43-.85-1.7-.1-1.28.75Z"/><path class="cls-7" d="M60.11,32.21l2.65,4.16c.51.8,1.79.06,1.28-.75l-2.66-4.15c-.51-.8-1.78-.06-1.27.74Z"/><path class="cls-7" d="M50.22,11.41A122.68,122.68,0,0,1,58.39,21.6c1.73,2.63,3.14,5.37,5.43,7.58.68.66,1.73-.38,1-1-2.76-2.67-4.29-6.21-6.59-9.24s-4.66-5.71-7-8.54c-.61-.73-1.65.32-1.05,1.05Z"/><path class="cls-7" d="M54.35,7.89c2.25,2.79,4.63,5.52,6.7,8.45,1.65,2.34,2.88,4.91,4.83,7,.65.7,1.69-.34,1.05-1-2.22-2.39-3.61-5.44-5.58-8s-4-5-6-7.44c-.59-.74-1.63.31-1,1Z"/><path class="cls-7" d="M18.22,36.48l0-.08-1.26,1a1.9,1.9,0,0,1,.19.21l1.13-1.13v0l.11.4v0l-.8.8h0l-.4-.11.08.07L17,37.31l.05.1c.49.9,1.87.09,1.38-.81a1,1,0,0,0-.87-.56.83.83,0,0,0-.8.8,1,1,0,0,0,.36.74.8.8,0,0,0,1.13-1.13l-.19-.21c-.66-.7-1.61.19-1.25,1l0,.07a.8.8,0,1,0,1.38-.8Z"/></g><g id="Layer_3" data-name="Layer 3"><polygon class="cls-8" points="40.2 42.73 35.49 36.28 37.6 34.68 42.31 41.13 40.2 42.73"/><polygon class="cls-8" points="3.07 45.77 20.33 69.43 22.45 67.83 5.18 44.17 3.07 45.77"/><polygon class="cls-8" points="7.29 42.57 24.56 66.23 26.67 64.64 9.41 40.98 7.29 42.57"/><polygon class="cls-8" points="11.52 39.38 28.79 63.04 30.9 61.44 13.63 37.78 11.52 39.38"/><polygon class="cls-8" points="15.75 36.18 33.01 59.84 35.13 58.25 17.86 34.59 15.75 36.18"/><line class="cls-8" x1="15.38" y1="58.15" x2="17.49" y2="56.55"/><line class="cls-8" x1="13.03" y1="54.93" x2="15.14" y2="53.33"/><line class="cls-8" x1="19.61" y1="54.96" x2="21.72" y2="53.36"/><line class="cls-8" x1="17.25" y1="51.73" x2="19.37" y2="50.13"/><line class="cls-8" x1="23.84" y1="51.76" x2="25.95" y2="50.16"/><line class="cls-8" x1="21.48" y1="48.54" x2="23.59" y2="46.94"/><line class="cls-8" x1="25.71" y1="45.34" x2="36.27" y2="37.35"/><line class="cls-8" x1="28.06" y1="48.57" x2="38.63" y2="40.58"/><polyline class="cls-8" points="10.91 56.52 6.69 59.72 9.04 62.94 13.27 59.75"/><polygon class="cls-8" points="55.9 5.83 73.17 29.49 71.05 31.09 53.79 7.43 55.9 5.83"/><polygon class="cls-8" points="51.67 9.03 68.94 32.69 66.83 34.28 49.56 10.63 51.67 9.03"/><polygon class="cls-8" points="47.45 12.22 64.71 35.88 62.6 37.48 45.33 13.82 47.45 12.22"/><polygon class="cls-8" points="43.22 15.42 60.49 39.08 58.37 40.67 41.11 17.02 43.22 15.42"/><line class="cls-8" x1="63.99" y1="21.41" x2="61.88" y2="23.01"/><line class="cls-8" x1="61.64" y1="18.19" x2="59.52" y2="19.78"/><line class="cls-8" x1="59.76" y1="24.61" x2="57.65" y2="26.2"/><line class="cls-8" x1="57.41" y1="21.38" x2="55.3" y2="22.98"/><line class="cls-8" x1="55.54" y1="27.8" x2="53.42" y2="29.4"/><line class="cls-8" x1="53.18" y1="24.58" x2="51.07" y2="26.17"/><line class="cls-8" x1="48.96" y1="27.77" x2="38.39" y2="35.76"/><line class="cls-8" x1="51.31" y1="31" x2="40.74" y2="38.98"/><polyline class="cls-8" points="63.75 16.59 67.98 13.39 70.33 16.62 66.1 19.82"/><polygon class="cls-8" points="39.11 50.23 49.68 42.24 54.39 48.69 43.82 56.68 39.11 50.23"/><polyline class="cls-8" points="35.49 36.28 33.38 37.88 28.67 31.42 35.01 26.63 39.72 33.08 37.6 34.68"/><polyline class="cls-8" points="42.31 41.13 44.42 39.54 47.56 43.84 41.22 48.63 38.09 44.33 40.2 42.73"/><polyline class="cls-8" points="50.46 43.32 52.58 41.72 55.72 46.02 53.6 47.62"/><polyline class="cls-8" points="39.9 51.3 37.78 52.9 40.92 57.2 43.03 55.6"/><line class="cls-8" x1="44.39" y1="46.23" x2="46.75" y2="49.46"/><line class="cls-8" x1="46.51" y1="44.64" x2="48.08" y2="46.79"/><line class="cls-8" x1="42.28" y1="47.83" x2="43.85" y2="49.98"/><polyline class="cls-8" points="30.78 29.83 29.21 27.68 31.32 26.08 32.89 28.23"/><polygon class="cls-8" points="22.93 19.07 20.58 15.85 22.69 14.25 25.05 17.48 22.93 19.07"/><polyline class="cls-8" points="31.32 26.08 32.38 25.28 26.1 16.68 21.88 19.87 28.16 28.47 29.21 27.68"/><polygon class="cls-8" points="18.46 17.44 16.11 14.22 22.45 9.43 24.8 12.65 18.46 17.44"/><polygon class="cls-8" points="20.61 9.15 21.39 10.22 17.17 13.42 16.38 12.34 20.61 9.15"/><polygon class="cls-8" points="22.77 9.86 24.02 11.58 26.36 5.8 24.26 4.72 22.77 9.86"/><polyline class="cls-8" points="24.02 11.58 29.03 9.46 29.55 12.41 24.8 12.65"/><polygon class="cls-8" points="16.43 14.65 17.68 16.37 11.57 16.98 11.16 14.62 16.43 14.65"/><polyline class="cls-8" points="17.68 16.37 14.24 20.64 16.86 21.99 18.46 17.44"/></g></svg>