<svg xmlns="http://www.w3.org/2000/svg" viewBox="0 0 167 167"><defs><style>.cls-1{fill:#1b7985;}.cls-2{fill:#0c1a37;}.cls-3{fill:#004c54;}.cls-4{fill:#005587;}.cls-5{fill:#f47d20;}.cls-6{fill:#b55d13;}.cls-7{fill:#007b9f;}.cls-8{fill:none;stroke:#000;stroke-miterlimit:10;stroke-width:2.83px;}</style></defs><title>Artboard83.5xIOS</title><g id="Layer_5" data-name="Layer 5"><path class="cls-1" d="M54.45,44l-.86-.13a1.63,1.63,0,0,0-2.34,1L51,45,53,47.45c.6-.66,3-4.11,3.8-4.18-1-.34-1,0,.1,1.12l1.52,2.43,6.08,9.76A1.59,1.59,0,0,0,67.21,55l-3.1-5.63-2.5,1.93c1.06.91,3.09,2.47,3.46,3.86.69,2.55-2.32,3.51-3.9,4.49l2.18.57L59,53c-.76-1.28-4.6-6.06-4.29-7.36L53.21,46.8c1.52-.14,4.34,6.09,5,7.37a14.88,14.88,0,0,0,4.12,5.06,1.59,1.59,0,0,0,2.39-1.37c-.19-6.09-5.42-11.16-7.89-16.5L54.12,43l.37.65A1.59,1.59,0,0,0,57.23,42l-.37-.64c-1-1.81-3.59-.22-2.74,1.6a55.7,55.7,0,0,0,4.09,7.41c1.55,2.37,3.27,4.51,3.36,7.49L64,56.48c-2.81-2.14-4-6.22-6-9.07-1.19-1.71-2.41-4-4.73-3.79a1.64,1.64,0,0,0-1.54,1.16c-.58,2.42,1.48,4.56,2.66,6.53l6.27,10.5a1.61,1.61,0,0,0,2.17.57c2.14-1.33,6.52-2.83,6.26-6-.23-2.8-3.22-5.69-5.17-7.39A1.6,1.6,0,0,0,61.36,51l3.1,5.63L67.21,55l-4.94-7.93c-1.17-1.88-2.32-4.89-4.06-6.33-3-2.44-5.91,2.74-7.5,4.48a1.6,1.6,0,0,0,1.93,2.5,2.58,2.58,0,0,0,1.68-2L52,46.66a4.37,4.37,0,0,0,2.47.56c2-.06,2-3.24,0-3.18Z"/><path class="cls-1" d="M62.26,56.63l1.7,1a1.61,1.61,0,0,0,2.4-1.37l0-.62a1.59,1.59,0,0,0-3.18,0l0,.62,2.39-1.38-1.71-1a1.6,1.6,0,0,0-2.17.57,1.62,1.62,0,0,0,.57,2.18Z"/><path class="cls-1" d="M66.39,63.23l1.46,1.48a1.6,1.6,0,0,0,2.66-1.55,4.45,4.45,0,0,0-1.2-2.52,1.59,1.59,0,0,0-2.75,1.61C68,65.09,67,66.71,65.43,69a3.39,3.39,0,0,0-.64,1.45c-.28,1.9,1.25,3.07,2.38,4.32,2.47,2.75,4.81,9.8,9.5,7.82,2.72-1.14,9.11-5.06,9.14-8.64,0-2.11-2.29-4.25-3.43-5.87-1.65-2.37-3.19-5.58-5.45-7.4A1.7,1.7,0,0,0,75,60.42c-2,.88-3.57,2.76-5.05,4.24-1.26,1.25-3.55,3.14-3.93,5-.75,3.7,4.88,8.21,7.22,10.22,1.31,1.13,3.47-.3,2.5-1.93C74,75.09,71.42,71.31,71,68l-.41,1.55c.59-.69,3.09-3,4.07-2.88s3.58,4.75,4,5.69c.51,1.27.66,2.18-.19,3.18-.08.1-2.36,1.78-2.14,1.81-1.37-.21-4-7.61-3.79-8.39l-2.66.7a86.52,86.52,0,0,1,6.14,8.47,1.59,1.59,0,0,0,2.75-1.61q-2.39-5.14-5-10.19L71,67.9l5.45,8.64c.93,1.47,3.49.56,2.91-1.22a51.76,51.76,0,0,0-4.47-10L72.11,67l4.52,7a1.59,1.59,0,0,0,2.74-1.61,62.47,62.47,0,0,0-3.54-6.91L73.08,67q2.27,3.8,4.65,7.5l2.75-1.6L79.24,71c-1.11-1.71-3.87-.12-2.75,1.6l1.24,1.92c1.12,1.71,3.87.12,2.75-1.6-1.59-2.48-3.15-5-4.65-7.51A1.59,1.59,0,0,0,73.08,67a63.4,63.4,0,0,1,3.55,6.91l2.74-1.61-4.51-7c-1.11-1.71-3.79-.18-2.75,1.6a47.24,47.24,0,0,1,4.15,9.2l2.91-1.22L73.72,66.3A1.59,1.59,0,0,0,71,67.9q2.57,5.05,5,10.2l2.75-1.61A92.57,92.57,0,0,0,72,67.38a1.6,1.6,0,0,0-2.66.7c-.78,2.93.73,5.12,2.18,7.58.91,1.53,1.89,4.62,4.1,4.75,1.74.11,5.17-2.26,6.24-3.55,1.69-2,.64-4.14-.58-6.14-1-1.68-2.11-3.32-3.17-5-.53-.84-1.17-2.4-2.16-2.86-1.78-.85-3.31.88-4.58,1.87C69.72,66.05,67.54,67,68,69.32c.59,3.47,3.28,7.27,5,10.24l2.5-1.93c-2.06-1.77-6-4.77-5.51-7.5.41-2.29,4.53-6,6.62-7l-1.93-.25c1.84,1.49,3.18,4.22,4.53,6.15l1.68,2.4.84,1.2c1,.65,1.12,1.27.32,1.88-.63,1.64-3.21,3.29-4.77,4-3,1.44-3.6-.68-5.18-2.82-.95-1.29-2.22-2.39-3.12-3.69-1.14-1.63-.18-1.58.83-2.89,2-2.68.84-5.84-.5-8.53l-2.75,1.61L67.44,64l2.66-1.55L68.64,61a1.59,1.59,0,0,0-2.25,2.25Z"/><path class="cls-1" d="M51.16,36.06l-.33-.78-2.75,1.61,3.26,4.38,2.5-1.93L50.2,35.57a1.6,1.6,0,0,0-2.5,1.93,32.26,32.26,0,0,0,3,4.21c1.16,1.39,3.46-.41,2.5-1.92L49.55,34c-.7-1.09-1.34-2.58-2.52-3.22-2.71-1.46-4,1.83-4.81,3.77-.56,1.29.71,3.17,2.18,2.17L48,34.3l-1.92-2.5c-.68.53-5.31,4.92-5.32,2,0-1.3,4.55-4.17,5.63-5.05l-2.25-2.25a3.26,3.26,0,0,1-4.63.74V30L46,26.25,44.07,26c1,1.15,2.12,3.18,3.91,2.94.36,0,1.3-.79,1.4-.79.48-.69.43-.37-.13,1a3.6,3.6,0,0,1-2.45,2.44l1.79,2.33,1.6-3.41A1.61,1.61,0,0,0,48,28.28a19.25,19.25,0,0,0-3.78,2.12c-.47.35-.93.72-1.37,1.11a7.36,7.36,0,0,0-.76.72c-.6.36-.47.63.39.8v1.6c.84-1.81,2.8-3.06,4.53-3.9s.23-3.65-1.61-2.75-7.79,4.6-5.29,7.28a2.41,2.41,0,0,0,3.12.25,21.2,21.2,0,0,0,2.26-2.09A17,17,0,0,1,49.62,31l-2.18-2.18-1.59,3.42c-.53,1.13.36,2.85,1.79,2.34,3.06-1.11,6.28-4.77,4.51-8.24a3.11,3.11,0,0,0-3.56-1.69c-.68.21-1,.84-1.51,1.14,1.13.17,1.25-.07.38-.73l-1.14-1.34a1.62,1.62,0,0,0-1.93-.25l-6.5,3.73a1.61,1.61,0,0,0,0,2.75,6.33,6.33,0,0,0,8.49-1.24,1.59,1.59,0,0,0-2.25-2.25c-1.92,1.56-5.06,3.26-6.4,5.36-1.09,1.71.12,3.75,1.18,5.17,2.79,3.73,6.82-1,9.41-3,1.41-1.1-.44-3.51-1.93-2.5L42.79,34,45,36.18c-.07.16,1.28-2.7.61-2.46a23.27,23.27,0,0,1,1.53,2.4l3.36,5.27L53,39.46a27.59,27.59,0,0,1-2.52-3.56L48,37.83l3.64,3.76c1.22,1.26,3.6-.45,2.5-1.93l-3.26-4.38a1.59,1.59,0,0,0-2.75,1.61l.33.77c.8,1.88,3.54.26,2.75-1.6Z"/><path class="cls-1" d="M50.53,27.29a1,1,0,0,1-.68-.4c0-.14,0-.12,0,.07s0,.23,0,.09a2.18,2.18,0,0,1,0,.25c0,.65,0,1.3,0,1.95a1.59,1.59,0,0,0,3.18,0c0-1.89.19-5.18-2.57-5.15-2.05,0-2.06,3.21,0,3.19Z"/><path class="cls-2" d="M91,83l2.17-3.2c1.08-1.6-1.2-3-2.5-1.93l-2.81,1.66,1.8,2.34.49-.63c1.31-1,.66-3.5-1.22-2.9l-1.55.48,1.55,2.66a6.43,6.43,0,0,1,2.27-1.83L89.6,76.92l-1.84,1.23,1.93,2.5c2.47-2.15,4.94-4.3,7.47-6.38,1.64-1.35,3.3-2.69,5-4,.77-.57,3.87-3.46,4,0,0,.62-3.91,3.07-4.44,3.47Q99.88,75.23,98,76.63,93.64,79.87,89.2,83l2.4,1.37c.32-3.51,3.92-5.8,6.35-7.91L105.38,70c1.55-1.35-.7-3.56-2.25-2.25L91,78c-1.37,1.15.48,3.6,1.93,2.5l6.78-5.15c.77-.58,6.85-4.38,6.78-5.14-.25-2.85-5.17,2.16-5.88,2.77L93.8,78.82c-1.56,1.34.7,3.58,2.25,2.25,3.41-2.92,6.9-5.78,10.26-8.77,1.25-1.11,3.33-3,1.64-4.73s-3.57.29-4.88,1.29L91.35,77.75l1.93,2.5L105.38,70l-2.25-2.25c-3.6,3.12-7.37,6.13-10.82,9.41-2.16,2.06-3.61,4.18-3.89,7.2a1.6,1.6,0,0,0,2.39,1.38Q98.49,80.3,106,74.56c2.41-1.86,6.1-5,3.39-8.23-2.11-2.53-5.35-1.14-7.58.35-5.11,3.41-9.73,7.7-14.35,11.71-1.36,1.18.42,3.51,1.93,2.5l1.84-1.22c1.69-1.13.17-3.8-1.61-2.75a12.8,12.8,0,0,0-2.91,2.33,1.6,1.6,0,0,0,1.55,2.66l1.54-.49-1.22-2.9a5.31,5.31,0,0,0-1.64,1.76c-.67,1.1.46,2.87,1.79,2.34a14.93,14.93,0,0,0,4.22-2.48l-2.5-1.93-2.16,3.2c-1.15,1.7,1.6,3.3,2.74,1.61Z"/><path class="cls-2" d="M108.58,66.06l.18-1a1.65,1.65,0,0,0-.73-1.8,1.61,1.61,0,0,0-1.93.25,5.12,5.12,0,0,0-1,1.9,1.59,1.59,0,0,0,3.07.85l.09-.29q-.07.18,0,0c0-.06.31-.45.13-.24l-2.66-1.54-.18,1a1.59,1.59,0,0,0,3.07.84Z"/><path class="cls-2" d="M114.76,60.52a10.76,10.76,0,0,1,1.47,2.23l2.17-2.18a3.58,3.58,0,0,1-1.54-1.9c-.65-1.92-3.71-1.11-3.07.85A17,17,0,0,0,116,64a1.64,1.64,0,0,0,2.18.57,1.61,1.61,0,0,0,.57-2.18,13.7,13.7,0,0,1-1.89-3.69l-3.07.85a7,7,0,0,0,3,3.8c1.43.87,2.86-.82,2.17-2.18a13.37,13.37,0,0,0-2-2.87c-1.36-1.54-3.61.72-2.25,2.25Z"/><path class="cls-2" d="M115.86,57.72a1.76,1.76,0,0,0-1.6.4,1.71,1.71,0,0,0-.5,1.22,1.68,1.68,0,0,0,2.1,1.62A1.59,1.59,0,0,0,117,59a1.63,1.63,0,0,0-2-1.11h0l1.54.41,0,0,.41.71v.72l-.41.71,0,0-1.55.41H115a1.64,1.64,0,0,0,2-1.11,1.61,1.61,0,0,0-1.11-2Z"/><path class="cls-2" d="M115,57.15h-.23a1.59,1.59,0,1,0,0,3.18H115a1.59,1.59,0,0,0,0-3.18Z"/><path class="cls-2" d="M123.43,52.21a10.78,10.78,0,0,0,3.2,4.81l1.92-2.5a5.6,5.6,0,0,1-1.79-1.42,4.24,4.24,0,0,1-1-1.71l-.21.8.08-.16-1.79.73.1,0-1-.73,0,.11.24-1.93-.06.05c-1.54,1.36.72,3.6,2.26,2.25l.06-.05a1.63,1.63,0,0,0,.24-1.93,1.56,1.56,0,0,0-1.1-.86,1.62,1.62,0,0,0-1.79.74c-.71,1.3.15,3,.92,4.06A8.66,8.66,0,0,0,127,57.27c1.52.79,3.37-1.27,1.93-2.5a7.75,7.75,0,0,1-2.38-3.4c-.66-1.93-3.74-1.1-3.07.84Z"/><path class="cls-2" d="M122.62,53.18a22.1,22.1,0,0,0,3.21,4.74c1.36,1.54,3.6-.72,2.25-2.25a18.69,18.69,0,0,1-2.71-4.1c-.9-1.84-3.65-.22-2.75,1.61Z"/><path class="cls-2" d="M115.92,57.85l-.73,0a1.61,1.61,0,0,0-1.53,2,8.72,8.72,0,0,0,2.48,4.54c1.47,1.43,3.73-.82,2.26-2.25a5.79,5.79,0,0,1-1.67-3.13l-1.54,2,.73,0a1.63,1.63,0,0,0,1.59-1.59,1.6,1.6,0,0,0-1.59-1.59Z"/><path class="cls-2" d="M134.32,44.34l-.12-.09a1.65,1.65,0,0,0-1.93-.25c-1.88,1.11-.4,3.08.34,4.42s1.58,2.55,3.2,2.54a2.44,2.44,0,0,0,2.32-3.19,9.41,9.41,0,0,0-1.37-2.27l-1.52-2.27c-1.14-1.69-3.9-.09-2.75,1.61l1.42,2.1c.27.41,1.19,1.4,1.13,1.89l.22-.8c.21-.09.42-.17.64-.24.07,0,0-.06-.07-.13a5,5,0,0,0-.48-.85c-.35-.65-.76-1.29-1.06-2l.22.8v-.18l-.79,1.38.15-.09L132,46.5l.12.09a1.64,1.64,0,0,0,2.25,0,1.6,1.6,0,0,0,0-2.25Z"/><path class="cls-2" d="M141.16,39.12l1.76,2.47a6.83,6.83,0,0,0,1.57,1.93c1.66,1,3.1-.86,4.19-1.86s3.13-2.23,2.84-4c-.26-1.57-2-3.18-3-4.33a1.6,1.6,0,0,0-2.25,0c-1.18,1.1-2.46,2.15-3.56,3.33a2.67,2.67,0,0,0-.84,2.75A2.11,2.11,0,0,0,144,40.78a2.57,2.57,0,0,0,1.46-.63,3.16,3.16,0,0,0,.51-.58c.3-.31.31-.38,0-.21l-1.13-.47.09-1.42c-1.45,1.21.4,3.29,1.93,2.5l1.39-.72c1.83-.93.22-3.68-1.6-2.74l-1.4.71,1.93,2.5a2.07,2.07,0,0,0-.41-3.33,2.26,2.26,0,0,0-2,0,2.8,2.8,0,0,0-.93.67l-.25.32c-.41.4-.25.48.5.25l.73,1-.08-.41-.16,1.23a7.25,7.25,0,0,1,1.82-1.93l2-1.87h-2.25c.62.71,2,2,2.19,2.93l.16-1.23c-.28.63-1.25,1.27-1.76,1.74a13.91,13.91,0,0,1-2.08,1.84l1.22-.16c.26.09-.69-1.25-.8-1.4l-1.28-1.8c-1.18-1.65-3.94-.06-2.75,1.61Z"/><path class="cls-2" d="M50.07,108.05a26.84,26.84,0,0,1,1.51,3.21,1.63,1.63,0,0,0,2,1.11c4-1.07,1.08-8.3-2.58-7.37a3.27,3.27,0,0,0-2.18,3.89c.47,2,2.3,2.86,3.53,4.32s3.56-.69,2.25-2.25A11.29,11.29,0,0,0,53,109.55a11.53,11.53,0,0,1-1.14-1.3s0-.31,0-.3a.31.31,0,0,1-.37.13c-.17-.06-.13,0,.12.19.09.22.25.42.35.64l.1.29c0,.51.21.54.55.1l2,1.12a33.2,33.2,0,0,0-1.83-4c-1-1.8-3.74-.19-2.75,1.6Z"/><path class="cls-2" d="M61.69,101.55l-.12-1.2-3,.8,2.14,4.08a1.62,1.62,0,0,0,2.5.32L82.48,89.92A1.59,1.59,0,0,0,82.73,88c-.94-1.33-1.74-3.32-3.55-3.38-2.18-.08-5.63,3.49-7.31,4.7-2.58,1.86-5.13,3.77-7.56,5.82-1.61,1.36-4.78,3.43-5.48,5.52-.39,1.16-.45,2.52.71,3.31,1.67,1.15,3.43-.3,4.76-1.14A76.65,76.65,0,0,0,80.61,89.34a1.6,1.6,0,0,0-1.92-2.5c-2.54,1.13-4.36,2.88-6.44,4.65A53.64,53.64,0,0,1,63,97.8c-1.55.84-.48,3.59,1.22,2.91l9.07-3.59-1.55-2.65c-3.18,3.85-8.23,5.23-11.13,9.42a1.61,1.61,0,0,0,1.79,2.34c7.68-2.38,14.82-9.48,20.61-14.83,1.51-1.39-.75-3.64-2.25-2.25-5.38,5-12.06,11.8-19.2,14l1.8,2.34c2.67-3.86,7.64-5.16,10.63-8.78.89-1.08.09-3.31-1.54-2.66l-9.07,3.58,1.22,2.91a53.23,53.23,0,0,0,7.62-5c2.65-2.08,4.92-4.61,8-6l-1.93-2.5a62.35,62.35,0,0,1-9.58,8.71c-1.19.89-2.41,1.75-3.63,2.61-.39.27-4.87,2.9-3.1,3.09.64.06,3.88-3.57,4.51-4.1C68,96.17,69.5,95,71,93.87S74.3,91.48,76,90.31s2.58-2.74,4-.71l.25-1.93L61,103.3l2.5.32-2.14-4.07c-.7-1.34-3.13-.79-3,.8l.13,1.2c.21,2,3.39,2,3.18,0Z"/><path class="cls-2" d="M41.23,115.24a8.83,8.83,0,0,1,1.66,2.9,1.61,1.61,0,0,0,2.66.7c2.38-2-.6-6.45-3.18-6.32A2.64,2.64,0,0,0,40,116a4.07,4.07,0,0,0,1.13,1.83A4.64,4.64,0,0,1,42.25,119a1.6,1.6,0,0,0,2.17.58,1.64,1.64,0,0,0,.58-2.18,4.91,4.91,0,0,0-1.27-1.59c-.08-.07-.67-.74-.67-.74a.61.61,0,0,1-.65.57.14.14,0,0,1,.08.07s.32.43.32.43a5.45,5.45,0,0,0,.33.58c.29.33-.19.12.16-.17l2.66.7a12.86,12.86,0,0,0-2.48-4.3c-1.35-1.55-3.59.71-2.25,2.25Z"/><path class="cls-2" d="M32,122.29a23,23,0,0,1,2.37,2.46l-.41-.7.08.26v-.85l0,.15.41-.7.1-.08.81-.22c-.52.07.44.84.52.44a2.19,2.19,0,0,0-.16-.57,3.46,3.46,0,0,0-.76-1.26,1.61,1.61,0,0,0-2.66,1.55c.39,1.65,1.55,4.49,3.73,3.76a2.3,2.3,0,0,0,1.4-2.78A9.53,9.53,0,0,0,35.69,121c-.67-1-1.19-2-2.53-1.9a2.84,2.84,0,0,0-2.3,1.57,3.4,3.4,0,0,0,.12,3.1,24.53,24.53,0,0,0,1.83,2.37c1.11,1.71,3.87.12,2.75-1.61a20.6,20.6,0,0,0-1.39-1.7,4.11,4.11,0,0,0-.4-.57q0-.26-.12-.09a.62.62,0,0,1-.48.11l-1-.73,1.13,1.66c.17.25.35.5.52.76l.2.3c.19.42.31.3.34-.37l.7-.41h0l.81.22c.12.09-.29-.62-.35-.74a6.91,6.91,0,0,1-.3-1l-2.66,1.55c-.2-.2,0,0,0,.2s.12.37.19.55a2.38,2.38,0,0,0,1,1.22,2.28,2.28,0,0,0,2.55,0c2.21-1.67-1-4.22-2.17-5.35-1.49-1.41-3.74.84-2.25,2.25Z"/><path class="cls-2" d="M24.6,130.35a5.68,5.68,0,0,1,1.55-1.76l-2.5-.32a19.91,19.91,0,0,1,2.1,3.41l.57-2.18a18.41,18.41,0,0,0-6.05,4.19l2.5.33a12.1,12.1,0,0,0-1.56-2.09l0,.57.47-.32c.51-.17.91-.4,1.44-.53l-1.95-2L20.66,131l3.07.85a2.66,2.66,0,0,1,.36-1.08c.94-1.81-1.81-3.43-2.75-1.6a7.08,7.08,0,0,0-.68,1.83,1.59,1.59,0,0,0,3.07.85l.47-1.29c.43-1.2-.87-2.21-2-1.95-1.46.34-3.49,1.18-4.08,2.71-.64,1.7.93,3.08,1.86,4.32a1.61,1.61,0,0,0,2.5.32,16.22,16.22,0,0,1,5.41-3.69,1.62,1.62,0,0,0,.57-2.18,21,21,0,0,0-2.1-3.41,1.64,1.64,0,0,0-2.5-.32,7.76,7.76,0,0,0-2,2.41c-1,1.78,1.74,3.39,2.74,1.6Z"/><path class="cls-2" d="M20.21,128.4c-1.43.14-2.91.53-3.45,2a2.48,2.48,0,0,0,1.55,3.24,1.59,1.59,0,0,0,.84-3.07,1.26,1.26,0,0,1,.6.56c.05.13.05.13,0,0l0,.22c0-.29-.06.23,0,.05s0-.07,0,0a.45.45,0,0,1-.16.24c-.06.1-.14.08,0,0,.34-.2-.13,0,.08,0l.36-.08c-.28.06.06,0,.16,0A1.62,1.62,0,0,0,21.8,130a1.6,1.6,0,0,0-1.59-1.59Z"/><path class="cls-2" d="M21.42,133.47c0,.39-.18.3.22.05a6.46,6.46,0,0,0,.59-.44A9.35,9.35,0,0,0,23.41,132c.73-.82,1.63-1.86,1.48-3a2.16,2.16,0,0,0-2.11-1.81,2.93,2.93,0,0,0-2.46,1.62c-.83,1.28.88,3.14,2.18,2.18a11.31,11.31,0,0,1,2.89-1.59c1.91-.69,1.08-3.77-.85-3.07a14,14,0,0,0-3.65,1.91l2.18,2.18c.46-.71-.81-1.87-1.41-1.28a5,5,0,0,0-.39.52A7.51,7.51,0,0,1,20,130.77c-1,.75-1.76,1.37-1.81,2.7-.07,2.05,3.12,2.05,3.19,0Z"/><path class="cls-1" d="M80.19,81.25a97.36,97.36,0,0,1,8.14,12.82l2.75-1.61a47.32,47.32,0,0,1-5.61-9.73l-2.75,1.61c2.58,4.08,6.6,7.1,8.54,11.58.81,1.87,3.55.25,2.74-1.61-2-4.51-5.94-7.49-8.53-11.58a1.59,1.59,0,0,0-2.75,1.61,47.32,47.32,0,0,0,5.61,9.73,1.59,1.59,0,0,0,2.75-1.61,99.09,99.09,0,0,0-8.14-12.82c-1.21-1.62-4,0-2.75,1.61Z"/><path class="cls-1" d="M94.12,96l-.63-1.21a1.61,1.61,0,0,0-2.34-1c-1.64,1-6.1,2.5-6.17,4.85,0,1,.78,1.88,1.31,2.69l3.41,5.11c.94,1.41,3.56.56,2.9-1.23l-2.26-6.19-2.66,1.55a24.34,24.34,0,0,1,3.83,5.09,1.61,1.61,0,0,0,2.75,0c1.48-2-.81-6-1.46-8l-2.9,1.22,4.25,5.67A1.59,1.59,0,0,0,96.9,103l-2.8-6.62-2.5,1.92L95,102.66c1,1.27,3.12-.11,2.66-1.55a13.14,13.14,0,0,0-3.58-5.76l.25,1.93a11.71,11.71,0,0,0,2-4,1.61,1.61,0,0,0-2-2,7.4,7.4,0,0,0-3,1.52l2.25,2.25c.55-.48,2.17-2.28,2.92-2.39L95,92.29c1.58,1.23,2.63,3.27,3.57,5l2.74-1.6-1.12-1.8L98,96.08l.53,1,2.72-1.12c-1.47-1.19-3.28-3.5-5.32-2.3a1.65,1.65,0,0,0-.73,1.8c.43,2.11,1.75,4.38,2.57,6.36l2.91-1.22a16.84,16.84,0,0,0-3.63-4.3,1.61,1.61,0,0,0-2.66,1.55,13.08,13.08,0,0,0,1.93,4.43A1.6,1.6,0,0,0,99.23,101l-.87-3.87L96,98.93c1.66,1.08,2.23,3.18,4,4.28a1.6,1.6,0,0,0,2.39-1.37,7.93,7.93,0,0,0-.37-2.37l-2.91,1.22a27.78,27.78,0,0,1,2.35,3.82c.92,1.82,3.67.21,2.75-1.61a27.09,27.09,0,0,0-2.35-3.81c-1-1.38-3.43-.63-2.91,1.22l.26,1.53,2.39-1.37c-1.66-1.07-2.25-3.17-4-4.29A1.61,1.61,0,0,0,95.29,98l.87,3.87,2.91-1.23A10.72,10.72,0,0,1,97.46,97L94.8,98.5a14.43,14.43,0,0,1,3.13,3.65c.93,1.42,3.64.53,2.91-1.22-.82-2-2.14-4.26-2.57-6.37l-.73,1.8.35-.21h-1.6a13.13,13.13,0,0,1,2.71,2A1.62,1.62,0,0,0,101.72,97a4,4,0,0,0-2.11-3.7,1.61,1.61,0,0,0-2.18,2.18l1.13,1.79a1.59,1.59,0,0,0,2.74-1.6c-.9-1.69-2.6-5.29-4.57-6s-4.07,2-5.36,3.12c-1.57,1.39.68,3.47,2.25,2.25l1.61-.7-2-2a8.6,8.6,0,0,1-1.66,3.24,1.58,1.58,0,0,0,.25,1.93A9.62,9.62,0,0,1,94.62,102l2.66-1.55L93.85,96c-1.22-1.55-3.13.44-2.5,1.93l2.8,6.62L96.9,103l-4.26-5.67c-1-1.33-3.49-.64-2.91,1.22.19.58,2.13,5.13,1.78,5.61h2.75a27,27,0,0,0-4.33-5.74c-1.07-1.08-3.23,0-2.66,1.55l2.26,6.19,2.91-1.23c-1.23-1.85-2.53-3.68-3.71-5.57l-.62-.93c.38.9.91.92,1.58,0a14.79,14.79,0,0,0,3.07-1.84l-2.34-.95a4.09,4.09,0,0,0,1,2c1.23,1.61,4,0,2.75-1.6Z"/><path class="cls-1" d="M106,99.36a17.86,17.86,0,0,0-3.2-2.88l-1.22,2.91c.94.22-2.2,4.59-2.63,5A28.66,28.66,0,0,1,95,107.29l2.34,1.8a7.16,7.16,0,0,1,2.56-4.67,1.59,1.59,0,0,0-2.25-2.25c-2.65,2.48-6.12,7-9.44,8.51l2.17.57-.22-.34-.24,1.93.2-.25-2.5-.33A24.92,24.92,0,0,1,90,119l2.91-1.22c-1.45-2.09-4.13-6-7.12-3.4s1.49,7.84,3.19,9.84c.92,1.09,2.7.17,2.71-1.13a14,14,0,0,0-1.53-6.68l-2.5,1.93a7.28,7.28,0,0,1,1.78,4.3,1.59,1.59,0,0,0,2.33.95c1.43-.95,3.79-.26,5.4-1s3.15-2.89,4.44-4.09a74.92,74.92,0,0,1,13.67-10,1.62,1.62,0,0,0,.74-1.8c-1.44-3.67-6-16.27-11.82-9.33l2.5,1.93c.52-1,4.2,4.5,4.45,4.86,1.23,1.8,2.48,3.57,3.75,5.33a1.61,1.61,0,0,0,2.75,0,2.45,2.45,0,0,0,0-2.87,1.61,1.61,0,0,0-2.5-.32l-4.31,3.82c-1.54,1.36.72,3.6,2.25,2.25l4.31-3.82-2.5-.33v-.33h2.75c-1.6-2.22-9.73-18-13.69-10.2-.77,1.52,1.27,3.39,2.49,1.93l3.65,1a29.76,29.76,0,0,1,1.24,2.84c.56,1.36,1.07,2.73,1.61,4.1l.73-1.8a78.68,78.68,0,0,0-13.1,9.4c-2,1.82-3.37,3.76-6,4.36-1.88.43-2.61.14-4.4,1.34l2.34,1a11.49,11.49,0,0,0-2.6-5.71c-1.17-1.51-3.23.41-2.5,1.93a8.32,8.32,0,0,1,1.1,5.07L91.21,122a15.7,15.7,0,0,1-2.62-3.85,1.6,1.6,0,0,1,1.55,1.26,1.6,1.6,0,0,0,2.91-1.22,27.67,27.67,0,0,0-2.67-7.54,1.6,1.6,0,0,0-2.5-.32l-.2.25a1.62,1.62,0,0,0-.25,1.93l.22.33a1.65,1.65,0,0,0,2.17.58c3.71-1.66,7.11-6.23,10.09-9l-2.25-2.25a12,12,0,0,0-3.38,6.07,1.61,1.61,0,0,0,2.34,1.8c2.95-1.81,14.73-11.63,5.79-13.72a1.6,1.6,0,0,0-1.22,2.91,10.69,10.69,0,0,1,2.55,2.38c1.34,1.55,3.59-.71,2.25-2.25Z"/><path class="cls-1" d="M98.5,123.77c5.46-3.76,9.83-8.87,15.43-12.42,1.73-1.09.13-3.84-1.6-2.74-5.62,3.55-10,8.65-15.44,12.41-1.67,1.16-.08,3.92,1.61,2.75Z"/><path class="cls-1" d="M94.11,115.77l.11-.68H91.15l2,5.23a1.59,1.59,0,0,0,3.07-.85L95,112.09l-3.07.85.67,3.49c.38,2,3.41,1.15,3.07-.85l-.77-4.41a1.61,1.61,0,0,0-2.91-.39l-1.1,1.63,2.66.7.36-1.36H91.17a12.13,12.13,0,0,1,1.34,4.67c.19,1.59,2.86,2.37,3.13.43.32-2.27.58-4.53.75-6.81l-3.12.42,2.28,10.77c.38,1.78,3.13,1.34,3.13-.43v-9.13c0-2.07-3-2-3.18,0a31.8,31.8,0,0,0,.57,8.43c.29,1.49,2.8,1.54,3.07,0a77.45,77.45,0,0,0,1.1-11.06c0-2.06-3.07-2-3.19,0a53,53,0,0,0,.21,8.73,1.59,1.59,0,0,0,3.18,0,75.36,75.36,0,0,0,.25-9.14,1.6,1.6,0,0,0-3.19,0l0,8.53c0,2.1,3,2,3.19,0L101.92,107H98.73a91.26,91.26,0,0,0,.69,10.71c.21,1.68,2.6,2.28,3.13.42a83,83,0,0,0,2.57-12.88h-3.18l-.37,8.88a1.6,1.6,0,0,0,3.13.43c.73-3.11,1.33-6.23,1.82-9.39l-3.13-.42-.49,9.61a1.6,1.6,0,0,0,3,.8c2-3.6,1.7-8.3,2.08-12.3h-3.18a46,46,0,0,0,.55,9.31c.3,1.91,3,1.22,3.13-.42q.53-5.12.87-10.24h-3.18c.38,3.08.87,6.13,1.48,9.18.36,1.78,3.13,1.34,3.13-.42v-8.76l-3.12.42,1.78,6.9c.43,1.69,3.33,1.4,3.13-.42-.3-2.66-.5-5.62-1.47-8.12-.74-1.93-1.56-1.9-3.61-2.68a1.6,1.6,0,0,0-2,1.11c-.66,3.6,4.28,6.57,6.5,8.77l1.55-2.66-2.06-1.37c-1.26-1.61-3.49.65-2.25,2.25a5.5,5.5,0,0,0,3.46,2.19,1.6,1.6,0,0,0,1.55-2.66c-.57-.57-5.82-4.9-5.68-5.67l-2,1.11c2.61,1,2.47,5.32,2.74,7.73l3.13-.42-1.78-6.9a1.6,1.6,0,0,0-3.13.42v8.76l3.13-.43c-.56-2.76-1-5.53-1.37-8.33a1.59,1.59,0,0,0-3.18,0q-.34,5.13-.87,10.24l3.12-.42a42.19,42.19,0,0,1-.44-8.47c.09-2.08-3-2-3.18,0-.31,3.25-.06,7.81-1.64,10.7l3,.8.49-9.61c.09-1.76-2.85-2.21-3.12-.42-.49,3.15-1.09,6.27-1.82,9.38l3.12.42.37-8.88c.09-2.09-2.94-2-3.18,0a78.37,78.37,0,0,1-2.46,12l3.13.42a87.14,87.14,0,0,1-.69-10.71c0-2.1-3-2-3.19,0l-1.21,10.12h3.19l0-8.53H97.49a73.38,73.38,0,0,1-.24,9.14h3.18a53,53,0,0,1-.2-8.73H97a70,70,0,0,1-1,10.21h3.07a28.37,28.37,0,0,1-.46-7.58H95.49v9.13l3.13-.42-2.28-10.76c-.4-1.86-3-1.27-3.13.42-.16,2-.36,4-.64,6l3.13.42a19.6,19.6,0,0,0-1.79-6.27c-.54-1.17-2.13-.9-2.74,0a4.35,4.35,0,0,0-.69,3.81,1.6,1.6,0,0,0,2.66.7,5.87,5.87,0,0,0,1.6-2.27L91.83,112l.77,4.42,3.07-.85L95,112.09c-.38-2-3.39-1.15-3.07.85l1.2,7.38,3.07-.85-2-5.23c-.49-1.28-2.81-1.72-3.07,0l-.11.68c-.3,2,2.76,2.87,3.07.85Z"/><path class="cls-1" d="M116.72,96.14a2.48,2.48,0,0,0-2.43-1.85,1.61,1.61,0,0,0-1.54,2,1.12,1.12,0,0,1-.5,1,1.6,1.6,0,0,0,.32,2.5,3.9,3.9,0,0,1,1.6,1.41l2.74-1.61a9.79,9.79,0,0,1-1.85-3.94l-2.9,1.23a56.39,56.39,0,0,0,3.62,6.27,2.12,2.12,0,0,0,3.93-1.1c.07-2-3.11-2-3.19,0v.3l.47-1.13-.24.22,1.12-.46c.47.24.5.13.11-.33l-.51-.9-.77-1.34-1.79-3.14A1.6,1.6,0,0,0,112,96.52a12,12,0,0,0,2.18,4.7c1.2,1.57,3.88.17,2.74-1.61a7,7,0,0,0-2.73-2.54l.32,2.5a4.37,4.37,0,0,0,1.32-4.12l-1.53,2-.63-.48c.65,1.93,3.72,1.1,3.06-.85Z"/><path class="cls-1" d="M115,98.65a10.15,10.15,0,0,1,2.41,3.19,1.61,1.61,0,0,0,2.18.58,1.63,1.63,0,0,0,.57-2.18,12.56,12.56,0,0,0-2.91-3.84c-1.52-1.36-3.78.88-2.25,2.25Z"/><path class="cls-1" d="M94.67,111.91c.29,1,.56,2,.86,3a3,3,0,0,0,1.12,1.86c1.65,1,3.12-.71,3.74-2.06A4.26,4.26,0,0,0,100,110a3.61,3.61,0,0,0-1.72-1.09,3.06,3.06,0,0,0-1-.09,2.2,2.2,0,0,0-.72.15c-.53.17-.5.22.07.16l.95.73-.14-.21.16,1.23c-.45.3-.53.4-.23.29a2.54,2.54,0,0,0,.52-.2,3.61,3.61,0,0,0,.79-.55c1.53-1.37-.73-3.62-2.25-2.25-.28.25-.93.29-1.28.65a2.31,2.31,0,0,0-.67,1.64A2,2,0,0,0,97,112.24c.37-.11.48-.42.67,0,.27.59-.33,1.09-.43,1.6l-.17.25c1.31.85,1.83.92,1.56.22a4.85,4.85,0,0,0-.3-1.07l-.62-2.15a1.59,1.59,0,0,0-3.07.84Z"/><path class="cls-1" d="M35,47l1.37.9a1.6,1.6,0,0,0,2.34-.95l1.57-6.72-3.12-.42,0,1.12c.07,2.05,3.26,2.06,3.18,0l0-1.12c-.07-1.74-2.7-2.24-3.13-.43l-1.57,6.73,2.34-1-1.37-.89C34.9,43.1,33.3,45.85,35,47Z"/><path class="cls-1" d="M39.68,34.78a8.29,8.29,0,0,0-5.07-1c-2.23.32-4,1.62-6.33,1.42-2-.17-2,3,0,3.19,3.41.28,6.56-2.54,9.8-.91,1.82.91,3.44-1.83,1.6-2.75Z"/><path class="cls-1" d="M50.77,26.28c1.93.81,3.07-1.27,3.68-2.72a42,42,0,0,0,2.28-7c.46-2-2.61-2.85-3.07-.85-.31,1.34-.67,2.67-1.11,4-.2.6-.42,1.19-.65,1.78-.14.37-.29.73-.44,1.09-.44.47-.39.69.16.67-1.88-.79-2.71,2.29-.85,3.07Z"/><path class="cls-1" d="M55.4,29.69c2.78,0,8-.41,8.51-4l-3.13-.43,0,2.8c0,2.05,3.21,2.05,3.18,0L64,25.26c0-1.71-2.86-2.26-3.12-.42s-4.23,1.65-5.44,1.66c-2,0-2,3.22,0,3.19Z"/><path class="cls-3" d="M116.08,99a12.25,12.25,0,0,0-.79-4l-2.66,1.55a21.53,21.53,0,0,1,4.48,7.06c.72,1.89,3.8,1.07,3.07-.85a25.5,25.5,0,0,0-5.3-8.46c-1-1.1-3.24,0-2.66,1.55a9.27,9.27,0,0,1,.67,3.12c.08,2,3.27,2,3.19,0Z"/><path class="cls-3" d="M56,26.5l-.62.73a.89.89,0,0,0,.86,1.47c2-.27,3.94-.63,5.9-1.07a.89.89,0,0,0-.24-1.74,8.21,8.21,0,0,0-3.44.86l1.3,1a1.65,1.65,0,0,1,.77-1.29c.68-.37,1.6,0,1,.85l1.62.69.12-.42a.89.89,0,0,0-1.71-.47l-.12.42a.89.89,0,0,0,1.62.68,2.39,2.39,0,0,0-1.43-3.65c-1.83-.43-3.26,1.06-3.62,2.72a.9.9,0,0,0,1.3,1,6.1,6.1,0,0,1,2.55-.62l-.23-1.73c-2,.44-3.92.79-5.9,1.07l.86,1.48.62-.73c.74-.86-.5-2.12-1.25-1.25Z"/><path class="cls-3" d="M57.25,28a24.85,24.85,0,0,0,5.83.69.89.89,0,0,0,.88-.89c-.1-1.14-.18-3.6-1.82-3.59a11.18,11.18,0,0,0-3,1l-3.64,1.22c-1.07.36-.61,2.07.47,1.71l4.16-1.4a10.18,10.18,0,0,1,2.08-.7c-.29.14-.33.37-.12.66a7.14,7.14,0,0,1,.15,1.13l.89-.88a22,22,0,0,1-5.36-.63c-1.11-.27-1.58,1.44-.47,1.71Z"/><path class="cls-3" d="M52.42,22.35a2.84,2.84,0,0,0,.37,1.56.89.89,0,0,0,1.61-.22q1.24-4.12,2.15-8.34a.89.89,0,0,0-1.3-1c-3,1.82-2.36,6.85-2.59,9.81L54,23.4c-1.71-1,.9-7.6,1.3-9.07l-1.74-.24,0,.65c0,1.13,1.81,1.14,1.77,0l0-.65a.89.89,0,0,0-1.74-.23,73.32,73.32,0,0,0-1.93,7.41,3.29,3.29,0,0,0,1.44,3.65.89.89,0,0,0,1.33-.76c.12-1.48.23-2.95.36-4.42s.08-3.07,1.36-3.87l-1.3-1q-.9,4.23-2.14,8.35L54.31,23l-.12-.66a.89.89,0,0,0-1.77,0Z"/><path class="cls-3" d="M107.24,97.33a15.35,15.35,0,0,1,4,6.5c.67,2.2,1.54,6.83-.59,8.54-.89.71.37,1.95,1.25,1.25,2.29-1.84,2-5.79,1.49-8.39a17.25,17.25,0,0,0-4.87-9.15c-.81-.8-2.06.45-1.25,1.25Z"/><path class="cls-3" d="M106.64,117.71c2.3-3.33,4.55-6.82,4.64-11s-1.85-8-3.63-11.56c-.5-1-2-.12-1.52.9,1.64,3.3,3.47,6.86,3.38,10.66s-2.3,7.06-4.39,10.1c-.65.93.88,1.82,1.52.89Z"/><path class="cls-3" d="M112.25,104.87a1.79,1.79,0,0,0-.67,2.61,8.45,8.45,0,0,1-.08,1.81,14.11,14.11,0,0,1-.93,3.61l1.71.47.9-3.85a.89.89,0,0,0-1.71-.47,11.74,11.74,0,0,1-1.75,3.84l1.61.68a7.14,7.14,0,0,0,.49-2.41.9.9,0,0,0-1.51-.62l-1.91,1.61,1.39,1.07a31.56,31.56,0,0,0,2.54-7.92l-1.74-.24.29,3.57c.1,1.12,1.84,1.15,1.77,0a29.66,29.66,0,0,0-1.28-7.17l-1.71.47a44.58,44.58,0,0,1,2.17,7.77l1.71-.47L111.7,102l-1.48.86a19.44,19.44,0,0,1,3.13,4.61l1.53-.89c-1.56-2.74-1.76-6-3.71-8.52-.68-.88-2.1-.14-1.53.89l4.58,8.19a.89.89,0,0,0,1.62-.68,13.31,13.31,0,0,0-1.39-3.19l-1.53.9c.76,1.14,1.55,2.26,2.37,3.37l.14-1.07a22.44,22.44,0,0,0-3.34,3.34l1.39,1.07c.47-1.07,1-2.09,1.55-3.11l-1.65-.44-.39,1.84a.89.89,0,0,0,1.3,1,5.05,5.05,0,0,0,1.68-1.76.88.88,0,0,0-1.52-.9l-1.06,1.13,1.3,1a6.79,6.79,0,0,0,.46-2.31c.08-.9-1.23-1.17-1.64-.45A32.25,32.25,0,0,0,112,110c-.36.82.7,1.92,1.39,1.07a22.44,22.44,0,0,1,3.34-3.34.89.89,0,0,0,.13-1.08c-.82-1.1-1.6-2.22-2.36-3.37-.62-.94-2.12-.09-1.53.9a10.78,10.78,0,0,1,1.21,2.76l1.62-.68-4.58-8.19-1.53.89c1.93,2.51,2.16,5.8,3.71,8.52.57,1,2,.12,1.53-.89a21.46,21.46,0,0,0-3.4-5,.89.89,0,0,0-1.48.86l1.83,7.22c.29,1.11,1.91.63,1.71-.47a44.58,44.58,0,0,0-2.17-7.77c-.4-1-2.05-.63-1.71.47a27.2,27.2,0,0,1,1.22,6.7h1.77l-.29-3.57c-.07-.92-1.55-1.28-1.73-.23a30,30,0,0,1-2.37,7.5.89.89,0,0,0,1.39,1.07l1.91-1.61-1.51-.63a4,4,0,0,1-.42,1.94c-.38,1,1.08,1.46,1.61.68a12.86,12.86,0,0,0,1.94-4.26l-1.71-.47-.9,3.85a.89.89,0,0,0,1.71.47c1-2.71,1.89-6.92.27-9.6a.86.86,0,0,0-.76-.44l-.23,0a.86.86,0,0,0-.76.44l-.08.18c-.44,1,1.09,1.94,1.53.9Z"/><path class="cls-3" d="M95.8,91.27a9.28,9.28,0,0,1,.36,9.32c-.53,1,1,1.9,1.53.89a11.07,11.07,0,0,0-.37-11.1c-.59-1-2.12-.08-1.52.89Z"/><path class="cls-3" d="M99.22,100.91a15.55,15.55,0,0,0,.06-9.21.89.89,0,0,0-1.71.47l.55,3.47,1.7-.47a39.53,39.53,0,0,1-1.31-4.26l-1.61.69a33.55,33.55,0,0,1,2.91,6.29.88.88,0,0,0,1.7-.47l-.36-1.27c-.2-.67-1.29-.93-1.62-.21l-.34.75A.89.89,0,0,0,100,98a1.55,1.55,0,0,0,1.62-1.25c.34-1.26-.74-1.82-.87-2.94l-1.51.63,1.46,1.71c.74.87,2-.39,1.25-1.25l-1.46-1.71a.89.89,0,0,0-1.51.62c.06.47.5,2.42,1,2.42l.77,1.33.34-.75-1.62-.21.37,1.27,1.7-.47a35.52,35.52,0,0,0-3.09-6.72.89.89,0,0,0-1.61.68,39.53,39.53,0,0,0,1.31,4.26.88.88,0,0,0,1.7-.47l-.54-3.47-1.71.47a13.81,13.81,0,0,1,0,8.27c-.34,1.09,1.37,1.56,1.7.47Z"/><path class="cls-3" d="M81.8,80.55q4,6,8.52,11.62c.7.89,2-.37,1.25-1.25q-4.35-5.48-8.24-11.26c-.63-.94-2.17-.06-1.53.89Z"/><path class="cls-3" d="M69.27,61.94c1.16-1.18-1.21-2.57-1.72-1A1.71,1.71,0,0,0,68,62.5l1.14,1.6a.91.91,0,0,0,1.21.31.89.89,0,0,0,.32-1.21l-.82-1.14c-.2-.28-.62-.69-.67-1v.47l0-.12-.4.53.06,0-.44.12h.08l-.45-.12,0,0-.23-.4v.07l.23-.86,0,0c-.8.81.45,2.06,1.25,1.25Z"/><path class="cls-3" d="M68.75,56.76A117.59,117.59,0,0,0,58.17,39a.89.89,0,0,0-1.62.68c.52,3,3,5.59,4.65,8l3,4.53c.77,1.14,2.43,2.82,2.68,4.19l.85-1.11-.15,0,.88.89v-.12a.88.88,0,0,0-1.76,0v.12a.91.91,0,0,0,.89.88h.15c.62.06.94-.6.85-1.12-.41-2.29-3.07-4.95-4.35-6.88-1.9-2.84-5.39-6.48-6-9.89l-1.61.68A117.19,117.19,0,0,1,67.22,57.66c.49,1,2,.12,1.53-.9Z"/><path class="cls-3" d="M67.25,56.1c.29.48.61,1,.87,1.46l1.39-1.07c.29.31,0,0,0-.1-.6-1-2.13-.08-1.53.9a3.58,3.58,0,0,0,.31.45c.71.75,1.84-.2,1.39-1.07-.26-.5-.58-1-.87-1.47a.89.89,0,0,0-1.53.9Z"/><path class="cls-3" d="M56.19,41q5.69,8.52,10.92,17.32a.89.89,0,0,0,1.53-.89q-5.23-8.8-10.92-17.32c-.63-.94-2.16-.06-1.53.89Z"/><path class="cls-3" d="M64.64,53a10.83,10.83,0,0,1,1.78,3.64c.21.81.09,2.12,1,2.53a.89.89,0,0,0,.89,0l.08-.06a.94.94,0,0,0,.41-1,1.17,1.17,0,0,0-.31-.58.88.88,0,0,0-1.25,0l-.06,0a.89.89,0,0,0,1.26,1.25l0,0H67.23l-.15-.2.41-1-.08.06h.89a25.2,25.2,0,0,0-.61-2.77,12.35,12.35,0,0,0-1.52-2.76c-.67-.91-2.2,0-1.53.89Z"/><path class="cls-3" d="M49,36.1l2.22,3.42c.47.73,1,2,1.89,2.28a.94.94,0,0,0,1.1-1.24.93.93,0,0,0-1.09-.62H53.1c-1.12.15-.64,1.86.47,1.7h.06L52.54,41l0,.08.09-.68-.05.08,1-.41A7.75,7.75,0,0,0,53,39l-.78-1.19-1.66-2.57c-.62-1-2.15-.06-1.53.89Z"/><path class="cls-3" d="M93,92.71a23,23,0,0,1,3.74,9.65c.14,1,1.8.76,1.73-.23a26.12,26.12,0,0,0-3.19-10.94l-1.53.9,2.36,3.52c.53.79,1.93.32,1.61-.68l-1-3.25-1.71.47c.58,1.76,1.24,3.47,2,5.17.41.91,1.95.26,1.62-.68A41,41,0,0,0,96.06,91c-.54-1-2-.12-1.52.89l.29.65c.47,1,2,.13,1.53-.9l-.3-.64-1.52.89a38.55,38.55,0,0,1,2.3,5.27l1.62-.69a47.65,47.65,0,0,1-1.81-4.74c-.35-1.08-2.06-.62-1.71.47l1,3.25,1.61-.68-2.35-3.53a.89.89,0,0,0-1.53.9,23.79,23.79,0,0,1,3,10l1.74-.24A24.08,24.08,0,0,0,94.5,91.82c-.63-.94-2.16,0-1.53.89Z"/><path class="cls-3" d="M100.83,97.17a1.94,1.94,0,0,0,1.88.42.89.89,0,0,0,.62-1.08,1.91,1.91,0,0,0-3.19-.78c-.75.85.5,2.11,1.25,1.25.09-.1,0-.08.11-.07s.12,0,.13.07l.61-1.09c-.12,0-.19,0-.16,0a.91.91,0,0,0-1.25,0,.89.89,0,0,0,0,1.25Z"/><path class="cls-3" d="M47.87,25.7c.38,2.53.65,5-.33,7.43l1.7.47a38.28,38.28,0,0,0,.74-9H48.21c.21,1.74.36,3.49.45,5.24a.89.89,0,0,0,1.74.24,9.09,9.09,0,0,0,.27-2.32.89.89,0,0,0-1.77,0v1.9a.89.89,0,0,0,1.74.23,9,9,0,0,0,.24-3,.88.88,0,0,0-1.76,0v2.27a.89.89,0,0,0,1.77,0l0-3-1.65.45a8.41,8.41,0,0,1,1.27,1.92c.28,1.1-.77,1.86-1.39,2.6l1.39,1.07L51.9,30c.44-.74-.46-1.71-1.21-1.21l-.95.62L51,30l.27-.67-1.51-.62,0,1.3a.89.89,0,0,0,1.77,0l0-1.3A.9.9,0,0,0,50.06,28a2.19,2.19,0,0,0-.72,2.39.88.88,0,0,0,1.29.53l.95-.63-1.21-1.21L49,31.36c-.5.83.73,1.85,1.39,1.07s2.23-2,2.3-3.2-1.3-2.56-1.9-3.46a.89.89,0,0,0-1.65.44l0,3H50.9V26.92H49.13a7.79,7.79,0,0,1-.19,2.5l1.74.24v-1.9H48.9a7.24,7.24,0,0,1-.2,1.85l1.73.23c-.09-1.75-.24-3.5-.45-5.24-.13-1.1-1.81-1.17-1.77,0a36.41,36.41,0,0,1-.67,8.53.88.88,0,0,0,1.7.47c1.1-2.72.76-5.54.34-8.37-.17-1.12-1.87-.64-1.71.47Z"/><path class="cls-3" d="M74.26,63.14c2.43,4.54,5.26,9,6.27,14.09.22,1.11,1.93.64,1.71-.47-1-5.26-3.95-9.84-6.45-14.51-.54-1-2.06-.11-1.53.89Z"/><path class="cls-3" d="M75.8,62.58a60.34,60.34,0,0,1,5.8,12.75l1.61-.68L82,72.15a.89.89,0,0,0-1.64.45c0,.88.07,1.73.17,2.61.12,1.1,1.82,1.16,1.77,0a7,7,0,0,0-.51-2.48c-.41-1-2-.65-1.71.47l.69,2.35c.27.91,1.85.79,1.74-.24-.55-4.8-2.78-9.09-4.74-13.44l-1.52.89L82,74.1a.89.89,0,0,0,1.62-.68,17.89,17.89,0,0,0-1.75-3.89.88.88,0,0,0-1.52.89L82.1,74a.89.89,0,0,0,1.62-.68l-2.07-5.69L80,68.27a53.44,53.44,0,0,0,2.59,4.91c.49.83,2,.28,1.62-.68a45.22,45.22,0,0,0-2-4.44L80.72,69c.85,1.44,1.68,3.84,3.11,4.76a.89.89,0,0,0,1.33-.77v-.11a.91.91,0,0,0-.89-.89H84.2a.89.89,0,0,0-.76,1.33L83,74.42l1,1.3,1-1.82a.92.92,0,0,0-.14-1.07C82.1,69.3,80.13,65.12,78,61.2l-1.53.89q4,6.31,8,12.68l1.53-.89L85.37,73c-.64-.93-2.17-.05-1.53.9l.57.83c.64.93,2.14.09,1.53-.89q-4-6.36-8-12.68a.89.89,0,0,0-1.53.89c2.25,4.07,4.31,8.33,7.2,12L83.49,73l-1,1.83a.89.89,0,0,0,1,1.29A2.27,2.27,0,0,0,85,72.38l-.77,1.33h.08l-.88-.88v.11l1.33-.76c-.94-.61-1.88-3.12-2.47-4.12a.89.89,0,0,0-1.53.89,39.17,39.17,0,0,1,1.81,4l1.62-.68a54.76,54.76,0,0,1-2.59-4.91c-.41-.9-2-.26-1.61.68L82,73.75l1.62-.68L81.9,69.53l-1.52.89a16.16,16.16,0,0,1,1.56,3.47l1.62-.68L77.72,61.87c-.52-1-2-.13-1.52.89,1.81,4,4,8.09,4.49,12.55l1.73-.23-.68-2.35L80,73.2a4.07,4.07,0,0,1,.45,2h1.77c-.1-.88-.15-1.73-.18-2.61l-1.64.45,1.25,2.49a.89.89,0,0,0,1.62-.68,62,62,0,0,0-6-13.17.89.89,0,0,0-1.53.89Z"/><path class="cls-4" d="M39.49,81.09c-.09.71,3.62,4.24,4.18,4.91l1.07-1.39a28.49,28.49,0,0,1-6.2-4.56c-.69-.66-2,.24-1.39,1.08a90.77,90.77,0,0,1,8,12.73L46.69,93,39.63,82.51l-1.39,1.07A172.29,172.29,0,0,1,49.42,98.86L51,98c-2.84-4.34-5.5-8.76-8-13.3l-1.53.9,12.71,17.81,1.52-.89A143.2,143.2,0,0,1,43.92,84.66l-1.53.89q6.87,9.58,13.16,19.55l1.52-.9q-5.43-7.42-10.45-15.13L45.1,90q8,10.73,14.95,22.09L61.44,111a90.6,90.6,0,0,1-9-14.06l-1.53.89c2.63,3.75,5.1,7.58,7.41,11.53l1.53-.89-12-17.37L46.5,92.15a135.7,135.7,0,0,1,15,21.52l1.52-.9q-7.53-10.89-14.4-22.22l-1.53.9a134.67,134.67,0,0,1,8.74,12.82l1.53-.9L45.39,87c-.66-.9-2.17-.07-1.53.9l14,21.32,1.39-1.07q-5-6-9.34-12.42l-1.53.9q6.95,9.28,13.1,19.12l1.53-.89L56.26,104.4a.88.88,0,0,0-1.52.9q3.78,7.19,8.19,14a.89.89,0,0,0,1.53-.89l-5.67-10.29-1.53.89,9.11,13c.65.92,2.16.08,1.53-.89l-10.37-15.9-1.38,1.07,10.1,12c.64.76,2-.26,1.39-1.07-3.64-5-8.88-10.38-10.81-16.35l-1.61.68q7.66,11.57,15,23.35l1.39-1.07a16.84,16.84,0,0,0-4-3.63.89.89,0,0,0-1.21,1.21l4.8,7.39a.88.88,0,0,0,1.52-.89,59.87,59.87,0,0,0-5.79-8.48c-.63-.77-2,.25-1.39,1.07l6,8.55c.65.92,2.11.11,1.53-.89l-.94-1.64-1.39,1.07a5.09,5.09,0,0,0,2.38,1.94.89.89,0,0,0,1.21-1.21q-3.48-5.76-7.27-11.31l-1.52.89,7.17,10a.88.88,0,0,0,1.52-.89A44.06,44.06,0,0,0,70.56,121c-.66-.9-2.1-.13-1.53.89a32.85,32.85,0,0,0,5.07,6.82c.68.71,2-.26,1.39-1.07l-10.1-13.26-1.53.9,9.24,12,1.38-1.07-.77-.7c-.84-.76-2.1.48-1.25,1.25l.77.7c.7.63,2-.24,1.39-1.07l-9.23-12c-.68-.88-2.22,0-1.53.9L74,128.53l1.39-1.07A31.46,31.46,0,0,1,70.56,121l-1.53.89a43.14,43.14,0,0,1,3.67,5.94l1.52-.89-7.17-10c-.65-.91-2.17-.06-1.52.89q3.78,5.56,7.26,11.31L74,128l-2-1.67c-.67-.77-1.88.22-1.39,1.08l.94,1.63,1.53-.89-6-8.55-1.38,1.07a58,58,0,0,1,5.52,8.12l1.52-.89-4.79-7.39-1.21,1.21a14.4,14.4,0,0,1,3.64,3.35c.63.79,1.91-.23,1.39-1.07q-7.32-11.79-15-23.35c-.52-.8-1.94-.32-1.61.68,2,6.19,7.2,11.58,11,16.77L67.5,117,57.4,105c-.65-.76-1.94.24-1.39,1.08L66.37,122l1.53-.89-9.11-13a.89.89,0,0,0-1.53.89l5.67,10.29,1.53-.89q-4.41-6.82-8.2-14l-1.52.9,6.75,10.4c.62,1,2.13.08,1.53-.89Q56.85,105,49.92,95.68c-.66-.89-2.18-.06-1.53.9q4.52,6.61,9.62,12.77c.64.77,1.94-.24,1.39-1.07L45.39,87l-1.53.9,12,16.42c.65.89,2.12.1,1.53-.9a136,136,0,0,0-8.74-12.82c-.67-.87-2.14-.11-1.53.9Q54,102.78,61.51,113.67a.88.88,0,0,0,1.52-.9A138,138,0,0,0,47.75,90.9c-.65-.76-2,.24-1.39,1.07l12,17.37c.64.93,2.11.11,1.53-.89q-3.48-5.92-7.41-11.53a.89.89,0,0,0-1.53.89,93.09,93.09,0,0,0,9.26,14.42c.64.79,1.9-.22,1.38-1.07q-7-11.39-15-22.09C46,88.18,44.46,89,45.1,90q5,7.71,10.45,15.14c.65.89,2.14.09,1.52-.9q-6.28-10-13.15-19.54a.89.89,0,0,0-1.53.89,142.54,142.54,0,0,0,11.75,17.83c.68.88,2.2.05,1.52-.89L43,84.67a.89.89,0,0,0-1.53.9q3.75,6.8,8,13.29c.62,1,2.15.06,1.53-.89A177.12,177.12,0,0,0,39.49,82.33c-.63-.78-1.94.24-1.38,1.07l7,10.46A.89.89,0,0,0,46.69,93a91.46,91.46,0,0,0-8-12.74L37.29,81.3a30,30,0,0,0,6.56,4.84.89.89,0,0,0,1.07-1.39L40.11,79A.88.88,0,0,0,39,78.84c-1.15.82-1.14.83-1.32,2.25-.14,1.12,1.63,1.11,1.77,0Z"/><path class="cls-4" d="M31.54,88.9l.21-.79H28.7L34,96.43,36.39,94a9.93,9.93,0,0,1-3.86-5L29.3,90.42Q40,105,50.2,120c1,1.54,4,.62,3.23-1.36-3.41-8.53-9.62-15.93-14.82-23.43-1.28-1.85-4.19-.23-3,1.78q7.2,12.74,15.39,24.86c2.63,3.87,5.2,7.93,8.17,11.54,1.63,2,2.83,3.15,5.4,3.36a1.77,1.77,0,0,0,1.53-2.66L51,113.34c-1.32-1.83-4.39-.06-3,1.78L63,135.9l1.52-2.66c-2.81-.22-6.28-7-7.84-9.26q-3.24-4.64-6.33-9.38-6.18-9.48-11.74-19.36l-3,1.78c5,7.18,11.2,14.43,14.46,22.59l3.23-1.36q-10.17-15-20.9-29.61C31.28,87.18,28.27,88,29.12,90a15.94,15.94,0,0,0,5.48,7.06c1.45,1.09,3.32-1,2.42-2.42l-5.27-8.32a1.79,1.79,0,0,0-3.05,0A2.84,2.84,0,0,0,28,88.9c.22,2.24,3.76,2.26,3.54,0Z"/><path class="cls-4" d="M19.51,95.67l17,26.35c1.35,2.09,5.07.8,4.2-1.78a41,41,0,0,0-7.08-12.85c-1.66-2-4.93.59-3.61,2.79,3.54,5.91,6.81,12.16,10.93,17.69,3.92,5.27,8.57,9.27,11.89,15.08,1.25,2.18,5.21.7,4.2-1.78-3.09-7.56-10.91-11.85-13.71-19.44-1-2.75-5.46-1.56-4.43,1.23,2.87,7.76,10.64,11.92,13.71,19.44l4.2-1.77c-3.19-5.58-7.25-9.42-11.27-14.3C41,120.8,37.64,114,34,107.86l-3.61,2.79a34.55,34.55,0,0,1,5.9,10.82l4.2-1.78-17-26.34c-1.6-2.48-5.58-.18-4,2.32Z"/><path class="cls-4" d="M41.77,120.2l-.91-1a2.31,2.31,0,0,0-3.25,0,2.35,2.35,0,0,0,0,3.25l.91,1a2.3,2.3,0,0,0,3.25-3.25Z"/><path class="cls-4" d="M11.31,103.75c2,.45,3.87,4.62,4.86,6.1l4.45,6.62c1.64,2.44,5.59.18,4-2.32A100.43,100.43,0,0,0,14.25,100.8c-1.75-1.88-5.11.62-3.62,2.79l16,23.23c1.66,2.41,5.55.22,4-2.32L25.34,116l-4,2.32a343.74,343.74,0,0,0,24,33.3c1.52,1.87,4.36-.17,3.84-2.24a10.6,10.6,0,0,0-3-5.19c-2.09-2.09-5.35,1.16-3.25,3.25a4.8,4.8,0,0,1,1.78,3.16l3.84-2.23A331.64,331.64,0,0,1,25.34,116c-1.57-2.5-5.54-.2-4,2.32l5.31,8.48,4-2.32-16-23.23L11,104.06a91.75,91.75,0,0,1,9.63,12.41l4-2.32c-2.31-3.43-4.59-6.89-6.93-10.3-1.42-2.09-2.53-4-5.12-4.53-2.89-.64-4.12,3.79-1.23,4.43Z"/><path class="cls-4" d="M92.76,40.43a18.79,18.79,0,0,1,4.08,6l3.84-2.24-6.24-7.7c-1.62-2-5.19.71-3.61,2.79l22,28.89c3.18,4.17,6.6,8.26,9.33,12.76,1.82,3,2.62,7.87,6.58,8.51,1.82.3,3.78-1.53,2.6-3.37A90.48,90.48,0,0,0,120.09,71.9c-2.08-2.12-5.32,1.14-3.26,3.26a83.52,83.52,0,0,1,10.58,13.27L130,85.05c-1.42-.23-2.76-4.6-3.41-5.71A55.82,55.82,0,0,0,123,74c-3-4-6.06-8-9.1-12L94.8,37l-3.61,2.78,6.24,7.7c1.41,1.73,4.72-.14,3.85-2.23A24.62,24.62,0,0,0,96,37.18c-2.08-2.11-5.33,1.14-3.25,3.25Z"/><path class="cls-4" d="M101.69,33.24a9.18,9.18,0,0,1,2.19,3.28L107,33.37l-1.75-1.06c-1.84-1.11-4.59,1.25-3.14,3.15q9.94,13,19.32,26.53,4.4,6.36,8.67,12.8c2,3,3.52,6.77,7.14,8a2.31,2.31,0,0,0,2.59-3.37l-2.58-3.77c-1.66-2.43-5.65-.13-4,2.32l2.58,3.77,2.6-3.38c-1.85-.64-3.39-4.39-4.39-5.91s-2.14-3.22-3.22-4.82q-4-6-8.22-11.94-8.05-11.44-16.55-22.57L103,36.28l1.75,1.06c2.08,1.27,4.11-1.18,3.14-3.14A17.5,17.5,0,0,0,105,30c-2-2.19-5.24,1.07-3.26,3.26Z"/><path class="cls-4" d="M110,26.5q10.4,13.28,20,27.11c4.94,7.12,9.2,16.41,16.44,21.47,2.43,1.7,4.73-2.29,2.32-4-4.18-2.92-6.63-7.8-9.42-12s-5.72-8.4-8.66-12.55q-8.45-11.89-17.45-23.36c-1.83-2.33-5.06.95-3.26,3.25Z"/><path class="cls-4" d="M119.27,19.26l34.87,48.66c1.71,2.39,5.7.09,4-2.32L123.24,16.94c-1.71-2.38-5.7-.09-4,2.32Z"/><path class="cls-2" d="M86,81l.31.23a1.59,1.59,0,0,0,2.17-.58,1.63,1.63,0,0,0-.57-2.17l-.3-.23a1.61,1.61,0,0,0-2.18.57A1.63,1.63,0,0,0,86,81Z"/><path class="cls-2" d="M117.47,61.82l-.09.18a1.59,1.59,0,0,0,2.75,1.6l.09-.18a1.59,1.59,0,0,0-2.75-1.6Z"/><path class="cls-2" d="M142.09,36.92v0a1.65,1.65,0,0,0-1.53,1.17c-.48,1.53,1.13,2.6,2.42,2.87a9.18,9.18,0,0,0,5-.43c1.91-.69,1.08-3.77-.85-3.07a6.79,6.79,0,0,1-2.22.48,5.18,5.18,0,0,1-1,0c-.15,0-.46-.21-.39-.06l.16,1.22,0-.11-1.54,1.17a2.6,2.6,0,0,0,.84-.15,1.65,1.65,0,0,0,1.12-2,1.61,1.61,0,0,0-2-1.11Z"/><path class="cls-2" d="M25.89,131.76l.06-.09-.7.41h.05l-1.23-.16,0,0-.32-2.5,0,0H26l0,0a1.63,1.63,0,0,0-2.25,0,1.61,1.61,0,0,0,0,2.25l0,0a1.61,1.61,0,0,0,2.25,0l0,0a1.62,1.62,0,1,0-2.4.07,1.61,1.61,0,0,0,2.25,0Z"/><path class="cls-1" d="M79.05,82.27a51.4,51.4,0,0,0,5.22,7.54c1.3,1.58,3.55-.68,2.25-2.25a46.55,46.55,0,0,1-4.73-6.9c-1-1.78-3.76-.18-2.74,1.61Z"/><path class="cls-1" d="M91.36,111.43c0,.11-.27.33,0,.13l.1-.1c.25-.2.13-.14-.35.17a1.6,1.6,0,0,0,1.11-2,1.63,1.63,0,0,0-2-1.11,3.09,3.09,0,0,0-1.92,2,1.62,1.62,0,0,0,1.11,2,1.64,1.64,0,0,0,2-1.12Z"/><path class="cls-3" d="M52.21,27.64a1.71,1.71,0,0,0-1.18.91,1.64,1.64,0,0,0,.57,2.18,1.62,1.62,0,0,0,2.18-.57l-.12.16-.71.41.11,0a1.6,1.6,0,0,0,1.11-2,1.64,1.64,0,0,0-2-1.11Z"/><path class="cls-3" d="M81.48,79.9l.21.25c-.07-.11-.06-.09.06.07a6.49,6.49,0,0,1,.36.55,1.59,1.59,0,1,0,2.75-1.61,12.73,12.73,0,0,0-1.13-1.52,1.61,1.61,0,0,0-2.25,0,1.63,1.63,0,0,0,0,2.26Z"/><path class="cls-3" d="M81,79.39a4.8,4.8,0,0,0,1.3,1.7,1.59,1.59,0,0,0,2.25-2.25,2.61,2.61,0,0,1-.3-.27s-.25-.28-.11-.1a3.14,3.14,0,0,1-.39-.69,1.6,1.6,0,0,0-2.18-.57A1.63,1.63,0,0,0,81,79.39Z"/><path class="cls-3" d="M99.05,89.42l-.14-.25c-.88-1.5-3.59-.49-2.91,1.23l1.51,3.82c.43,1.09,1.33,2.58,1.25,3.78l.47-1.13-.09.07h2.25l0,0c-1.44-1.47-3.69.78-2.25,2.25l0,0a1.64,1.64,0,0,0,2.25,0c1.22-.94.31-3-.12-4.06l-2.2-5.58-2.91,1.23.15.25a1.59,1.59,0,0,0,2.74-1.61Z"/><path class="cls-3" d="M93.73,92.92a24.28,24.28,0,0,1,2.18,7.78c.21,2,3.39,2,3.18,0a29,29,0,0,0-2.61-9.39c-.87-1.85-3.61-.23-2.75,1.61Z"/><path class="cls-3" d="M106.73,94.79A10.06,10.06,0,0,0,108.1,98l1.77,3.48c.93,1.83,3.67.22,2.75-1.6L111.16,97l-.62-1.23c-.08-.16-.71-1.65-.63-1a1.64,1.64,0,0,0-1.59-1.59,1.59,1.59,0,0,0-1.59,1.59Z"/><path class="cls-3" d="M114.29,95.28l-.07-.22-2.66,1.55c1.92,2,3.11,5,4.46,7.45,1,1.79,3.74.19,2.75-1.61-1.5-2.71-2.83-5.81-5-8.09-1.06-1.12-3.2,0-2.66,1.55l.07.22c.68,1.92,3.76,1.09,3.07-.85Z"/><path class="cls-3" d="M111.89,107.3a8.55,8.55,0,0,1-1.26,3.4c-1,1.8,1.78,3.41,2.75,1.61a12.13,12.13,0,0,0,1.69-5c.12-2-3.06-2-3.18,0Z"/><path class="cls-1" d="M105,100.7l-.06,0,.55.55,0-.07.21.78v-.09l-.21.78,0-.08-.55.55-.73.1c.15,0,.19,0,.09,0s.2.14,0,0a1.57,1.57,0,0,0,2.17,0,1.54,1.54,0,0,0,0-2.17,2.82,2.82,0,0,0-2.82-.7,1.71,1.71,0,0,0-.22,3A1.54,1.54,0,1,0,105,100.7Z"/><path class="cls-3" d="M76.49,66.44c1.9,4.24,2.87,8.82,1.11,13.27-.41,1.06,1.3,1.52,1.71.47,1.93-4.9.79-10-1.29-14.63-.47-1-2-.14-1.53.89Z"/><path class="cls-3" d="M79.75,74.32l-.66,2.79a.89.89,0,0,0,1.71.47l.55-1.8a.89.89,0,0,0-1.71-.47l-.55,1.8,1.71.47.66-2.79c.26-1.11-1.45-1.58-1.71-.47Z"/><path class="cls-3" d="M74.87,63.16C77,67.82,79.29,74,77.42,79.08c-.39,1.07,1.32,1.53,1.71.47,2-5.53-.43-12.2-2.73-17.28-.47-1-2-.14-1.53.89Z"/><path class="cls-1" d="M91.19,108.83c0-.08.24-.41.32-.47a.42.42,0,0,1,.38-.1c.17,0,.16,0,0-.07a4.22,4.22,0,0,0-1.06.06l0,.35.14,0c.21-.08.12-.42-.1-.34l-.14.05c-.17.06-.16.36,0,.35l.88-.06a1.22,1.22,0,0,0,.57-.08.28.28,0,0,0,0-.48c-.56-.4-1.55.31-1.41.93.05.22.39.13.34-.09Z"/><path class="cls-1" d="M91.23,108.11l-.14,0,.2.25a.78.78,0,0,1,.36-.4l-.22-.28-.91,1.14a.18.18,0,0,0,.25.25l1.49-1.23-.25-.25c-.26.23-.53.46-.81.68l.25.25a4.79,4.79,0,0,1,1.14-.75l-.22-.27a7.84,7.84,0,0,1-1.17.89l.22.28a4.62,4.62,0,0,1,.81-.65l-.21-.28L90.59,109c-.17.15.08.4.25.25L92.27,108c.15-.13,0-.38-.22-.28a5.47,5.47,0,0,0-.88.71c-.14.14,0,.39.21.28a9.48,9.48,0,0,0,1.24-.95c.16-.15,0-.36-.21-.28a5.4,5.4,0,0,0-1.21.8c-.17.14.08.39.25.25s.55-.45.81-.68-.07-.39-.25-.25l-1.49,1.23.25.25.91-1.14c.12-.15,0-.39-.21-.28a1.16,1.16,0,0,0-.49.54.18.18,0,0,0,.2.26l.15,0c.22,0,.12-.39-.1-.34Z"/><path class="cls-3" d="M48,25.85a28.63,28.63,0,0,1-.79,8.8.18.18,0,0,0,.34.1,29,29,0,0,0,.81-8.9c0-.23-.37-.23-.36,0Z"/><path class="cls-3" d="M65.47,55.4a19,19,0,0,1,1.81,5.19c0,.22.37.13.34-.1a19.09,19.09,0,0,0-1.84-5.27c-.1-.2-.4,0-.31.18Z"/><path class="cls-3" d="M77.86,78.19a6.88,6.88,0,0,1-1.42,2.63c-.15.18.1.43.25.25a7.1,7.1,0,0,0,1.51-2.79c0-.22-.29-.31-.34-.09Z"/><path class="cls-3" d="M77.81,78.16c-.52,1.09-1,2.17-1.58,3.25-.1.21.2.39.3.18.54-1.08,1.06-2.16,1.59-3.25.1-.2-.21-.38-.31-.18Z"/><path class="cls-3" d="M94.54,94.85A20.11,20.11,0,0,1,96,100.27c0,.22.37.22.35,0a20.29,20.29,0,0,0-1.5-5.51c-.08-.22-.42-.13-.34.09Z"/><path class="cls-3" d="M95.74,98.8a16.61,16.61,0,0,1,0,3.86c0,.22.33.22.36,0a16.61,16.61,0,0,0,0-3.86c0-.23-.38-.23-.35,0Z"/></g><g id="Layer_7" data-name="Layer 7"><path class="cls-5" d="M27.59,37.42l9.33-.73c2-.15,2-3.34,0-3.18l-9.33.73c-2,.15-2,3.34,0,3.18Z"/><path class="cls-5" d="M34.16,48.36c1.66.39,2.84-.65,3.59-2A28.51,28.51,0,0,0,39.87,41c.58-2-2.49-2.81-3.07-.85a25,25,0,0,1-1.1,3.08c-.19.42-.38.84-.6,1.25a5.76,5.76,0,0,1-.38.69c-.31.27-.21.3.29.09-2-.46-2.84,2.61-.85,3.07Z"/><path class="cls-5" d="M55,23.56a49.27,49.27,0,0,1,1.63-7.7c.58-2-2.5-2.81-3.07-.85a55.41,55.41,0,0,0-1.75,8.55c-.25,2,2.93,2,3.19,0Z"/><path class="cls-5" d="M56.1,28.89A16.31,16.31,0,0,0,63.33,28c1.91-.68,1.09-3.76-.85-3.07a14.12,14.12,0,0,1-6.38.76c-2-.21-2,3,0,3.18Z"/><path class="cls-5" d="M113.65,97.43a29.1,29.1,0,0,1,3.45,4.45l2.18-2.17a24.08,24.08,0,0,1-4.3-4.2c-1.12-1.39-3.55.46-2.5,1.93l4.87,6.82c1.18,1.66,3.94.07,2.75-1.6l-4.87-6.83-2.5,1.93a26.76,26.76,0,0,0,4.94,4.69c1.31,1,3-.89,2.18-2.17a33.1,33.1,0,0,0-3.95-5.1c-1.41-1.49-3.66.76-2.25,2.25Z"/><path class="cls-5" d="M84.88,117.91a68,68,0,0,1,4.83,6.25l2.5-1.93a32.72,32.72,0,0,1-3.7-6.11c-.87-1.86-3.61-.24-2.75,1.6a36.6,36.6,0,0,0,4.2,6.77c1.1,1.41,3.52-.45,2.5-1.93a75.63,75.63,0,0,0-5.33-6.91c-1.34-1.55-3.59.71-2.25,2.26Z"/><path class="cls-5" d="M80.51,82.62a28.61,28.61,0,0,1,7,8.73L88.84,89c-.59.06-2.44-3.75-2.8-4.35L83.2,79.87a1.61,1.61,0,0,0-3,.8l0,.67c-.06,2,3.13,2,3.18,0l0-.67-3,.8,4.27,7.11c1,1.59,1.94,3.79,4.12,3.56a1.61,1.61,0,0,0,1.38-2.39,30.74,30.74,0,0,0-7.46-9.38c-1.56-1.32-3.82.93-2.25,2.25Z"/><path class="cls-5" d="M66.63,62.64l.93,1.44a1.59,1.59,0,1,0,2.75-1.61L69.38,61a1.62,1.62,0,0,0-2.18-.57,1.6,1.6,0,0,0-.57,2.17Z"/><path class="cls-5" d="M48.15,37.57a12.88,12.88,0,0,1,2.11,2.13l2.25-2.25-.22-.26a1.58,1.58,0,0,0-2.25,0,1.63,1.63,0,0,0,0,2.25l.22.26a1.59,1.59,0,0,0,2.25,0,1.64,1.64,0,0,0,0-2.25,12.88,12.88,0,0,0-2.11-2.13,1.64,1.64,0,0,0-2.25,0,1.6,1.6,0,0,0,0,2.25Z"/><path class="cls-5" d="M48,38l3,3.61a1.61,1.61,0,0,0,2.25,0,1.63,1.63,0,0,0,0-2.25l-3-3.61a1.6,1.6,0,0,0-2.25,0A1.63,1.63,0,0,0,48,38Z"/><path class="cls-6" d="M54.63,24a51.51,51.51,0,0,1,1.53-7.12l-.73.95.15-.1-1.93-.25.08.07L53.32,16l0,.12L54.83,15h-.07a1.59,1.59,0,0,0,0,3.18h.07A1.62,1.62,0,0,0,56.37,17a1.76,1.76,0,0,0-.47-1.73A1.6,1.6,0,0,0,54,15c-1.13.74-1.16,2.16-1.41,3.38l-1,4.79c-.42,2,2.65,2.85,3.07.85Z"/><path class="cls-6" d="M56.52,29.6l6.58-2c2-.59,1.13-3.67-.84-3.07l-6.59,2c-2,.6-1.12,3.67.85,3.07Z"/><path class="cls-6" d="M61.28,27.35v.23a1.59,1.59,0,1,0,3.18,0v-.23a1.59,1.59,0,1,0-3.18,0Z"/><path class="cls-6" d="M49.45,36.32,52,40.23c1.11,1.71,3.86.12,2.74-1.6L52.2,34.72c-1.12-1.71-3.87-.12-2.75,1.6Z"/><path class="cls-6" d="M68,61.7l.67,1.21a1.59,1.59,0,1,0,2.75-1.61l-.67-1.21a1.61,1.61,0,0,0-2.18-.57A1.63,1.63,0,0,0,68,61.7Z"/><path class="cls-6" d="M81.22,80.65,90,92.18c1.22,1.61,4,0,2.75-1.61L84,79c-1.23-1.61-4,0-2.75,1.61Z"/><path class="cls-6" d="M115.06,97.64l.09-.19-1,.73c-.92-.47-1.18-.4-.77.21l.42.83a17.26,17.26,0,0,0,1,1.58,20,20,0,0,0,2.36,2.76,1.6,1.6,0,0,0,2.5-1.93c-1.18-2.48-2.45-4.9-3.82-7.28a1.59,1.59,0,0,0-2.74,1.6q2,3.57,3.81,7.29l2.5-1.93a19.74,19.74,0,0,1-3.45-5c-.76-1.36-2.82-2.11-3.68-.33s1.86,3.46,2.75,1.61Z"/><path class="cls-5" d="M86.63,91.45l-.11.12a1.6,1.6,0,0,0,0,2.25,1.62,1.62,0,0,0,2.25,0l.11-.12a1.59,1.59,0,0,0-2.25-2.25Z"/><path class="cls-5" d="M88.68,115.59l-.18-.11a1.59,1.59,0,0,0-1.61,2.75l.18.1a1.59,1.59,0,1,0,1.61-2.74Z"/><path class="cls-5" d="M86.29,117.49l0,.06a1.59,1.59,0,1,0,2.26-2.25l-.06-.06a1.59,1.59,0,0,0-2.25,2.25Z"/><path class="cls-5" d="M93.68,122.9v-.18a1.6,1.6,0,0,0-3.19,0v.18a1.6,1.6,0,0,0,3.19,0Z"/><path class="cls-5" d="M90.33,122.29h.06a1.59,1.59,0,0,0,0-3.18h-.06a1.59,1.59,0,0,0,0,3.18Z"/><path class="cls-5" d="M79.64,83.05h.06a1.59,1.59,0,1,0,0-3.18h-.06a1.59,1.59,0,0,0,0,3.18Z"/><path class="cls-5" d="M65.73,64.79l.47.54.24.27c.26.33.2.15-.17-.54a1.59,1.59,0,0,0,1.59,1.59,1.63,1.63,0,0,0,1.59-1.59c.06-1-.85-1.81-1.47-2.52a1.58,1.58,0,0,0-2.25,0,1.64,1.64,0,0,0,0,2.25Z"/><path class="cls-5" d="M37.63,48.46l.46-.61a1.6,1.6,0,0,0-.57-2.18,1.63,1.63,0,0,0-2.18.57l-.46.62A1.59,1.59,0,0,0,35.45,49a1.63,1.63,0,0,0,2.18-.57Z"/><path class="cls-5" d="M26.73,37.68a18.65,18.65,0,0,0,8.44-.07c2-.58,1.12-3.66-.85-3.07a14.93,14.93,0,0,1-6.75.07c-2-.34-2.86,2.73-.84,3.07Z"/><path class="cls-6" d="M57.13,16.08l0,0-1.37.79h0l-1.54-1.17,0-.17c0,.18,0,.22,0,.11s-.06.26-.06.27a1.59,1.59,0,0,0,3.07.84,3.29,3.29,0,0,0,.07-1.89,1.66,1.66,0,0,0-1.53-1.17h0a1.58,1.58,0,0,0-1.38.79l0,0A1.63,1.63,0,0,0,55,16.65a1.6,1.6,0,0,0,2.17-.57Z"/><path class="cls-6" d="M62.09,26.1l.07,1.19a1.59,1.59,0,0,0,3.18,0l-.07-1.19a1.62,1.62,0,0,0-1.59-1.59,1.6,1.6,0,0,0-1.59,1.59Z"/><path class="cls-6" d="M49.1,35.49a7.86,7.86,0,0,0,1.6,2.82c.67,1,1.38,1.9,2.11,2.81a1.6,1.6,0,0,0,2.25,0,1.62,1.62,0,0,0,0-2.25c-.56-.7-1.1-1.42-1.61-2.16a6.77,6.77,0,0,1-1.28-2.07,1.6,1.6,0,0,0-2-1.11,1.63,1.63,0,0,0-1.11,2Z"/><path class="cls-6" d="M67.9,61.75A13.74,13.74,0,0,1,69,63.32a3.88,3.88,0,0,0,1.93,1.8,1.53,1.53,0,0,0,1.54-.41l0,0a1.63,1.63,0,0,0,0-2.25,1.6,1.6,0,0,0-2.25,0l0,0,1.55-.41h-.07l.71.4c-.87-.73-1.34-2-2.22-2.94a1.59,1.59,0,0,0-2.25,2.25Z"/></g><g id="Layer_8" data-name="Layer 8"><path class="cls-7" d="M10.53,102.67l17.86,25.21c5.22,7.37,10,16,16.63,22.22a1.6,1.6,0,0,0,2.5-1.93,221.15,221.15,0,0,0-16-23.81q-4.3-5.6-9-10.9c-3.81-4.33-8.18-8.32-9.8-14L10.13,101a123.18,123.18,0,0,1,11.5,16.09c1.05,1.75,3.81.15,2.75-1.61a128.42,128.42,0,0,0-12-16.73c-1.05-1.25-3.08.09-2.66,1.55,2.51,8.81,10.71,15.25,16.31,22.17a217,217,0,0,1,18.74,27.33l2.5-1.93c-6.84-6.37-11.9-15.6-17.29-23.21l-16.7-23.57c-1.18-1.66-3.94-.07-2.75,1.6Z"/><path class="cls-7" d="M19.45,95.83l8.34,11.26c1.2,1.63,4,.06,2.75-1.6q-4.26-5.85-8.22-11.88c-1.12-1.7-3.87-.11-2.74,1.61l18.2,27.83a1.59,1.59,0,0,0,2.75-1.6l-9-15.51-2.75,1.6q7.38,11.82,15.41,23.18c1.17,1.66,3.91.1,2.75-1.6l-8.91-13.05-2.75,1.6,12.32,16.49,2.75-1.61L40.23,119.16l-2.5,1.93a194.08,194.08,0,0,1,14.05,18.38l2.5-1.93-5.54-6c-1.28-1.38-3.3.37-2.5,1.92a31.13,31.13,0,0,0,8,10c1.29,1.07,3.6-.32,2.5-1.93Q39.65,116.35,20.61,92.48c-1.28-1.6-3.51.66-2.25,2.25Q37.13,118.28,54,143.21l2.5-1.93A28.91,28.91,0,0,1,49,131.9l-2.5,1.93,5.54,6c1.21,1.31,3.52-.41,2.5-1.92a200.26,200.26,0,0,0-14.55-19c-1.16-1.35-3.6.48-2.5,1.93l10.16,13.39c1.22,1.61,4,0,2.75-1.61L38.07,116.07c-1.2-1.61-3.93-.12-2.75,1.6l8.91,13,2.75-1.6q-8-11.37-15.41-23.18a1.59,1.59,0,0,0-2.75,1.6l9,15.51,2.75-1.6L22.32,93.61l-2.74,1.61q4,6,8.21,11.87l2.75-1.6L22.2,94.22c-1.21-1.63-4,0-2.75,1.61Z"/><path class="cls-7" d="M29.09,88.35a28.08,28.08,0,0,1,3.4,4.83L35,91.25A29.13,29.13,0,0,1,30.81,86L28.31,88q8.94,10.13,16.83,21.08l2.18-2.18c-5.07-3.57-8.53-8.58-11.91-13.68l-2.5,1.92a212.65,212.65,0,0,1,17.91,25l2.75-1.6a114,114,0,0,1-7.9-12.28l-2.75,1.61,16.22,23.33c1.16,1.67,3.91.1,2.75-1.6l-6.84-10-2.5,1.93a127.72,127.72,0,0,1,10.78,14.38l2.18-2.18a7.54,7.54,0,0,1-3-4.22c-.69-1.92-3.76-1.09-3.07.84a12.48,12.48,0,0,0,4.49,6.13c1.29,1,3-.91,2.18-2.18a132.91,132.91,0,0,0-11.28-15c-1.17-1.35-3.52.44-2.5,1.93l6.84,10,2.75-1.6L45.67,106.23a1.59,1.59,0,0,0-2.75,1.61,114.38,114.38,0,0,0,7.9,12.27c1.19,1.61,3.85.18,2.75-1.6A218,218,0,0,0,35.16,92.86c-1.16-1.38-3.5.43-2.5,1.93,3.72,5.6,7.49,10.92,13.05,14.83,1.28.9,3.1-.9,2.18-2.17q-8.13-11.3-17.32-21.73c-1.2-1.36-3.46.4-2.5,1.93a32.43,32.43,0,0,0,4.67,5.85,1.6,1.6,0,0,0,2.5-1.92,33.61,33.61,0,0,0-3.9-5.48c-1.34-1.56-3.58.7-2.25,2.25Z"/><path class="cls-7" d="M41,79.42l-.38-.31a1.65,1.65,0,0,0-1.93-.25l-.49.33a1.58,1.58,0,0,0-.79,1.37c.22,2.39,2.22,4.11,3.62,6l7.78,10.37L51.28,95A76.17,76.17,0,0,1,42.2,81.41L39.45,83,57.9,109.3l2.5-1.93q-4.69-5.93-9-12.18L48.69,96.8,71.91,129c1.18,1.63,3.81.2,2.75-1.61a35.89,35.89,0,0,0-4.85-6.51l-2.26,2.25a36.36,36.36,0,0,1,4.57,5.11c1.18,1.61,3.85.17,2.74-1.61a117.22,117.22,0,0,0-12.75-16.91c-1.38-1.52-3.63.73-2.25,2.25a113.62,113.62,0,0,1,12.26,16.27l2.74-1.61a41.18,41.18,0,0,0-5-5.75,1.6,1.6,0,0,0-2.26,2.25A31.93,31.93,0,0,1,71.91,129l2.75-1.61L51.44,95.19c-1.18-1.64-3.92-.1-2.75,1.61,3,4.39,6.16,8.65,9.46,12.82,1.11,1.41,3.53-.45,2.5-1.92L42.2,81.41A1.59,1.59,0,0,0,39.45,83,80.19,80.19,0,0,0,49,97.21c1.15,1.37,3.59-.48,2.5-1.93l-6-8-2.4-3.19-1.79-2.39q-.57-1.55-1.08-.12l-1.93-.25.38.32c1.58,1.28,3.84-1,2.25-2.26Z"/><path class="cls-7" d="M93.08,39.46l6.37,9,2.49-1.92-7.56-8.77c-1.16-1.35-3.59.48-2.5,1.93Q100.63,51.26,110.33,62l1.92-2.5A51,51,0,0,1,99.33,45l-2.75,1.6a197.43,197.43,0,0,0,20.75,27.16l2.26-2.25-9.72-9.82-2.25,2.25,7.07,6.86c1.47,1.42,3.72-.82,2.25-2.25l-7.07-6.86a1.59,1.59,0,0,0-2.25,2.25l9.71,9.82c1.45,1.46,3.63-.74,2.26-2.25A192.23,192.23,0,0,1,99.33,45c-1.09-1.73-3.81-.16-2.75,1.6a55.05,55.05,0,0,0,14.07,15.68c1.5,1.14,3.08-1.23,1.93-2.5q-9.45-10.47-18-21.71L92.13,40l7.56,8.77c1.17,1.35,3.55-.45,2.5-1.93l-6.37-9c-1.17-1.65-3.93-.06-2.74,1.61Z"/><path class="cls-7" d="M118.52,74.17a45.43,45.43,0,0,0,2.89,4.12l1.93-2.5A13.12,13.12,0,0,1,120,72.72L117.73,75a35.27,35.27,0,0,1,9.61,12.69l2.5-1.93A73,73,0,0,1,121.78,75c-1.12-1.71-3.87-.12-2.75,1.6A77,77,0,0,0,127.59,88c1.33,1.4,3.2-.37,2.5-1.92A37.36,37.36,0,0,0,120,72.72,1.6,1.6,0,0,0,117.73,75a15.78,15.78,0,0,0,4,3.55c1.65,1,3-1.18,1.93-2.5a37.31,37.31,0,0,1-2.39-3.46c-1.07-1.74-3.83-.15-2.75,1.6Z"/><path class="cls-7" d="M102.33,33.08l12,18.1,2.75-1.6q-6.63-9.28-12.32-19.14a1.6,1.6,0,0,0-3,.8c-.43,4.82,4.74,9.56,7.32,13.22l11.36,16.11a1.59,1.59,0,0,0,2.74-1.6,53.66,53.66,0,0,0-4.6-8.12l-2.5,1.92q7.41,9.43,14.06,19.41l2.5-1.93-7.39-8c-1.41-1.54-3.5.69-2.25,2.25l13.54,16.9c1.28,1.6,3.52-.66,2.25-2.25l-13.54-16.9L123,64.47l7.38,8c1.21,1.32,3.52-.41,2.5-1.92Q126,60.26,118.32,50.52c-1.11-1.41-3.52.44-2.5,1.93a55.62,55.62,0,0,1,4.61,8.12l2.74-1.6-9.19-13-4.32-6.13c-1.54-2.2-5-5.72-4.73-8.55l-3,.8q5.69,9.89,12.31,19.14c1.17,1.64,3.89.13,2.75-1.6l-12-18.11c-1.12-1.7-3.88-.11-2.75,1.61Z"/><path class="cls-7" d="M110.69,25.39l13.22,17.83,2.49-1.93a68.34,68.34,0,0,1-11-15.74l-2.75,1.61A213.61,213.61,0,0,0,130.6,50.85l2.25-2.25A92.66,92.66,0,0,1,124,38.69c-1.13-1.46-3.37.4-2.5,1.93A106,106,0,0,0,135.1,59.45c1.19,1.32,3.53-.43,2.5-1.93L131.05,48l-2.5,1.93a127.72,127.72,0,0,1,11.2,14.59l2.5-1.93-4.18-4.37c-1.21-1.27-3.57.44-2.5,1.93q5.15,7.12,9.6,14.67a1.6,1.6,0,0,0,2.91-1.22l-.47-2.42L145.27,73l1.41.83A1.59,1.59,0,0,0,148.29,71l-1.42-.83a1.61,1.61,0,0,0-2.33,1.8l.47,2.41,2.91-1.22q-4.47-7.56-9.6-14.68l-2.5,1.93L140,64.82c1.23,1.29,3.51-.4,2.5-1.93a133.8,133.8,0,0,0-11.7-15.23c-1.19-1.34-3.53.43-2.5,1.93l6.55,9.54,2.5-1.93A102.08,102.08,0,0,1,124.22,39l-2.5,1.93a92.66,92.66,0,0,0,8.88,9.91c1.48,1.44,3.58-.71,2.25-2.25a207.51,207.51,0,0,1-17.41-23,1.59,1.59,0,0,0-2.75,1.61,71.7,71.7,0,0,0,11.46,16.38c1.21,1.29,3.59-.46,2.5-1.93L113.44,23.78c-1.21-1.63-4,0-2.75,1.61Z"/><path class="cls-7" d="M120.83,18.13l.23,1.34,2.39-1.37-1.55-1c-1.65-1-3,1.17-1.92,2.5l10.3,13.14,2.25-2.25a19.65,19.65,0,0,1-5.67-6.94l-2.5,1.93q5.33,6.74,10.12,13.86l2.18-2.18A15.67,15.67,0,0,1,131,30.46l-2.5,1.93L145,52c1.33,1.58,3.53-.68,2.25-2.25l-3.95-4.84c-1-1.2-3.23.1-2.66,1.55a31.62,31.62,0,0,0,3.53,6.74l2.75-1.61-1-1.33c-1.19-1.59-3.83-.19-2.75,1.61a110.4,110.4,0,0,0,11.6,15.9c1.2,1.37,3.42-.39,2.5-1.93a215.53,215.53,0,0,0-13.76-20.14c-1.23-1.6-4,0-2.75,1.61a210.48,210.48,0,0,1,13.76,20.14L157,65.5a105.25,105.25,0,0,1-11.1-15.26l-2.75,1.61,1,1.33c1.2,1.6,3.93.1,2.75-1.61a28.2,28.2,0,0,1-3.22-6L141,47.14,145,52l2.25-2.25L130.74,30.14c-1.24-1.48-3.21.4-2.5,1.93A18.72,18.72,0,0,0,135.05,40a1.6,1.6,0,0,0,2.18-2.18q-5-7.46-10.62-14.5c-1.17-1.5-3.25.4-2.5,1.92a21.17,21.17,0,0,0,6.17,7.59,1.59,1.59,0,0,0,2.25-2.25l-10.3-13.14-1.93,2.5,1.55.95a1.6,1.6,0,0,0,2.39-1.37,3.61,3.61,0,0,0-.35-2.19c-.74-1.88-3.82-1.06-3.06.85Z"/><path class="cls-7" d="M109.81,61.68c.38,2.49,2.09,4.66,3.34,6.79L117.58,76a1.59,1.59,0,0,0,2.74-1.6l-3.87-6.6c-1.26-2.14-3.2-4.5-3.57-7-.31-2-3.37-1.16-3.07.85Z"/><path class="cls-7" d="M102.37,34.11a1.59,1.59,0,0,0,0-3.18,1.59,1.59,0,0,0,0,3.18Z"/><path class="cls-7" d="M121.21,61.66a11.18,11.18,0,0,0,1.9,2.72,1.61,1.61,0,0,0,2.25,0,1.63,1.63,0,0,0,0-2.26,7.46,7.46,0,0,1-1.4-2.07,1.6,1.6,0,0,0-2.18-.57,1.64,1.64,0,0,0-.57,2.18Z"/><path class="cls-7" d="M131,72l5.72,9c1.1,1.72,3.86.12,2.75-1.61l-5.72-9c-1.1-1.72-3.86-.13-2.75,1.61Z"/><path class="cls-7" d="M109.73,27.14c5.7,6.88,11.92,13.59,17,21,4,5.92,7.06,12.36,12.35,17.33,1.49,1.4,3.74-.84,2.25-2.25-5.92-5.57-9.1-13.16-13.94-19.58S117.12,31.1,112,24.89c-1.31-1.58-3.55.68-2.25,2.25Z"/><path class="cls-7" d="M118.62,19.55c4.86,6,10,11.91,14.45,18.23,3.56,5,6.16,10.63,10.42,15.13,1.41,1.49,3.66-.76,2.25-2.25C141,45.6,138.05,39,133.85,33.49s-8.64-10.81-13-16.2c-1.29-1.59-3.53.67-2.26,2.26Z"/><path class="cls-7" d="M40.74,81.18l.1.25L38,83.11s.34.39.13.11l2.35-2.36.36.31L41,82V82l-.85,1.49,0,0-1.32.17L38,82.77A1.77,1.77,0,0,0,40.16,84a1.75,1.75,0,0,0,1.2-2.12c-.52-1.25-1.58-2-2.91-1.37A1.69,1.69,0,0,0,37.59,82a2.33,2.33,0,0,0,1.12,1.87,1.72,1.72,0,0,0,2.35-2.36,7.38,7.38,0,0,0-.67-.81,1.72,1.72,0,0,0-2.87,1.68,3.18,3.18,0,0,0,.25.57,1.72,1.72,0,1,0,3-1.74Z"/></g><g id="Layer_3" data-name="Layer 3"><polygon class="cls-8" points="88.12 94.67 77.97 80.76 82.52 77.31 92.67 91.22 88.12 94.67"/><polygon class="cls-8" points="8.07 101.21 45.29 152.22 49.84 148.78 12.62 97.77 8.07 101.21"/><polygon class="cls-8" points="17.18 94.33 54.4 145.33 58.95 141.89 21.73 90.88 17.18 94.33"/><polygon class="cls-8" points="26.29 87.44 63.51 138.44 68.07 135 30.85 84 26.29 87.44"/><polygon class="cls-8" points="35.4 80.55 72.62 131.56 77.18 128.11 39.96 77.11 35.4 80.55"/><line class="cls-8" x1="34.62" y1="127.91" x2="39.17" y2="124.47"/><line class="cls-8" x1="29.54" y1="120.95" x2="34.1" y2="117.51"/><line class="cls-8" x1="43.73" y1="121.02" x2="48.28" y2="117.58"/><line class="cls-8" x1="38.65" y1="114.07" x2="43.21" y2="110.62"/><line class="cls-8" x1="52.84" y1="114.14" x2="57.4" y2="110.69"/><line class="cls-8" x1="47.77" y1="107.18" x2="52.32" y2="103.74"/><line class="cls-8" x1="56.88" y1="100.29" x2="79.66" y2="83.07"/><line class="cls-8" x1="61.95" y1="107.25" x2="84.73" y2="90.03"/><polyline class="cls-8" points="24.98 124.4 15.87 131.28 20.95 138.24 30.06 131.35"/><polygon class="cls-8" points="121.97 15.12 159.19 66.13 154.63 69.57 117.41 18.57 121.97 15.12"/><polygon class="cls-8" points="112.86 22.01 150.08 73.02 145.52 76.46 108.3 25.45 112.86 22.01"/><polygon class="cls-8" points="103.74 28.9 140.97 79.9 136.41 83.35 99.19 32.34 103.74 28.9"/><polygon class="cls-8" points="94.63 35.79 131.85 86.79 127.3 90.23 90.08 39.23 94.63 35.79"/><line class="cls-8" x1="139.41" y1="48.71" x2="134.85" y2="52.15"/><line class="cls-8" x1="134.33" y1="41.75" x2="129.78" y2="45.2"/><line class="cls-8" x1="130.29" y1="55.59" x2="125.74" y2="59.04"/><line class="cls-8" x1="125.22" y1="48.64" x2="120.66" y2="52.08"/><line class="cls-8" x1="121.18" y1="62.48" x2="116.63" y2="65.92"/><line class="cls-8" x1="116.11" y1="55.53" x2="111.55" y2="58.97"/><line class="cls-8" x1="106.99" y1="62.41" x2="84.21" y2="79.63"/><line class="cls-8" x1="112.07" y1="69.37" x2="89.29" y2="86.59"/><polyline class="cls-8" points="138.89 38.31 148 31.42 153.08 38.38 143.96 45.26"/><polygon class="cls-8" points="85.77 110.83 108.55 93.61 118.7 107.52 95.92 124.74 85.77 110.83"/><polyline class="cls-8" points="77.97 80.76 73.41 84.2 63.26 70.29 76.93 59.96 87.08 73.87 82.52 77.31"/><polyline class="cls-8" points="92.67 91.22 97.23 87.78 104 97.05 90.33 107.38 83.56 98.11 88.12 94.67"/><polyline class="cls-8" points="110.25 95.93 114.8 92.48 121.57 101.76 117.01 105.2"/><polyline class="cls-8" points="87.46 113.15 82.91 116.59 89.68 125.86 94.23 122.42"/><line class="cls-8" x1="97.16" y1="102.22" x2="102.24" y2="109.17"/><line class="cls-8" x1="101.72" y1="98.77" x2="105.1" y2="103.41"/><line class="cls-8" x1="92.61" y1="105.66" x2="95.99" y2="110.3"/><polyline class="cls-8" points="67.81 66.85 64.43 62.21 68.99 58.77 72.37 63.4"/><polygon class="cls-8" points="50.9 43.66 45.82 36.71 50.38 33.26 55.45 40.22 50.9 43.66"/><polyline class="cls-8" points="68.99 58.77 71.27 57.04 57.73 38.5 48.62 45.38 62.15 63.93 64.43 62.21"/><polygon class="cls-8" points="41.26 40.15 36.19 33.2 49.86 22.86 54.93 29.82 41.26 40.15"/><polygon class="cls-8" points="45.89 22.27 47.58 24.59 38.47 31.47 36.77 29.16 45.89 22.27"/><polygon class="cls-8" points="50.53 23.79 53.24 27.5 58.29 15.05 53.76 12.72 50.53 23.79"/><polyline class="cls-8" points="53.24 27.5 64.05 22.93 65.15 29.29 54.93 29.82"/><polygon class="cls-8" points="36.87 34.12 39.57 37.83 26.4 39.16 25.52 34.07 36.87 34.12"/><polyline class="cls-8" points="39.57 37.83 32.15 47.04 37.81 49.95 41.26 40.15"/></g></svg>