<svg xmlns="http://www.w3.org/2000/svg" viewBox="0 0 57 57"><defs><style>.cls-1{fill:#1b7985;}.cls-2{fill:#0c1a37;}.cls-3{fill:#004c54;}.cls-4{fill:#005587;}.cls-5{fill:#f47d20;}.cls-6{fill:#b55d13;}.cls-7{fill:#007b9f;}.cls-8{fill:none;stroke:#000;stroke-miterlimit:10;stroke-width:0.96px;}</style></defs><title>Artboard 1</title><g id="Layer_5" data-name="Layer 5"><path class="cls-1" d="M19,16l-.29,0a.55.55,0,0,0-.79.32l-.08,0,.65.85c.21-.23,1-1.4,1.29-1.42-.35-.11-.34,0,0,.38l.51.82,2.06,3.3a.54.54,0,0,0,.93-.54l-1.05-1.91-.85.66c.36.31,1,.83,1.17,1.3.24.86-.78,1.19-1.32,1.52l.74.19L20.55,19c-.25-.43-1.55-2-1.45-2.48l-.51.39c.51,0,1.46,2.06,1.7,2.49a4.93,4.93,0,0,0,1.39,1.71.54.54,0,0,0,.81-.46c-.07-2.06-1.84-3.77-2.67-5.57l-.93.54.13.22a.54.54,0,0,0,.93-.55l-.13-.21c-.35-.61-1.21-.08-.93.54a19.6,19.6,0,0,0,1.38,2.5,4.84,4.84,0,0,1,1.14,2.53l.81-.46c-.95-.73-1.37-2.11-2-3.07-.4-.58-.81-1.35-1.59-1.28a.55.55,0,0,0-.52.39c-.2.82.5,1.54.89,2.21L21.08,22a.55.55,0,0,0,.74.2c.72-.45,2.2-1,2.11-2a4.62,4.62,0,0,0-1.75-2.49.54.54,0,0,0-.84.65l1.05,1.9.93-.54L21.65,17a9.22,9.22,0,0,0-1.38-2.14c-1-.82-2,.93-2.53,1.52a.54.54,0,0,0,.65.84.87.87,0,0,0,.57-.67l-.79.32a1.53,1.53,0,0,0,.84.19c.69,0,.69-1.1,0-1.08Z"/><path class="cls-1" d="M21.64,20.27l.58.35a.55.55,0,0,0,.81-.47v-.21c0-.69-1.1-.69-1.08,0v.21l.81-.46-.58-.34a.53.53,0,0,0-.54.92Z"/><path class="cls-1" d="M23,22.5l.49.5a.54.54,0,0,0,.9-.52,1.45,1.45,0,0,0-.41-.85.53.53,0,0,0-.92.54c.48,1,.15,1.51-.39,2.28a1.08,1.08,0,0,0-.21.49c-.1.64.42,1,.8,1.46.84.93,1.63,3.31,3.21,2.64.92-.39,3.08-1.71,3.09-2.92,0-.71-.78-1.43-1.16-2a11.79,11.79,0,0,0-1.84-2.5.56.56,0,0,0-.65-.08A6.33,6.33,0,0,0,24.24,23c-.42.42-1.19,1.06-1.32,1.69-.26,1.25,1.64,2.77,2.44,3.45.44.38,1.17-.1.84-.65a10.59,10.59,0,0,1-1.62-3.37l-.14.52c.2-.23,1-1,1.37-1s1.21,1.6,1.34,1.92.22.74-.07,1.07c0,0-.79.6-.72.61-.46-.07-1.35-2.57-1.28-2.83l-.9.24a27.82,27.82,0,0,1,2.08,2.86.54.54,0,0,0,.92-.55c-.53-1.16-1.09-2.3-1.67-3.44l-.92.54L26.43,27c.31.5,1.18.19,1-.41a17.88,17.88,0,0,0-1.51-3.37l-.93.54,1.53,2.36a.53.53,0,0,0,.92-.54,22.35,22.35,0,0,0-1.19-2.34l-.93.54c.51.86,1,1.7,1.57,2.54l.93-.54-.42-.65c-.38-.58-1.31,0-.93.54l.42.65c.38.58,1.31,0,.93-.54-.54-.84-1.07-1.68-1.57-2.54-.36-.59-1.29,0-.93.54a22.42,22.42,0,0,1,1.2,2.34l.92-.54L25.9,23.22a.54.54,0,0,0-.93.54,16.37,16.37,0,0,1,1.4,3.11l1-.41-1.84-2.92a.53.53,0,0,0-.92.54c.57,1.14,1.13,2.29,1.67,3.45l.92-.55a30.49,30.49,0,0,0-2.24-3.07.54.54,0,0,0-.9.23,3.24,3.24,0,0,0,.74,2.56c.31.52.64,1.56,1.39,1.61a3.93,3.93,0,0,0,2.1-1.2c.58-.69.22-1.4-.19-2.08s-.72-1.12-1.07-1.68c-.18-.28-.4-.81-.73-1-.6-.28-1.12.3-1.55.64s-1.3.74-1.17,1.54A11.52,11.52,0,0,0,25.27,28l.85-.65c-.7-.6-2-1.61-1.87-2.54a5,5,0,0,1,2.24-2.35l-.65-.08a10,10,0,0,1,1.53,2.08l.57.81.28.4c.34.22.38.43.11.64a3.53,3.53,0,0,1-1.61,1.36c-1,.48-1.22-.24-1.75-1-.32-.43-.75-.8-1.06-1.24s-.06-.54.28-1c.69-.91.29-2-.17-2.88l-.92.54.29.6.9-.53-.49-.5a.54.54,0,0,0-.76.76Z"/><path class="cls-1" d="M17.89,13.33l-.11-.26-.93.54L18,15.09l.84-.66-1.23-1.27a.54.54,0,0,0-.84.65,11.15,11.15,0,0,0,1,1.43c.4.47,1.17-.14.85-.65l-1.24-1.95a2.86,2.86,0,0,0-.85-1.09c-.92-.49-1.34.62-1.62,1.28-.19.43.24,1.07.73.73l1.22-.83-.66-.84c-.22.18-1.79,1.66-1.79.67,0-.44,1.54-1.41,1.9-1.7l-.76-.76a1.12,1.12,0,0,1-1.57.25v.92L16.15,10l-.65-.08c.33.39.72,1.07,1.32,1,.12,0,.44-.27.47-.26.16-.24.15-.13,0,.32a1.2,1.2,0,0,1-.83.82l.61.79.54-1.16a.54.54,0,0,0-.74-.73,6.46,6.46,0,0,0-1.28.72,5.32,5.32,0,0,0-.46.37l-.26.24c-.2.13-.15.22.14.27v.55a3,3,0,0,1,1.53-1.32c.62-.31.07-1.24-.55-.93s-2.63,1.55-1.78,2.46a.82.82,0,0,0,1.05.08,6.33,6.33,0,0,0,.76-.71,6,6,0,0,1,1.39-.8l-.73-.74-.54,1.16c-.18.38.12,1,.61.79,1-.38,2.12-1.61,1.52-2.78A1.06,1.06,0,0,0,17,9.48c-.23.07-.33.29-.51.39.38.06.42,0,.12-.25l-.38-.45a.53.53,0,0,0-.65-.08l-2.2,1.26a.54.54,0,0,0,0,.92,2.14,2.14,0,0,0,2.87-.41.54.54,0,0,0-.76-.76,9.94,9.94,0,0,0-2.16,1.8c-.37.58,0,1.27.4,1.75.94,1.26,2.3-.32,3.17-1,.48-.37-.14-1.19-.65-.85l-1.21.83.73.74c0,.05.43-.91.21-.83a7.13,7.13,0,0,1,.52.81l1.13,1.78.84-.65a10.12,10.12,0,0,1-.85-1.21l-.84.65L18,15.19c.41.43,1.22-.15.84-.65l-1.1-1.47a.54.54,0,0,0-.93.54l.12.26c.27.63,1.19.09.92-.54Z"/><path class="cls-1" d="M17.68,10.36c-.27,0-.2-.08-.2.2s0,.31,0,.47a.54.54,0,0,0,1.08,0c0-.72.05-1.65-.87-1.74-.69-.07-.68,1,0,1.07Z"/><path class="cls-2" d="M31.36,29.19l.72-1.08c.37-.54-.4-1-.84-.65l-.95.56.61.79.17-.21c.44-.34.22-1.19-.42-1l-.52.17.52.9a2.2,2.2,0,0,1,.77-.62l-.54-.93-.62.41.65.85q1.25-1.09,2.52-2.16c.56-.45,1.12-.9,1.69-1.33.27-.19,1.31-1.17,1.36,0,0,.21-1.32,1-1.5,1.17l-1.26,1c-1,.73-2,1.45-3,2.16l.81.46c.11-1.18,1.33-1.95,2.15-2.67l2.51-2.18c.52-.45-.24-1.2-.76-.76l-4.09,3.45c-.46.39.16,1.22.65.85L34.3,26.6c.26-.2,2.32-1.48,2.29-1.74-.08-1-1.74.73-2,.94l-2.32,2c-.52.45.24,1.21.76.76,1.16-1,2.33-2,3.47-3,.42-.38,1.12-1,.56-1.6s-1.21.1-1.65.44l-4,3,.65.84,4.09-3.45L35.45,24c-1.22,1.06-2.49,2.07-3.66,3.18a3.69,3.69,0,0,0-1.31,2.43.54.54,0,0,0,.81.47q2.6-1.85,5.12-3.79c.81-.63,2.06-1.68,1.15-2.78-.72-.85-1.81-.38-2.57.12a49.46,49.46,0,0,0-4.84,4c-.46.39.14,1.18.65.84l.62-.41c.57-.38.06-1.29-.54-.93a4.15,4.15,0,0,0-1,.79.54.54,0,0,0,.53.89l.52-.16-.41-1a1.75,1.75,0,0,0-.56.59c-.22.38.16,1,.61.79A4.82,4.82,0,0,0,32,28.22l-.84-.66-.73,1.08c-.39.58.54,1.12.93.55Z"/><path class="cls-2" d="M37.29,23.46l.06-.32a.54.54,0,0,0-1-.41,1.66,1.66,0,0,0-.27.53c-.22.65.81.94,1,.28a.63.63,0,0,1,.16-.27l-1-.42-.06.33c-.13.67.91,1,1,.28Z"/><path class="cls-2" d="M39.37,21.59a3.77,3.77,0,0,1,.5.75l.74-.73a1.25,1.25,0,0,1-.52-.64c-.24-.65-1.26-.38-1,.28a5.55,5.55,0,0,0,.75,1.5c.39.57,1.32,0,.92-.54A4.83,4.83,0,0,1,40.09,21l-1,.28a2.43,2.43,0,0,0,1,1.28c.48.31,1-.28.74-.73a4.65,4.65,0,0,0-.67-1c-.45-.52-1.21.24-.76.76Z"/><path class="cls-2" d="M39.46,20.64h0a.56.56,0,0,0-.39.52v0a.56.56,0,0,0,.39.52h0c.66.22.94-.82.29-1h0l.39.52v0l-.39.52h0c.64-.23.36-1.27-.29-1Z"/><path class="cls-2" d="M39.45,20.45h-.08a.54.54,0,0,0,0,1.08h.08a.54.54,0,0,0,0-1.08Z"/><path class="cls-2" d="M42.3,18.78a3.83,3.83,0,0,0,1.08,1.63l.65-.85a2,2,0,0,1-.58-.45,1.51,1.51,0,0,1-.18-.26c-.1-.17-.08-.37-.21-.13l-.61.25h0l-.33-.25,0,0,.08-.65,0,0c-.52.46.25,1.22.76.76l0,0a.55.55,0,0,0,.09-.65.56.56,0,0,0-1,0c-.45.84.7,1.95,1.36,2.31s1.13-.43.65-.84a2.73,2.73,0,0,1-.8-1.15c-.23-.65-1.27-.37-1,.28Z"/><path class="cls-2" d="M42,19.11a7.54,7.54,0,0,0,1.09,1.6c.45.52,1.21-.24.76-.76A6.38,6.38,0,0,1,43,18.57c-.31-.62-1.24-.08-.93.54Z"/><path class="cls-2" d="M39.77,20.69h-.25a.56.56,0,0,0-.52.68,3.16,3.16,0,0,0,.84,1.54.54.54,0,0,0,.76-.76A2.07,2.07,0,0,1,40,21.1l-.52.68.25,0c.68-.05.69-1.12,0-1.07Z"/><path class="cls-2" d="M46,16.12l0,0a.56.56,0,0,0-.65-.08c-.54.32-.25.83,0,1.25s.52,1,1.13,1.1a.83.83,0,0,0,.91-.86c-.05-.61-.69-1.26-1-1.75s-1.32,0-.93.54l.41.6c.06.09.31.59.4.6.61.1.12-.6.07-.7l-.16-.29q-.15-.3,0,0l-.27.47,0,0-.65-.09,0,0c.54.43,1.3-.33.76-.76Z"/><path class="cls-2" d="M48.29,14.36l.6.83a2.27,2.27,0,0,0,.53.66c.56.35,1-.29,1.41-.63s1.06-.76,1-1.35-.68-1.07-1-1.46a.54.54,0,0,0-.76,0c-.39.37-.83.73-1.2,1.12a.92.92,0,0,0-.28.93.7.7,0,0,0,.73.46.9.9,0,0,0,.5-.21,1.12,1.12,0,0,0,.17-.2c.1-.1.1-.12,0-.07l-.38-.16,0-.48c-.49.41.13,1.11.65.85l.47-.24c.61-.32.07-1.25-.54-.93l-.48.24.66.84a.7.7,0,0,0-.14-1.12.73.73,0,0,0-.66,0,1,1,0,0,0-.32.22l-.08.11c-.14.13-.08.16.17.09l.24.32,0-.14-.06.41a2.39,2.39,0,0,1,.62-.65l.67-.63H50c.21.24.69.66.74,1l.06-.42c-.1.22-.43.43-.6.59a4.57,4.57,0,0,1-.7.62l.41,0c.09,0-.23-.42-.27-.48l-.43-.6c-.4-.56-1.33,0-.93.54Z"/><path class="cls-2" d="M17.53,37.64A10.81,10.81,0,0,1,18,38.73a.54.54,0,0,0,.66.37c1.29-.45.42-2.7-.8-2.5a1.08,1.08,0,0,0-.82,1.25c.11.72.77,1,1.2,1.53s1.21-.23.76-.76c-.25-.29-.57-.51-.83-.8a.24.24,0,0,1-.07-.16q-.21,0,0,.12a1.15,1.15,0,0,1,.12.25c0,.17.07.18.18,0l.66.37a10.85,10.85,0,0,0-.62-1.34c-.33-.61-1.26-.06-.92.54Z"/><path class="cls-2" d="M21.45,35.45l0-.41-1,.27.72,1.38a.55.55,0,0,0,.84.11l6.5-5.28a.55.55,0,0,0,.09-.65c-.32-.45-.59-1.12-1.2-1.14s-1.9,1.18-2.47,1.59c-.87.62-1.73,1.27-2.55,2-.55.46-1.62,1.16-1.86,1.87a.9.9,0,0,0,.24,1.11c.57.39,1.16-.1,1.61-.38a25.69,25.69,0,0,0,5.51-4.56.54.54,0,0,0-.65-.84A9,9,0,0,0,25,32.05a18.81,18.81,0,0,1-3.11,2.13c-.53.29-.17,1.21.41,1L25.38,34l-.52-.9c-1.08,1.31-2.78,1.77-3.76,3.19a.54.54,0,0,0,.61.79c2.59-.81,5-3.2,7-5,.5-.47-.26-1.23-.76-.76-1.82,1.68-4.08,4-6.49,4.73l.61.79c.9-1.3,2.58-1.74,3.59-3,.3-.36,0-1.11-.52-.89L22,34.13l.42,1A18,18,0,0,0,25,33.43a13.65,13.65,0,0,1,2.71-2l-.65-.85a21.44,21.44,0,0,1-3.23,2.94l-1.23.88c-.13.09-1.65,1-1.05,1,.22,0,1.31-1.21,1.53-1.39.48-.41,1-.8,1.5-1.19s1.11-.81,1.67-1.2.87-.92,1.36-.24l.08-.65L21.21,36l.85.11-.72-1.38c-.24-.45-1.06-.27-1,.27l.05.41c.07.68,1.14.69,1.07,0Z"/><path class="cls-2" d="M14.54,40.07a3.08,3.08,0,0,1,.56,1,.55.55,0,0,0,.9.24c.72-.7-.13-2.13-1-2.14a.87.87,0,0,0-.86,1c.05.58.56.76.78,1.23s1.24.07.93-.55a1.52,1.52,0,0,0-.55-.65c-.08-.11-.18-.08-.31.07a1.09,1.09,0,0,1,.13.17c0,.05.07.1.1.16s0,.14.06,0l.9.23a4.59,4.59,0,0,0-.84-1.45c-.45-.53-1.21.24-.76.76Z"/><path class="cls-2" d="M11.41,42.45l.44.43.18.2c.16.21.18.16,0-.16l.25-.32c.31.19.43.2.36,0a.7.7,0,0,0-.06-.19,1.52,1.52,0,0,0-.22-.34c-.35-.44-1,0-.9.52s.6,1.64,1.37,1.23.1-1.39-.24-1.89c-.2-.3-.37-.59-.78-.59a1,1,0,0,0-.82.53c-.38.76.29,1.29.67,1.85s1.31,0,.92-.54a3.68,3.68,0,0,0-.34-.44,2,2,0,0,1-.19-.22c0-.15-.13-.18-.27-.1l-.32-.25.41.61.21.31c.08.17.11.14.1-.11l.38-.16h-.12l.38.16a1.31,1.31,0,0,1-.32-.67l-.9.52s.07.29.13.38a.82.82,0,0,0,.32.32.76.76,0,0,0,.83-.07c.71-.58-.35-1.41-.75-1.79s-1.26.28-.76.76Z"/><path class="cls-2" d="M8.92,45.18a1.91,1.91,0,0,1,.53-.6l-.85-.11a6.47,6.47,0,0,1,.71,1.15l.2-.73a6.31,6.31,0,0,0-2,1.41l.84.11a4,4,0,0,0-.52-.7l0,.19.16-.11c.18-.06.31-.13.49-.18L7.75,45l-.16.44,1,.28a.9.9,0,0,1,.12-.36c.32-.61-.61-1.16-.93-.54a2.55,2.55,0,0,0-.23.62.54.54,0,0,0,1,.28l.16-.43c.15-.41-.3-.75-.66-.66a1.92,1.92,0,0,0-1.38.91c-.22.58.31,1,.63,1.46a.54.54,0,0,0,.84.11,5.44,5.44,0,0,1,1.83-1.24.56.56,0,0,0,.19-.74,6.47,6.47,0,0,0-.71-1.15.55.55,0,0,0-.84-.11,2.68,2.68,0,0,0-.69.81c-.34.61.59,1.15.92.55Z"/><path class="cls-2" d="M7.44,44.51a1.25,1.25,0,0,0-1.14.63.85.85,0,0,0,.37,1.1c.62.3,1.16-.62.54-.93,0,.25.07.34.23.28.68-.07.69-1.15,0-1.08Z"/><path class="cls-2" d="M7.85,46.23c0,.12.34-.18.37-.21a3.42,3.42,0,0,0,.42-.43,1.15,1.15,0,0,0,.37-1,.74.74,0,0,0-.72-.54,1,1,0,0,0-.81.55c-.29.43.3,1,.73.73a4,4,0,0,1,1-.53c.64-.24.37-1.28-.29-1a4.83,4.83,0,0,0-1.23.65l.74.73L8,45,8,44.63c0,.31-.46.59-.69.76a1.08,1.08,0,0,0-.51.84c-.06.69,1,.68,1.08,0Z"/><path class="cls-1" d="M27.7,28.59a33,33,0,0,1,2.75,4.33l.93-.54a16.09,16.09,0,0,1-1.9-3.29l-.93.54c.88,1.38,2.23,2.4,2.89,3.91.27.64,1.2.09.93-.54-.66-1.52-2-2.53-2.89-3.91a.54.54,0,0,0-.93.54,15.82,15.82,0,0,0,1.9,3.29.54.54,0,0,0,.93-.54,33,33,0,0,0-2.75-4.33c-.41-.55-1.35,0-.93.54Z"/><path class="cls-1" d="M32.4,33.58l-.21-.4a.54.54,0,0,0-.79-.32c-.55.33-2.06.84-2.08,1.63a1.69,1.69,0,0,0,.44.91l1.15,1.73c.32.48,1.2.19,1-.42l-.76-2.09-.9.53a8.06,8.06,0,0,1,1.29,1.72.55.55,0,0,0,.93,0c.5-.69-.27-2-.49-2.72l-1,.41,1.43,1.91a.54.54,0,0,0,.93-.54L32.4,33.7l-.85.65,1.16,1.47c.34.43,1,0,.9-.52a4.47,4.47,0,0,0-1.21-1.95l.08.65a3.64,3.64,0,0,0,.67-1.35.54.54,0,0,0-.66-.66,2.48,2.48,0,0,0-1,.52l.77.76c.18-.17.73-.78,1-.81l-.52-.14A5.32,5.32,0,0,1,33.9,34l.93-.54-.38-.61-.73.74.17.32.92-.38c-.49-.4-1.11-1.18-1.79-.78a.56.56,0,0,0-.25.61,12.41,12.41,0,0,0,.87,2.15l1-.41a5.71,5.71,0,0,0-1.23-1.45.54.54,0,0,0-.89.52,4.36,4.36,0,0,0,.65,1.5.54.54,0,0,0,1-.42L33.84,34l-.79.61c.56.37.75,1.07,1.34,1.45a.54.54,0,0,0,.8-.47,2.77,2.77,0,0,0-.12-.8l-1,.42a8.9,8.9,0,0,1,.79,1.29c.31.61,1.24.07.93-.55A9.37,9.37,0,0,0,35,34.62c-.34-.47-1.16-.22-1,.41l.09.51.81-.46c-.56-.36-.76-1.07-1.34-1.45a.54.54,0,0,0-.79.61l.29,1.31,1-.42a3.67,3.67,0,0,1-.54-1.23l-.9.52a4.8,4.8,0,0,1,1.06,1.23c.31.48,1.23.18,1-.41a13.21,13.21,0,0,1-.86-2.15l-.25.6.12-.07h-.54a4.59,4.59,0,0,1,.91.68.55.55,0,0,0,.92-.38,1.35,1.35,0,0,0-.71-1.25.55.55,0,0,0-.74.74l.38.6a.54.54,0,0,0,.93-.54c-.3-.57-.88-1.78-1.54-2s-1.38.67-1.82,1.06.23,1.17.77.76l.54-.24-.66-.66a3.05,3.05,0,0,1-.56,1.09.53.53,0,0,0,.08.65,3.27,3.27,0,0,1,.93,1.47l.9-.52-1.16-1.47c-.41-.53-1.06.14-.84.65l.94,2.23.93-.54L31.91,34c-.34-.45-1.19-.22-1,.41a8.24,8.24,0,0,1,.6,1.89h.93A9.16,9.16,0,0,0,31,34.39c-.36-.37-1.09,0-.9.52L30.86,37l1-.41c-.42-.63-.86-1.25-1.26-1.89l-.2-.31c.12.3.3.31.53,0a5.42,5.42,0,0,0,1-.62l-.79-.33a1.41,1.41,0,0,0,.33.67c.41.54,1.34,0,.92-.55Z"/><path class="cls-1" d="M36.41,34.71a6.29,6.29,0,0,0-1.08-1l-.41,1c1,.33-2.22,2.67-2.21,2.67l.79.6a2.38,2.38,0,0,1,.86-1.57.54.54,0,0,0-.76-.76c-.92.85-2.05,2.36-3.19,2.87l.74.19-.09.45-.85-.1a8.21,8.21,0,0,1,.8,2.29l1-.42c-.48-.71-1.47-2.06-2.43-1.11s.49,2.57,1.1,3.29a.55.55,0,0,0,.92-.38,5.2,5.2,0,0,0-.52-2.26l-.93.54a2.49,2.49,0,0,1,.69,1.56.54.54,0,0,0,.79.33c.5-.31,1.22-.06,1.75-.31a5.06,5.06,0,0,0,1.27-1.13,25.16,25.16,0,0,1,4.92-3.66.55.55,0,0,0,.24-.61c-.53-1.35-1.92-5.36-4-3.15l.85.65c.11-.22,2.6,3.21,2.77,3.44a.54.54,0,0,0,.93,0,.83.83,0,0,0,0-1,.54.54,0,0,0-.84-.11L38,38.35c-.52.46.24,1.22.76.76l1.46-1.29-.85-.11V37.6h.93c-.5-.69-3.28-6.1-4.63-3.44-.27.52.41,1.12.84.65,0,0,3,1.52,1.31,2.75-.84.62-1.71,1.17-2.51,1.83s-1.58,1.75-2.47,2.09c-.71.27-1.11.06-1.83.5l.79.32a4,4,0,0,0-.79-1.82.54.54,0,0,0-.93.54l.37,1.72.92-.38c-.15-.18-1.29-2.26-.36-.88a.54.54,0,0,0,1-.41,10.06,10.06,0,0,0-.9-2.55.54.54,0,0,0-.84-.11l-.07.09a.55.55,0,0,0-.09.65l.08.11a.55.55,0,0,0,.73.2c1.26-.56,2.4-2.1,3.41-3l-.76-.76a4,4,0,0,0-1.14,2.05.54.54,0,0,0,.79.6c1.13-.71,4.85-3.65,2-4.63-.63-.21-.86.64-.42,1l.86.81c.47.51,1.23-.25.76-.76Z"/><path class="cls-1" d="M33.88,43c1.85-1.27,3.32-3,5.22-4.19.58-.37,0-1.3-.55-.93C36.66,39,35.18,40.75,33.34,42c-.57.39,0,1.33.54.93Z"/><path class="cls-1" d="M32.4,40.25l0-.23h-1l.67,1.77a.54.54,0,0,0,1-.29L32.7,39l-1,.28.22,1.18c.13.68,1.15.39,1-.28l-.26-1.5a.54.54,0,0,0-1-.12l-.38.54.9.24.12-.46h-.92a4,4,0,0,1,.45,1.58c.07.54,1,.8,1.06.14s.19-1.53.25-2.3l-1.05.15.77,3.63c.12.6,1,.46,1-.14V38.86a.54.54,0,0,0-1.07,0,10.48,10.48,0,0,0,.19,2.85.54.54,0,0,0,1,0A27.56,27.56,0,0,0,34.47,38a.54.54,0,0,0-1.08,0,18.18,18.18,0,0,0,.07,3,.54.54,0,0,0,1.08,0,26.63,26.63,0,0,0,.08-3.09.54.54,0,0,0-1.08,0v2.88a.54.54,0,0,0,1.08,0L35,37.3H34a29.21,29.21,0,0,0,.24,3.62.54.54,0,0,0,1,.14,27.92,27.92,0,0,0,.87-4.35H35l-.12,3a.54.54,0,0,0,1.06.14c.24-1.05.45-2.1.61-3.17l-1.05-.14-.17,3.25a.54.54,0,0,0,1,.27c.67-1.22.57-2.81.7-4.16H36a15.78,15.78,0,0,0,.18,3.15c.11.64,1,.41,1.06-.15q.18-1.73.3-3.45H36.46c.13,1,.29,2.07.5,3.1.12.6,1.06.45,1.06-.15V35.45L37,35.59l.6,2.33c.15.57,1.13.47,1.06-.14A11.41,11.41,0,0,0,38.13,35c-.26-.66-.53-.65-1.22-.91a.54.54,0,0,0-.67.38c-.22,1.21,1.45,2.21,2.2,3l.52-.9-.69-.46c-.43-.55-1.18.22-.76.76a1.88,1.88,0,0,0,1.17.74.54.54,0,0,0,.52-.9c-.19-.19-2-1.66-1.92-1.92l-.66.38c.88.33.84,1.79.93,2.61l1.05-.15L38,35.3a.54.54,0,0,0-1.06.15V38.4L38,38.26c-.19-.93-.35-1.87-.46-2.81a.54.54,0,0,0-1.08,0c-.08,1.15-.18,2.3-.29,3.45l1-.14a14.37,14.37,0,0,1-.15-2.86c0-.7-1-.68-1.07,0-.11,1.1,0,2.64-.56,3.62l1,.27.17-3.25c0-.59-1-.75-1.06-.14-.16,1.06-.36,2.12-.61,3.17l1.06.14.12-3c0-.71-1-.67-1.08,0a24.69,24.69,0,0,1-.83,4.07l1.06.14A29.2,29.2,0,0,1,35,37.3a.54.54,0,0,0-1.08,0l-.41,3.42h1.08V37.84H33.54a24.58,24.58,0,0,1-.08,3.09h1.08a17.11,17.11,0,0,1-.07-3H33.39a23.56,23.56,0,0,1-.33,3.45h1a9.25,9.25,0,0,1-.16-2.57H32.87V42l1.05-.14-.77-3.64c-.13-.62-1-.43-1,.14s-.12,1.34-.22,2l1.06.14a6.61,6.61,0,0,0-.61-2.12.54.54,0,0,0-.92,0,1.48,1.48,0,0,0-.24,1.29.54.54,0,0,0,.9.23,1.86,1.86,0,0,0,.54-.76l-1-.13.26,1.49,1-.28L32.7,39c-.13-.69-1.14-.39-1,.28l.4,2.5,1-.29-.67-1.77c-.17-.43-.95-.58-1,0l0,.23c-.1.68.94,1,1,.29Z"/><path class="cls-1" d="M40,33.62a.86.86,0,0,0-.82-.63.55.55,0,0,0-.52.68.4.4,0,0,1-.17.35.53.53,0,0,0,.11.84,1.27,1.27,0,0,1,.53.47l.93-.54a3.25,3.25,0,0,1-.62-1.33l-1,.42L39.15,35a6.65,6.65,0,0,0,.61,1,.72.72,0,0,0,1.29-.43c0-.69-1-.69-1.08,0v.1l.16-.38-.09.08.38-.16q.24.12,0-.12L40.36,35,40,34.4l-.61-1.07a.54.54,0,0,0-1,.42,4,4,0,0,0,.73,1.58c.41.54,1.32.06.93-.54a2.31,2.31,0,0,0-.92-.86l.11.85a1.47,1.47,0,0,0,.44-1.39l-.51.68L39,33.91c.22.65,1.26.37,1-.29Z"/><path class="cls-1" d="M39.46,34.47a3.48,3.48,0,0,1,.82,1.08c.31.61,1.24.07.93-.55a4.44,4.44,0,0,0-1-1.29c-.51-.47-1.27.29-.76.76Z"/><path class="cls-1" d="M32.59,39c.14.47.2,1.37.67,1.64s1-.22,1.25-.68a1.45,1.45,0,0,0-.08-1.56,1.26,1.26,0,0,0-.66-.42c-.24,0-.49.08-.65.07l.46.26,0-.07.06.42c0,.12-.14.15.09,0a1.65,1.65,0,0,0,.27-.19c.54-.43-.22-1.18-.76-.76-.14.11-.39.12-.54.37a.68.68,0,0,0,0,.75.7.7,0,0,0,.74.25c.17,0,.17-.11.24.07s-.13.48-.25.55l.41,0q.26.38.12,0l-.09-.34-.19-.66a.54.54,0,0,0-1,.29Z"/><path class="cls-1" d="M12.44,17l.46.31a.55.55,0,0,0,.79-.32l.53-2.27-1.05-.15V15c0,.69,1.1.7,1.08,0l0-.38c0-.58-.91-.75-1.05-.14l-.53,2.27.79-.32-.47-.3c-.58-.39-1.12.55-.54.92Z"/><path class="cls-1" d="M14,12.89a2.83,2.83,0,0,0-1.71-.32c-.76.11-1.35.55-2.14.48s-.69,1,0,1.08c1.15.1,2.21-.86,3.31-.31.61.31,1.16-.62.54-.93Z"/><path class="cls-1" d="M17.76,10c.65.28,1-.43,1.25-.91a14,14,0,0,0,.76-2.38c.16-.67-.88-1-1-.28-.11.45-.23.9-.38,1.34-.06.2-.14.4-.22.6a2.39,2.39,0,0,1-.15.37c-.14.16-.12.24.06.23-.64-.27-.92.77-.29,1Z"/><path class="cls-1" d="M19.33,11.17c.94,0,2.68-.13,2.87-1.35l-1.06-.14,0,1a.54.54,0,0,0,1.07,0v-1c0-.58-1-.76-1.06-.14s-1.41.55-1.83.56a.54.54,0,0,0,0,1.07Z"/><path class="cls-3" d="M39.82,34.57a4.31,4.31,0,0,0-.26-1.34l-.9.52a7.57,7.57,0,0,1,1.51,2.39c.24.63,1.28.36,1-.29A8.76,8.76,0,0,0,39.42,33c-.35-.37-1.1,0-.9.52a3.47,3.47,0,0,1,.23,1.06c0,.69,1.1.69,1.07,0Z"/><path class="cls-3" d="M19.51,10.1l-.21.24a.3.3,0,0,0,.29.5c.67-.09,1.33-.21,2-.36a.3.3,0,0,0-.08-.59,3,3,0,0,0-1.16.29l.44.34a.77.77,0,0,1,.17-.38c.42-.18.57-.1.44.23l.55.23,0-.14c.11-.37-.47-.52-.58-.16l0,.14a.3.3,0,0,0,.55.23.81.81,0,0,0-.45-1.22,1.05,1.05,0,0,0-1.25.91.3.3,0,0,0,.43.34,2,2,0,0,1,.86-.21l-.07-.59c-.66.15-1.33.27-2,.37l.29.5.22-.25c.24-.29-.18-.71-.43-.42Z"/><path class="cls-3" d="M20,10.61a7.69,7.69,0,0,0,2,.23.3.3,0,0,0,.3-.29c0-.39-.06-1.22-.62-1.22a3.87,3.87,0,0,0-1,.33l-1.23.41c-.36.12-.2.7.16.58l1.41-.47a3.23,3.23,0,0,1,.7-.24c-.1.05-.11.12,0,.22a2.6,2.6,0,0,1,.05.39l.3-.3A7.35,7.35,0,0,1,20.11,10c-.37-.09-.53.49-.16.58Z"/><path class="cls-3" d="M18.32,8.7a.93.93,0,0,0,.12.52A.3.3,0,0,0,19,9.15q.42-1.39.72-2.82A.3.3,0,0,0,19.27,6c-1,.62-.79,2.32-.87,3.32l.45-.26c-.58-.35.31-2.56.44-3.06l-.59-.08v.22c0,.38.61.38.6,0V5.91a.3.3,0,0,0-.59-.08,24.16,24.16,0,0,0-.65,2.5,1.12,1.12,0,0,0,.49,1.24A.31.31,0,0,0,19,9.31c0-.5.07-1,.12-1.5s0-1,.46-1.3l-.44-.34c-.21,1-.45,1.89-.73,2.82L19,8.92l0-.22a.3.3,0,0,0-.6,0Z"/><path class="cls-3" d="M36.83,34a5.18,5.18,0,0,1,1.35,2.2c.22.74.52,2.3-.2,2.88-.3.24.12.66.42.42.77-.62.66-2,.5-2.83a5.76,5.76,0,0,0-1.64-3.09c-.27-.27-.7.15-.43.42Z"/><path class="cls-3" d="M36.63,40.9a6.88,6.88,0,0,0,1.57-3.71A8.67,8.67,0,0,0,37,33.29c-.17-.34-.68,0-.51.3a8,8,0,0,1,1.14,3.6,6.4,6.4,0,0,1-1.48,3.41c-.22.32.3.62.51.3Z"/><path class="cls-3" d="M38.53,36.57a.6.6,0,0,0-.23.88,3.12,3.12,0,0,1,0,.61A4.29,4.29,0,0,1,38,39.28l.58.16.3-1.3a.3.3,0,0,0-.58-.16,3.92,3.92,0,0,1-.59,1.3l.55.23a2.3,2.3,0,0,0,.16-.82.31.31,0,0,0-.51-.21l-.64.55.47.36a10.46,10.46,0,0,0,.85-2.68L38,36.63l.1,1.21c0,.38.62.39.59,0a9.46,9.46,0,0,0-.43-2.42l-.58.16a14.78,14.78,0,0,1,.74,2.62L39,38l-.62-2.44-.5.29a6.61,6.61,0,0,1,1.06,1.56l.52-.3c-.53-.93-.6-2-1.26-2.88-.23-.29-.71,0-.51.3l1.54,2.77a.3.3,0,0,0,.55-.23A4.32,4.32,0,0,0,39.27,36l-.52.3c.26.39.53.77.8,1.14l.05-.36a8,8,0,0,0-1.13,1.13l.47.36a10.32,10.32,0,0,1,.53-1.05l-.56-.15-.13.62a.3.3,0,0,0,.44.34,1.79,1.79,0,0,0,.57-.59.3.3,0,0,0-.52-.31l-.36.39.44.33a2.31,2.31,0,0,0,.16-.78c0-.3-.42-.39-.56-.15a10.24,10.24,0,0,0-.52,1c-.13.28.23.65.47.36A7.48,7.48,0,0,1,40,37.53a.3.3,0,0,0,0-.36c-.28-.37-.54-.75-.8-1.14s-.72,0-.52.3a3.28,3.28,0,0,1,.41.94l.55-.23-1.55-2.77-.51.3c.65.85.73,2,1.25,2.88.19.34.69,0,.52-.3a7.25,7.25,0,0,0-1.15-1.68.3.3,0,0,0-.5.29l.62,2.44c.09.38.64.21.57-.16a14.75,14.75,0,0,0-.73-2.62c-.13-.36-.69-.22-.58.16a9.59,9.59,0,0,1,.42,2.26h.59l-.09-1.21c0-.31-.53-.43-.59-.08a9.88,9.88,0,0,1-.8,2.54.3.3,0,0,0,.47.36l.64-.54-.51-.22a1.35,1.35,0,0,1-.14.66c-.13.33.37.49.55.23a4.56,4.56,0,0,0,.65-1.44L38.26,38l-.3,1.3a.3.3,0,0,0,.58.16,4.06,4.06,0,0,0,.09-3.24.28.28,0,0,0-.26-.15H38.3a.3.3,0,0,0-.26.15l0,.07c-.15.35.37.65.52.3Z"/><path class="cls-3" d="M33,32a3.12,3.12,0,0,1,.12,3.14c-.17.34.34.65.52.3a3.75,3.75,0,0,0-.12-3.75c-.21-.32-.72,0-.52.31Z"/><path class="cls-3" d="M34.13,35.23a5.32,5.32,0,0,0,0-3.11.3.3,0,0,0-.58.16l.18,1.17.58-.16a14.09,14.09,0,0,1-.44-1.44l-.55.23a12.11,12.11,0,0,1,1,2.13.3.3,0,0,0,.57-.16l-.12-.43c-.07-.22-.44-.31-.55-.07l-.11.26a.29.29,0,0,0,.25.44.51.51,0,0,0,.55-.42c.11-.42-.25-.61-.29-1l-.51.21.49.58c.25.29.67-.13.42-.42l-.49-.58a.3.3,0,0,0-.51.21c0,.16.17.82.34.82l.26.45.12-.26-.55-.07.13.43.57-.16a11.93,11.93,0,0,0-1-2.27.3.3,0,0,0-.55.23,14.09,14.09,0,0,0,.44,1.44.3.3,0,0,0,.58-.16l-.18-1.17-.58.16a4.66,4.66,0,0,1,0,2.79.3.3,0,0,0,.58.16Z"/><path class="cls-3" d="M28.24,28.35q1.36,2,2.88,3.93c.24.3.66-.13.42-.42-1-1.24-1.9-2.5-2.78-3.81-.21-.31-.73,0-.52.3Z"/><path class="cls-3" d="M24.09,21.94v0a.3.3,0,0,0-.14-.34.33.33,0,0,0-.32,0,.31.31,0,0,0-.22.29c0,.36.36.72.56,1s.74,0,.51-.31c-.1-.13-.49-.53-.47-.69l-.22.29h-.14l-.14-.34v0c-.12.36.46.52.58.16Z"/><path class="cls-3" d="M23.83,20.32a39,39,0,0,0-3.57-6,.3.3,0,0,0-.55.23,8,8,0,0,0,1.58,2.72l1,1.53a5,5,0,0,1,.91,1.42l.28-.38h0l.3.3v0a.3.3,0,0,0-.59,0v0a.31.31,0,0,0,.3.3h0a.3.3,0,0,0,.29-.37,8.1,8.1,0,0,0-1.47-2.33c-.64-1-1.82-2.19-2-3.34l-.55.23a39.85,39.85,0,0,1,3.58,6c.17.35.68,0,.51-.3Z"/><path class="cls-3" d="M23.33,20.09l.15.26s.13.26.11.17l.55-.23-.06-.1c-.2-.32-.72,0-.51.31a.41.41,0,0,0,.05.09.3.3,0,0,0,.55-.23,2.49,2.49,0,0,0-.33-.57.3.3,0,0,0-.51.3Z"/><path class="cls-3" d="M19.59,15q1.92,2.87,3.69,5.85a.3.3,0,0,0,.52-.3q-1.77-3-3.69-5.86c-.21-.31-.73,0-.52.31Z"/><path class="cls-3" d="M22.45,19.06a3.78,3.78,0,0,1,.61,1.26c.08.33,0,.62.32.83a.3.3,0,0,0,.36,0l0,0a.32.32,0,0,0,.05-.37l0,0a.31.31,0,0,0-.41-.11h0c-.34.17,0,.69.31.52h0L23.28,21l0,.05.05-.37,0,0,.36-.05c.07.05,0-.39-.05-.47a3.89,3.89,0,0,0-.67-1.4c-.22-.31-.74,0-.51.3Z"/><path class="cls-3" d="M17.18,13.34,18,14.6c.14.23.28.6.57.67a.3.3,0,0,0,.36-.21l0,0a.32.32,0,0,0-.21-.37h0c-.37-.12-.52.45-.16.58h0l-.21-.37v0l.37-.21a3.84,3.84,0,0,0-.22-.39l-.25-.39L17.69,13c-.2-.32-.72,0-.51.3Z"/><path class="cls-3" d="M32,32.46a7.85,7.85,0,0,1,1.26,3.26c0,.33.61.26.58-.08A8.7,8.7,0,0,0,32.79,32l-.52.3.79,1.19c.18.27.66.11.55-.23l-.35-1.1-.58.16c.2.6.42,1.18.67,1.75.14.3.66.09.55-.23a13.13,13.13,0,0,0-.84-1.92c-.18-.35-.67,0-.52.3l.1.22c.16.35.68,0,.52-.31l-.1-.21-.52.3A11.3,11.3,0,0,1,33.32,34l.55-.23c-.23-.53-.43-1.06-.61-1.61-.12-.36-.7-.21-.58.16l.35,1.1.55-.23L32.79,32a.3.3,0,0,0-.52.3,8.12,8.12,0,0,1,1,3.39l.58-.08a8.06,8.06,0,0,0-1.32-3.4c-.21-.32-.73,0-.51.3Z"/><path class="cls-3" d="M34.73,34a.74.74,0,0,0,.58.09.3.3,0,0,0,.18-.44.66.66,0,0,0-1.05-.19c-.29.26.13.68.42.42L35,34l.18-.44-.12,0c-.32-.2-.62.31-.3.52Z"/><path class="cls-3" d="M16.78,9.83a4.65,4.65,0,0,1-.11,2.51l.58.16a13.52,13.52,0,0,0,.25-3h-.6c.07.59.12,1.17.15,1.77a.3.3,0,0,0,.59.08,3.55,3.55,0,0,0,.09-.79.3.3,0,0,0-.6,0v.65a.3.3,0,0,0,.59.07,3,3,0,0,0,.08-1,.3.3,0,0,0-.59,0V11a.3.3,0,0,0,.6,0V10l-.55.15a3.33,3.33,0,0,1,.43.65c.09.37-.26.63-.47.88l.47.36.45-.76a.3.3,0,0,0-.4-.41l-.32.22.43.17L18,11l-.51-.21v.44a.3.3,0,0,0,.59,0v-.44a.3.3,0,0,0-.51-.21.72.72,0,0,0-.24.8.3.3,0,0,0,.44.18l.32-.21L17.63,11l-.46.76c-.17.28.25.62.47.36s.75-.68.77-1.08-.44-.86-.64-1.17a.3.3,0,0,0-.55.15v1h.6v-.77h-.59a2.72,2.72,0,0,1-.07.85l.59.08v-.65h-.6a2.65,2.65,0,0,1-.07.63l.59.08c0-.6-.08-1.18-.15-1.77-.05-.37-.62-.4-.6,0a12.68,12.68,0,0,1-.23,2.88.3.3,0,0,0,.58.16,5.33,5.33,0,0,0,.11-2.83c-.06-.38-.63-.22-.58.16Z"/><path class="cls-3" d="M25.7,22.47a17.75,17.75,0,0,1,2.11,4.76c.08.38.65.22.58-.16a18.05,18.05,0,0,0-2.18-4.9c-.18-.34-.69,0-.51.3Z"/><path class="cls-3" d="M26.22,22.28a20.37,20.37,0,0,1,2,4.31l.55-.23-.43-.84a.3.3,0,0,0-.55.15,8.67,8.67,0,0,0,.06.88c0,.37.61.39.59,0a2.21,2.21,0,0,0-.17-.84c-.14-.35-.68-.22-.57.16l.23.79c.09.31.62.27.58-.08A15.44,15.44,0,0,0,26.87,22l-.52.31,2,3.83a.3.3,0,0,0,.55-.23,6.26,6.26,0,0,0-.59-1.32.3.3,0,0,0-.52.3l.59,1.2c.14.3.66.09.54-.23L28.19,24l-.54.23a16.18,16.18,0,0,0,.87,1.65c.17.28.67.1.55-.23-.2-.51-.42-1-.67-1.49l-.52.3c.29.48.57,1.29,1.05,1.6a.3.3,0,0,0,.45-.25v0a.3.3,0,0,0-.3-.3h0a.3.3,0,0,0-.25.45l-.15.38.33.44.35-.61a.32.32,0,0,0,0-.37,29.19,29.19,0,0,1-2.34-3.92l-.51.3q1.37,2.13,2.7,4.28l.51-.3-.19-.28c-.22-.32-.73,0-.52.3l.2.28c.21.32.72,0,.51-.3q-1.34-2.14-2.7-4.28a.3.3,0,0,0-.51.3,30.16,30.16,0,0,0,2.43,4.05l-.05-.36-.34.61a.3.3,0,0,0,.34.44.76.76,0,0,0,.5-1.26l-.26.44h0l-.3-.29v0l.45-.26c-.32-.21-.63-1.06-.83-1.39a.3.3,0,0,0-.52.3,13.61,13.61,0,0,1,.61,1.35l.55-.23a17.56,17.56,0,0,1-.88-1.66c-.14-.3-.66-.08-.54.23l.69,1.93.55-.23-.58-1.2-.52.3a5.33,5.33,0,0,1,.53,1.17l.55-.23-2-3.83c-.18-.34-.67,0-.52.31a14.68,14.68,0,0,1,1.52,4.23l.58-.08-.23-.79-.57.16a1.57,1.57,0,0,1,.15.68h.59a8.65,8.65,0,0,1-.05-.88l-.56.15.42.84a.3.3,0,0,0,.55-.23,21,21,0,0,0-2-4.45.3.3,0,0,0-.51.3Z"/><path class="cls-4" d="M14,28.54c.15.46.41.7.8.71.75.14.38-.21-1.12-1.06-.23-.22-.68.07-.47.36a30.17,30.17,0,0,0,1.72,2.52c.66.71,1.36,1.27.31-.29-.9-1.34-1.24-1,.28,1.09.64.87,1.24,1.77,1.84,2.67.21.32.72,0,.51-.3s-2.1-3.6-2.19-3.58c-.77.21,1.48,3.07,1.84,3.4,2.15,1.95.57-.12-.16-1.22-.54-.82-2.12-3.55-1.07-.94a42.64,42.64,0,0,0,2.53,3.78c1-.27-1.59-3.42-1.73-3.41-1.13.07,1.05,2.39,1.42,2.93s2.7,4.58,1.6,1.66c-.37-1-2.48-3.13-.95-.76.18,1,.53,1.25,1.05.7l-1.35-2c-.85-1.23-3.07-3.57-.44,0,.21.29,2.42,3.75,2.46,3.74.87-.3-1.44-3.08-1.76-3.58-.46-.72-.92-1.44-1.36-2.17q-1.23-.14.06.9c.36,1,2,3,.87.49a22.79,22.79,0,0,0-2.7-3.69c-.22-.31-.73,0-.51.3l3,4.63c2.74,4.16.2-1.46-.62-1-.34.22,1.94,3.4,2.33,3.84,2,2.27.05-1-.56-1.93a.3.3,0,0,0-.52.3c.86,1.62,1.78,3.19,2.77,4.73a.3.3,0,0,0,.52-.3l-1.28-2.32c-.64-.13-.72,0-.23.46A26.49,26.49,0,0,0,23,42.35c.22.31.73,0,.52-.31s-3-4.09-2.8-4.29c-.55.71,1.63,2.62,2.24,3.34.22.26.67-.09.47-.36A30,30,0,0,0,21,37.27c-1.42-1.43-.83-.54-.08.61a27.54,27.54,0,0,0,2.22,3.46c.62.69,1.82,1.48.36.4-.25-.19-.57.16-.41.4l1.62,2.5c.21.32.71,0,.51-.3a24.42,24.42,0,0,0-2-2.86c-.21-.27-.67.08-.47.36l2,2.89a.3.3,0,0,0,.51-.31l0,.42c.24.2.65-.05.47-.36-.53-.86-1.28-2.56-2.1-2.78-.48-.13,1.33,2.33,1.55,2.62a.3.3,0,0,0,.51-.3,11.51,11.51,0,0,0-1.23-2c-.22-.31-.72,0-.52.31a13.33,13.33,0,0,0,1.71,2.3c.23.24.68-.09.47-.36s-2.43-3.64-2.73-3.58c-1.61.33,1.95,2.7,2.13,2.86-.28-.26-.71.16-.42.42l.26.24c.24.21.69-.08.47-.37l-3.12-4c-.23-.3-.75,0-.52.3l1.71,2.24.68.9c.4.71.51.57.35-.4-.32,1,0,0,.16.36a17.69,17.69,0,0,0-1.82-2.52c-.22-.31-.73,0-.51.3a13.62,13.62,0,0,0,2.18,2.85c-.25-.2-.65,0-.47.36A.83.83,0,0,0,24.28,43c-.48-.84-.54-.61-.2.68l.55-.15c-.62-1.08-.7-1.12-.26-.13a.3.3,0,0,0,.47-.36q-2.47-4-5.06-7.88c-.18-.27-.67-.11-.55.23a15,15,0,0,0,2.14,3.5c.25.34,1,2,1.19.78.08-.53-2.25-2.67-2.56-3s-.65.08-.47.37c.43.65,2.54,4.45,3.1,4.24s-1.76-3-2.16-3.56A.3.3,0,0,0,20,38c.29.52,1,2.48,1.55,2.28s-.56-1.54-.84-1.91c-1.79-2.39.17,1,.71,1.89.21.32.73,0,.52-.31-1.4-2.21-2.87-4.35-4.42-6.45-.23-.31-.74,0-.52.3,1,1.49,2.1,2.92,3.25,4.31.21.26.65-.08.47-.36l-2-3.09c-.24-.36-1.64-3-2-3.08-1.3-.39.77,1.95.83,2l2,2.77c.23.31.72,0,.52-.3A50.79,50.79,0,0,0,17,31.73c-.23-.29-.72,0-.52.3q2.34,3.82,4.87,7.51c.21.31.71,0,.51-.3a49.15,49.15,0,0,0-5.16-7.39c-.21-.26-.66.08-.47.36l4.05,5.87c.22.31.72,0,.52-.3q-1.18-2-2.51-3.9a.3.3,0,0,0-.51.3,36.06,36.06,0,0,0,3.12,4.88c.21.26.65-.08.47-.37Q19,34.85,16.36,31.23c-.22-.3-.73,0-.51.3q1.7,2.61,3.53,5.11c.22.31.72,0,.51-.3q-2.13-3.36-4.44-6.6a.3.3,0,0,0-.52.3,52.26,52.26,0,0,0,4,6c.23.3.74,0,.52-.31l-4.3-6a.3.3,0,0,0-.51.3,14.93,14.93,0,0,0,1.57,2.72c.49.52,1.14,1.43.74.12S14.77,30,14,29c-.21-.26-.65.09-.46.37l2.38,3.53a.3.3,0,0,0,.51-.3c-.63-1.2-1.46-2.3-2.1-3.49-.41,0-.53.09-.35.2a7.9,7.9,0,0,0,1.5,1c.3.18.57-.22.36-.47l-1.63-1.95a.3.3,0,0,0-.36,0c-.39.27-.38.28-.45.76s.55.37.6,0Z"/><path class="cls-4" d="M11.27,31.17l.07-.26h-1l1.78,2.81L13,33a3.62,3.62,0,0,1-1.49-1.9l-1,.6q3.62,4.93,7.06,10a.6.6,0,0,0,1-.6c-1.21-2.82-3.21-5.27-4.94-7.78a.6.6,0,0,0-1,.61c1.71,3,3.52,5.95,5.48,8.81,1.11,1.62,2.15,4,4.14,4.59.47.15,1-.44.67-.87l-5.09-7c-.44-.62-1.48,0-1,.6l5.09,7,.68-.88c-2-.61-4-4.89-5.12-6.58-1.33-2.05-2.58-4.15-3.79-6.28l-1,.61c1.73,2.5,3.73,4.95,4.94,7.77l1-.6q-3.44-5.07-7.06-10a.6.6,0,0,0-1,.6,5.73,5.73,0,0,0,1.67,2.15c.49.4,1.33-.11.94-.73L11.34,30.3a.61.61,0,0,0-1,0,1,1,0,0,0-.24.87c.08.76,1.27.77,1.2,0Z"/><path class="cls-4" d="M7.21,33.46l5.73,8.9c.45.7,1.72.27,1.42-.6A15,15,0,0,0,12,37.42c-.55-.7-1.67.2-1.22.94,1.14,1.9,2.2,3.9,3.5,5.7s3,3.32,4.2,5.37c.52.88,1.75.11,1.35-.79-1.1-2.44-3.54-3.91-4.56-6.38-.37-.91-1.87-.51-1.49.42,1.08,2.63,3.56,4.18,4.7,6.75l1.35-.79a45.32,45.32,0,0,0-4-5.08,55.93,55.93,0,0,1-3.74-6l-1.22.94a11.91,11.91,0,0,1,2,3.65l1.42-.59-5.73-8.9c-.54-.84-1.89-.06-1.34.78Z"/><path class="cls-4" d="M14.72,41.75l-.3-.33c-.69-.73-1.79.37-1.1,1.09l.31.33c.68.73,1.78-.37,1.09-1.09Z"/><path class="cls-4" d="M4.44,36.19c1.13.42,2.47,3.3,3.14,4.3.55.82,1.89,0,1.34-.79a38,38,0,0,0-3.49-4.51c-.59-.64-1.73.21-1.22,1L9.62,44c.57.81,1.88.08,1.35-.78l-1.8-2.87-1.34.79a135.65,135.65,0,0,0,8.1,11.24c.48.61,1.55,0,1.3-.75a3.94,3.94,0,0,0-1-1.75c-.64-.77-1.73.33-1.1,1.09l.6,1.07,1.3-.75A133.85,133.85,0,0,1,9.17,40.33c-.53-.84-1.87-.06-1.34.79L9.62,44,11,43.2,5.55,35.35l-1.22.94a33.86,33.86,0,0,1,3.25,4.2l1.34-.79c-1.11-1.65-2.1-4.28-4.07-5-.94-.34-1.35,1.16-.41,1.5Z"/><path class="cls-4" d="M31.94,14.8A5.88,5.88,0,0,1,33.4,17l1.22-.94-2.11-2.6c-.55-.68-1.75.23-1.22.94L39.74,25.5a32.21,32.21,0,0,1,2.81,4.25c.55,1,.54,1.24,1.56,1.62A.78.78,0,0,0,45,30.23a33.81,33.81,0,0,0-3.82-4.8c-.69-.72-1.78.38-1.09,1.1A32.79,32.79,0,0,1,43.65,31l.87-1.14c-.73-.27-1.42-2.38-1.86-3-1-1.46-2.12-2.83-3.19-4.23l-6.84-9-1.22.94,2.11,2.61c.6.73,1.56-.21,1.22-1A9.07,9.07,0,0,0,33,13.71c-.67-.75-1.77.36-1.1,1.09Z"/><path class="cls-4" d="M35,12.37l.74,1.11,1.06-1.06-.59-.36c-.62-.38-1.54.42-1.06,1.06,2.33,3.07,4.61,6.19,6.8,9.36C43.24,24.41,44.62,28,46.79,29c.64.31,1.54-.37,1.06-1.06L47,26.71c-.56-.82-1.91-.05-1.34.78l.87,1.27,1.07-1.06c-1.28-.62-2.5-3.33-3.3-4.5s-1.61-2.34-2.42-3.5Q39.22,16,36.45,12.34L35.39,13.4l.59.36A.78.78,0,0,0,37,12.7a5.37,5.37,0,0,0-1-1.42c-.65-.77-1.74.33-1.1,1.09Z"/><path class="cls-4" d="M37.77,10.1c2.53,3.24,5,6.56,7.31,10,1.54,2.24,2.81,4.78,5,6.46.79.6,1.56-.75.78-1.35-2.71-2.07-4.54-6.08-6.51-8.83-1.77-2.49-3.61-4.92-5.49-7.33-.62-.79-1.71.32-1.1,1.1Z"/><path class="cls-4" d="M40.9,7.65,52.68,24.09c.57.8,1.92,0,1.34-.79L42.24,6.87c-.58-.8-1.92,0-1.34.78Z"/><path class="cls-2" d="M29.66,28.52l.11.07c.56.41,1.1-.52.54-.93l-.1-.07c-.56-.41-1.1.52-.55.93Z"/><path class="cls-2" d="M40.29,22l0,.06c-.3.62.63,1.16.93.54l0-.06c.3-.62-.63-1.17-.93-.54Z"/><path class="cls-2" d="M48.61,13.62l-.15,0a.53.53,0,0,0-.37.37c-.16.5.35.85.77,1a3,3,0,0,0,1.72-.13c.64-.23.37-1.27-.29-1a2.38,2.38,0,0,1-.65.16c-.08,0-.55,0-.58,0l0,.42v0l-.37.37.14,0c.68-.14.39-1.18-.28-1Z"/><path class="cls-2" d="M9.36,45.65l0,0-.52.14h0v-1h0c-.68.15-.39,1.18.29,1h0a.54.54,0,0,0,0-1h0a.55.55,0,0,0-.52.14l0,0c-.43.53.32,1.3.76.76Z"/><path class="cls-1" d="M27.31,28.93a16.58,16.58,0,0,0,1.77,2.55c.44.54,1.19-.23.76-.76a16,16,0,0,1-1.6-2.33.54.54,0,0,0-.93.54Z"/><path class="cls-1" d="M31.42,38.91a.12.12,0,0,1,.08-.11c.63-.29.08-1.22-.54-.93a1,1,0,0,0-.47.5c-.28.63.64,1.17.93.54Z"/><path class="cls-3" d="M18.25,10.48a.69.69,0,0,0-.4.31.54.54,0,0,0,.93.54l0,0-.32.25,0,0c.66-.21.38-1.25-.28-1Z"/><path class="cls-3" d="M28.13,28.13a1.29,1.29,0,0,1,.22.3c.37.58,1.3,0,.93-.54a5,5,0,0,0-.39-.52c-.44-.53-1.2.24-.76.76Z"/><path class="cls-3" d="M28,28a2,2,0,0,0,.43.58c.52.46,1.28-.3.76-.76a1.36,1.36,0,0,1-.27-.36c-.31-.62-1.23-.08-.92.54Z"/><path class="cls-3" d="M34.07,31.35l0-.08c-.3-.51-1.21-.17-1,.41L33.55,33A3.51,3.51,0,0,1,34,34.25l.16-.38,0,0h.75a.54.54,0,0,0-.76.76h0a.55.55,0,0,0,.76,0c.41-.32.1-1,0-1.37l-.74-1.88-1,.41,0,.08a.54.54,0,0,0,.93-.54Z"/><path class="cls-3" d="M32.27,32.53A8.33,8.33,0,0,1,33,35.16c.07.68,1.14.69,1.07,0A9.49,9.49,0,0,0,33.2,32c-.29-.63-1.22-.08-.93.54Z"/><path class="cls-3" d="M36.66,33.16a3.19,3.19,0,0,0,.44,1l.62,1.23c.32.62,1.24.08.93-.54l-.49-1-.22-.44s-.22-.46-.2-.3c-.09-.67-1.16-.68-1.08,0Z"/><path class="cls-3" d="M39.22,33.33l0-.07-.9.52a12.49,12.49,0,0,1,1.51,2.51c.34.61,1.26.07.93-.54A13.63,13.63,0,0,0,39.05,33a.54.54,0,0,0-.9.52l0,.08c.23.64,1.27.36,1-.29Z"/><path class="cls-3" d="M38.41,37.39A3.21,3.21,0,0,1,38,38.54c-.33.61.6,1.15.93.54a4.24,4.24,0,0,0,.57-1.69c.05-.69-1-.69-1.07,0Z"/><path class="cls-1" d="M36.18,35.24l0,0,.14.51v-.05l-.36.36c-.11,0-.1,0,0,.06.54.39,1.06-.51.52-.9a.93.93,0,0,0-.82-.16.52.52,0,0,0-.36.36.58.58,0,0,0,.15.59c.45.5,1.19-.24.74-.73Z"/><path class="cls-3" d="M26.45,23.59a5.7,5.7,0,0,1,.38,4.48c-.14.36.43.51.57.16A6.32,6.32,0,0,0,27,23.29c-.16-.35-.68-.05-.52.3Z"/><path class="cls-3" d="M27.55,26.25l-.22.94a.3.3,0,0,0,.58.16l.18-.61c.11-.37-.46-.52-.58-.16l-.18.61.58.16.22-.94c.09-.38-.49-.54-.58-.16Z"/><path class="cls-3" d="M25.9,22.48c.72,1.57,1.49,3.67.86,5.38-.13.36.45.51.58.16.69-1.87-.14-4.13-.92-5.84-.16-.35-.68-.05-.52.3Z"/><path class="cls-1" d="M31.42,37.92a.79.79,0,0,1,.14-.23l-.28,0,0,.12.05,0a.06.06,0,1,0,0-.11h0c-.06,0-.06.12,0,.12s.43.05.54-.1a.06.06,0,0,0,0-.06c-.15-.23-.54,0-.52.25a.06.06,0,0,0,.12,0Z"/><path class="cls-1" d="M31.43,37.66h-.05l.07.09.12-.14-.07-.09-.31.39a.06.06,0,1,0,.08.08l.51-.41-.09-.09-.27.23c-.06.05,0,.13.08.08a1.44,1.44,0,0,1,.39-.25l-.08-.09a2.88,2.88,0,0,1-.39.3l.07.09a1.6,1.6,0,0,1,.28-.22l-.08-.09-.48.4c-.06,0,0,.14.09.09l.48-.4s0-.14-.07-.1a1.76,1.76,0,0,0-.3.24.06.06,0,0,0,.07.09,4.23,4.23,0,0,0,.42-.32c.05,0,0-.12-.07-.09a1.94,1.94,0,0,0-.41.27l.08.08.28-.22c.06-.05,0-.14-.09-.09l-.5.42.08.08.31-.39s0-.13-.07-.09a.42.42,0,0,0-.17.18.06.06,0,0,0,.07.09h.05c.08,0,0-.14,0-.12Z"/><path class="cls-3" d="M16.82,9.88a9.28,9.28,0,0,1-.27,3,.06.06,0,1,0,.12,0,9.47,9.47,0,0,0,.27-3,.06.06,0,0,0-.12,0Z"/><path class="cls-3" d="M22.73,19.86a6.86,6.86,0,0,1,.61,1.75c0,.08.12.05.11,0a6.72,6.72,0,0,0-.62-1.78c0-.07-.13,0-.1.06Z"/><path class="cls-3" d="M26.91,27.56a2.57,2.57,0,0,1-.48.89c-.05.06,0,.14.09.08a2.87,2.87,0,0,0,.51-.94.06.06,0,1,0-.12,0Z"/><path class="cls-3" d="M26.9,27.55l-.54,1.1c0,.06.07.12.1.06l.54-1.1c0-.07-.07-.13-.1-.06Z"/><path class="cls-3" d="M32.55,33.18a7.31,7.31,0,0,1,.5,1.83.06.06,0,1,0,.12,0,7.14,7.14,0,0,0-.51-1.86c0-.07-.14,0-.11,0Z"/><path class="cls-3" d="M33,34.52a5.65,5.65,0,0,1,0,1.3c0,.08.11.08.12,0a5.65,5.65,0,0,0,0-1.3c0-.08-.13-.08-.12,0Z"/></g><g id="Layer_7" data-name="Layer 7"><path class="cls-5" d="M9.93,13.79l3.16-.25c.68,0,.69-1.13,0-1.07l-3.16.24c-.68,0-.69,1.13,0,1.08Z"/><path class="cls-5" d="M12.15,17.48c1.22.24,1.67-1.61,1.93-2.47a.54.54,0,0,0-1-.29,8.29,8.29,0,0,1-.35,1c-.06.15-.13.3-.2.44s-.24.26-.05.29c-.68-.13-1,.91-.29,1Z"/><path class="cls-5" d="M19.19,9.1a16.71,16.71,0,0,1,.55-2.6.53.53,0,0,0-1-.28,18.89,18.89,0,0,0-.6,2.88c-.08.69,1,.68,1.08,0Z"/><path class="cls-5" d="M19.56,10.91a5.61,5.61,0,0,0,2.44-.3c.65-.23.37-1.27-.28-1a4.8,4.8,0,0,1-2.16.25c-.68-.07-.68,1,0,1.08Z"/><path class="cls-5" d="M39,34.06a10.06,10.06,0,0,1,1.17,1.5l.73-.74a8.06,8.06,0,0,1-1.45-1.41c-.38-.47-1.2.15-.84.65l1.64,2.3c.4.56,1.33,0,.93-.54l-1.65-2.3-.84.65a9.26,9.26,0,0,0,1.67,1.58c.44.33,1-.3.74-.73a11.18,11.18,0,0,0-1.34-1.72c-.48-.51-1.24.25-.76.76Z"/><path class="cls-5" d="M29.28,41a25.38,25.38,0,0,1,1.64,2.11l.84-.65a10.58,10.58,0,0,1-1.25-2.06c-.29-.63-1.22-.08-.93.54A12.44,12.44,0,0,0,31,43.19c.37.48,1.19-.15.84-.65A23.72,23.72,0,0,0,30,40.21c-.45-.52-1.21.24-.76.76Z"/><path class="cls-5" d="M27.81,29.05A9.61,9.61,0,0,1,30.16,32l.46-.81c-.2,0-.82-1.26-.94-1.47l-1-1.6a.54.54,0,0,0-1,.27v.23a.54.54,0,0,0,1.07,0v-.23l-1,.28,1.44,2.4c.32.53.65,1.28,1.39,1.2a.55.55,0,0,0,.47-.81,10.61,10.61,0,0,0-2.52-3.17c-.53-.44-1.29.32-.76.76Z"/><path class="cls-5" d="M23.12,22.31l.31.48c.38.58,1.31,0,.93-.54l-.31-.49c-.38-.57-1.31,0-.93.55Z"/><path class="cls-5" d="M16.88,13.84a4.4,4.4,0,0,1,.71.72l.76-.76-.07-.09c-.45-.53-1.21.23-.76.76l.07.09c.45.53,1.19-.23.76-.76a4.4,4.4,0,0,0-.71-.72c-.54-.44-1.3.32-.76.76Z"/><path class="cls-5" d="M16.81,14l1,1.22c.44.53,1.2-.23.76-.76l-1-1.22c-.44-.53-1.2.23-.76.76Z"/><path class="cls-6" d="M19.07,9.26a17.79,17.79,0,0,1,.51-2.41l-.24.32.05,0-.65-.09,0,0-.14-.52v0l.51-.39h0a.54.54,0,0,0,0,1.07h0a.53.53,0,0,0,.52-.39.59.59,0,0,0-.15-.59.56.56,0,0,0-.65-.08c-.38.25-.39.7-.47,1.11L18,9c-.14.68.89,1,1,.29Z"/><path class="cls-6" d="M19.7,11.15l2.23-.68a.54.54,0,0,0-.29-1l-2.22.68c-.66.2-.38,1.24.28,1Z"/><path class="cls-6" d="M21.31,10.38v.08a.54.54,0,0,0,1.08,0v-.08a.54.54,0,0,0-1.08,0Z"/><path class="cls-6" d="M17.32,13.42l.85,1.32c.38.57,1.31,0,.93-.55l-.86-1.32c-.37-.57-1.3,0-.92.55Z"/><path class="cls-6" d="M23.59,22l.23.4c.33.61,1.26.07.92-.54l-.22-.41a.54.54,0,0,0-.93.55Z"/><path class="cls-6" d="M28.05,28.39,31,32.28c.42.55,1.35,0,.93-.54l-3-3.9c-.41-.54-1.34,0-.92.55Z"/><path class="cls-6" d="M39.48,34.13l0-.07-.32.25c-.32-.16-.4-.13-.26.08s.1.2.16.3a5.19,5.19,0,0,0,.31.5,6.52,6.52,0,0,0,.8.94.54.54,0,0,0,.84-.66q-.6-1.24-1.29-2.46a.54.54,0,0,0-.93.55c.47.8.89,1.62,1.29,2.46l.85-.65a7.88,7.88,0,0,1-1.2-1.73.68.68,0,0,0-1.21-.06c-.3.62.63,1.17.93.55Z"/><path class="cls-5" d="M29.88,32l0,0c-.49.5.27,1.26.76.77l0-.05c.48-.49-.28-1.25-.76-.76Z"/><path class="cls-5" d="M30.57,40.19l-.06,0a.54.54,0,0,0-.55.93l.06,0a.54.54,0,0,0,.55-.93Z"/><path class="cls-5" d="M29.76,40.83l0,0c.48.49,1.24-.27.76-.76l0,0c-.49-.5-1.25.27-.76.76Z"/><path class="cls-5" d="M32.25,42.66V42.6a.54.54,0,0,0-1.07,0v.06a.54.54,0,0,0,1.07,0Z"/><path class="cls-5" d="M31.13,42.45h0a.54.54,0,0,0,0-1.07h0a.54.54,0,0,0,0,1.07Z"/><path class="cls-5" d="M27.51,29.2h0a.54.54,0,0,0,0-1.08h0a.54.54,0,0,0,0,1.08Z"/><path class="cls-5" d="M22.82,23c.06.07.21.35.18.09.08.68,1.16.69,1.07,0a1.57,1.57,0,0,0-.49-.85c-.46-.53-1.21.24-.76.76Z"/><path class="cls-5" d="M13.32,17.52l.16-.21c.41-.56-.52-1.09-.93-.54l-.15.2c-.42.56.52,1.1.92.55Z"/><path class="cls-5" d="M9.64,13.87a6.23,6.23,0,0,0,2.85,0,.54.54,0,0,0-.28-1,5,5,0,0,1-2.28,0c-.68-.12-1,.92-.29,1Z"/><path class="cls-6" d="M19.72,6.77h0L19,6.44l0,.07c-.14.67.9,1,1,.28a1.27,1.27,0,0,0,0-.64.55.55,0,0,0-.79-.32h0c-.62.33-.07,1.26.54.93Z"/><path class="cls-6" d="M21.58,10l0,.4c0,.69,1.12.7,1.07,0l0-.4c0-.68-1.12-.69-1.08,0Z"/><path class="cls-6" d="M17.2,13.13a2.71,2.71,0,0,0,.5.91c.24.34.49.67.75,1,.43.54,1.19-.23.76-.76-.2-.26-.39-.52-.58-.79a2.28,2.28,0,0,1-.4-.64c-.1-.68-1.14-.39-1,.28Z"/><path class="cls-6" d="M23.55,22c.31.36.5,1,1,1.14a.52.52,0,0,0,.52-.13v0c.45-.52-.31-1.28-.76-.76v0l.52-.14c.17,0,.07,0,0-.07a1.81,1.81,0,0,0-.19-.29,3.68,3.68,0,0,0-.37-.51c-.46-.52-1.22.25-.76.76Z"/></g><g id="Layer_8" data-name="Layer 8"><path class="cls-7" d="M4.17,35.83l6.36,9c1.68,2.37,3.21,5,5.29,7a.54.54,0,0,0,.84-.65,78.8,78.8,0,0,0-5.34-8c-2-2.64-5.32-5.27-6.39-8.47L4,35.25a46.28,46.28,0,0,1,3.88,5.44c.36.59,1.29.05.93-.54a48.12,48.12,0,0,0-4-5.66.54.54,0,0,0-.9.53c.88,2.66,3,4.46,4.75,6.57a74.38,74.38,0,0,1,7.09,10.15l.84-.66c-2.29-2.25-4-5.25-5.87-7.88L5.1,35.28c-.4-.56-1.33,0-.93.55Z"/><path class="cls-7" d="M7.18,33.51,10,37.32c.41.55,1.34,0,.93-.54q-1.42-2-2.78-4c-.38-.58-1.3,0-.92.54l6.15,9.4a.53.53,0,0,0,.92-.54l-3-5.24-.93.54q2.49,4,5.2,7.83c.4.56,1.32,0,.93-.54l-3-4.41-.93.54,4.17,5.57.93-.54L14.2,41.4l-.84.65a69.72,69.72,0,0,1,4.74,6.21L19,47.6l-1.87-2a.54.54,0,0,0-.85.65,12,12,0,0,0,2.71,3.39c.43.38,1.21-.12.85-.66Q14,40.45,7.58,32.38c-.43-.54-1.19.23-.76.76q6.33,8,12,16.38l.84-.65a11.64,11.64,0,0,1-2.54-3.17l-.84.65,1.87,2c.41.44,1.19-.14.84-.65a71.2,71.2,0,0,0-4.91-6.42c-.39-.46-1.22.16-.85.65l3.44,4.52c.41.54,1.34,0,.93-.54l-4.17-5.57c-.4-.54-1.32,0-.93.54l3,4.41.93-.54c-1.8-2.57-3.54-5.17-5.2-7.83a.54.54,0,0,0-.93.54l3,5.24.92-.54-6.15-9.4-.92.54c.89,1.35,1.82,2.69,2.77,4l.93-.54L8.11,33c-.4-.55-1.34,0-.93.54Z"/><path class="cls-7" d="M10.44,31l1.15,1.63.84-.65A8.26,8.26,0,0,1,11,30.21l-.84.65c2,2.29,3.9,4.65,5.68,7.12l.74-.74a17.82,17.82,0,0,1-4-4.62l-.84.65a76,76,0,0,1,6.05,8.45l.93-.55A40,40,0,0,1,16,37l-.93.54,5.48,7.88c.39.56,1.32,0,.93-.54l-2.31-3.38-.85.66A46.57,46.57,0,0,1,22,47l.84-.65-1.13-1.51c-.26-.63-1.3-.36-1,.28a4.63,4.63,0,0,0,1.41,2c.44.37,1.2-.11.84-.65a46,46,0,0,0-3.81-5.07c-.39-.46-1.19.14-.84.65l2.31,3.37.93-.54L16,37a.54.54,0,0,0-.93.54,43.06,43.06,0,0,0,2.67,4.15c.4.54,1.3.05.93-.55a79,79,0,0,0-6.22-8.66c-.39-.47-1.18.15-.85.65a19.27,19.27,0,0,0,4.42,5c.42.32,1-.31.73-.73C15,34.9,13,32.46,10.94,30.1c-.4-.46-1.18.14-.85.65a13.07,13.07,0,0,0,1.58,2,.54.54,0,0,0,.85-.65,10.92,10.92,0,0,0-1.32-1.85c-.43-.54-1.19.22-.76.76Z"/><path class="cls-7" d="M14.45,28l-.13-.1a.56.56,0,0,0-.65-.09l-.16.11a.56.56,0,0,0-.25.61c.65,1.89,2.65,3.79,3.83,5.37l.85-.65a27.54,27.54,0,0,1-3.07-4.58l-.93.55,6.23,8.87.84-.65C20,36.07,19,34.7,18,33.3l-.93.54L24.9,44.72c.4.55,1.3.06.93-.54A14.13,14.13,0,0,0,24.19,42l-.76.76A10.47,10.47,0,0,1,25,44.46c.41.54,1.31.06.93-.54a42.73,42.73,0,0,0-4.31-5.71c-.46-.52-1.22.24-.76.76A40.9,40.9,0,0,1,25,44.46l.93-.54A16.49,16.49,0,0,0,24.19,42c-.5-.49-1.22.25-.76.76a8.35,8.35,0,0,1,1.47,2l.93-.54L18,33.3c-.4-.55-1.33,0-.93.54q1.53,2.22,3.19,4.33c.38.48,1.2-.15.85-.65l-6.23-8.88a.54.54,0,0,0-.93.55A30.93,30.93,0,0,0,17.17,34c.39.47,1.22-.16.85-.65L16.2,30.91a10.41,10.41,0,0,0-2.51-2.18c.54.44,1.3-.32.76-.76Z"/><path class="cls-7" d="M32.05,14.48l2.15,3,.85-.65-2.56-3c-.39-.46-1.21.16-.84.65q3,3.91,6.23,7.55l.76-.76a18.24,18.24,0,0,1-4.48-5l-.92.54a68.57,68.57,0,0,0,7,9.17L41,25.3,37.72,22l-.76.76,2.39,2.32c.5.48,1.26-.28.76-.76L37.72,22a.54.54,0,0,0-.76.76l3.28,3.32c.49.49,1.23-.25.77-.76a66.07,66.07,0,0,1-6.85-8.95.53.53,0,0,0-.92.54,18.93,18.93,0,0,0,4.64,5.21.54.54,0,0,0,.76-.76Q35.44,17.8,32.58,14l-.85.65,2.56,3c.39.46,1.2-.15.84-.65l-2.15-3c-.4-.56-1.33,0-.93.55Z"/><path class="cls-7" d="M40.65,26.2a16.47,16.47,0,0,0,1,1.39l.65-.85a4.44,4.44,0,0,1-1.13-1l-.76.76a11.79,11.79,0,0,1,3.24,4.29l.85-.65a24.63,24.63,0,0,1-2.72-3.64c-.38-.58-1.31,0-.93.54a25.89,25.89,0,0,0,2.89,3.86c.45.47,1.08-.13.84-.65a12.61,12.61,0,0,0-3.41-4.51.54.54,0,0,0-.76.76,5.16,5.16,0,0,0,1.35,1.2c.56.36,1-.4.65-.84s-.56-.77-.81-1.17c-.36-.59-1.29-.05-.92.54Z"/><path class="cls-7" d="M35.18,12.32l4,6.12.93-.55c-1.49-2.09-2.87-4.24-4.16-6.46a.54.54,0,0,0-1,.27c.05,1.49,1.09,2.49,1.93,3.69l4.38,6.22a.54.54,0,0,0,.93-.55,22.48,22.48,0,0,0-1.56-2.74l-.84.65c1.66,2.13,3.24,4.31,4.75,6.56l.84-.65-2.49-2.72c-.48-.52-1.19.24-.76.76l4.57,5.71c.43.54,1.19-.22.76-.76l-4.57-5.71-.76.76,2.49,2.72c.41.44,1.19-.14.84-.66q-2.33-3.46-4.91-6.77c-.38-.48-1.18.15-.85.65a21.87,21.87,0,0,1,1.56,2.75l.93-.55L38.93,16.4c-.87-1.23-2.82-3.14-2.87-4.7l-1,.27c1.3,2.22,2.68,4.37,4.16,6.47.4.55,1.32,0,.93-.55l-4-6.11c-.38-.58-1.32,0-.93.54Z"/><path class="cls-7" d="M38,9.72l4.46,6,.85-.65A25.32,25.32,0,0,1,39.6,9.78l-.92.54a76.9,76.9,0,0,0,6,8l.76-.76a35.22,35.22,0,0,1-3-3.35c-.39-.48-1.15.14-.85.66a38.84,38.84,0,0,0,4.6,6.36c.41.45,1.2-.15.85-.65l-2.21-3.23L44,18a47.45,47.45,0,0,1,3.79,4.93l.84-.65L47.25,20.8c-.41-.43-1.21.15-.84.66,1.15,1.61,2.22,3.25,3.24,4.95a.54.54,0,0,0,1-.41l-.16-.82-.79.61.48.28a.54.54,0,0,0,.54-.93l-.48-.28a.54.54,0,0,0-.79.61l.16.81,1-.41c-1-1.7-2.1-3.34-3.25-5l-.84.66L47.9,23c.42.44,1.19-.13.85-.65a50.65,50.65,0,0,0-4-5.15c-.4-.45-1.19.15-.84.66l2.21,3.22.84-.65a37.79,37.79,0,0,1-4.43-6.15l-.84.65a35.22,35.22,0,0,0,3,3.35c.5.5,1.21-.24.76-.76A75.55,75.55,0,0,1,39.6,9.78a.53.53,0,0,0-.92.54,25.68,25.68,0,0,0,3.87,5.53c.4.45,1.21-.15.84-.65l-4.46-6c-.41-.55-1.34,0-.93.54Z"/><path class="cls-7" d="M41.42,7.27l.1.6.79-.61-.52-.32c-.56-.35-1,.39-.65.84l3.48,4.44.76-.76a5.67,5.67,0,0,1-1.92-2.35l-.84.66Q44.41,12,46,14.45l.73-.74a4.79,4.79,0,0,1-1.91-2.27l-.85.65,5.58,6.62c.45.53,1.19-.24.76-.76L49,16.31c-.33-.4-1.1,0-.9.52a12.74,12.74,0,0,0,1.2,2.28l.93-.54-.34-.45c-.4-.54-1.3-.07-.93.54A40.55,40.55,0,0,0,52.89,24c.4.47,1.16-.13.85-.65a79.2,79.2,0,0,0-4.65-6.8c-.42-.55-1.35,0-.93.54a76.3,76.3,0,0,1,4.65,6.8l.84-.65a39.38,39.38,0,0,1-3.75-5.15l-.93.54.34.45c.4.54,1.32,0,.93-.54a8.22,8.22,0,0,1-1.09-2l-.9.52,1.34,1.64.76-.76-5.58-6.62c-.41-.49-1.1.13-.84.65a6.88,6.88,0,0,0,2.3,2.66c.43.31,1-.3.73-.73Q45.25,11.39,43.38,9c-.39-.5-1.13.13-.85.65a8.72,8.72,0,0,0,2.09,2.56.54.54,0,0,0,.76-.76L41.9,7l-.65.85.52.32c.43.27.86-.18.79-.61L42.46,7c-.11-.69-1.15-.4-1,.28Z"/><path class="cls-7" d="M37.7,22a7,7,0,0,0,1.13,2.29l1.5,2.55a.53.53,0,0,0,.92-.54L40,24.05a7.45,7.45,0,0,1-1.21-2.36c-.1-.68-1.14-.39-1,.29Z"/><path class="cls-7" d="M35.19,12.67a.54.54,0,0,0,0-1.08.54.54,0,0,0,0,1.08Z"/><path class="cls-7" d="M41.55,22a4.58,4.58,0,0,0,.64.92c.47.51,1.23-.25.76-.76a3.06,3.06,0,0,1-.47-.7c-.31-.62-1.24-.07-.93.54Z"/><path class="cls-7" d="M44.87,25.46l1.94,3c.37.58,1.3,0,.92-.54l-1.93-3c-.37-.58-1.3,0-.93.54Z"/><path class="cls-7" d="M37.68,10.31a91.88,91.88,0,0,1,5.94,7.42,30.11,30.11,0,0,0,4,5.53c.49.48,1.25-.28.76-.76-2-1.95-3.13-4.53-4.81-6.73s-3.39-4.16-5.09-6.22c-.45-.53-1.2.23-.76.76Z"/><path class="cls-7" d="M40.68,7.75c1.64,2,3.37,4,4.88,6.16A45.86,45.86,0,0,0,49.08,19c.47.51,1.23-.25.76-.76-1.62-1.74-2.63-4-4.06-5.85S42.89,8.79,41.44,7c-.43-.54-1.19.23-.76.76Z"/><path class="cls-7" d="M14.37,28.57l0-.06-.91.71.13.15.82-.82-.09-.11.17.42v0l-.58.59-.37-.18c.36.66,1.36.08,1-.58a.73.73,0,0,0-.64-.41.59.59,0,0,0-.58.58.84.84,0,0,0,.26.54c.48.58,1.28-.24.82-.82a.93.93,0,0,0-.13-.15c-.48-.51-1.18.13-.91.7l0,0c.32.68,1.32.09,1-.58Z"/></g><g id="Layer_3" data-name="Layer 3"><polygon class="cls-8" points="30.38 33.12 26.95 28.42 28.49 27.26 31.92 31.96 30.38 33.12"/><polygon class="cls-8" points="3.34 35.33 15.91 52.56 17.45 51.4 4.88 34.17 3.34 35.33"/><polygon class="cls-8" points="6.42 33.01 18.99 50.23 20.53 49.07 7.96 31.84 6.42 33.01"/><polygon class="cls-8" points="9.49 30.68 22.07 47.91 23.61 46.74 11.03 29.52 9.49 30.68"/><polygon class="cls-8" points="12.57 28.36 25.14 45.58 26.68 44.42 14.11 27.19 12.57 28.36"/><line class="cls-8" x1="12.31" y1="44.35" x2="13.85" y2="43.19"/><line class="cls-8" x1="10.59" y1="42" x2="12.13" y2="40.84"/><line class="cls-8" x1="15.38" y1="42.02" x2="16.92" y2="40.86"/><line class="cls-8" x1="13.67" y1="39.67" x2="15.21" y2="38.51"/><line class="cls-8" x1="18.46" y1="39.7" x2="20" y2="38.53"/><line class="cls-8" x1="16.75" y1="37.35" x2="18.29" y2="36.19"/><line class="cls-8" x1="19.83" y1="35.02" x2="27.52" y2="29.21"/><line class="cls-8" x1="21.54" y1="37.37" x2="29.23" y2="31.56"/><polyline class="cls-8" points="9.05 43.16 5.98 45.49 7.69 47.84 10.77 45.51"/><polygon class="cls-8" points="41.81 6.26 54.38 23.48 52.84 24.65 40.27 7.42 41.81 6.26"/><polygon class="cls-8" points="38.73 8.58 51.3 25.81 49.77 26.97 37.19 9.74 38.73 8.58"/><polygon class="cls-8" points="35.66 10.91 48.23 28.14 46.69 29.3 34.12 12.07 35.66 10.91"/><polygon class="cls-8" points="32.58 13.23 45.15 30.46 43.61 31.63 31.04 14.4 32.58 13.23"/><line class="cls-8" x1="47.7" y1="17.6" x2="46.16" y2="18.76"/><line class="cls-8" x1="45.99" y1="15.25" x2="44.45" y2="16.41"/><line class="cls-8" x1="44.62" y1="19.92" x2="43.08" y2="21.09"/><line class="cls-8" x1="42.91" y1="17.58" x2="41.37" y2="18.74"/><line class="cls-8" x1="41.54" y1="22.25" x2="40.01" y2="23.41"/><line class="cls-8" x1="39.83" y1="19.9" x2="38.29" y2="21.06"/><line class="cls-8" x1="36.75" y1="22.23" x2="29.06" y2="28.04"/><line class="cls-8" x1="38.47" y1="24.58" x2="30.77" y2="30.39"/><polyline class="cls-8" points="47.52 14.09 50.6 11.76 52.32 14.11 49.24 16.44"/><polygon class="cls-8" points="29.59 38.58 37.28 32.77 40.71 37.46 33.01 43.28 29.59 38.58"/><polyline class="cls-8" points="26.95 28.42 25.41 29.59 21.98 24.89 26.6 21.4 30.03 26.1 28.49 27.26"/><polyline class="cls-8" points="31.92 31.96 33.45 30.8 35.74 33.93 31.12 37.42 28.84 34.28 30.38 33.12"/><polyline class="cls-8" points="37.85 33.55 39.39 32.38 41.67 35.52 40.14 36.68"/><polyline class="cls-8" points="30.16 39.36 28.62 40.53 30.9 43.66 32.44 42.49"/><line class="cls-8" x1="33.43" y1="35.67" x2="35.15" y2="38.02"/><line class="cls-8" x1="34.97" y1="34.51" x2="36.11" y2="36.08"/><line class="cls-8" x1="31.89" y1="36.84" x2="33.04" y2="38.4"/><polyline class="cls-8" points="23.52 23.73 22.38 22.16 23.91 21 25.06 22.56"/><polygon class="cls-8" points="17.8 15.89 16.09 13.55 17.63 12.38 19.34 14.73 17.8 15.89"/><polyline class="cls-8" points="23.91 21 24.68 20.41 20.11 14.15 17.04 16.48 21.61 22.74 22.38 22.16"/><polygon class="cls-8" points="14.55 14.71 12.84 12.36 17.45 8.87 19.17 11.22 14.55 14.71"/><polygon class="cls-8" points="16.11 8.67 16.68 9.45 13.61 11.78 13.04 10.99 16.11 8.67"/><polygon class="cls-8" points="17.68 9.18 18.6 10.44 20.3 6.23 18.77 5.44 17.68 9.18"/><polyline class="cls-8" points="18.6 10.44 22.25 8.89 22.62 11.04 19.17 11.22"/><polygon class="cls-8" points="13.07 12.67 13.98 13.93 9.53 14.37 9.23 12.65 13.07 12.67"/><polyline class="cls-8" points="13.98 13.93 11.47 17.04 13.39 18.02 14.55 14.71"/></g></svg>