<svg xmlns="http://www.w3.org/2000/svg" viewBox="0 0 72 72"><defs><style>.cls-1{fill:#1b7985;}.cls-2{fill:#0c1a37;}.cls-3{fill:#004c54;}.cls-4{fill:#005587;}.cls-5{fill:#f47d20;}.cls-6{fill:#b55d13;}.cls-7{fill:#007b9f;}.cls-8{fill:none;stroke:#000;stroke-miterlimit:10;stroke-width:1.24px;}</style></defs><title>Artboard72xIOS</title><g id="Layer_5" data-name="Layer 5"><path class="cls-1" d="M23.4,18.45,23,18.4a.71.71,0,0,0-1,.41l-.09,0,.84,1.1c.27-.29,1.31-1.81,1.67-1.83-.45-.15-.44,0,0,.48l.67,1.07L27.8,24a.69.69,0,0,0,1.2-.7l-1.36-2.47-1.09.85c.46.4,1.35,1.08,1.51,1.69.3,1.12-1,1.54-1.71,2l1,.25-1.89-3.16c-.34-.56-2-2.66-1.89-3.23l-.67.51c.67-.06,1.9,2.67,2.21,3.23a6.62,6.62,0,0,0,1.8,2.23.7.7,0,0,0,1.05-.61c-.08-2.67-2.37-4.89-3.46-7.23l-1.2.7.16.28a.7.7,0,0,0,1.21-.7l-.17-.28c-.45-.8-1.57-.1-1.2.7a25,25,0,0,0,1.79,3.25,6.38,6.38,0,0,1,1.48,3.28l1-.6c-1.23-.94-1.78-2.73-2.65-4-.52-.75-1.05-1.76-2.07-1.66a.7.7,0,0,0-.67.51c-.26,1.06.64,2,1.16,2.86l2.75,4.6a.7.7,0,0,0,1,.25c.93-.58,2.85-1.24,2.74-2.61s-1.41-2.5-2.27-3.24a.7.7,0,0,0-1.09.84L27.8,24l1.2-.7-2.17-3.48A11.3,11.3,0,0,0,25.05,17c-1.3-1.07-2.59,1.2-3.29,2a.7.7,0,0,0,.85,1.1,1.13,1.13,0,0,0,.74-.87l-1,.41a2,2,0,0,0,1.08.25.7.7,0,0,0,0-1.4Z"/><path class="cls-1" d="M26.83,24l.75.45a.71.71,0,0,0,1.05-.61v-.27c0-.89-1.44-.9-1.4,0v.27l1.05-.6-.75-.44a.69.69,0,0,0-.7,1.2Z"/><path class="cls-1" d="M28.64,26.87l.64.65a.71.71,0,0,0,1.17-.68,1.93,1.93,0,0,0-.53-1.11.7.7,0,0,0-1.2.71c.62,1.24.19,1.95-.5,2.95a1.53,1.53,0,0,0-.28.64c-.13.83.55,1.35,1,1.9,1.09,1.2,2.11,4.29,4.17,3.42,1.19-.5,4-2.22,4-3.79,0-.92-1-1.86-1.51-2.57a14.84,14.84,0,0,0-2.39-3.24.73.73,0,0,0-.84-.11,8.52,8.52,0,0,0-2.22,1.85c-.54.55-1.55,1.38-1.72,2.2-.33,1.62,2.14,3.6,3.17,4.48a.7.7,0,0,0,1.09-.85c-.74-1.25-1.9-2.91-2.1-4.37l-.18.68c.26-.31,1.36-1.34,1.78-1.27s1.58,2.08,1.74,2.5.29,1-.09,1.39c0,0-1,.78-.93.8-.61-.1-1.76-3.34-1.67-3.68l-1.16.3a39.52,39.52,0,0,1,2.69,3.72.7.7,0,0,0,1.2-.71q-1-2.25-2.16-4.47l-1.21.71L33,32.71c.41.64,1.53.24,1.28-.54a22.58,22.58,0,0,0-2-4.37l-1.2.7,2,3.06a.7.7,0,0,0,1.2-.7,26.18,26.18,0,0,0-1.55-3l-1.21.7c.66,1.11,1.34,2.2,2,3.29l1.2-.71-.55-.84c-.48-.75-1.69-.05-1.2.71l.55.84c.48.75,1.69.05,1.2-.71-.7-1.08-1.38-2.18-2-3.28a.7.7,0,0,0-1.21.7,26.25,26.25,0,0,1,1.56,3l1.2-.7-2-3.06a.69.69,0,0,0-1.2.7,21.54,21.54,0,0,1,1.82,4L34.24,32l-2.38-3.79a.7.7,0,0,0-1.21.71q1.13,2.2,2.17,4.47l1.2-.71a40.69,40.69,0,0,0-2.91-4A.69.69,0,0,0,30,29c-.35,1.28.32,2.24.95,3.32.4.67.83,2,1.8,2.08a5,5,0,0,0,2.74-1.56c.74-.89.28-1.81-.26-2.69-.44-.73-.92-1.46-1.39-2.18-.23-.37-.51-1-.94-1.26-.78-.37-1.46.39-2,.82-.74.58-1.69,1-1.52,2,.26,1.52,1.44,3.19,2.22,4.49l1.1-.85c-.91-.78-2.64-2.09-2.42-3.29.18-1,2-2.63,2.9-3.05l-.84-.11a13,13,0,0,1,2,2.7L35,30.48l.37.53c.44.28.49.56.14.82a4.57,4.57,0,0,1-2.1,1.77c-1.33.63-1.57-.3-2.26-1.24-.42-.57-1-1.05-1.37-1.62s-.08-.69.36-1.27c.9-1.17.37-2.56-.22-3.74l-1.2.71.38.77,1.17-.68-.64-.65a.7.7,0,0,0-1,1Z"/><path class="cls-1" d="M22,15l-.14-.34-1.21.71L22,17.24l1.1-.85-1.6-1.65a.7.7,0,0,0-1.09.85,14,14,0,0,0,1.32,1.84c.51.61,1.52-.18,1.09-.84l-1.6-2.53c-.31-.47-.59-1.13-1.11-1.41C19,12,18.41,13.45,18,14.3c-.24.57.32,1.4,1,1l1.57-1.08-.84-1.09c-.3.23-2.33,2.15-2.33.87,0-.57,2-1.83,2.47-2.21l-1-1a1.43,1.43,0,0,1-2,.32v1.21l2.85-1.64-.85-.11c.43.51.93,1.4,1.72,1.29.16,0,.57-.35.61-.34.21-.31.19-.17-.05.41A1.59,1.59,0,0,1,20.05,13l.79,1,.7-1.5a.71.71,0,0,0-1-1,8.71,8.71,0,0,0-1.66.93l-.6.49a3.26,3.26,0,0,0-.33.31c-.26.16-.21.28.17.35v.71a4.06,4.06,0,0,1,2-1.71c.8-.4.1-1.6-.71-1.21s-3.41,2-2.32,3.19a1.06,1.06,0,0,0,1.37.11,9.45,9.45,0,0,0,1-.91,7.44,7.44,0,0,1,1.81-1.05l-1-1-.7,1.5c-.23.5.16,1.25.79,1,1.34-.49,2.75-2.09,2-3.61A1.37,1.37,0,0,0,20.84,10c-.3.1-.43.37-.66.51.49.07.54,0,.16-.33l-.5-.58A.69.69,0,0,0,19,9.45l-2.85,1.63a.72.72,0,0,0,0,1.21,2.8,2.8,0,0,0,3.73-.54.7.7,0,0,0-1-1,12.76,12.76,0,0,0-2.8,2.35c-.48.75.05,1.64.51,2.26,1.23,1.64,3-.41,4.13-1.3.62-.48-.2-1.54-.85-1.09l-1.58,1.07,1,1c0,.07.56-1.19.26-1.08A9.09,9.09,0,0,1,20.18,15l1.48,2.31,1.09-.84a12.27,12.27,0,0,1-1.1-1.57l-1.09.85,1.59,1.65c.54.55,1.58-.2,1.1-.85l-1.43-1.92a.7.7,0,0,0-1.21.71l.15.34c.35.82,1.55.11,1.2-.71Z"/><path class="cls-1" d="M21.68,11.11c-.13,0-.2-.2-.27-.12a1,1,0,0,0,0,.24c0,.25,0,.49,0,.74a.7.7,0,0,0,1.39,0c0-.88.08-2.2-1.13-2.26-.89,0-.89,1.35,0,1.4Z"/><path class="cls-2" d="M39.44,35.54l1-1.4c.47-.7-.53-1.31-1.1-.84L38.06,34l.79,1,.22-.27c.57-.45.28-1.54-.54-1.28l-.68.21.68,1.17a2.85,2.85,0,0,1,1-.8l-.7-1.21-.81.54.85,1.09c1.08-.94,2.16-1.88,3.27-2.79.72-.59,1.45-1.18,2.2-1.73.34-.25,1.7-1.52,1.76,0,0,.27-1.71,1.34-2,1.52-.54.42-1.09.83-1.63,1.23q-1.92,1.42-3.87,2.81l1,.6c.15-1.54,1.72-2.54,2.79-3.47l3.26-2.83c.68-.59-.31-1.56-1-1l-5.31,4.47c-.59.51.22,1.58.85,1.1l3-2.26c.34-.25,3-1.92,3-2.25-.11-1.25-2.27.95-2.58,1.21l-3,2.57c-.69.58.31,1.56,1,1,1.5-1.28,3-2.53,4.5-3.84.55-.49,1.46-1.31.73-2.08s-1.57.13-2.15.57l-5.13,3.9.84,1.09,5.31-4.48-1-1C43.17,30.24,41.52,31.55,40,33a4.82,4.82,0,0,0-1.71,3.16.7.7,0,0,0,1.05.6c2.25-1.6,4.46-3.23,6.65-4.92,1.06-.81,2.67-2.18,1.49-3.6-.93-1.11-2.35-.5-3.33.15a65.87,65.87,0,0,0-6.29,5.14c-.59.51.19,1.53.85,1.09l.8-.53c.75-.5.08-1.67-.7-1.21a5.69,5.69,0,0,0-1.28,1,.71.71,0,0,0,.68,1.17l.68-.21-.54-1.28a2.45,2.45,0,0,0-.72.78c-.29.48.21,1.25.79,1a6.4,6.4,0,0,0,1.85-1.09l-1.1-.84-1,1.4c-.5.75.71,1.45,1.21.7Z"/><path class="cls-2" d="M47.14,28.11l.08-.42c.12-.6-.69-1.28-1.17-.68a2.62,2.62,0,0,0-.45.84c-.28.85,1.07,1.22,1.34.37A.62.62,0,0,1,47,28l-1.17-.68-.08.42c-.16.88,1.18,1.25,1.35.37Z"/><path class="cls-2" d="M49.85,25.68a4.59,4.59,0,0,1,.64,1l1-1a1.59,1.59,0,0,1-.68-.83c-.29-.84-1.63-.49-1.34.37a7.11,7.11,0,0,0,1,2c.51.73,1.72,0,1.2-.7a6.71,6.71,0,0,1-.83-1.62l-1.34.37a3.11,3.11,0,0,0,1.31,1.67c.63.39,1.26-.37,1-1a6.38,6.38,0,0,0-.86-1.26c-.6-.67-1.58.32-1,1Z"/><path class="cls-2" d="M50,24.45h0a.74.74,0,0,0-.52.68v.05a.71.71,0,0,0,.51.67h0c.86.29,1.22-1.06.37-1.34l0,0,.51.68v-.05l-.51.67h0c.84-.31.48-1.66-.37-1.35Z"/><path class="cls-2" d="M50,24.2h-.1a.7.7,0,0,0,0,1.4H50a.7.7,0,0,0,0-1.4Z"/><path class="cls-2" d="M53.65,22a4.78,4.78,0,0,0,1.4,2.1l.85-1.09a2.58,2.58,0,0,1-.78-.61,2.54,2.54,0,0,1-.23-.34l-.12-.24c-.05-.21-.09-.18-.14.1l-.79.32h0L53.47,22l0,0,.11-.84,0,0c-.68.59.31,1.58,1,1l0,0a.71.71,0,0,0,.11-.84.7.7,0,0,0-.49-.38.73.73,0,0,0-.78.32A1.81,1.81,0,0,0,53.8,23a3.91,3.91,0,0,0,1.39,1.26c.67.36,1.48-.55.85-1.09a3.45,3.45,0,0,1-1-1.49c-.29-.85-1.64-.48-1.35.37Z"/><path class="cls-2" d="M53.3,22.46a9.41,9.41,0,0,0,1.41,2.08c.59.68,1.57-.31,1-1a8.32,8.32,0,0,1-1.19-1.79c-.39-.81-1.6-.1-1.2.7Z"/><path class="cls-2" d="M50.36,24.51l-.32,0a.7.7,0,0,0-.67.88,3.84,3.84,0,0,0,1.09,2,.7.7,0,0,0,1-1A2.66,2.66,0,0,1,50.71,25l-.67.89.32,0c.89-.06.9-1.45,0-1.39Z"/><path class="cls-2" d="M58.43,18.58l0,0a.74.74,0,0,0-.85-.11c-.77.46-.25,1.22.06,1.79s.7,1.29,1.48,1.27a1.07,1.07,0,0,0,1-1.4,3.55,3.55,0,0,0-.53-.9l-.74-1.09c-.5-.74-1.71,0-1.21.7l.58.86c.07.11.45.82.56.83l.31-.4c.07,0,.07,0,0-.07a1.37,1.37,0,0,0-.2-.35c-.09-.16-.17-.32-.26-.47L58.54,19c-.11-.22-.12-.21,0,0l-.34.6.06,0-.84-.11,0,0a.7.7,0,1,0,1-1Z"/><path class="cls-2" d="M61.43,16.3l.77,1.08a3,3,0,0,0,.69.85c.73.45,1.36-.38,1.84-.82s1.37-1,1.24-1.75-.88-1.4-1.32-1.9a.72.72,0,0,0-1,0c-.51.48-1.08,1-1.56,1.46a1.21,1.21,0,0,0-.37,1.21.93.93,0,0,0,1,.59,1.15,1.15,0,0,0,.64-.27,1.38,1.38,0,0,0,.22-.26c.14-.13.14-.16,0-.09l-.49-.2,0-.63c-.64.53.17,1.44.84,1.1l.61-.32c.8-.41.1-1.61-.7-1.2l-.61.31.84,1.1a.9.9,0,0,0-.18-1.46,1,1,0,0,0-.85,0,1.18,1.18,0,0,0-.41.29l-.11.14c-.18.17-.11.21.22.11l.32.42,0-.18-.07.53a3.54,3.54,0,0,1,.8-.84l.88-.82h-1c.27.31.89.86,1,1.28l.07-.54c-.12.28-.55.56-.77.76a5.34,5.34,0,0,1-.91.81l.54-.07c.11,0-.31-.54-.36-.61l-.56-.79c-.51-.73-1.72,0-1.2.71Z"/><path class="cls-2" d="M21.48,46.52a10.69,10.69,0,0,1,.67,1.41.71.71,0,0,0,.85.49c1.77-.47.48-3.64-1.13-3.23a1.43,1.43,0,0,0-.95,1.7c.2.89,1,1.25,1.55,1.89s1.56-.3,1-1a4.29,4.29,0,0,0-.66-.62,4.44,4.44,0,0,1-.5-.57s0-.14,0-.13a.12.12,0,0,1-.16.05c-.07,0-.06,0,.05.09s.11.18.16.28l0,.12c0,.23.09.24.24,0l.86.49a13.69,13.69,0,0,0-.8-1.74c-.44-.79-1.64-.08-1.21.7Z"/><path class="cls-2" d="M26.58,43.67l0-.53-1.3.36.93,1.78a.71.71,0,0,0,1.1.14l8.44-6.85a.68.68,0,0,0,.1-.84c-.41-.58-.76-1.46-1.55-1.48-1,0-2.47,1.53-3.21,2.06-1.13.81-2.25,1.65-3.31,2.55-.71.6-2.1,1.5-2.41,2.42a1.18,1.18,0,0,0,.32,1.45c.73.51,1.5-.13,2.08-.5a33.66,33.66,0,0,0,7.16-5.91.7.7,0,0,0-.85-1.1,11.8,11.8,0,0,0-2.82,2,23.7,23.7,0,0,1-4,2.77c-.68.37-.21,1.57.54,1.27l4-1.57L31,40.56c-1.4,1.7-3.61,2.3-4.89,4.14a.7.7,0,0,0,.79,1c3.37-1,6.5-4.15,9-6.5.66-.61-.33-1.6-1-1-2.36,2.19-5.29,5.18-8.42,6.15l.79,1c1.17-1.69,3.35-2.26,4.66-3.85.39-.47,0-1.45-.68-1.17l-4,1.58.54,1.27a23.79,23.79,0,0,0,3.33-2.17,18.47,18.47,0,0,1,3.53-2.64l-.85-1.09a27.19,27.19,0,0,1-4.2,3.82c-.52.39-1.06.76-1.59,1.14-.17.12-2.14,1.27-1.36,1.35.28,0,1.7-1.56,2-1.79.64-.54,1.29-1.05,2-1.55s1.44-1,2.17-1.56,1.13-1.2,1.76-.31l.11-.84-8.44,6.85,1.1.14-.94-1.79c-.31-.59-1.37-.34-1.3.35l.05.53c.1.89,1.49.9,1.4,0Z"/><path class="cls-2" d="M17.61,49.68A3.8,3.8,0,0,1,18.33,51a.71.71,0,0,0,1.17.3c1-.86-.19-2.79-1.34-2.77A1.14,1.14,0,0,0,17,49.76a1.59,1.59,0,0,0,.37.85c.21.26.51.43.65.73.39.81,1.59.11,1.21-.7a2.2,2.2,0,0,0-.4-.56,3.65,3.65,0,0,0-.44-.44,1.94,1.94,0,0,0-.27.24l.13.17c0,.07.08.16.14.23s-.11.17.09,0l1.17.31a5.5,5.5,0,0,0-1.09-1.89c-.58-.68-1.56.31-1,1Z"/><path class="cls-2" d="M13.54,52.76a9.89,9.89,0,0,0,.91.92q.35.45.78-.57a2.29,2.29,0,0,0-.08-.28,1.51,1.51,0,0,0-.32-.53c-.48-.56-1.32,0-1.17.68s.75,2.1,1.74,1.6.22-1.75-.23-2.41c-.28-.4-.49-.81-1-.82a1.24,1.24,0,0,0-1.06.65c-.57,1,.35,1.7.83,2.44s1.71.05,1.21-.7a6,6,0,0,0-.54-.68c-.08-.08-.15-.21-.22-.29l0-.11a.21.21,0,0,1-.24.09l-.41-.32c.25.37.51.74.76,1.12l.14.21c.69,0,.91-.24.66-.55-.05-.2-.16-.39-.21-.61l-1.17.68c.09.1.1.37.17.5a1.15,1.15,0,0,0,.47.43,1,1,0,0,0,1.1-.17c.74-.81-.52-1.76-1.05-2.26s-1.64.37-1,1Z"/><path class="cls-2" d="M10.32,56.3a2.49,2.49,0,0,1,.67-.77L9.9,55.39a8.79,8.79,0,0,1,.92,1.49l.25-1a8,8,0,0,0-2.65,1.84l1.09.14A5.21,5.21,0,0,0,8.83,57l0,.25L9,57.1c.22-.07.4-.17.63-.23L8.79,56l-.2.57L9.93,57a1.25,1.25,0,0,1,.16-.47c.41-.8-.79-1.51-1.2-.71a3,3,0,0,0-.3.81A.7.7,0,0,0,9.93,57l.21-.57c.19-.52-.38-1-.86-.85a2.53,2.53,0,0,0-1.79,1.18c-.28.75.41,1.36.82,1.9a.7.7,0,0,0,1.09.14,7.19,7.19,0,0,1,2.38-1.62.71.71,0,0,0,.25-1,8.93,8.93,0,0,0-.93-1.5A.71.71,0,0,0,10,54.54a3.41,3.41,0,0,0-.9,1.06.7.7,0,0,0,1.21.7Z"/><path class="cls-2" d="M8.39,55.44c-.62.07-1.3.24-1.52.91a1.09,1.09,0,0,0,.69,1.4.68.68,0,0,0,.85-.48.71.71,0,0,0-.48-.86c.25.13.33.28.23.47a.93.93,0,0,1,.23,0c.89-.09.89-1.49,0-1.4Z"/><path class="cls-2" d="M8.92,57.67c0,.17-.08.13.1,0l.25-.19A4.77,4.77,0,0,0,9.79,57a1.83,1.83,0,0,0,.65-1.33.94.94,0,0,0-.92-.8,1.27,1.27,0,0,0-1.08.71c-.37.57.38,1.38,1,1a5.25,5.25,0,0,1,1.27-.7c.84-.3.48-1.65-.37-1.35a6.27,6.27,0,0,0-1.6.84l1,1c.21-.31-.35-.82-.61-.56a1.18,1.18,0,0,0-.17.22,3.24,3.24,0,0,1-.54.51c-.44.33-.78.6-.8,1.19,0,.9,1.37.89,1.4,0Z"/><path class="cls-1" d="M34.69,34.77a41.68,41.68,0,0,1,3.57,5.62l1.21-.7A20.41,20.41,0,0,1,37,35.42l-1.21.7c1.13,1.79,2.89,3.12,3.74,5.08.36.82,1.56.11,1.21-.7-.86-2-2.61-3.29-3.74-5.08a.7.7,0,0,0-1.21.7,21.06,21.06,0,0,0,2.46,4.27.7.7,0,0,0,1.21-.7,44.57,44.57,0,0,0-3.57-5.63c-.53-.71-1.75,0-1.21.71Z"/><path class="cls-1" d="M40.8,41.25l-.28-.52a.7.7,0,0,0-1-.42c-.72.43-2.68,1.09-2.71,2.12a2.16,2.16,0,0,0,.58,1.18l1.49,2.25c.41.61,1.56.24,1.28-.54l-1-2.72L38,43.28a10.74,10.74,0,0,1,1.69,2.23.7.7,0,0,0,1.2,0c.65-.89-.35-2.63-.64-3.53L39,42.52,40.81,45A.7.7,0,0,0,42,44.3l-1.23-2.9-1.1.84,1.51,1.92c.44.55,1.37,0,1.17-.68A5.7,5.7,0,0,0,40.79,41l.11.85A4.92,4.92,0,0,0,41.77,40a.69.69,0,0,0-.85-.85,3.2,3.2,0,0,0-1.33.66l1,1c.24-.21,1-1,1.28-1.05l-.68-.18a6.91,6.91,0,0,1,1.57,2.2L44,41.1l-.49-.78-1,1,.24.42,1.19-.49c-.65-.53-1.44-1.54-2.34-1a.72.72,0,0,0-.32.79,17.16,17.16,0,0,0,1.13,2.79l1.28-.54a7.36,7.36,0,0,0-1.59-1.88.71.71,0,0,0-1.17.68A5.69,5.69,0,0,0,41.76,44,.7.7,0,0,0,43,43.43l-.38-1.7-1,.79c.73.48,1,1.39,1.74,1.88a.7.7,0,0,0,1.05-.6,3.64,3.64,0,0,0-.16-1L43,43.3A11.29,11.29,0,0,1,44,45c.41.8,1.61.09,1.21-.71a12.5,12.5,0,0,0-1-1.67c-.44-.6-1.5-.27-1.27.54l.11.67,1-.6c-.73-.47-1-1.39-1.74-1.88a.7.7,0,0,0-1,.78l.38,1.7L43,43.26a4.9,4.9,0,0,1-.71-1.6l-1.16.68a6.21,6.21,0,0,1,1.37,1.6c.41.62,1.6.23,1.28-.54a17.16,17.16,0,0,1-1.13-2.79l-.32.78.16-.09h-.71a6.31,6.31,0,0,1,1.19.88.71.71,0,0,0,1.19-.49,1.75,1.75,0,0,0-.92-1.62.7.7,0,0,0-1,1l.5.79A.7.7,0,0,0,44,41.1c-.4-.73-1.14-2.31-2-2.62s-1.78.87-2.35,1.37.3,1.53,1,1l.71-.31-.86-.86a3.76,3.76,0,0,1-.73,1.42.7.7,0,0,0,.11.85A4.28,4.28,0,0,1,41,43.85l1.17-.68-1.51-1.91c-.53-.68-1.37.19-1.09.84L40.81,45,42,44.3l-1.87-2.48c-.44-.59-1.53-.29-1.27.53a10.9,10.9,0,0,1,.78,2.46h1.2A11.66,11.66,0,0,0,39,42.29c-.46-.47-1.41,0-1.17.68l1,2.72,1.28-.54c-.55-.81-1.12-1.61-1.63-2.44l-.27-.41c.16.39.39.4.69,0a6.14,6.14,0,0,0,1.34-.81l-1-.41a1.86,1.86,0,0,0,.41.86c.54.7,1.76,0,1.21-.71Z"/><path class="cls-1" d="M46,42.71a7.3,7.3,0,0,0-1.4-1.26l-.53,1.27c1.29.44-2.89,3.47-2.88,3.47l1,.79a3.12,3.12,0,0,1,1.12-2,.7.7,0,0,0-1-1c-1.19,1.11-2.66,3.07-4.14,3.73l1,.25-.12.59L38,48.37a10.78,10.78,0,0,1,1,3l1.28-.54c-.62-.92-1.9-2.67-3.15-1.43s.63,3.33,1.43,4.26a.71.71,0,0,0,1.19-.5,6.9,6.9,0,0,0-.67-2.93l-1.21.71a3.28,3.28,0,0,1,.89,2,.71.71,0,0,0,1,.42c.66-.4,1.59-.08,2.29-.4a6.93,6.93,0,0,0,1.64-1.47,33.75,33.75,0,0,1,6.38-4.76.69.69,0,0,0,.32-.78c-.69-1.76-2.49-7-5.18-4.09l1.1.84c.14-.28,3.38,4.17,3.59,4.47a.71.71,0,0,0,1.21,0,1.08,1.08,0,0,0,0-1.26A.7.7,0,0,0,50,45.77l-1.89,1.68c-.68.59.31,1.58,1,1L51,46.76l-1.09-.15v-.14h1.21c-.64-.9-4.26-7.92-6-4.47-.34.67.53,1.45,1.1.84-.06.07,3.86,2,1.7,3.57-1.09.81-2.22,1.52-3.27,2.38s-2.05,2.27-3.19,2.71c-.93.35-1.45.08-2.38.65l1,.42a5.28,5.28,0,0,0-1-2.37.7.7,0,0,0-1.21.71l.48,2.22,1.19-.49c-.19-.22-1.67-2.93-.47-1.13A.7.7,0,0,0,40.33,51a13.45,13.45,0,0,0-1.17-3.31.7.7,0,0,0-1.09-.14l-.1.12a.7.7,0,0,0-.1.84l.09.15a.73.73,0,0,0,1,.25c1.63-.73,3.11-2.73,4.42-4l-1-1a5.33,5.33,0,0,0-1.48,2.67.71.71,0,0,0,1,.78c1.47-.92,6.29-4.74,2.54-6-.82-.28-1.11.83-.54,1.27L45,43.7c.61.66,1.59-.33,1-1Z"/><path class="cls-1" d="M42.72,53.42C45.11,51.77,47,49.53,49.49,48c.76-.48.06-1.69-.71-1.2-2.46,1.55-4.37,3.79-6.76,5.44-.74.51,0,1.72.7,1.21Z"/><path class="cls-1" d="M40.8,49.91l0-.3H39.5l.86,2.29a.7.7,0,0,0,1.35-.37l-.52-3.24-1.35.37.29,1.53c.17.89,1.5.51,1.35-.37l-.34-1.93a.7.7,0,0,0-1.27-.17l-.49.71,1.17.31.16-.59h-1.2a5.39,5.39,0,0,1,.59,2c.08.7,1.25,1,1.37.19s.25-2,.33-3l-1.37.19,1,4.72c.16.78,1.37.59,1.37-.19v-4a.7.7,0,0,0-1.4,0,14.25,14.25,0,0,0,.25,3.69.7.7,0,0,0,1.35,0A34.2,34.2,0,0,0,43.48,47c0-.9-1.35-.89-1.4,0a24.48,24.48,0,0,0,.09,3.83.7.7,0,0,0,1.4,0,33.34,33.34,0,0,0,.11-4,.7.7,0,0,0-1.4,0v3.74c0,.92,1.29.86,1.4,0l.53-4.44h-1.4a38.61,38.61,0,0,0,.31,4.69A.7.7,0,0,0,44.5,51a36.2,36.2,0,0,0,1.12-5.65H44.23l-.16,3.9a.7.7,0,0,0,1.37.18c.32-1.36.58-2.73.8-4.11l-1.37-.19-.22,4.22a.7.7,0,0,0,1.3.35c.87-1.58.74-3.64.91-5.4h-1.4a20,20,0,0,0,.25,4.09c.13.83,1.3.53,1.37-.19.15-1.49.28-3,.38-4.49H46.07c.16,1.35.38,2.69.65,4,.15.78,1.37.58,1.37-.19V43.67l-1.37.19.78,3c.19.74,1.46.62,1.37-.18a14.61,14.61,0,0,0-.64-3.56c-.33-.85-.69-.84-1.59-1.18a.69.69,0,0,0-.85.49c-.3,1.58,1.87,2.88,2.85,3.85l.68-1.17-.91-.6c-.55-.71-1.53.28-1,1a2.38,2.38,0,0,0,1.51,1,.7.7,0,0,0,.68-1.16c-.25-.25-2.55-2.15-2.49-2.49l-.86.49c1.15.43,1.09,2.33,1.21,3.39l1.37-.19-.79-3a.7.7,0,0,0-1.37.18v3.84l1.37-.19c-.24-1.21-.44-2.42-.6-3.65a.7.7,0,0,0-1.39,0c-.1,1.5-.23,3-.39,4.49L47.05,48a18.57,18.57,0,0,1-.19-3.72c0-.91-1.31-.88-1.4,0-.13,1.43,0,3.43-.72,4.69l1.31.36.21-4.22c0-.77-1.25-1-1.37-.18-.21,1.38-.48,2.75-.8,4.11l1.37.19.16-3.9c0-.92-1.29-.87-1.39,0a33.86,33.86,0,0,1-1.08,5.28l1.37.18a40.73,40.73,0,0,1-.3-4.69c0-.92-1.29-.87-1.4,0l-.53,4.44h1.4V46.78h-1.4a31.39,31.39,0,0,1-.11,4h1.4A22.26,22.26,0,0,1,43.48,47h-1.4a30.61,30.61,0,0,1-.43,4.48H43a11.93,11.93,0,0,1-.2-3.32H41.4v4l1.37-.18-1-4.72c-.17-.81-1.31-.56-1.37.18s-.16,1.74-.28,2.62l1.37.18a8.83,8.83,0,0,0-.78-2.75.7.7,0,0,0-1.2,0,1.92,1.92,0,0,0-.31,1.67.71.71,0,0,0,1.17.31,2.59,2.59,0,0,0,.7-1l-1.27-.16.33,1.93,1.35-.37-.29-1.53c-.17-.89-1.49-.5-1.35.37l.52,3.24,1.35-.37-.87-2.29c-.21-.57-1.23-.76-1.34,0l0,.29c-.13.88,1.21,1.26,1.35.38Z"/><path class="cls-1" d="M50.71,41.3a1.09,1.09,0,0,0-1.07-.81.71.71,0,0,0-.67.88.5.5,0,0,1-.22.44.71.71,0,0,0,.14,1.1,1.62,1.62,0,0,1,.7.62l1.21-.71A4.32,4.32,0,0,1,50,41.09l-1.27.54a24.89,24.89,0,0,0,1.59,2.75A.93.93,0,0,0,52,43.9c0-.9-1.36-.9-1.4,0V44l.2-.49-.1.09.49-.2c.21.1.22.06,0-.15L51,42.89l-.33-.59-.79-1.37a.7.7,0,0,0-1.27.53,5.15,5.15,0,0,0,1,2.07c.53.68,1.7.07,1.21-.71a3.15,3.15,0,0,0-1.2-1.12l.14,1.1a1.92,1.92,0,0,0,.58-1.8l-.68.88-.27-.21c.28.85,1.63.48,1.34-.37Z"/><path class="cls-1" d="M50,42.4A4.81,4.81,0,0,1,51,43.8c.4.8,1.61.1,1.21-.7A5.72,5.72,0,0,0,51,41.41c-.66-.6-1.65.39-1,1Z"/><path class="cls-1" d="M41,48.22c.13.44.25.88.38,1.31a1.29,1.29,0,0,0,.49.82c.72.45,1.37-.31,1.64-.9a1.88,1.88,0,0,0-.16-2.06,1.6,1.6,0,0,0-.76-.48,1.29,1.29,0,0,0-.44,0,1.08,1.08,0,0,0-.31.07c-.23.07-.22.09,0,.07l.42.32-.06-.09.07.54c-.2.13-.24.17-.11.12a.92.92,0,0,0,.23-.09,1.36,1.36,0,0,0,.35-.24c.67-.6-.32-1.58-1-1-.12.11-.41.13-.56.28a1,1,0,0,0-.29.72.85.85,0,0,0,1.11.77c.16,0,.2-.19.29,0s-.14.48-.19.7l-.07.11c.57.37.8.4.68.1a2.32,2.32,0,0,0-.13-.47l-.27-.95a.7.7,0,0,0-1.35.38Z"/><path class="cls-1" d="M14.88,19.74l.6.39a.7.7,0,0,0,1-.41l.69-2.95-1.37-.19v.5c0,.89,1.43.9,1.4,0l0-.5a.7.7,0,0,0-1.37-.18l-.69,3,1-.42-.6-.4c-.76-.49-1.46.72-.71,1.21Z"/><path class="cls-1" d="M16.93,14.39A3.73,3.73,0,0,0,14.71,14c-1,.15-1.75.72-2.78.63s-.89,1.32,0,1.4c1.5.12,2.87-1.12,4.3-.4.8.4,1.5-.81.7-1.21Z"/><path class="cls-1" d="M21.79,10.67c.85.35,1.35-.56,1.62-1.2a18.13,18.13,0,0,0,1-3.08c.2-.87-1.14-1.24-1.34-.37-.14.59-.3,1.17-.49,1.74-.09.27-.18.53-.28.79s-.13.32-.2.47-.17.31.07.3c-.82-.35-1.18,1-.37,1.35Z"/><path class="cls-1" d="M23.82,12.16c1.22,0,3.51-.18,3.73-1.76l-1.37-.18,0,1.23a.7.7,0,0,0,1.4,0l0-1.23c0-.75-1.26-1-1.37-.19s-1.86.73-2.39.73a.7.7,0,0,0,0,1.4Z"/><path class="cls-3" d="M50.43,42.53a5.19,5.19,0,0,0-.35-1.74l-1.16.68a9.49,9.49,0,0,1,2,3.1c.32.83,1.67.46,1.35-.38a11.35,11.35,0,0,0-2.33-3.71c-.45-.48-1.42,0-1.16.68A4.3,4.3,0,0,1,49,42.53c0,.89,1.43.9,1.4,0Z"/><path class="cls-3" d="M24.06,10.76l-.27.32a.39.39,0,0,0,.38.65c.87-.12,1.73-.28,2.58-.47a.39.39,0,0,0-.1-.76,3.61,3.61,0,0,0-1.51.37l.57.44a.75.75,0,0,1,.34-.57c.3-.16.7,0,.46.38l.7.3.06-.18a.39.39,0,0,0-.75-.21l-.05.18a.39.39,0,0,0,.7.3,1,1,0,0,0-.62-1.6A1.39,1.39,0,0,0,25,11.1a.39.39,0,0,0,.57.44,2.71,2.71,0,0,1,1.12-.27l-.1-.76c-.86.19-1.72.35-2.59.47l.38.65.27-.32c.33-.38-.22-.93-.55-.55Z"/><path class="cls-3" d="M24.63,11.43a11,11,0,0,0,2.56.3.4.4,0,0,0,.39-.39c0-.5-.09-1.58-.8-1.57a5,5,0,0,0-1.34.42l-1.6.54c-.47.16-.26.91.21.75l1.82-.62a5.86,5.86,0,0,1,.92-.31q-.2.1-.06.3a2.63,2.63,0,0,1,.07.49l.39-.39a9.27,9.27,0,0,1-2.35-.27.39.39,0,0,0-.21.75Z"/><path class="cls-3" d="M22.51,8.94a1.35,1.35,0,0,0,.17.68.38.38,0,0,0,.7-.09c.37-1.21.68-2.43.94-3.66a.39.39,0,0,0-.57-.44c-1.29.8-1,3-1.13,4.31l.58-.34c-.75-.45.4-3.33.57-4L23,5.32v.29c0,.49.79.5.78,0V5.32a.39.39,0,0,0-.77-.1,33,33,0,0,0-.84,3.25,1.44,1.44,0,0,0,.63,1.6.39.39,0,0,0,.58-.33c.05-.65.1-1.3.16-1.94s0-1.35.6-1.7l-.57-.44c-.27,1.24-.58,2.46-.94,3.67l.71-.1-.06-.29a.39.39,0,0,0-.78,0Z"/><path class="cls-3" d="M46.55,41.82a6.63,6.63,0,0,1,1.74,2.85c.3,1,.68,3-.25,3.74-.39.32.16.86.54.55,1-.8.86-2.53.66-3.68a7.61,7.61,0,0,0-2.14-4,.39.39,0,0,0-.55.55Z"/><path class="cls-3" d="M46.29,50.76a9.07,9.07,0,0,0,2-4.82,11.23,11.23,0,0,0-1.6-5.07c-.22-.45-.89,0-.67.39a10.2,10.2,0,0,1,1.49,4.68,8.37,8.37,0,0,1-1.93,4.42c-.28.42.39.8.67.4Z"/><path class="cls-3" d="M48.75,45.13a.77.77,0,0,0-.29,1.14,4.14,4.14,0,0,1,0,.79A5.91,5.91,0,0,1,48,48.65l.75.2.4-1.68c.11-.49-.63-.69-.75-.21a5.23,5.23,0,0,1-.77,1.68l.71.3a3.17,3.17,0,0,0,.21-1,.39.39,0,0,0-.66-.28l-.84.71.61.47a13.74,13.74,0,0,0,1.12-3.48l-.77-.1.13,1.57c0,.49.81.5.78,0a13.54,13.54,0,0,0-.57-3.15l-.74.21a19.94,19.94,0,0,1,1,3.4l.74-.2-.8-3.17-.65.38a8.37,8.37,0,0,1,1.37,2l.67-.39c-.68-1.2-.77-2.62-1.62-3.74-.3-.38-.93,0-.67.4l2,3.59a.39.39,0,0,0,.71-.3,5.13,5.13,0,0,0-.61-1.4l-.66.39c.33.51.67,1,1,1.48l.06-.47a10.14,10.14,0,0,0-1.46,1.47l.61.47A14.54,14.54,0,0,1,50,46.4l-.72-.19-.18.81a.39.39,0,0,0,.57.44,2.3,2.3,0,0,0,.74-.78.39.39,0,0,0-.67-.39l-.46.5.57.43a2.67,2.67,0,0,0,.2-1c0-.39-.54-.51-.72-.2s-.48.9-.68,1.36.3.85.61.47a10.07,10.07,0,0,1,1.46-1.46.38.38,0,0,0,.06-.47c-.36-.48-.7-1-1-1.48s-.92,0-.66.39A5.3,5.3,0,0,1,49.58,46l.7-.3-2-3.6-.67.4c.84,1.1.94,2.54,1.62,3.73.25.44.89,0,.67-.39a9.26,9.26,0,0,0-1.49-2.18c-.27-.3-.74,0-.65.38l.81,3.16c.12.49.83.28.74-.2a18.36,18.36,0,0,0-1-3.41c-.17-.45-.89-.28-.74.21a12.18,12.18,0,0,1,.53,2.94h.78l-.13-1.57c0-.4-.68-.56-.76-.1a13.26,13.26,0,0,1-1,3.29.39.39,0,0,0,.61.47l.84-.71-.67-.27a1.78,1.78,0,0,1-.18.85c-.17.43.48.63.71.29a5.81,5.81,0,0,0,.85-1.86L48.41,47,48,48.65a.39.39,0,0,0,.75.2c.46-1.18.83-3,.12-4.21a.37.37,0,0,0-.33-.19h-.1a.39.39,0,0,0-.34.19l0,.08c-.19.46.48.85.67.4Z"/><path class="cls-3" d="M41.54,39.17a4.05,4.05,0,0,1,.15,4.08c-.23.44.44.83.67.39a4.87,4.87,0,0,0-.15-4.87c-.27-.42-.94,0-.67.4Z"/><path class="cls-3" d="M43,43.39a6.79,6.79,0,0,0,0-4c-.14-.49-.82-.28-.75.21l.24,1.52.75-.21A15.33,15.33,0,0,1,42.73,39l-.71.3a14.68,14.68,0,0,1,1.27,2.76c.16.46.89.27.75-.21l-.16-.56a.39.39,0,0,0-.71-.09l-.15.33a.39.39,0,0,0,.34.58.68.68,0,0,0,.71-.54c.14-.56-.33-.8-.38-1.29l-.67.27.64.75c.33.38.87-.17.55-.55L43.57,40a.39.39,0,0,0-.66.28c0,.2.22,1.06.45,1.06l.33.58.15-.33-.71-.09.16.56.75-.21a16,16,0,0,0-1.35-3,.39.39,0,0,0-.71.3,19.27,19.27,0,0,0,.57,1.87.39.39,0,0,0,.75-.21l-.24-1.52-.75.21a6,6,0,0,1,0,3.63c-.15.47.6.68.75.2Z"/><path class="cls-3" d="M35.4,34.46q1.77,2.63,3.73,5.1c.31.39.86-.16.55-.55q-1.91-2.4-3.61-4.94c-.28-.41-1,0-.67.39Z"/><path class="cls-3" d="M30,26.13l0-.05a.4.4,0,0,0-.18-.44.42.42,0,0,0-.42-.06.41.41,0,0,0-.29.37c0,.47.48.94.73,1.3s1,0,.67-.39c-.11-.16-.64-.72-.62-.91l-.28.38.06,0-.3,0,.06,0-.18-.44,0,.05c-.15.48.6.68.75.21Z"/><path class="cls-3" d="M29.67,24A50,50,0,0,0,25,16.26a.38.38,0,0,0-.7.29c.22,1.3,1.32,2.46,2,3.54l1.32,2a6.67,6.67,0,0,1,1.17,1.84l.37-.49h-.06l.38.39v-.05c0-.5-.76-.5-.77,0v.05a.4.4,0,0,0,.39.39h.06c.27,0,.42-.26.38-.49-.18-1-1.35-2.17-1.91-3-.83-1.25-2.36-2.84-2.63-4.34l-.71.3A50,50,0,0,1,29,24.42c.22.45.89.06.67-.39Z"/><path class="cls-3" d="M29,23.74c.13.21.26.42.38.64l.67-.39L30,23.87c-.26-.42-.93,0-.66.39a.75.75,0,0,0,.07.12.39.39,0,0,0,.67-.39c-.12-.22-.26-.43-.38-.64a.39.39,0,0,0-.67.39Z"/><path class="cls-3" d="M24.17,17.12q2.49,3.73,4.79,7.6a.39.39,0,0,0,.67-.4q-2.29-3.86-4.79-7.59c-.28-.41-.95,0-.67.39Z"/><path class="cls-3" d="M27.87,22.4a4.5,4.5,0,0,1,.78,1.6c.1.35,0,.92.44,1.11a.41.41,0,0,0,.39,0l0,0a.4.4,0,0,0,.18-.44.71.71,0,0,0-.13-.26.4.4,0,0,0-.55,0l0,0a.39.39,0,0,0,.55.55l0,0H29L29,24.85l.17-.44,0,0h.39a11.62,11.62,0,0,0-.27-1.22A4.92,4.92,0,0,0,28.54,22c-.29-.4-1,0-.67.39Z"/><path class="cls-3" d="M21,15l1,1.53c.21.31.42.87.82,1a.42.42,0,0,0,.48-.54.4.4,0,0,0-.48-.27h0c-.49.07-.28.81.21.75h0l-.48-.27v0l0-.3,0,0,.44-.18s-.26-.48-.29-.53l-.32-.48-.73-1.13c-.27-.42-.94,0-.67.39Z"/><path class="cls-3" d="M40.3,39.8A10,10,0,0,1,41.93,44c.07.43.8.33.77-.1a11.54,11.54,0,0,0-1.4-4.8l-.67.39,1,1.55c.23.34.85.14.71-.3l-.46-1.43-.75.21A22.9,22.9,0,0,0,42,41.81c.18.4.86.12.71-.29A17.84,17.84,0,0,0,41.65,39c-.24-.44-.87-.05-.67.4l.13.28c.21.45.88.06.67-.39L41.65,39l-.67.4a15.72,15.72,0,0,1,1,2.3l.71-.3a21.7,21.7,0,0,1-.79-2.08c-.16-.47-.9-.27-.75.21L41.62,41l.71-.29-1-1.55a.39.39,0,0,0-.67.39,10.62,10.62,0,0,1,1.29,4.41l.76-.11A10.55,10.55,0,0,0,41,39.4c-.28-.41-.95,0-.67.4Z"/><path class="cls-3" d="M43.82,41.81a.87.87,0,0,0,.75.13.4.4,0,0,0,.27-.48.84.84,0,0,0-1.4-.34c-.36.35.19.89.55.55.06,0,.09,0,.1,0l.27-.48-.15,0c-.41-.28-.8.39-.39.67Z"/><path class="cls-3" d="M20.52,10.41a6.11,6.11,0,0,1-.15,3.26l.75.2a17.34,17.34,0,0,0,.33-3.94h-.78c.09.76.16,1.53.2,2.3a.39.39,0,0,0,.76.1,4.38,4.38,0,0,0,.12-1,.39.39,0,0,0-.78,0v.84a.39.39,0,0,0,.76.1,4.38,4.38,0,0,0,.11-1.3.39.39,0,0,0-.78,0v1a.39.39,0,0,0,.78,0v-1.3l-.73.19a3.42,3.42,0,0,1,.56.84c.12.49-.34.82-.61,1.14l.61.47.6-1c.19-.32-.21-.75-.53-.53l-.42.27.57.24L22,12l-.66-.27v.57a.39.39,0,0,0,.78,0l0-.57a.39.39,0,0,0-.66-.28,1,1,0,0,0-.32,1.05.39.39,0,0,0,.57.23l.42-.27-.53-.53-.6,1c-.22.37.32.81.61.47s1-.89,1-1.4-.57-1.12-.84-1.52a.39.39,0,0,0-.72.2v1.3h.78V11h-.78A3.35,3.35,0,0,1,21,12l.76.11v-.84H21a2.76,2.76,0,0,1-.09.81l.76.11c0-.77-.1-1.54-.19-2.3-.06-.48-.8-.51-.78,0a15.66,15.66,0,0,1-.3,3.74.39.39,0,0,0,.75.2,6.89,6.89,0,0,0,.15-3.66c-.07-.49-.82-.29-.75.2Z"/><path class="cls-3" d="M32.09,26.83A22.65,22.65,0,0,1,34.84,33c.1.49.85.28.75-.21-.46-2.31-1.73-4.31-2.83-6.36-.23-.44-.9-.05-.67.39Z"/><path class="cls-3" d="M32.77,26.58a26.82,26.82,0,0,1,2.54,5.59l.71-.3-.55-1.09a.39.39,0,0,0-.73.2c0,.38,0,.76.08,1.14s.8.51.77,0A3,3,0,0,0,35.37,31c-.18-.45-.89-.28-.75.21l.3,1c.12.4.82.35.77-.1a20.15,20.15,0,0,0-2.08-5.9l-.67.39,2.56,5a.39.39,0,0,0,.71-.29,7.73,7.73,0,0,0-.77-1.71.39.39,0,0,0-.67.39l.76,1.55c.19.4.86.12.71-.29l-.91-2.5-.71.3c.35.74.72,1.45,1.14,2.15.21.36.87.12.71-.3A21.2,21.2,0,0,0,35.6,29l-.67.39c.37.63.73,1.68,1.36,2.08a.38.38,0,0,0,.58-.33v-.05a.39.39,0,0,0-.38-.39h0a.39.39,0,0,0-.33.58l-.2.5.44.57.45-.79a.41.41,0,0,0-.06-.47,36.9,36.9,0,0,1-3-5.1l-.67.39q1.77,2.77,3.5,5.56l.67-.39L37,31.17c-.28-.41-1,0-.67.39l.25.37c.28.41.94,0,.67-.39-1.15-1.86-2.32-3.72-3.5-5.56a.39.39,0,0,0-.67.39,37.68,37.68,0,0,0,3.16,5.25l-.06-.47-.45.8a.39.39,0,0,0,.44.57,1,1,0,0,0,.66-1.64l-.34.58h0l-.39-.38v.05l.58-.34c-.42-.27-.82-1.36-1.08-1.8a.39.39,0,0,0-.67.39,17.46,17.46,0,0,1,.79,1.76l.71-.3a22.09,22.09,0,0,1-1.14-2.15c-.18-.4-.86-.12-.71.3l.91,2.49.71-.3-.76-1.55-.67.39a6.71,6.71,0,0,1,.69,1.52l.71-.3-2.56-5c-.23-.45-.87-.05-.67.39a18.92,18.92,0,0,1,2,5.51l.76-.11-.3-1-.75.21a1.78,1.78,0,0,1,.2.88h.77c0-.38-.06-.76-.07-1.14l-.72.19.55,1.1c.19.39.84.12.71-.3a27.35,27.35,0,0,0-2.62-5.78.39.39,0,0,0-.67.39Z"/><path class="cls-4" d="M16.84,34.7a1.13,1.13,0,0,0,1,.93c1,.18.49-.28-1.45-1.38-.31-.29-.88.09-.61.47.72,1,1.42,2.39,2.23,3.27s1.77,1.64.4-.38c-1.17-1.74-1.61-1.29.37,1.42.83,1.13,1.61,2.29,2.38,3.46.27.42.94,0,.67-.39S19.14,37.43,19,37.46c-1,.27,1.91,4,2.38,4.41,2.79,2.53.74-.15-.21-1.59-.7-1.06-2.75-4.61-1.38-1.22A55.92,55.92,0,0,0,23.1,44c1.26-.35-2.07-4.44-2.24-4.43-1.48.09,1.36,3.1,1.84,3.8s3.5,5.94,2.07,2.15c-.48-1.28-3.22-4.06-1.22-1,.23,1.31.68,1.62,1.36.91l-1.76-2.54c-1.1-1.61-4-4.64-.58,0,.29.38,3.16,4.87,3.21,4.85,1.13-.39-1.88-4-2.3-4.64-.59-.94-1.18-1.87-1.76-2.81-1.07-.12-1,.27.08,1.16.47,1.25,2.56,3.88,1.13.64-.73-1.66-2.43-3.33-3.5-4.8-.29-.39-.95,0-.67.39l3.95,6c3.56,5.41.26-1.89-.8-1.22-.45.28,2.51,4.4,3,5,2.61,3,.06-1.28-.73-2.51a.39.39,0,0,0-.67.39c1.12,2.1,2.31,4.14,3.59,6.14a.39.39,0,0,0,.67-.39l-1.65-3q-1.25-.24-.3.6a33.54,33.54,0,0,0,2.79,4c.29.4.95,0,.67-.39s-3.83-5.32-3.63-5.58c-.71.93,2.12,3.4,2.91,4.34.28.33.87-.11.61-.47A38.48,38.48,0,0,0,25.92,46c-1.84-1.86-1.07-.71-.09.8a37.09,37.09,0,0,0,2.87,4.48c.82.9,2.37,1.92.47.52-.31-.24-.73.21-.53.53l2.1,3.24c.27.41.93,0,.67-.39a30.51,30.51,0,0,0-2.54-3.72c-.27-.34-.86.11-.61.47l2.64,3.75c.28.4.92.05.67-.39l-.06.54c.32.26.85-.07.61-.47-.69-1.12-1.66-3.33-2.72-3.61-.62-.17,1.73,3,2,3.4a.39.39,0,0,0,.67-.39,14.82,14.82,0,0,0-1.61-2.6c-.28-.41-.93-.05-.67.39a17.18,17.18,0,0,0,2.22,3c.29.32.88-.11.61-.47s-3.16-4.73-3.54-4.65C27,50.9,31.62,54,31.85,54.18c-.37-.34-.92.21-.55.55l.34.3c.31.28.89-.1.61-.47L28.2,49.3c-.3-.39-1,0-.67.39l2.22,2.91.88,1.16c.52.92.67.75.46-.51-.42,1.25,0,0,.2.46a24,24,0,0,0-2.36-3.27c-.28-.4-.95,0-.67.39a18.38,18.38,0,0,0,2.83,3.7.39.39,0,0,0-.61.47,1.06,1.06,0,0,0-.23-1.55c-.62-1.08-.7-.79-.25.89l.71-.2q-1.2-2.1-.33-.16c.29.33.84-.1.6-.47q-3.21-5.17-6.57-10.24c-.23-.35-.87-.14-.71.3a19.22,19.22,0,0,0,2.78,4.55c.32.44,1.32,2.57,1.54,1,.1-.69-2.93-3.47-3.32-3.94s-.85.1-.61.47c.56.85,3.3,5.78,4,5.51s-2.28-3.88-2.8-4.62c-.28-.4-.92,0-.67.39.38.69,1.31,3.22,2,3s-.73-2-1.1-2.49c-2.32-3.09.22,1.36.93,2.46.27.41.94,0,.67-.4-1.81-2.87-3.72-5.65-5.74-8.38-.29-.39-1,0-.67.39,1.33,1.93,2.73,3.79,4.22,5.6.28.34.85-.1.61-.47l-2.64-4c-.3-.46-2.13-3.85-2.63-4-1.69-.51,1,2.54,1.08,2.65L24,44.86c.29.4.94,0,.67-.39a63.2,63.2,0,0,0-3.83-5.62c-.29-.39-.93-.05-.67.39q3,5,6.32,9.74a.39.39,0,0,0,.67-.39A64.36,64.36,0,0,0,20.47,39c-.28-.33-.86.11-.61.47l5.25,7.62c.28.4.93,0,.67-.39-1-1.73-2.1-3.41-3.25-5.06a.39.39,0,0,0-.67.39,45.09,45.09,0,0,0,4.06,6.33c.27.34.84-.11.61-.47C24.48,44.56,22.3,41.34,20,38.2c-.29-.4-.95,0-.67.39,1.48,2.25,3,4.46,4.59,6.64.28.39.94,0,.67-.4q-2.77-4.36-5.77-8.57a.39.39,0,0,0-.67.39,67.31,67.31,0,0,0,5.15,7.83c.29.38,1,0,.67-.4l-5.57-7.81a.39.39,0,0,0-.67.39,19.06,19.06,0,0,0,2,3.54c.63.67,1.47,1.86,1,.15s-2.79-3.8-3.85-5.11c-.28-.34-.86.11-.61.47l3.09,4.59a.39.39,0,0,0,.67-.39c-.82-1.56-1.9-3-2.73-4.52-.54,0-.69.11-.45.25a10,10,0,0,0,1.94,1.27.39.39,0,0,0,.47-.61l-2.11-2.53a.39.39,0,0,0-.47-.06c-.5.36-.5.37-.58,1s.71.49.77,0Z"/><path class="cls-4" d="M13.36,38.12l.09-.34H12.11l2.31,3.65,1.22-.94A4.78,4.78,0,0,1,13.71,38l-1.34.78q4.71,6.42,9.17,13A.78.78,0,0,0,22.88,51c-1.57-3.65-4.17-6.83-6.42-10.09a.78.78,0,0,0-1.34.79c2.23,3.9,4.58,7.73,7.12,11.44,1.44,2.09,2.8,5.19,5.38,6,.6.18,1.28-.58.87-1.14l-6.6-9.11c-.59-.8-1.93,0-1.34.78l6.6,9.12L28,57.6c-2.64-.8-5.22-6.35-6.65-8.55-1.72-2.67-3.35-5.39-4.92-8.15l-1.34.79c2.26,3.25,4.85,6.43,6.42,10.09L22.88,51q-4.47-6.57-9.17-13a.78.78,0,0,0-1.34.78,7.29,7.29,0,0,0,2.17,2.79c.64.53,1.73-.14,1.22-.94L13.45,37a.79.79,0,0,0-1.34,0,1.24,1.24,0,0,0-.3,1.13c.09,1,1.64,1,1.55,0Z"/><path class="cls-4" d="M8.08,41.09l7.45,11.56c.59.91,2.24.35,1.84-.78a19.29,19.29,0,0,0-3.1-5.64c-.72-.91-2.16.26-1.59,1.23,1.48,2.46,2.86,5.06,4.55,7.4s3.92,4.31,5.46,7c.67,1.15,2.26.14,1.74-1-1.42-3.18-4.59-5.08-5.91-8.29-.49-1.18-2.44-.66-1.94.54,1.4,3.42,4.62,5.43,6.11,8.76l1.74-1c-1.47-2.54-3.35-4.33-5.15-6.61a73.71,73.71,0,0,1-4.86-7.76l-1.58,1.22a15.43,15.43,0,0,1,2.59,4.74l1.84-.77L9.83,40.07c-.7-1.08-2.45-.07-1.75,1Z"/><path class="cls-4" d="M17.85,51.85l-.4-.43c-.89-1-2.32.48-1.43,1.43l.4.42c.89.95,2.31-.48,1.43-1.42Z"/><path class="cls-4" d="M4.49,44.64c1.47.54,3.21,4.28,4.08,5.57.72,1.07,2.46.08,1.74-1a48.45,48.45,0,0,0-4.53-5.86c-.76-.83-2.24.28-1.59,1.23l7,10.18c.72,1.06,2.43.1,1.74-1L10.64,50,8.9,51a175.85,175.85,0,0,0,10.51,14.6c.63.8,2-.06,1.69-1a5.18,5.18,0,0,0-1.3-2.27c-.83-1-2.25.43-1.42,1.42l.78,1.39,1.68-1A171.64,171.64,0,0,1,10.64,50c-.69-1.09-2.43-.08-1.74,1l2.33,3.72,1.74-1-7-10.19L4.35,44.77a46.26,46.26,0,0,1,4.22,5.44l1.74-1C8.87,47.06,7.58,43.63,5,42.69c-1.22-.45-1.75,1.5-.54,2Z"/><path class="cls-4" d="M40.2,16.87a7.7,7.7,0,0,1,1.9,2.89l1.58-1.22-2.74-3.38c-.71-.88-2.28.31-1.58,1.22q5.47,7.2,11,14.38A43.92,43.92,0,0,1,54,36.28c.71,1.31.69,1.6,2,2.1a1,1,0,0,0,1.14-1.48,43.68,43.68,0,0,0-5-6.23c-.9-.94-2.33.49-1.43,1.43a41.43,41.43,0,0,1,4.64,5.82l1.13-1.48c-.94-.36-1.84-3.1-2.41-3.95C52.83,30.6,51.36,28.82,50,27L41.1,15.36l-1.58,1.23L42.25,20c.77.95,2-.26,1.59-1.22a12.34,12.34,0,0,0-2.21-3.29c-.88-1-2.3.46-1.43,1.42Z"/><path class="cls-4" d="M44.12,13.72l1,1.43,1.38-1.37-.77-.47c-.8-.49-2,.55-1.37,1.38q4.53,6,8.82,12.15c1.73,2.5,3.52,7.15,6.34,8.51.83.4,2-.47,1.38-1.38l-1.13-1.65c-.73-1.06-2.48,0-1.74,1L59.12,35l1.38-1.38c-1.66-.8-3.25-4.32-4.28-5.83s-2.09-3.05-3.15-4.55q-3.42-4.85-7-9.56l-1.38,1.38.76.47a1,1,0,0,0,1.38-1.38,7.33,7.33,0,0,0-1.27-1.85c-.84-1-2.26.44-1.43,1.43Z"/><path class="cls-4" d="M47.77,10.76c3.28,4.22,6.46,8.52,9.49,12.92,2,2.91,3.65,6.21,6.5,8.38,1,.79,2-1,1-1.74-3.52-2.69-5.89-7.9-8.45-11.47-2.3-3.22-4.69-6.39-7.13-9.51-.8-1-2.21.41-1.42,1.42Z"/><path class="cls-4" d="M51.83,7.59,67.12,28.93c.75,1,2.5,0,1.74-1L53.57,6.57c-.75-1-2.5,0-1.74,1Z"/><path class="cls-2" d="M37.24,34.67l.14.1c.73.53,1.42-.68.7-1.2l-.13-.1c-.73-.53-1.43.68-.71,1.2Z"/><path class="cls-2" d="M51,26.25l0,.08c-.39.8.81,1.51,1.21.7l0-.08c.39-.8-.81-1.51-1.2-.7Z"/><path class="cls-2" d="M61.83,15.33v0a.72.72,0,0,0-.68.51c-.21.67.5,1.14,1.06,1.26a4,4,0,0,0,2.17-.19c.84-.31.48-1.66-.37-1.35a2.91,2.91,0,0,1-1,.21,1.68,1.68,0,0,1-.45,0c-.07,0-.21-.09-.18,0l.07.54,0-.05-.67.51a1.24,1.24,0,0,0,.37-.06.72.72,0,0,0,.48-.86.7.7,0,0,0-.86-.49Z"/><path class="cls-2" d="M10.88,56.92l0,0-.68.18h0L10,55.9h1a.72.72,0,0,0-1,0,.69.69,0,0,0,0,1h0a.72.72,0,0,0,1,0h0a.71.71,0,0,0-.31-1.17h0a.73.73,0,0,0-.68.18l0,0c-.56.69.43,1.69,1,1Z"/><path class="cls-1" d="M34.19,35.22a22.08,22.08,0,0,0,2.29,3.3c.57.7,1.56-.29,1-1a20,20,0,0,1-2.07-3,.7.7,0,0,0-1.21.71Z"/><path class="cls-1" d="M39.59,48h0c.82-.37.11-1.58-.7-1.21a1.47,1.47,0,0,0-.67.82c-.34.84,1,1.2,1.34.38Z"/><path class="cls-3" d="M22.42,11.26a.85.85,0,0,0-.51.4.69.69,0,0,0,1.2.7l0,0-.42.32.06,0c.86-.27.49-1.62-.37-1.35Z"/><path class="cls-3" d="M35.26,34.18a2.6,2.6,0,0,1,.27.38c.48.76,1.69.06,1.21-.7a5.56,5.56,0,0,0-.5-.67c-.58-.68-1.57.31-1,1Z"/><path class="cls-3" d="M35,34a2.33,2.33,0,0,0,.57.75c.67.59,1.66-.39,1-1a1.44,1.44,0,0,1-.35-.46c-.39-.81-1.59-.1-1.2.7Z"/><path class="cls-3" d="M43,38.35l-.06-.11c-.39-.65-1.57-.21-1.28.54l.67,1.67a4.71,4.71,0,0,1,.55,1.66l.2-.49,0,0h1v0c-.63-.64-1.62.35-1,1v0a.73.73,0,0,0,1,0c.53-.42.13-1.31-.05-1.78l-1-2.45L41.69,39l.07.11a.7.7,0,0,0,1.2-.71Z"/><path class="cls-3" d="M40.63,39.89a10.38,10.38,0,0,1,.95,3.41c.1.88,1.49.89,1.4,0a12.9,12.9,0,0,0-1.14-4.12c-.39-.81-1.59-.1-1.21.71Z"/><path class="cls-3" d="M46.33,40.71a4.61,4.61,0,0,0,.6,1.39l.78,1.53c.4.8,1.61.09,1.2-.71l-.64-1.25L48,41.13c0-.07-.31-.73-.28-.42A.71.71,0,0,0,47,40a.7.7,0,0,0-.7.7Z"/><path class="cls-3" d="M49.65,40.92l0-.09-1.16.68a15.73,15.73,0,0,1,1.95,3.26c.44.79,1.64.08,1.21-.7a17.18,17.18,0,0,0-2.18-3.55.7.7,0,0,0-1.16.68l0,.09c.3.85,1.65.48,1.35-.37Z"/><path class="cls-3" d="M48.59,46.19A3.84,3.84,0,0,1,48,47.68c-.42.79.78,1.5,1.2.71a5.39,5.39,0,0,0,.75-2.2c.06-.89-1.34-.89-1.4,0Z"/><path class="cls-1" d="M45.7,43.4l0,0,.17.65,0-.07-.31.4c-.3,0-.34,0-.14.15.7.51,1.38-.66.68-1.16a1.12,1.12,0,0,0-1.22-.15.75.75,0,0,0-.11,1.17c.58.65,1.53-.31,1-1Z"/><path class="cls-3" d="M33.07,28.28a7.39,7.39,0,0,1,.49,5.82c-.18.46.56.66.75.2a8.23,8.23,0,0,0-.57-6.42c-.21-.45-.87-.06-.67.4Z"/><path class="cls-3" d="M34.5,31.73,34.21,33a.39.39,0,0,0,.75.21l.24-.79c.15-.48-.6-.68-.75-.21l-.24.79.75.21.29-1.22c.11-.49-.64-.7-.75-.21Z"/><path class="cls-3" d="M32.36,26.84c.93,2,1.94,4.76,1.12,7-.17.47.57.67.75.2.89-2.42-.19-5.35-1.2-7.57-.21-.46-.88-.06-.67.39Z"/><path class="cls-1" d="M39.52,46.88a.81.81,0,0,1,.19-.29l-.36,0,0,.15.06,0c.09,0,0-.18,0-.15l-.07,0c-.07,0-.07.16,0,.16s.55,0,.69-.13a.11.11,0,0,0,0-.08c-.2-.3-.7,0-.68.32,0,.1.16.1.16,0Z"/><path class="cls-1" d="M39.53,46.55h-.06l.09.12.16-.18-.1-.12-.4.5a.08.08,0,0,0,.11.11l.66-.54-.11-.11-.36.29c-.08.07,0,.18.11.11a2.65,2.65,0,0,1,.5-.32L40,46.3a4.91,4.91,0,0,1-.51.39l.1.12a1.64,1.64,0,0,1,.35-.29l-.09-.12-.63.53c-.07.06,0,.17.11.11l.63-.53c.07,0,0-.17-.1-.12a2.24,2.24,0,0,0-.38.31.08.08,0,0,0,.09.12,4.26,4.26,0,0,0,.54-.41c.07-.07,0-.16-.09-.13a3.24,3.24,0,0,0-.53.35l.11.11.36-.29c.07-.07,0-.17-.11-.11l-.66.54.11.11.4-.5c.05-.07,0-.18-.09-.13a.64.64,0,0,0-.22.24.08.08,0,0,0,.09.11h.06a.08.08,0,1,0,0-.15Z"/><path class="cls-3" d="M20.57,10.48a12.56,12.56,0,0,1-.35,3.86c0,.09.13.14.15,0a12.51,12.51,0,0,0,.35-3.9c0-.1-.16-.1-.15,0Z"/><path class="cls-3" d="M28.24,23.43A8.45,8.45,0,0,1,29,25.71c0,.1.16.06.15,0a8.25,8.25,0,0,0-.81-2.31c0-.09-.17,0-.13.07Z"/><path class="cls-3" d="M33.67,33.43a3.13,3.13,0,0,1-.62,1.15c-.06.08,0,.19.11.11a3.53,3.53,0,0,0,.66-1.22c0-.1-.13-.14-.15,0Z"/><path class="cls-3" d="M33.65,33.42,33,34.84c-.05.09.08.17.13.08l.69-1.43c0-.09-.09-.16-.13-.07Z"/><path class="cls-3" d="M41,40.73a8.6,8.6,0,0,1,.66,2.38c0,.1.16.1.15,0a9,9,0,0,0-.66-2.42c0-.09-.18,0-.15,0Z"/><path class="cls-3" d="M41.51,42.46a8.05,8.05,0,0,1,0,1.7c0,.1.14.1.15,0a7.44,7.44,0,0,0,0-1.7c0-.09-.16-.1-.15,0Z"/></g><g id="Layer_7" data-name="Layer 7"><path class="cls-5" d="M11.63,15.55l4.09-.32c.89-.07.9-1.46,0-1.39l-4.09.31c-.89.07-.9,1.47,0,1.4Z"/><path class="cls-5" d="M14.51,20.35a1.41,1.41,0,0,0,1.57-.9A12.63,12.63,0,0,0,17,17.13c.26-.86-1.09-1.23-1.35-.37a9.43,9.43,0,0,1-.48,1.35c-.08.19-.17.37-.26.55a2.28,2.28,0,0,1-.17.3c-.13.12-.09.13.13,0-.87-.2-1.25,1.14-.37,1.35Z"/><path class="cls-5" d="M23.64,9.47a22.7,22.7,0,0,1,.72-3.37A.7.7,0,0,0,23,5.72a24,24,0,0,0-.77,3.75c-.11.89,1.28.88,1.39,0Z"/><path class="cls-5" d="M24.13,11.81a7.26,7.26,0,0,0,3.17-.38c.84-.3.48-1.65-.37-1.35a6.21,6.21,0,0,1-2.8.34c-.89-.1-.89,1.3,0,1.39Z"/><path class="cls-5" d="M49.36,41.87a12.59,12.59,0,0,1,1.52,2l.95-1A9.93,9.93,0,0,1,50,41c-.49-.61-1.56.2-1.1.85l2.14,3c.51.73,1.72,0,1.2-.7l-2.13-3L49,42a11.76,11.76,0,0,0,2.17,2.06c.57.42,1.31-.4.95-1a14.31,14.31,0,0,0-1.73-2.23c-.62-.66-1.6.33-1,1Z"/><path class="cls-5" d="M36.75,50.84a31.41,31.41,0,0,1,2.12,2.75L40,52.74a14.59,14.59,0,0,1-1.62-2.68c-.38-.81-1.58-.11-1.2.7a15.65,15.65,0,0,0,1.84,3c.48.62,1.54-.2,1.09-.85a34.16,34.16,0,0,0-2.33-3c-.59-.68-1.58.31-1,1Z"/><path class="cls-5" d="M34.83,35.37a12.45,12.45,0,0,1,3.05,3.83l.61-1.05c-.26,0-1.07-1.65-1.23-1.91L36,34.16a.7.7,0,0,0-1.3.36v.29a.7.7,0,0,0,1.4,0v-.29l-1.31.35L36.68,38c.42.7.85,1.67,1.81,1.57a.71.71,0,0,0,.6-1,13.64,13.64,0,0,0-3.27-4.12c-.68-.57-1.68.41-1,1Z"/><path class="cls-5" d="M28.75,26.61l.4.63c.49.75,1.7.05,1.21-.71L30,25.91c-.49-.75-1.7-.05-1.2.7Z"/><path class="cls-5" d="M20.64,15.62a5.84,5.84,0,0,1,.93.93l1-1-.1-.11c-.58-.69-1.56.3-1,1l.1.12a.71.71,0,0,0,1,0,.73.73,0,0,0,0-1,6.81,6.81,0,0,0-.93-.93.73.73,0,0,0-1,0,.71.71,0,0,0,0,1Z"/><path class="cls-5" d="M20.55,15.8l1.32,1.58c.57.69,1.56-.3,1-1l-1.32-1.58c-.57-.69-1.56.3-1,1Z"/><path class="cls-6" d="M23.48,9.67a24.69,24.69,0,0,1,.67-3.12L23.83,7l.07,0-.84-.11,0,0-.18-.68v0l.67-.51h0a.7.7,0,0,0,0,1.4h0a.72.72,0,0,0,.68-.52A.8.8,0,0,0,24,5.82a.71.71,0,0,0-.84-.11c-.5.33-.51,1-.62,1.49l-.44,2.1c-.19.87,1.16,1.25,1.34.37Z"/><path class="cls-6" d="M24.31,12.12l2.89-.88a.7.7,0,0,0-.37-1.34l-2.89.88a.7.7,0,0,0,.37,1.34Z"/><path class="cls-6" d="M26.4,11.13v.11a.7.7,0,0,0,1.4,0v-.11a.7.7,0,0,0-1.4,0Z"/><path class="cls-6" d="M21.21,15.07l1.11,1.71c.49.75,1.7.06,1.21-.7l-1.11-1.71c-.49-.76-1.7-.06-1.21.7Z"/><path class="cls-6" d="M29.36,26.2l.29.53c.44.78,1.64.08,1.2-.71l-.29-.53c-.44-.78-1.64-.08-1.2.71Z"/><path class="cls-6" d="M35.14,34.5,39,39.56c.54.71,1.75,0,1.21-.7L36.35,33.8c-.54-.71-1.75,0-1.21.7Z"/><path class="cls-6" d="M50,42l0-.09-.41.32c-.41-.2-.52-.17-.34.1l.18.36a6.12,6.12,0,0,0,.43.69,8,8,0,0,0,1,1.21A.7.7,0,0,0,52,43.71c-.51-1.09-1.07-2.15-1.67-3.2a.7.7,0,0,0-1.21.71c.6,1,1.16,2.1,1.68,3.19l1.09-.84a9,9,0,0,1-1.51-2.17c-.33-.6-1.24-.93-1.61-.15s.81,1.52,1.2.71Z"/><path class="cls-5" d="M37.52,39.24l-.05,0c-.63.65.35,1.63,1,1l0-.05c.63-.64-.35-1.63-1-1Z"/><path class="cls-5" d="M38.41,49.83l-.08,0a.7.7,0,0,0-.7,1.2l.08.05a.69.69,0,0,0,.7-1.2Z"/><path class="cls-5" d="M37.37,50.66l0,0c.63.64,1.62-.35,1-1l0,0c-.63-.64-1.62.35-1,1Z"/><path class="cls-5" d="M40.61,53V53a.7.7,0,0,0-1.4,0V53a.7.7,0,0,0,1.4,0Z"/><path class="cls-5" d="M39.14,52.77h0a.7.7,0,0,0,0-1.4h0a.7.7,0,0,0,0,1.4Z"/><path class="cls-5" d="M34.45,35.56h0a.7.7,0,0,0,0-1.4h0a.7.7,0,0,0,0,1.4Z"/><path class="cls-5" d="M28.35,27.55c.08.09.28.45.24.12a.72.72,0,0,0,.69.7c.34,0,.75-.33.7-.7a2,2,0,0,0-.64-1.11c-.59-.68-1.57.31-1,1Z"/><path class="cls-5" d="M16,20.39l.2-.27a.69.69,0,0,0-.25-.95.71.71,0,0,0-1,.25l-.21.27a.7.7,0,0,0,1.21.7Z"/><path class="cls-5" d="M11.25,15.66a8,8,0,0,0,3.7,0,.7.7,0,0,0-.37-1.34,6.57,6.57,0,0,1-3,0c-.88-.15-1.26,1.2-.37,1.34Z"/><path class="cls-6" d="M24.33,6.44h0l-1-.42s-.05,0,0,.09c-.2.87,1.15,1.25,1.35.37a1.47,1.47,0,0,0,0-.83.71.71,0,0,0-1-.42l0,0c-.8.42-.09,1.62.7,1.2Z"/><path class="cls-6" d="M26.75,10.59l0,.52c.06.89,1.45.9,1.4,0l0-.52c0-.9-1.45-.9-1.4,0Z"/><path class="cls-6" d="M21.06,14.7a3.3,3.3,0,0,0,.69,1.22c.29.43.61.85.94,1.25a.69.69,0,0,0,1,0,.69.69,0,0,0,0-1c-.25-.32-.49-.64-.72-1a3.2,3.2,0,0,1-.55-.89.71.71,0,0,0-.86-.49.72.72,0,0,0-.48.86Z"/><path class="cls-6" d="M29.3,26.22c.42.46.65,1.29,1.31,1.48a.71.71,0,0,0,.68-.18v0c.58-.68-.4-1.67-1-1h0l.68-.18c.28.08.13,0,0-.12a3.45,3.45,0,0,1-.2-.32,4.76,4.76,0,0,0-.5-.68c-.6-.67-1.59.32-1,1Z"/></g><g id="Layer_8" data-name="Layer 8"><path class="cls-7" d="M4.15,44.16,12.4,55.82c2.18,3.07,4.17,6.49,6.87,9.14a.7.7,0,0,0,1.1-.85,101.34,101.34,0,0,0-7-10.37c-2.64-3.44-6.9-6.85-8.28-11L4,43.42a57.31,57.31,0,0,1,5,7.06c.47.76,1.68.06,1.21-.71A61.29,61.29,0,0,0,5,42.43a.71.71,0,0,0-1.17.68c1.15,3.45,3.88,5.8,6.17,8.53a97.5,97.5,0,0,1,9.2,13.18l1.1-.85c-3-2.93-5.21-6.82-7.62-10.23L5.35,43.46c-.51-.73-1.73,0-1.2.7Z"/><path class="cls-7" d="M8.06,41.16l3.65,4.94c.53.71,1.74,0,1.21-.7-1.24-1.72-2.44-3.45-3.6-5.21-.5-.75-1.7,0-1.21.7l8,12.21a.7.7,0,0,0,1.2-.7l-3.93-6.81-1.2.71q3.24,5.18,6.75,10.16c.52.73,1.72,0,1.21-.7L16.22,50l-1.2.7L20.42,58l1.21-.7-4.46-5.88-1.1.85a92.41,92.41,0,0,1,6.17,8.06l1.09-.85L20.9,56.84c-.55-.6-1.47.16-1.1.84a15.5,15.5,0,0,0,3.52,4.4c.56.49,1.57-.15,1.1-.85Q16.89,50.18,8.57,39.69c-.56-.7-1.54.29-1,1Q15.8,51,23.21,61.94l1.1-.85A14.76,14.76,0,0,1,21,57l-1.1.84,2.43,2.62c.54.57,1.55-.18,1.1-.84a94,94,0,0,0-6.38-8.35c-.51-.59-1.58.21-1.1.85L20.42,58c.54.71,1.75,0,1.21-.7L16.22,50c-.53-.71-1.72,0-1.2.7l3.9,5.72,1.21-.7q-3.52-5-6.76-10.17a.7.7,0,0,0-1.2.71l3.93,6.8,1.2-.7-8-12.21-1.21.7c1.17,1.77,2.37,3.5,3.6,5.21l1.21-.7L9.26,40.46c-.52-.72-1.74,0-1.2.7Z"/><path class="cls-7" d="M12.29,37.88,13.78,40l1.09-.84A10.36,10.36,0,0,1,13,36.87l-1.1.85c2.61,3,5.06,6,7.38,9.24l1-1a23.31,23.31,0,0,1-5.23-6L14,40.85a98.53,98.53,0,0,1,7.86,11l1.2-.7a55.52,55.52,0,0,1-3.47-5.39l-1.2.71,7.11,10.23c.51.73,1.72,0,1.21-.7l-3-4.39-1.1.85a60.2,60.2,0,0,1,4.73,6.3l1.1-.84-1.48-2c-.33-.82-1.68-.46-1.34.37a6,6,0,0,0,1.83,2.57c.57.48,1.56-.13,1.1-.84a63.67,63.67,0,0,0-5-6.59c-.51-.59-1.55.19-1.1.85l3,4.38,1.21-.7L19.55,45.72a.7.7,0,0,0-1.2.71,52.44,52.44,0,0,0,3.47,5.38c.51.71,1.68.08,1.2-.7A101.53,101.53,0,0,0,15,39.86c-.51-.61-1.54.19-1.1.85a25.25,25.25,0,0,0,5.72,6.5c.56.42,1.36-.4,1-1-2.39-3.3-4.91-6.47-7.6-9.53a.7.7,0,0,0-1.09.84,16.34,16.34,0,0,0,2,2.57A.7.7,0,0,0,15,39.3a14.43,14.43,0,0,0-1.71-2.41c-.56-.69-1.54.3-1,1Z"/><path class="cls-7" d="M17.5,34l-.17-.14a.73.73,0,0,0-.85-.11l-.21.14a.7.7,0,0,0-.32.79c.84,2.46,3.43,4.93,5,7l1.1-.85a36.94,36.94,0,0,1-4-5.94l-1.2.7,8.09,11.53L26,46.22c-1.37-1.74-2.67-3.51-3.93-5.34l-1.2.71L31.06,55.71c.52.72,1.68.08,1.21-.7a18.64,18.64,0,0,0-2.13-2.86l-1,1a13.3,13.3,0,0,1,2,2.24c.53.69,1.7.07,1.21-.71a56,56,0,0,0-5.6-7.41c-.6-.68-1.58.31-1,1a54.84,54.84,0,0,1,5.37,7.14l1.21-.71a21.18,21.18,0,0,0-2.22-2.52.7.7,0,0,0-1,1,11.37,11.37,0,0,1,1.91,2.57l1.21-.7L22.08,40.88c-.51-.72-1.72,0-1.2.71,1.32,1.92,2.71,3.79,4.15,5.62.48.62,1.55-.2,1.09-.84L18,34.84a.69.69,0,0,0-1.2.7A39.08,39.08,0,0,0,21,41.77c.5.6,1.57-.21,1.09-.85l-2.36-3.14C18.62,36.26,18,36.19,16.51,35c.69.56,1.68-.42,1-1Z"/><path class="cls-7" d="M40.34,16.45l2.8,3.93,1.09-.84-3.31-3.85c-.51-.59-1.58.21-1.1.85q3.84,5.07,8.09,9.8l1-1a23.48,23.48,0,0,1-5.8-6.48l-1.21.71A87.55,87.55,0,0,0,51,31.48l1-1-4.26-4.31-1,1,3.1,3c.64.62,1.63-.36,1-1l-3.1-3a.7.7,0,0,0-1,1L51,31.48c.64.65,1.59-.32,1-1a85.53,85.53,0,0,1-8.88-11.63c-.49-.75-1.68-.06-1.21.71a24.48,24.48,0,0,0,6,6.76.7.7,0,0,0,1-1Q44.75,20.76,41,15.84l-1.1.84,3.31,3.85c.52.59,1.56-.2,1.1-.85l-2.79-3.94c-.52-.73-1.73,0-1.21.71Z"/><path class="cls-7" d="M51.5,31.67a20.17,20.17,0,0,0,1.27,1.8l.84-1.1A5.86,5.86,0,0,1,52.14,31l-1,1a15.41,15.41,0,0,1,4.22,5.57l1.09-.85A31.45,31.45,0,0,1,52.93,32c-.49-.75-1.7,0-1.21.71a34.67,34.67,0,0,0,3.76,5c.58.61,1.4-.17,1.09-.85A16.32,16.32,0,0,0,52.14,31a.7.7,0,0,0-1,1,7.1,7.1,0,0,0,1.76,1.56c.72.46,1.29-.52.84-1.1a15.69,15.69,0,0,1-1-1.52c-.47-.76-1.68-.06-1.21.71Z"/><path class="cls-7" d="M44.4,13.65l5.24,7.94,1.2-.71q-2.9-4.08-5.39-8.39a.7.7,0,0,0-1.3.35c.06,1.94,1.4,3.24,2.5,4.79l5.69,8.07a.69.69,0,0,0,1.2-.7,30.46,30.46,0,0,0-2-3.56l-1.1.84c2.17,2.77,4.21,5.6,6.17,8.51L57.68,30l-3.23-3.52c-.62-.68-1.54.3-1,1l5.94,7.41c.56.7,1.54-.29,1-1l-5.93-7.41-1,1,3.24,3.52c.53.58,1.54-.18,1.09-.84q-3-4.52-6.38-8.79c-.49-.63-1.53.18-1.09.84a30.46,30.46,0,0,1,2,3.56l1.2-.7-4.27-6.06c-1.12-1.6-3.66-4.07-3.73-6.1l-1.3.35c1.68,2.89,3.47,5.67,5.4,8.4.51.72,1.71.05,1.2-.71l-5.23-7.94c-.5-.75-1.71,0-1.21.71Z"/><path class="cls-7" d="M48.07,10.27l5.79,7.82,1.1-.84a32.65,32.65,0,0,1-4.81-6.91l-1.21.71a101.76,101.76,0,0,0,7.85,10.39l1-1a48.56,48.56,0,0,1-3.89-4.34c-.5-.64-1.48.17-1.1.84a50.07,50.07,0,0,0,6,8.26c.52.59,1.55-.19,1.09-.85L57,20.18,55.9,21a61.92,61.92,0,0,1,4.91,6.39l1.1-.84-1.84-1.92c-.53-.56-1.56.19-1.09.85q2.24,3.14,4.21,6.43a.7.7,0,0,0,1.27-.53l-.21-1.06-1,.78.62.37a.7.7,0,0,0,.7-1.21l-.62-.36a.7.7,0,0,0-1,.79l.21,1.06,1.27-.54C63.07,29,61.68,26.9,60.18,24.8l-1.09.85,1.83,1.92c.54.56,1.54-.18,1.1-.85A65.13,65.13,0,0,0,56.88,20c-.51-.59-1.54.19-1.09.85l2.87,4.18,1.1-.85a47.93,47.93,0,0,1-5.76-8l-1.1.84a48.68,48.68,0,0,0,3.89,4.35c.65.64,1.57-.31,1-1a96.28,96.28,0,0,1-7.63-10.11.7.7,0,0,0-1.21.71,34,34,0,0,0,5,7.18c.52.58,1.57-.2,1.1-.84l-5.8-7.82c-.53-.72-1.74,0-1.2.7Z"/><path class="cls-7" d="M52.51,7.09l.13.77,1-.78L53,6.66c-.72-.45-1.3.51-.84,1.09l4.52,5.76,1-1a7.35,7.35,0,0,1-2.48-3l-1.1.85c1.55,2,3,4,4.44,6.08l1-1A6.18,6.18,0,0,1,57,12.5l-1.1.84,7.24,8.6c.58.69,1.55-.3,1-1l-1.74-2.12c-.43-.53-1.43,0-1.16.68a16.29,16.29,0,0,0,1.55,2.95l1.2-.71-.43-.58c-.52-.7-1.69-.08-1.21.71a52.69,52.69,0,0,0,5.09,7c.52.61,1.5-.17,1.09-.84a97.7,97.7,0,0,0-6-8.84c-.54-.7-1.75,0-1.2.71a100.34,100.34,0,0,1,6,8.83l1.1-.85a49.92,49.92,0,0,1-4.87-6.69l-1.21.71.44.58c.52.7,1.71.06,1.2-.71a10.62,10.62,0,0,1-1.41-2.61l-1.16.67,1.73,2.13,1-1-7.24-8.59c-.54-.64-1.44.17-1.1.84a8.94,8.94,0,0,0,3,3.46c.56.41,1.34-.39,1-1-1.48-2.17-3-4.28-4.65-6.36-.5-.64-1.47.18-1.1.85a11,11,0,0,0,2.71,3.32.69.69,0,0,0,1-1L53.13,6.77l-.85,1.09.68.42c.56.35,1.11-.22,1-.79l-.12-.77c-.15-.88-1.49-.51-1.35.37Z"/><path class="cls-7" d="M47.68,26.19a9.12,9.12,0,0,0,1.47,3l1.94,3.3a.7.7,0,0,0,1.2-.71l-1.7-2.89A9.59,9.59,0,0,1,49,25.82c-.14-.89-1.48-.51-1.35.37Z"/><path class="cls-7" d="M44.42,14.1a.7.7,0,0,0,0-1.4.7.7,0,0,0,0,1.4Z"/><path class="cls-7" d="M52.68,26.18a5.19,5.19,0,0,0,.83,1.19c.61.66,1.6-.33,1-1a3.3,3.3,0,0,1-.61-.91c-.4-.8-1.61-.09-1.21.71Z"/><path class="cls-7" d="M57,30.71l2.51,3.93c.48.75,1.69,0,1.2-.71L58.2,30c-.49-.75-1.7-.05-1.21.71Z"/><path class="cls-7" d="M47.64,11a114.57,114.57,0,0,1,7.72,9.63c1.64,2.49,3,5.08,5.14,7.18.64.62,1.63-.37,1-1-2.61-2.53-4-5.88-6.23-8.74s-4.4-5.39-6.62-8.07c-.57-.69-1.55.3-1,1Z"/><path class="cls-7" d="M51.55,7.71c2.12,2.64,4.37,5.23,6.33,8,1.56,2.21,2.72,4.64,4.57,6.63.61.66,1.6-.32,1-1-2.1-2.26-3.41-5.15-5.27-7.6s-3.75-4.7-5.64-7c-.56-.7-1.54.29-1,1Z"/><path class="cls-7" d="M17.39,34.74l0-.07-1.19.91a1.18,1.18,0,0,1,.18.21l1.07-1.07h0l.1.38v0l-.75.75h0l-.38-.1-.14-.12c.46.85,1.76.09,1.3-.76a.92.92,0,0,0-.82-.53.79.79,0,0,0-.76.76,1,1,0,0,0,.34.7.76.76,0,0,0,1.07-1.07,1.71,1.71,0,0,0-.18-.2c-.62-.67-1.53.17-1.18.91l0,.07c.41.88,1.71.12,1.3-.76Z"/></g><g id="Layer_3" data-name="Layer 3"><polygon class="cls-8" points="38.17 40.65 33.72 34.55 35.72 33.04 40.17 39.14 38.17 40.65"/><polygon class="cls-8" points="3.07 43.52 19.39 65.89 21.39 64.38 5.06 42.01 3.07 43.52"/><polygon class="cls-8" points="7.06 40.5 23.38 62.87 25.38 61.36 9.06 38.99 7.06 40.5"/><polygon class="cls-8" points="11.06 37.48 27.38 59.85 29.38 58.34 13.05 35.97 11.06 37.48"/><polygon class="cls-8" points="15.05 34.46 31.37 56.83 33.37 55.32 17.05 32.95 15.05 34.46"/><line class="cls-8" x1="14.71" y1="55.23" x2="16.71" y2="53.72"/><line class="cls-8" x1="12.48" y1="52.18" x2="14.48" y2="50.67"/><line class="cls-8" x1="18.7" y1="52.21" x2="20.7" y2="50.7"/><line class="cls-8" x1="16.48" y1="49.16" x2="18.48" y2="47.65"/><line class="cls-8" x1="22.7" y1="49.19" x2="24.7" y2="47.68"/><line class="cls-8" x1="20.47" y1="46.14" x2="22.47" y2="44.63"/><line class="cls-8" x1="24.47" y1="43.12" x2="34.46" y2="35.57"/><line class="cls-8" x1="26.7" y1="46.17" x2="36.68" y2="38.62"/><polyline class="cls-8" points="10.48 53.69 6.49 56.71 8.71 59.76 12.71 56.74"/><polygon class="cls-8" points="53.01 5.77 69.33 28.14 67.33 29.65 51.01 7.28 53.01 5.77"/><polygon class="cls-8" points="49.02 8.79 65.34 31.16 63.34 32.67 47.02 10.3 49.02 8.79"/><polygon class="cls-8" points="45.02 11.81 61.34 34.18 59.34 35.69 43.02 13.32 45.02 11.81"/><polygon class="cls-8" points="41.02 14.83 57.35 37.2 55.35 38.71 39.03 16.34 41.02 14.83"/><line class="cls-8" x1="60.66" y1="20.5" x2="58.66" y2="22.01"/><line class="cls-8" x1="58.43" y1="17.45" x2="56.44" y2="18.96"/><line class="cls-8" x1="56.66" y1="23.52" x2="54.66" y2="25.03"/><line class="cls-8" x1="54.44" y1="20.47" x2="52.44" y2="21.98"/><line class="cls-8" x1="52.67" y1="26.54" x2="50.67" y2="28.05"/><line class="cls-8" x1="50.44" y1="23.49" x2="48.44" y2="25"/><line class="cls-8" x1="46.45" y1="26.51" x2="36.46" y2="34.06"/><line class="cls-8" x1="48.67" y1="29.56" x2="38.68" y2="37.11"/><polyline class="cls-8" points="60.43 15.94 64.43 12.92 66.65 15.97 62.66 18.99"/><polygon class="cls-8" points="37.14 47.74 47.13 40.19 51.58 46.29 41.59 53.84 37.14 47.74"/><polyline class="cls-8" points="33.72 34.55 31.72 36.06 27.27 29.96 33.26 25.43 37.71 31.53 35.72 33.04"/><polyline class="cls-8" points="40.17 39.14 42.16 37.63 45.13 41.7 39.14 46.23 36.17 42.16 38.17 40.65"/><polyline class="cls-8" points="47.87 41.21 49.87 39.7 52.84 43.76 50.84 45.27"/><polyline class="cls-8" points="37.88 48.76 35.88 50.27 38.85 54.33 40.85 52.82"/><line class="cls-8" x1="42.13" y1="43.96" x2="44.36" y2="47.01"/><line class="cls-8" x1="44.13" y1="42.45" x2="45.62" y2="44.49"/><line class="cls-8" x1="40.14" y1="45.47" x2="41.62" y2="47.51"/><polyline class="cls-8" points="29.27 28.45 27.78 26.42 29.78 24.91 31.26 26.94"/><polygon class="cls-8" points="21.85 18.29 19.62 15.24 21.62 13.73 23.84 16.78 21.85 18.29"/><polyline class="cls-8" points="29.78 24.91 30.78 24.16 24.84 16.02 20.85 19.04 26.78 27.18 27.78 26.42"/><polygon class="cls-8" points="17.62 16.75 15.4 13.7 21.39 9.17 23.62 12.22 17.62 16.75"/><polygon class="cls-8" points="19.65 8.91 20.39 9.92 16.4 12.94 15.65 11.93 19.65 8.91"/><polygon class="cls-8" points="21.69 9.57 22.88 11.2 25.09 5.74 23.1 4.72 21.69 9.57"/><polyline class="cls-8" points="22.88 11.2 27.61 9.2 28.1 11.99 23.62 12.22"/><polygon class="cls-8" points="15.69 14.11 16.88 15.73 11.11 16.31 10.72 14.08 15.69 14.11"/><polyline class="cls-8" points="16.88 15.73 13.63 19.77 16.11 21.05 17.62 16.75"/></g></svg>